<svg xmlns="http://www.w3.org/2000/svg" xmlns:xlink="http://www.w3.org/1999/xlink" viewBox="0 0 545 450"><defs><style>.cls-1{fill:none;}.cls-2{clip-path:url(#clip-path);}.cls-3{clip-path:url(#clip-path-2);}.cls-4{fill:#9fc199;}.cls-5{fill:#b4d1b0;}.cls-6{fill:#a09a80;}.cls-7{font-size:24px;fill:#fff;font-family:Montserrat-Bold, Montserrat;font-weight:700;}</style><clipPath id="clip-path"><rect class="cls-1" width="544.76" height="450"/></clipPath><clipPath id="clip-path-2"><rect class="cls-1" x="-694.52" y="-498.27" width="1240" height="450"/></clipPath></defs><g id="Layer_5" data-name="Layer 5"><g class="cls-2"><image width="2732" height="2048" transform="translate(-55.69) scale(0.22)" xlink:href="animation3.gif"/></g><g class="cls-3"><polygon class="cls-4" points="-252.74 -148.71 -282.22 -99.06 75.98 107.78 191.45 108.34 -252.74 -148.71"/><polygon class="cls-5" points="-80.89 -248.38 -138.24 -215.11 345.93 65.08 345.93 -0.19 -80.89 -248.38"/><polygon class="cls-5" points="-138.14 -215.17 -195.5 -181.91 304.7 108.02 345.93 108.02 345.93 65.08 -138.14 -215.17"/><polyline class="cls-5" points="189.63 106.87 304.13 106.87 -195.39 -181.97 -252.75 -148.7 189.63 106.87"/><polygon class="cls-5" points="-282.14 -99.38 -339.5 -66.11 144.67 214.08 144.67 148.81 -282.14 -99.38"/><polygon class="cls-5" points="-339.39 -66.17 -396.75 -32.91 103.45 257.02 144.67 257.02 144.67 214.08 -339.39 -66.17"/><polyline class="cls-5" points="-11.63 255.87 102.88 255.87 -396.64 -32.97 -454 0.3 -11.63 255.87"/><path class="cls-6" d="M344.55,114.32-152.78-173.24a4.07,4.07,0,0,0-4.31.15l-24.67,16.74a4.05,4.05,0,0,0,.26,6.88L276.42,114.32"/><path class="cls-6" d="M409.24,70.81-88.08-216.75a4.06,4.06,0,0,0-4.31.15l-24.68,16.74a4.06,4.06,0,0,0,.26,6.88L362.87,82.26"/></g><text class="cls-7" transform="translate(74.93 197.39)">animations</text></g></svg>