<svg width="359" height="60" viewBox="0 0 359 60" fill="none" xmlns="http://www.w3.org/2000/svg">
<circle cx="30" cy="30" r="30" fill="#C4C4C4"/>
<path d="M40.5 18H19.5C18.3065 18 17.1619 18.4741 16.318 19.318C15.4741 20.1619 15 21.3065 15 22.5V37.5C15 38.6935 15.4741 39.8381 16.318 40.682C17.1619 41.5259 18.3065 42 19.5 42H40.5C41.6935 42 42.8381 41.5259 43.682 40.682C44.5259 39.8381 45 38.6935 45 37.5V22.5C45 21.3065 44.5259 20.1619 43.682 19.318C42.8381 18.4741 41.6935 18 40.5 18V18ZM40.5 21L30.75 27.705C30.522 27.8367 30.2633 27.906 30 27.906C29.7367 27.906 29.478 27.8367 29.25 27.705L19.5 21H40.5Z" fill="white"/>
<path d="M93.762 37C93.654 37 93.582 36.952 93.546 36.856L90.594 28.09L90.576 28.018C90.576 27.934 90.63 27.892 90.738 27.892H91.764C91.872 27.892 91.944 27.94 91.98 28.036L94.23 35.092C94.242 35.116 94.26 35.128 94.284 35.128C94.308 35.128 94.326 35.116 94.338 35.092L96.588 28.036C96.624 27.94 96.696 27.892 96.804 27.892L97.83 27.91C97.962 27.91 98.01 27.976 97.974 28.108L95.022 36.856C94.986 36.952 94.914 37 94.806 37H93.762ZM102.647 26.236C102.359 26.236 102.119 26.14 101.927 25.948C101.735 25.756 101.639 25.516 101.639 25.228C101.639 24.928 101.735 24.688 101.927 24.508C102.119 24.316 102.359 24.22 102.647 24.22C102.935 24.22 103.175 24.316 103.367 24.508C103.559 24.688 103.655 24.928 103.655 25.228C103.655 25.516 103.559 25.756 103.367 25.948C103.175 26.14 102.935 26.236 102.647 26.236ZM102.143 36.982C102.023 36.982 101.963 36.922 101.963 36.802V28.054C101.963 27.934 102.023 27.874 102.143 27.874H103.061C103.181 27.874 103.241 27.934 103.241 28.054V36.802C103.241 36.922 103.181 36.982 103.061 36.982H102.143ZM110.493 37C110.385 37 110.313 36.952 110.277 36.856L107.325 28.09L107.307 28.018C107.307 27.934 107.361 27.892 107.469 27.892H108.495C108.603 27.892 108.675 27.94 108.711 28.036L110.961 35.092C110.973 35.116 110.991 35.128 111.015 35.128C111.039 35.128 111.057 35.116 111.069 35.092L113.319 28.036C113.355 27.94 113.427 27.892 113.535 27.892L114.561 27.91C114.693 27.91 114.741 27.976 114.705 28.108L111.753 36.856C111.717 36.952 111.645 37 111.537 37H110.493ZM119.378 26.236C119.09 26.236 118.85 26.14 118.658 25.948C118.466 25.756 118.37 25.516 118.37 25.228C118.37 24.928 118.466 24.688 118.658 24.508C118.85 24.316 119.09 24.22 119.378 24.22C119.666 24.22 119.906 24.316 120.098 24.508C120.29 24.688 120.386 24.928 120.386 25.228C120.386 25.516 120.29 25.756 120.098 25.948C119.906 26.14 119.666 26.236 119.378 26.236ZM118.874 36.982C118.754 36.982 118.694 36.922 118.694 36.802V28.054C118.694 27.934 118.754 27.874 118.874 27.874H119.792C119.912 27.874 119.972 27.934 119.972 28.054V36.802C119.972 36.922 119.912 36.982 119.792 36.982H118.874ZM128.052 27.748C129.132 27.748 129.966 28.024 130.554 28.576C131.142 29.128 131.436 29.86 131.436 30.772V36.82C131.436 36.94 131.376 37 131.256 37H130.338C130.218 37 130.158 36.94 130.158 36.82V36.082C130.158 36.058 130.146 36.04 130.122 36.028C130.11 36.016 130.092 36.022 130.068 36.046C129.768 36.406 129.378 36.682 128.898 36.874C128.418 37.054 127.884 37.144 127.296 37.144C126.444 37.144 125.73 36.928 125.154 36.496C124.578 36.064 124.29 35.404 124.29 34.516C124.29 33.616 124.614 32.908 125.262 32.392C125.922 31.864 126.834 31.6 127.998 31.6H130.086C130.134 31.6 130.158 31.576 130.158 31.528V30.844C130.158 30.232 129.984 29.752 129.636 29.404C129.3 29.044 128.772 28.864 128.052 28.864C127.476 28.864 127.008 28.978 126.648 29.206C126.288 29.422 126.066 29.728 125.982 30.124C125.946 30.244 125.874 30.298 125.766 30.286L124.794 30.16C124.662 30.136 124.608 30.088 124.632 30.016C124.728 29.344 125.088 28.798 125.712 28.378C126.336 27.958 127.116 27.748 128.052 27.748ZM127.548 36.046C128.256 36.046 128.868 35.872 129.384 35.524C129.9 35.164 130.158 34.684 130.158 34.084V32.68C130.158 32.632 130.134 32.608 130.086 32.608H128.196C127.404 32.608 126.768 32.77 126.288 33.094C125.808 33.418 125.568 33.868 125.568 34.444C125.568 34.972 125.748 35.374 126.108 35.65C126.48 35.914 126.96 36.046 127.548 36.046ZM139.675 27.766C140.635 27.766 141.397 28.048 141.961 28.612C142.537 29.176 142.825 29.932 142.825 30.88V36.82C142.825 36.94 142.765 37 142.645 37H141.727C141.607 37 141.547 36.94 141.547 36.82V31.132C141.547 30.472 141.343 29.932 140.935 29.512C140.539 29.092 140.023 28.882 139.387 28.882C138.727 28.882 138.193 29.086 137.785 29.494C137.377 29.902 137.173 30.436 137.173 31.096V36.82C137.173 36.94 137.113 37 136.993 37H136.075C135.955 37 135.895 36.94 135.895 36.82V28.072C135.895 27.952 135.955 27.892 136.075 27.892H136.993C137.113 27.892 137.173 27.952 137.173 28.072V28.846C137.173 28.87 137.179 28.888 137.191 28.9C137.215 28.912 137.233 28.906 137.245 28.882C137.773 28.138 138.583 27.766 139.675 27.766ZM147.561 37C147.441 37 147.381 36.94 147.381 36.82V24.58C147.381 24.46 147.441 24.4 147.561 24.4H148.479C148.599 24.4 148.659 24.46 148.659 24.58V31.942C148.659 31.966 148.665 31.984 148.677 31.996C148.701 32.008 148.725 32.002 148.749 31.978L152.565 27.982C152.625 27.922 152.697 27.892 152.781 27.892H153.861C153.933 27.892 153.981 27.916 154.005 27.964C154.029 28.012 154.017 28.06 153.969 28.108L151.665 30.664C151.641 30.688 151.635 30.718 151.647 30.754L154.401 36.784L154.419 36.856C154.419 36.952 154.365 37 154.257 37H153.285C153.189 37 153.123 36.952 153.087 36.856L150.765 31.6C150.741 31.552 150.711 31.546 150.675 31.582L148.695 33.67C148.671 33.694 148.659 33.724 148.659 33.76V36.82C148.659 36.94 148.599 37 148.479 37H147.561ZM161.978 27.766C162.938 27.766 163.7 28.048 164.264 28.612C164.84 29.176 165.128 29.932 165.128 30.88V36.82C165.128 36.94 165.068 37 164.948 37H164.03C163.91 37 163.85 36.94 163.85 36.82V31.132C163.85 30.472 163.646 29.932 163.238 29.512C162.842 29.092 162.326 28.882 161.69 28.882C161.03 28.882 160.496 29.086 160.088 29.494C159.68 29.902 159.476 30.436 159.476 31.096V36.82C159.476 36.94 159.416 37 159.296 37H158.378C158.258 37 158.198 36.94 158.198 36.82V28.072C158.198 27.952 158.258 27.892 158.378 27.892H159.296C159.416 27.892 159.476 27.952 159.476 28.072V28.846C159.476 28.87 159.482 28.888 159.494 28.9C159.518 28.912 159.536 28.906 159.548 28.882C160.076 28.138 160.886 27.766 161.978 27.766ZM175.317 28.072C175.317 27.952 175.377 27.892 175.497 27.892H176.415C176.535 27.892 176.595 27.952 176.595 28.072V36.694C176.595 38.038 176.205 39.022 175.425 39.646C174.657 40.27 173.595 40.582 172.239 40.582C171.963 40.582 171.753 40.576 171.609 40.564C171.489 40.552 171.429 40.486 171.429 40.366L171.465 39.538C171.465 39.478 171.483 39.43 171.519 39.394C171.555 39.37 171.597 39.364 171.645 39.376L172.131 39.394C173.247 39.394 174.057 39.172 174.561 38.728C175.065 38.296 175.317 37.606 175.317 36.658V35.992C175.317 35.968 175.305 35.956 175.281 35.956C175.269 35.944 175.251 35.95 175.227 35.974C174.675 36.694 173.889 37.054 172.869 37.054C172.089 37.054 171.393 36.844 170.781 36.424C170.181 36.004 169.779 35.41 169.575 34.642C169.431 34.15 169.359 33.418 169.359 32.446C169.359 31.918 169.371 31.474 169.395 31.114C169.431 30.754 169.497 30.43 169.593 30.142C169.809 29.422 170.199 28.846 170.763 28.414C171.327 27.97 172.005 27.748 172.797 27.748C173.865 27.748 174.675 28.102 175.227 28.81C175.251 28.834 175.269 28.84 175.281 28.828C175.305 28.816 175.317 28.798 175.317 28.774V28.072ZM175.227 34.246C175.263 34.066 175.287 33.844 175.299 33.58C175.311 33.316 175.317 32.932 175.317 32.428C175.317 31.816 175.311 31.408 175.299 31.204C175.287 30.988 175.257 30.79 175.209 30.61C175.113 30.106 174.873 29.692 174.489 29.368C174.117 29.032 173.643 28.864 173.067 28.864C172.503 28.864 172.023 29.026 171.627 29.35C171.243 29.674 170.973 30.094 170.817 30.61C170.697 30.994 170.637 31.594 170.637 32.41C170.637 33.286 170.697 33.892 170.817 34.228C170.937 34.732 171.195 35.152 171.591 35.488C171.999 35.812 172.491 35.974 173.067 35.974C173.655 35.974 174.135 35.812 174.507 35.488C174.891 35.164 175.131 34.75 175.227 34.246ZM186.642 28.072C186.642 27.952 186.702 27.892 186.822 27.892H187.74C187.86 27.892 187.92 27.952 187.92 28.072V36.82C187.92 36.94 187.86 37 187.74 37H186.822C186.702 37 186.642 36.94 186.642 36.82V36.046C186.642 36.022 186.63 36.004 186.606 35.992C186.582 35.98 186.564 35.986 186.552 36.01C186.048 36.754 185.25 37.126 184.158 37.126C183.582 37.126 183.048 37.012 182.556 36.784C182.076 36.544 181.692 36.202 181.404 35.758C181.128 35.314 180.99 34.78 180.99 34.156V28.072C180.99 27.952 181.05 27.892 181.17 27.892H182.088C182.208 27.892 182.268 27.952 182.268 28.072V33.778C182.268 34.462 182.46 35.008 182.844 35.416C183.228 35.812 183.75 36.01 184.41 36.01C185.094 36.01 185.634 35.806 186.03 35.398C186.438 34.99 186.642 34.45 186.642 33.778V28.072ZM192.171 40.6C192.087 40.6 192.045 40.54 192.045 40.42V39.7C192.045 39.58 192.105 39.52 192.225 39.52H192.297C192.765 39.508 193.125 39.436 193.377 39.304C193.641 39.184 193.863 38.95 194.043 38.602C194.235 38.266 194.439 37.75 194.655 37.054C194.679 37.006 194.679 36.97 194.655 36.946L191.613 28.09L191.595 28.018C191.595 27.934 191.649 27.892 191.757 27.892H192.711C192.819 27.892 192.891 27.94 192.927 28.036L195.267 35.308C195.279 35.332 195.297 35.344 195.321 35.344C195.345 35.344 195.363 35.332 195.375 35.308L197.679 28.036C197.715 27.94 197.787 27.892 197.895 27.892H198.831C198.963 27.892 199.011 27.958 198.975 28.09L195.645 37.792C195.357 38.596 195.087 39.19 194.835 39.574C194.583 39.958 194.265 40.222 193.881 40.366C193.509 40.522 192.981 40.6 192.297 40.6H192.171ZM209.367 30.916C209.415 31.252 209.439 31.672 209.439 32.176V32.752C209.439 32.872 209.379 32.932 209.259 32.932H203.445C203.397 32.932 203.373 32.956 203.373 33.004C203.397 33.664 203.433 34.09 203.481 34.282C203.613 34.822 203.895 35.248 204.327 35.56C204.759 35.872 205.311 36.028 205.983 36.028C206.487 36.028 206.931 35.914 207.315 35.686C207.699 35.458 207.999 35.134 208.215 34.714C208.287 34.606 208.371 34.582 208.467 34.642L209.169 35.056C209.265 35.116 209.289 35.2 209.241 35.308C208.941 35.884 208.491 36.34 207.891 36.676C207.291 37 206.601 37.162 205.821 37.162C204.969 37.15 204.255 36.946 203.679 36.55C203.103 36.154 202.689 35.602 202.437 34.894C202.221 34.318 202.113 33.49 202.113 32.41C202.113 31.906 202.119 31.498 202.131 31.186C202.155 30.862 202.203 30.574 202.275 30.322C202.479 29.542 202.887 28.918 203.499 28.45C204.123 27.982 204.873 27.748 205.749 27.748C206.841 27.748 207.681 28.024 208.269 28.576C208.857 29.128 209.223 29.908 209.367 30.916ZM205.749 28.864C205.161 28.864 204.669 29.02 204.273 29.332C203.889 29.632 203.637 30.04 203.517 30.556C203.445 30.808 203.397 31.216 203.373 31.78C203.373 31.828 203.397 31.852 203.445 31.852H208.107C208.155 31.852 208.179 31.828 208.179 31.78C208.155 31.24 208.119 30.856 208.071 30.628C207.939 30.088 207.669 29.662 207.261 29.35C206.865 29.026 206.361 28.864 205.749 28.864ZM217.56 27.766C218.52 27.766 219.282 28.048 219.846 28.612C220.422 29.176 220.71 29.932 220.71 30.88V36.82C220.71 36.94 220.65 37 220.53 37H219.612C219.492 37 219.432 36.94 219.432 36.82V31.132C219.432 30.472 219.228 29.932 218.82 29.512C218.424 29.092 217.908 28.882 217.272 28.882C216.612 28.882 216.078 29.086 215.67 29.494C215.262 29.902 215.058 30.436 215.058 31.096V36.82C215.058 36.94 214.998 37 214.878 37H213.96C213.84 37 213.78 36.94 213.78 36.82V28.072C213.78 27.952 213.84 27.892 213.96 27.892H214.878C214.998 27.892 215.058 27.952 215.058 28.072V28.846C215.058 28.87 215.064 28.888 215.076 28.9C215.1 28.912 215.118 28.906 215.13 28.882C215.658 28.138 216.468 27.766 217.56 27.766ZM231.835 26.614C231.979 27.094 232.051 27.658 232.051 28.306V33.922C232.051 34.906 231.727 35.692 231.079 36.28C230.431 36.856 229.585 37.144 228.541 37.144C227.533 37.144 226.711 36.862 226.075 36.298C225.451 35.722 225.139 34.978 225.139 34.066V33.814C225.139 33.694 225.199 33.634 225.319 33.634H226.237C226.357 33.634 226.417 33.694 226.417 33.814V33.958C226.417 34.57 226.615 35.068 227.011 35.452C227.407 35.836 227.917 36.028 228.541 36.028C229.189 36.028 229.723 35.83 230.143 35.434C230.563 35.026 230.773 34.492 230.773 33.832V31.204C230.773 31.18 230.761 31.168 230.737 31.168C230.713 31.156 230.695 31.162 230.683 31.186C230.155 31.894 229.363 32.248 228.307 32.248C227.551 32.248 226.915 32.08 226.399 31.744C225.895 31.408 225.511 30.934 225.247 30.322C224.995 29.818 224.869 29.134 224.869 28.27C224.869 27.538 224.959 26.938 225.139 26.47C225.391 25.774 225.793 25.234 226.345 24.85C226.909 24.466 227.599 24.274 228.415 24.274C229.279 24.274 230.005 24.484 230.593 24.904C231.193 25.312 231.607 25.882 231.835 26.614ZM228.469 31.132C228.997 31.132 229.441 31.006 229.801 30.754C230.173 30.49 230.431 30.13 230.575 29.674C230.707 29.326 230.773 28.84 230.773 28.216C230.773 27.7 230.719 27.262 230.611 26.902C230.467 26.446 230.209 26.08 229.837 25.804C229.465 25.528 229.009 25.39 228.469 25.39C227.953 25.39 227.509 25.522 227.137 25.786C226.765 26.038 226.501 26.41 226.345 26.902C226.213 27.238 226.147 27.694 226.147 28.27C226.147 28.882 226.225 29.362 226.381 29.71C226.525 30.142 226.777 30.49 227.137 30.754C227.497 31.006 227.941 31.132 228.469 31.132ZM243.022 31.078C243.274 31.618 243.4 32.302 243.4 33.13C243.4 33.874 243.304 34.474 243.112 34.93C242.86 35.626 242.458 36.166 241.906 36.55C241.354 36.934 240.664 37.126 239.836 37.126C238.972 37.126 238.246 36.922 237.658 36.514C237.07 36.106 236.656 35.53 236.416 34.786C236.272 34.306 236.2 33.742 236.2 33.094V27.478C236.2 26.494 236.524 25.714 237.172 25.138C237.82 24.55 238.666 24.256 239.71 24.256C240.73 24.256 241.552 24.538 242.176 25.102C242.8 25.666 243.112 26.41 243.112 27.334V27.586C243.112 27.706 243.052 27.766 242.932 27.766H242.014C241.894 27.766 241.834 27.706 241.834 27.586V27.442C241.834 26.83 241.636 26.332 241.24 25.948C240.844 25.564 240.334 25.372 239.71 25.372C239.062 25.372 238.528 25.576 238.108 25.984C237.688 26.38 237.478 26.908 237.478 27.568V30.214C237.478 30.238 237.49 30.256 237.514 30.268C237.538 30.268 237.556 30.256 237.568 30.232C238.096 29.512 238.894 29.152 239.962 29.152C240.718 29.152 241.348 29.32 241.852 29.656C242.368 29.992 242.758 30.466 243.022 31.078ZM241.906 34.498C242.05 34.126 242.122 33.67 242.122 33.13C242.122 32.506 242.038 32.026 241.87 31.69C241.726 31.246 241.474 30.898 241.114 30.646C240.754 30.394 240.31 30.268 239.782 30.268C239.254 30.268 238.81 30.4 238.45 30.664C238.09 30.916 237.838 31.27 237.694 31.726C237.55 32.098 237.478 32.584 237.478 33.184C237.478 33.712 237.538 34.15 237.658 34.498C237.802 34.954 238.054 35.32 238.414 35.596C238.786 35.872 239.248 36.01 239.8 36.01C240.316 36.01 240.76 35.884 241.132 35.632C241.504 35.368 241.762 34.99 241.906 34.498ZM254.266 25.894C255.358 25.894 256.324 26.116 257.164 26.56C258.016 27.004 258.67 27.628 259.126 28.432C259.594 29.236 259.828 30.154 259.828 31.186C259.828 31.378 259.804 31.69 259.756 32.122C259.612 33.226 259.27 34.084 258.73 34.696C258.19 35.308 257.512 35.614 256.696 35.614C256.276 35.614 255.904 35.536 255.58 35.38C255.268 35.224 255.028 34.996 254.86 34.696C254.848 34.636 254.818 34.63 254.77 34.678C254.542 34.978 254.26 35.206 253.924 35.362C253.6 35.518 253.246 35.596 252.862 35.596C252.214 35.596 251.686 35.44 251.278 35.128C250.87 34.804 250.636 34.384 250.576 33.868C250.564 33.796 250.558 33.676 250.558 33.508C250.558 33.16 250.594 32.764 250.666 32.32C250.738 31.636 250.846 31.114 250.99 30.754C251.182 30.226 251.5 29.806 251.944 29.494C252.388 29.182 252.886 29.026 253.438 29.026C253.774 29.026 254.074 29.086 254.338 29.206C254.602 29.314 254.818 29.476 254.986 29.692C255.01 29.716 255.028 29.728 255.04 29.728C255.064 29.728 255.076 29.71 255.076 29.674L255.13 29.278C255.142 29.17 255.202 29.116 255.31 29.116H255.886C255.946 29.116 255.994 29.14 256.03 29.188C256.066 29.224 256.078 29.266 256.066 29.314L255.562 33.076C255.55 33.136 255.544 33.232 255.544 33.364C255.544 33.772 255.658 34.108 255.886 34.372C256.114 34.636 256.414 34.768 256.786 34.768C257.29 34.768 257.716 34.54 258.064 34.084C258.424 33.628 258.664 32.992 258.784 32.176C258.832 31.888 258.856 31.57 258.856 31.222C258.856 30.31 258.658 29.518 258.262 28.846C257.866 28.174 257.314 27.658 256.606 27.298C255.91 26.938 255.106 26.758 254.194 26.758C253.162 26.758 252.184 26.992 251.26 27.46C250.348 27.928 249.604 28.63 249.028 29.566C248.464 30.502 248.182 31.636 248.182 32.968C248.182 33.904 248.362 34.738 248.722 35.47C249.082 36.202 249.604 36.772 250.288 37.18C250.972 37.588 251.788 37.792 252.736 37.792C253.336 37.792 253.912 37.72 254.464 37.576C255.028 37.432 255.46 37.258 255.76 37.054C255.796 37.03 255.838 37.018 255.886 37.018C255.934 37.018 255.976 37.042 256.012 37.09L256.3 37.45C256.336 37.486 256.354 37.528 256.354 37.576C256.354 37.624 256.324 37.666 256.264 37.702C255.88 38.002 255.346 38.236 254.662 38.404C253.99 38.584 253.306 38.674 252.61 38.674C251.518 38.674 250.564 38.428 249.748 37.936C248.932 37.456 248.308 36.778 247.876 35.902C247.444 35.026 247.228 34.018 247.228 32.878C247.228 31.438 247.564 30.19 248.236 29.134C248.908 28.078 249.784 27.274 250.864 26.722C251.944 26.17 253.078 25.894 254.266 25.894ZM254.464 33.598C254.524 33.466 254.572 33.322 254.608 33.166C254.644 33.01 254.686 32.722 254.734 32.302C254.794 31.678 254.818 31.252 254.806 31.024C254.794 30.688 254.668 30.406 254.428 30.178C254.2 29.95 253.894 29.836 253.51 29.836C253.126 29.836 252.784 29.944 252.484 30.16C252.196 30.376 251.98 30.658 251.836 31.006C251.776 31.126 251.728 31.288 251.692 31.492C251.656 31.696 251.614 31.978 251.566 32.338C251.506 32.77 251.476 33.094 251.476 33.31C251.476 33.442 251.482 33.538 251.494 33.598C251.518 33.946 251.656 34.228 251.908 34.444C252.16 34.66 252.484 34.768 252.88 34.768C253.264 34.768 253.594 34.66 253.87 34.444C254.146 34.228 254.344 33.946 254.464 33.598ZM269.838 28.072C269.838 27.952 269.898 27.892 270.018 27.892H270.936C271.056 27.892 271.116 27.952 271.116 28.072V36.694C271.116 38.038 270.726 39.022 269.946 39.646C269.178 40.27 268.116 40.582 266.76 40.582C266.484 40.582 266.274 40.576 266.13 40.564C266.01 40.552 265.95 40.486 265.95 40.366L265.986 39.538C265.986 39.478 266.004 39.43 266.04 39.394C266.076 39.37 266.118 39.364 266.166 39.376L266.652 39.394C267.768 39.394 268.578 39.172 269.082 38.728C269.586 38.296 269.838 37.606 269.838 36.658V35.992C269.838 35.968 269.826 35.956 269.802 35.956C269.79 35.944 269.772 35.95 269.748 35.974C269.196 36.694 268.41 37.054 267.39 37.054C266.61 37.054 265.914 36.844 265.302 36.424C264.702 36.004 264.3 35.41 264.096 34.642C263.952 34.15 263.88 33.418 263.88 32.446C263.88 31.918 263.892 31.474 263.916 31.114C263.952 30.754 264.018 30.43 264.114 30.142C264.33 29.422 264.72 28.846 265.284 28.414C265.848 27.97 266.526 27.748 267.318 27.748C268.386 27.748 269.196 28.102 269.748 28.81C269.772 28.834 269.79 28.84 269.802 28.828C269.826 28.816 269.838 28.798 269.838 28.774V28.072ZM269.748 34.246C269.784 34.066 269.808 33.844 269.82 33.58C269.832 33.316 269.838 32.932 269.838 32.428C269.838 31.816 269.832 31.408 269.82 31.204C269.808 30.988 269.778 30.79 269.73 30.61C269.634 30.106 269.394 29.692 269.01 29.368C268.638 29.032 268.164 28.864 267.588 28.864C267.024 28.864 266.544 29.026 266.148 29.35C265.764 29.674 265.494 30.094 265.338 30.61C265.218 30.994 265.158 31.594 265.158 32.41C265.158 33.286 265.218 33.892 265.338 34.228C265.458 34.732 265.716 35.152 266.112 35.488C266.52 35.812 267.012 35.974 267.588 35.974C268.176 35.974 268.656 35.812 269.028 35.488C269.412 35.164 269.652 34.75 269.748 34.246ZM284.871 27.766C285.771 27.766 286.479 28.036 286.995 28.576C287.523 29.116 287.787 29.854 287.787 30.79V36.82C287.787 36.94 287.727 37 287.607 37H286.707C286.587 37 286.527 36.94 286.527 36.82V31.042C286.527 30.382 286.335 29.86 285.951 29.476C285.579 29.08 285.087 28.882 284.475 28.882C283.839 28.882 283.323 29.074 282.927 29.458C282.543 29.842 282.351 30.358 282.351 31.006V36.82C282.351 36.94 282.291 37 282.171 37H281.253C281.133 37 281.073 36.94 281.073 36.82V31.042C281.073 30.382 280.887 29.86 280.515 29.476C280.143 29.08 279.645 28.882 279.021 28.882C278.385 28.882 277.875 29.074 277.491 29.458C277.119 29.842 276.933 30.358 276.933 31.006V36.82C276.933 36.94 276.873 37 276.753 37H275.835C275.715 37 275.655 36.94 275.655 36.82V28.072C275.655 27.952 275.715 27.892 275.835 27.892H276.753C276.873 27.892 276.933 27.952 276.933 28.072V28.792C276.933 28.816 276.939 28.834 276.951 28.846C276.975 28.846 276.999 28.834 277.023 28.81C277.287 28.462 277.623 28.204 278.031 28.036C278.451 27.856 278.913 27.766 279.417 27.766C280.041 27.766 280.575 27.892 281.019 28.144C281.463 28.396 281.799 28.762 282.027 29.242C282.051 29.302 282.081 29.302 282.117 29.242C282.381 28.75 282.753 28.384 283.233 28.144C283.713 27.892 284.259 27.766 284.871 27.766ZM295.494 27.748C296.574 27.748 297.408 28.024 297.996 28.576C298.584 29.128 298.878 29.86 298.878 30.772V36.82C298.878 36.94 298.818 37 298.698 37H297.78C297.66 37 297.6 36.94 297.6 36.82V36.082C297.6 36.058 297.588 36.04 297.564 36.028C297.552 36.016 297.534 36.022 297.51 36.046C297.21 36.406 296.82 36.682 296.34 36.874C295.86 37.054 295.326 37.144 294.738 37.144C293.886 37.144 293.172 36.928 292.596 36.496C292.02 36.064 291.732 35.404 291.732 34.516C291.732 33.616 292.056 32.908 292.704 32.392C293.364 31.864 294.276 31.6 295.44 31.6H297.528C297.576 31.6 297.6 31.576 297.6 31.528V30.844C297.6 30.232 297.426 29.752 297.078 29.404C296.742 29.044 296.214 28.864 295.494 28.864C294.918 28.864 294.45 28.978 294.09 29.206C293.73 29.422 293.508 29.728 293.424 30.124C293.388 30.244 293.316 30.298 293.208 30.286L292.236 30.16C292.104 30.136 292.05 30.088 292.074 30.016C292.17 29.344 292.53 28.798 293.154 28.378C293.778 27.958 294.558 27.748 295.494 27.748ZM294.99 36.046C295.698 36.046 296.31 35.872 296.826 35.524C297.342 35.164 297.6 34.684 297.6 34.084V32.68C297.6 32.632 297.576 32.608 297.528 32.608H295.638C294.846 32.608 294.21 32.77 293.73 33.094C293.25 33.418 293.01 33.868 293.01 34.444C293.01 34.972 293.19 35.374 293.55 35.65C293.922 35.914 294.402 36.046 294.99 36.046ZM304.201 26.236C303.913 26.236 303.673 26.14 303.481 25.948C303.289 25.756 303.193 25.516 303.193 25.228C303.193 24.928 303.289 24.688 303.481 24.508C303.673 24.316 303.913 24.22 304.201 24.22C304.489 24.22 304.729 24.316 304.921 24.508C305.113 24.688 305.209 24.928 305.209 25.228C305.209 25.516 305.113 25.756 304.921 25.948C304.729 26.14 304.489 26.236 304.201 26.236ZM303.697 36.982C303.577 36.982 303.517 36.922 303.517 36.802V28.054C303.517 27.934 303.577 27.874 303.697 27.874H304.615C304.735 27.874 304.795 27.934 304.795 28.054V36.802C304.795 36.922 304.735 36.982 304.615 36.982H303.697ZM309.905 37C309.785 37 309.725 36.94 309.725 36.82V24.58C309.725 24.46 309.785 24.4 309.905 24.4H310.823C310.943 24.4 311.003 24.46 311.003 24.58V36.82C311.003 36.94 310.943 37 310.823 37H309.905ZM316.718 36.964C316.418 36.964 316.172 36.868 315.98 36.676C315.8 36.484 315.71 36.244 315.71 35.956C315.71 35.656 315.8 35.416 315.98 35.236C316.172 35.044 316.418 34.948 316.718 34.948C317.006 34.948 317.246 35.044 317.438 35.236C317.63 35.416 317.726 35.656 317.726 35.956C317.726 36.244 317.63 36.484 317.438 36.676C317.246 36.868 317.006 36.964 316.718 36.964ZM325.535 37.144C324.671 37.144 323.927 36.922 323.303 36.478C322.691 36.022 322.271 35.41 322.043 34.642C321.887 34.114 321.809 33.37 321.809 32.41C321.809 31.546 321.887 30.814 322.043 30.214C322.259 29.47 322.679 28.876 323.303 28.432C323.927 27.976 324.671 27.748 325.535 27.748C326.411 27.748 327.167 27.97 327.803 28.414C328.451 28.858 328.871 29.41 329.063 30.07C329.123 30.286 329.159 30.466 329.171 30.61V30.646C329.171 30.73 329.117 30.784 329.009 30.808L328.109 30.934H328.073C327.989 30.934 327.935 30.88 327.911 30.772L327.857 30.502C327.749 30.046 327.485 29.662 327.065 29.35C326.645 29.026 326.135 28.864 325.535 28.864C324.935 28.864 324.431 29.026 324.023 29.35C323.627 29.662 323.369 30.082 323.249 30.61C323.141 31.066 323.087 31.672 323.087 32.428C323.087 33.22 323.141 33.832 323.249 34.264C323.369 34.804 323.627 35.236 324.023 35.56C324.431 35.872 324.935 36.028 325.535 36.028C326.123 36.028 326.627 35.878 327.047 35.578C327.479 35.266 327.749 34.87 327.857 34.39V34.318L327.875 34.246C327.887 34.126 327.959 34.078 328.091 34.102L328.973 34.246C329.093 34.27 329.147 34.336 329.135 34.444L329.063 34.804C328.883 35.5 328.469 36.064 327.821 36.496C327.173 36.928 326.411 37.144 325.535 37.144ZM336.669 37.144C335.805 37.144 335.061 36.922 334.437 36.478C333.813 36.034 333.381 35.422 333.141 34.642C332.973 34.09 332.889 33.352 332.889 32.428C332.889 31.504 332.973 30.772 333.141 30.232C333.369 29.464 333.795 28.858 334.419 28.414C335.043 27.97 335.799 27.748 336.687 27.748C337.539 27.748 338.271 27.97 338.883 28.414C339.507 28.858 339.933 29.458 340.161 30.214C340.329 30.73 340.413 31.468 340.413 32.428C340.413 33.4 340.329 34.138 340.161 34.642C339.933 35.422 339.507 36.034 338.883 36.478C338.271 36.922 337.533 37.144 336.669 37.144ZM336.669 36.028C337.245 36.028 337.737 35.872 338.145 35.56C338.553 35.236 338.829 34.804 338.973 34.264C339.081 33.832 339.135 33.226 339.135 32.446C339.135 31.654 339.087 31.048 338.991 30.628C338.847 30.088 338.565 29.662 338.145 29.35C337.737 29.026 337.239 28.864 336.651 28.864C336.063 28.864 335.565 29.026 335.157 29.35C334.749 29.662 334.473 30.088 334.329 30.628C334.233 31.048 334.185 31.654 334.185 32.446C334.185 33.238 334.233 33.844 334.329 34.264C334.461 34.804 334.731 35.236 335.139 35.56C335.559 35.872 336.069 36.028 336.669 36.028ZM354.02 27.766C354.92 27.766 355.628 28.036 356.144 28.576C356.672 29.116 356.936 29.854 356.936 30.79V36.82C356.936 36.94 356.876 37 356.756 37H355.856C355.736 37 355.676 36.94 355.676 36.82V31.042C355.676 30.382 355.484 29.86 355.1 29.476C354.728 29.08 354.236 28.882 353.624 28.882C352.988 28.882 352.472 29.074 352.076 29.458C351.692 29.842 351.5 30.358 351.5 31.006V36.82C351.5 36.94 351.44 37 351.32 37H350.402C350.282 37 350.222 36.94 350.222 36.82V31.042C350.222 30.382 350.036 29.86 349.664 29.476C349.292 29.08 348.794 28.882 348.17 28.882C347.534 28.882 347.024 29.074 346.64 29.458C346.268 29.842 346.082 30.358 346.082 31.006V36.82C346.082 36.94 346.022 37 345.902 37H344.984C344.864 37 344.804 36.94 344.804 36.82V28.072C344.804 27.952 344.864 27.892 344.984 27.892H345.902C346.022 27.892 346.082 27.952 346.082 28.072V28.792C346.082 28.816 346.088 28.834 346.1 28.846C346.124 28.846 346.148 28.834 346.172 28.81C346.436 28.462 346.772 28.204 347.18 28.036C347.6 27.856 348.062 27.766 348.566 27.766C349.19 27.766 349.724 27.892 350.168 28.144C350.612 28.396 350.948 28.762 351.176 29.242C351.2 29.302 351.23 29.302 351.266 29.242C351.53 28.75 351.902 28.384 352.382 28.144C352.862 27.892 353.408 27.766 354.02 27.766Z" fill="black"/>
</svg>
