<svg width="60" height="60" viewBox="0 0 60 60" fill="none" xmlns="http://www.w3.org/2000/svg">
<circle cx="30" cy="30" r="30" fill="#C4C4C4"/>
<path d="M40.5 18H19.5C18.3065 18 17.1619 18.4741 16.318 19.318C15.4741 20.1619 15 21.3065 15 22.5V37.5C15 38.6935 15.4741 39.8381 16.318 40.682C17.1619 41.5259 18.3065 42 19.5 42H40.5C41.6935 42 42.8381 41.5259 43.682 40.682C44.5259 39.8381 45 38.6935 45 37.5V22.5C45 21.3065 44.5259 20.1619 43.682 19.318C42.8381 18.4741 41.6935 18 40.5 18V18ZM40.5 21L30.75 27.705C30.522 27.8367 30.2633 27.906 30 27.906C29.7367 27.906 29.478 27.8367 29.25 27.705L19.5 21H40.5Z" fill="white"/>
</svg>
