<svg width="1512" height="878" viewBox="0 0 1512 878" fill="none" xmlns="http://www.w3.org/2000/svg">
<g clip-path="url(#clip0_25_2940)">
<path d="M154.388 411.2L229.988 83H334.988L237.788 503H70.3875L-26.8125 83H78.1875L154.388 411.2ZM449.911 83V503H340.711V83H449.911ZM637.2 411.2L712.8 83H817.8L720.6 503H553.2L456 83H561L637.2 411.2ZM932.723 83V503H823.523V83H932.723ZM1106.74 81.8C1149.94 81.8 1181.74 92 1202.14 112.4C1222.54 132.8 1232.74 164.6 1232.74 207.8V503H1123.54V398.6H1056.94V503H947.742V207.8C947.742 164.6 957.942 132.8 978.342 112.4C998.742 92 1030.54 81.8 1073.74 81.8H1106.74ZM1056.94 319.4H1123.54V200C1123.54 193.6 1121.74 188.6 1118.14 185C1114.54 181 1109.54 179 1103.14 179H1077.34C1070.94 179 1065.94 181 1062.34 185C1058.74 188.6 1056.94 193.6 1056.94 200V319.4ZM1406.74 83C1449.94 83 1481.74 93.2 1502.14 113.6C1522.54 134 1532.74 165.8 1532.74 209V503H1423.54V201.2C1423.54 194.8 1421.74 189.8 1418.14 186.2C1414.54 182.2 1409.54 180.2 1403.14 180.2H1356.94V503H1247.74V83H1406.74Z" fill="#EFDC8E"/>
<g filter="url(#filter0_d_25_2940)">
<path d="M86.5469 469C126.147 469 155.297 478.35 173.997 497.05C192.697 515.75 202.047 544.9 202.047 584.5V854H101.947V577.35C101.947 571.483 100.297 566.9 96.9969 563.6C93.6969 559.933 89.1136 558.1 83.2469 558.1H40.8969V854H-59.2031V469H86.5469ZM352.261 625.2H504.061V854H328.611C289.011 854 259.861 844.65 241.161 825.95C222.461 807.25 213.111 778.1 213.111 738.5V584.5C213.111 544.9 222.461 515.75 241.161 497.05C259.861 478.35 289.011 469 328.611 469H498.011V558.1H331.911C326.045 558.1 321.461 559.933 318.161 563.6C314.861 566.9 313.211 571.483 313.211 577.35V745.65C313.211 751.517 314.861 756.283 318.161 759.95C321.461 763.25 326.045 764.9 331.911 764.9H413.861V697.8H352.261V625.2ZM630.467 854C590.867 854 561.717 844.65 543.017 825.95C524.317 807.25 514.967 778.1 514.967 738.5V467.9H615.067V745.65C615.067 751.517 616.717 756.283 620.017 759.95C623.317 763.25 627.9 764.9 633.767 764.9H657.417C663.283 764.9 667.867 763.25 671.167 759.95C674.467 756.283 676.117 751.517 676.117 745.65V467.9H776.217V738.5C776.217 778.1 766.867 807.25 748.167 825.95C729.467 844.65 700.317 854 660.717 854H630.467ZM948.431 469H1048.53V738.5C1048.53 778.1 1039.18 807.25 1020.48 825.95C1001.78 844.65 972.631 854 933.031 854H803.781V764.9H929.731C935.598 764.9 940.181 763.25 943.481 759.95C946.781 756.283 948.431 751.517 948.431 745.65V732.45C945.131 732.817 939.998 733 933.031 733H902.781C863.181 733 834.031 723.65 815.331 704.95C796.631 686.25 787.281 657.1 787.281 617.5V469H887.381V624.65C887.381 630.517 889.031 635.283 892.331 638.95C895.631 642.25 900.215 643.9 906.081 643.9H929.731C935.598 643.9 940.181 642.25 943.481 638.95C946.781 635.283 948.431 630.517 948.431 624.65V469ZM1298.85 558.1H1159.7V619.7H1286.75V692.3H1159.7V745.65C1159.7 751.517 1161.35 756.283 1164.65 759.95C1167.95 763.25 1172.53 764.9 1178.4 764.9H1298.85V854H1175.1C1135.5 854 1106.35 844.65 1087.65 825.95C1068.95 807.25 1059.6 778.1 1059.6 738.5V469H1298.85V558.1ZM1455.64 469C1495.24 469 1524.39 478.35 1543.09 497.05C1561.79 515.75 1571.14 544.9 1571.14 584.5V854H1471.04V577.35C1471.04 571.483 1469.39 566.9 1466.09 563.6C1462.79 559.933 1458.21 558.1 1452.34 558.1H1409.99V854H1309.89V469H1455.64Z" fill="#BB280A"/>
</g>
</g>
<defs>
<filter id="filter0_d_25_2940" x="-75.2031" y="447.9" width="1670.34" height="426.1" filterUnits="userSpaceOnUse" color-interpolation-filters="sRGB">
<feFlood flood-opacity="0" result="BackgroundImageFix"/>
<feColorMatrix in="SourceAlpha" type="matrix" values="0 0 0 0 0 0 0 0 0 0 0 0 0 0 0 0 0 0 127 0" result="hardAlpha"/>
<feOffset dx="4"/>
<feGaussianBlur stdDeviation="10"/>
<feComposite in2="hardAlpha" operator="out"/>
<feColorMatrix type="matrix" values="0 0 0 0 0 0 0 0 0 0 0 0 0 0 0 0 0 0 0.3 0"/>
<feBlend mode="normal" in2="BackgroundImageFix" result="effect1_dropShadow_25_2940"/>
<feBlend mode="normal" in="SourceGraphic" in2="effect1_dropShadow_25_2940" result="shape"/>
</filter>
<clipPath id="clip0_25_2940">
<rect width="1512" height="878" fill="white"/>
</clipPath>
</defs>
</svg>
