<svg xmlns="http://www.w3.org/2000/svg" xmlns:xlink="http://www.w3.org/1999/xlink" viewBox="0 0 1240 450"><defs><style>.cls-1,.cls-36{fill:none;}.cls-2{fill:#fceed4;}.cls-3{font-size:48px;fill:#193f19;font-family:Montserrat-Bold, Montserrat;font-weight:700;}.cls-4{letter-spacing:-0.01em;}.cls-5{clip-path:url(#clip-path);}.cls-6{fill:#a09a80;}.cls-7{fill:#6f923d;}.cls-8{fill:#353433;}.cls-9{fill:#c4bfb5;}.cls-10{clip-path:url(#clip-path-2);}.cls-11{fill:#ffcc71;}.cls-12{fill:#ddb6a6;}.cls-13{fill:#d8a695;}.cls-14{fill:#bc8e82;}.cls-15{fill:#e8c1b3;}.cls-15,.cls-19,.cls-20{opacity:0.5;}.cls-16{fill:#af567a;}.cls-17{fill:#c15b80;}.cls-18{fill:#934a6b;}.cls-19{fill:#cc628e;}.cls-20{fill:#c1638e;}.cls-21{fill:#e8cdcf;}.cls-22{fill:#67252b;}.cls-23{fill:#c9afb2;}.cls-24{fill:#601d22;}.cls-25{fill:#662430;}.cls-26{fill:#561f2b;}.cls-27{fill:#722d3b;}.cls-28{fill:url(#linear-gradient);}.cls-29{fill:url(#linear-gradient-2);}.cls-30{fill:url(#linear-gradient-3);}.cls-31{fill:url(#linear-gradient-4);}.cls-32{fill:url(#linear-gradient-5);}.cls-33{fill:#c1526a;}.cls-34{fill:#b5485b;}.cls-35{fill:url(#linear-gradient-6);}.cls-36{stroke-miterlimit:10;stroke-width:0.59px;stroke:url(#linear-gradient-7);}</style><clipPath id="clip-path"><rect class="cls-1" x="-1259.52" y="0.24" width="1240" height="450"/></clipPath><clipPath id="clip-path-2"><rect class="cls-1" y="0.24" width="1240" height="450"/></clipPath><linearGradient id="linear-gradient" x1="1001.92" y1="461.72" x2="1194.86" y2="268.78" gradientUnits="userSpaceOnUse"><stop offset="0" stop-color="#e8d4d4"/><stop offset="0.85" stop-color="#d68d97"/><stop offset="1" stop-color="#d68d97"/></linearGradient><linearGradient id="linear-gradient-2" x1="1111.01" y1="343.3" x2="1111.01" y2="320.59" gradientUnits="userSpaceOnUse"><stop offset="0" stop-color="#dba1a9"/><stop offset="1" stop-color="#da9fa6"/></linearGradient><linearGradient id="linear-gradient-3" x1="1172.35" y1="358.96" x2="1172.35" y2="314.82" gradientUnits="userSpaceOnUse"><stop offset="0" stop-color="#e8d4d4"/><stop offset="0.03" stop-color="#d99aa2"/><stop offset="0.85" stop-color="#d68d97"/><stop offset="1" stop-color="#d68e98"/></linearGradient><linearGradient id="linear-gradient-4" x1="1023.26" y1="270.07" x2="1023.26" y2="-249.14" gradientUnits="userSpaceOnUse"><stop offset="0" stop-color="#d8939c"/><stop offset="0.19" stop-color="#d68d97"/><stop offset="1" stop-color="#c1526a"/></linearGradient><linearGradient id="linear-gradient-5" x1="690.24" y1="276.11" x2="879.18" y2="276.11" gradientUnits="userSpaceOnUse"><stop offset="0.53" stop-color="#d68d97"/><stop offset="1" stop-color="#c1526a"/></linearGradient><linearGradient id="linear-gradient-6" x1="1012.28" y1="213.19" x2="1012.28" y2="119.71" gradientUnits="userSpaceOnUse"><stop offset="0" stop-color="#d8939c"/><stop offset="0.19" stop-color="#d68d97"/><stop offset="1" stop-color="#d38591"/></linearGradient><linearGradient id="linear-gradient-7" x1="1001.38" y1="164.54" x2="1001.38" y2="158.56" xlink:href="#linear-gradient-6"/></defs><g id="Layer_5" data-name="Layer 5"><rect class="cls-2" y="0.24" width="1240" height="450"/><text class="cls-3" transform="translate(74.44 197.39)">illust<tspan class="cls-4" x="122.69" y="0">r</tspan><tspan x="143.04" y="0">ations</tspan></text><g class="cls-5"><path class="cls-6" d="M28.59,422.76-468.73,135.19a4,4,0,0,0-4.31.16l-24.68,16.73a4.07,4.07,0,0,0,.26,6.89L-17.78,434.21"/><path class="cls-6" d="M165.42,368.94-331.9,81.38a4.07,4.07,0,0,0-4.31.15l-24.67,16.74a4.05,4.05,0,0,0,.26,6.88L119.05,380.39"/><path class="cls-7" d="M3.8,223a11.24,11.24,0,0,0-2.4-7,15,15,0,0,0,1.15-5.77A14.92,14.92,0,0,0-3.3,198.37a11.58,11.58,0,0,0,.19-2.05,11.27,11.27,0,0,0-11.28-11.27,11.22,11.22,0,0,0-5.1,1.22,11.92,11.92,0,0,0-7.91-3,12,12,0,0,0-11.4,8.29,15.72,15.72,0,0,0-14.37,15.66,15.64,15.64,0,0,0,.85,5.1A9.7,9.7,0,0,0-56,220a9.74,9.74,0,0,0,7.71,9.53,16.43,16.43,0,0,0,16.38,15.21A16.4,16.4,0,0,0-19,238.42a11.61,11.61,0,0,0,3.14.43,11.51,11.51,0,0,0,9.25-4.65A11.26,11.26,0,0,0,3.8,223Z"/><g id="_7" data-name="7"><path class="cls-8" d="M13.18,330.23a1.39,1.39,0,0,0,.86-.29l6.12-4.59c1.31-1.09-.41-3.26-1.72-2.29l-6.12,4.59a1.43,1.43,0,0,0,.86,2.58Z"/><path class="cls-9" d="M-36.47,363.22l48.39-34.9c.93-.61,2.14,1.28,1.31,1.82L-35.16,365a1,1,0,0,1-.65.21,1.14,1.14,0,0,1-.92-.46A1.13,1.13,0,0,1-36.47,363.22Z"/></g></g><g class="cls-10"><circle class="cls-11" cx="937.41" cy="320.59" r="294.4"/><path class="cls-12" d="M1157.11,452.43H781.67c2-2,5-4.8,8.81-7.91a145,145,0,0,1,22.78-14.88c10.86-6,12.37-6.74,13.67-7,5.7-1.1,8.64.39,15.08-1.32a33.28,33.28,0,0,0,9.87-4.55c15.66-9.89,26.8-13.91,34.21-19.06a28,28,0,0,0,4.93-4.23c11.29-12.48,4.79-33.14-1.37-61.51-13.48-62.14-21.72-100.13-6.38-130.31,10.66-21,32.54-37.83,57-41.47,29.73-4.42,52.72,12.31,60.44,17.93,26.49,19.27,34.86,46.56,37.37,57.1,3.3,13.89,1.79,27.38-1.22,54.38-2.1,18.88-4.65,31.43-13.36,74.42-.79,3.87-9.15,45.18-9.72,48,6.3.1,16.52.37,29.16,1.22,23.68,1.59,24.09,3.08,42.52,3.94s22.43-.41,32.51,2.74a68.09,68.09,0,0,1,21.56,11.23A66.17,66.17,0,0,1,1157.11,452.43Z"/><path class="cls-13" d="M918.76,394.91a38.17,38.17,0,0,1-7.9,11.74c-7.25,7.29-14.52,8.29-23.69,11.75-20.35,7.68-17.63,15.25-35.23,21.06-14.06,4.64-14-.79-31.39,3.85-11.12,2.95-16.77,6.65-23.35,9.12H781.67c2-2,5-4.8,8.81-7.91a145,145,0,0,1,22.78-14.88c10.86-6,12.37-6.74,13.67-7,5.7-1.1,8.64.39,15.08-1.32a33.28,33.28,0,0,0,9.87-4.55c15.66-9.89,26.8-13.91,34.21-19.06A315.71,315.71,0,0,1,918.76,394.91Z"/><path class="cls-14" d="M970,372.23a50.12,50.12,0,0,1-7.29,8,49,49,0,0,1-10.56,6.6c-6.34,2.94-13.42,6.21-20.88,5-1.38-.22-3.22-.67-4.71.38-2,1.39-1.31,4-2.43,8.05-1.62,5.83-5.57,9.61-5.92,9.41s1.08-2,1.44-5.31c.2-1.91.48-4.43-.84-5.62-1.49-1.37-3.83.09-9,.83-5.5.79-5.88-.4-9.8.31-4.71.84-6,2.89-11.54,5.92-7.23,3.92-14.92,5.81-15.31,5-.52-1.08,12.73-5.51,25.33-17.83,5.7-5.58,14.7-14.38,17.39-27.65,2.24-11-.87-20.29,1.44-21,1.63-.46,3.42,4,9,10.33a57.72,57.72,0,0,0,13.29,11.39,49,49,0,0,0,24.53,7.07A16.56,16.56,0,0,0,970,372.23Z"/><path class="cls-13" d="M984.78,201.32c-10.16-3.18-10.17-4.44-16.61-5.47-6.6-1.06-7.24.16-12.15-1.22-8.24-2.31-8.82-6.43-14.37-6.68s-9.86,3.59-13.68,6.94c-1.38,1.22-5.93,5.41-10,14.11-1.38,3-2.34,5.66-5.9,22.69-2.58,12.34-3.82,19.24-4.46,22.88C906,264.18,905.11,269,905.19,271c.47,10.65,5.69,12.88,11.34,27.13,3.27,8.23,4.55,15.34,7.09,29.57,2.47,13.77,2.07,17.76,5.88,24.5a40.72,40.72,0,0,0,13.77,14.38A41.78,41.78,0,0,0,970,372.23a31.13,31.13,0,0,1-15.5,2.33c-7.49-.87-12.56-4.43-16.9-7.5-3.9-2.74-8.8-8-18.43-18.32-3.29-3.53-4.93-5.3-5.47-5.94a80.3,80.3,0,0,1-14.78-27.31c-1.87-6-2.5-12.08-3.74-24.17a216.15,216.15,0,0,1-1.37-25.2,199.37,199.37,0,0,1,1.61-24.38c1.24-9.41,3.09-22.66,9.6-38.19,3.59-8.55,5.53-13.19,10.2-18.54,2.54-2.9,11.47-12.83,26.53-15.59,12.09-2.22,21.62,1.38,27.89,3.75,4.64,1.75,10.7,6,22.83,14.38,3.79,2.62,20.94,14.69,22.28,23.49.12.78.52,3.41-.51,3.94-.75.4-2-.51-3.74-1.92-3.8-3-5.69-4.47-6.38-5.16C1000.64,204.41,997.13,205.17,984.78,201.32Z"/><path class="cls-14" d="M1065.78,448c-1.64-6.53,1.28-8.05.2-15.8a20.87,20.87,0,0,0-3.74-9.92c-1.49-2-2.75-3.63-4.86-4.15-3.7-.92-6.7,2.51-9.4,3.72a3.35,3.35,0,0,0,1.09,1.64c3,2.24,6.27-1.21,9.72.91,3.17,1.95,3.44,6.74,3.55,8.71s.45,8.18-3.35,9.92c-2.92,1.35-7.22-.39-8.7-3.14-1.63-3,.82-6.06-.91-7.79-1-1-2.59-.75-6.28-.2-11,1.63-11.95,1.66-12.56,1-2.29-2.48,3.77-11.53,4.66-12.86a43.53,43.53,0,0,1,6.09-7.22c-2-4.74-4.94-7.32-8.52-12.12-11.62-15.58-8.58-25.6-17.21-29.56-5.12-2.36-10.34-.74-16,1-17.49,5.41-16.47,17.77-32.6,22.78-8.63,2.68-14.1.76-21.46,6.38-2,1.51-1.88,1.87-8.41,7.69-5.5,4.9-8.24,7.35-11.44,9.72-8,5.9-11.94,8.85-12.25,9-1.49.76-3.57,1.73-3.65,3.23-.06,1.18,1.1,2.29,4.56,4.36,5.38,3.21,8.07,4.82,11,5.26,5.65.86,5.91-1.94,13.87-1.52a50.69,50.69,0,0,0,7.9.21,23.85,23.85,0,0,0,5.67-.81c4.73-1.63,5.3-7,11-17.82,5.39-10.21,7.63-10.74,8.71-10.74,2.33,0,3.23,2.49,7.69,5.88s8.09,2.32,9,4.86c.67,1.85-.34,4.09-1.43,5.36-2.45,2.9-6.14,1.74-6.78,3.55s2.77,4.74,6.08,7.49c2.8,2.33,4.2,3.49,6.18,4.05,3.61,1,5.31-.56,9.11.31a9.7,9.7,0,0,1,5.77,3c1.9,2.35,2,5.6,2.08,8.76.07,2.81-.34,3,0,3.8,2.35,5.83,25.19,4.46,27.18-2.13.52-1.73-.56-3.31.61-4.76,1.6-2,5.51-1.33,7.39-1,5.29.89,6.22,3,12.15,4.86,2.32.73,8.08,2.55,9.62.5C1068.13,453.21,1066.7,451.61,1065.78,448ZM948.33,418.91c-3.08,4-8.64,11.34-16.2,11.33-1.85,0-4.91-.43-5.37-1.92s2.14-3,6.18-7.29c2.33-2.5,1.57-2.14,6.88-8.61,4.86-5.9,6.28-7.17,8.41-7.49,1.58-.23,4.19-.06,5.26,1.52C955.53,409.45,950.75,415.72,948.33,418.91Zm72-12.16c-2.52,3.49-5,1.62-10.63,6.18-2.78,2.24-3.42,3.7-7.9,7.19s-5.44,3.33-6,3c-1.31-.71-1.55-3.74-.4-5.77,1.24-2.2,3.41-2,6-3.55,3.23-1.92,4.45-5,6.89-11.24a55.26,55.26,0,0,0,3.44-13.76,12.13,12.13,0,0,1,8.61,4.65A11.77,11.77,0,0,1,1020.32,406.75Z"/><path class="cls-13" d="M865.81,425.54c-.06.67,12.46,2.19,14.43,2.43,13.94,1.69,19.08,1.27,21.11,1.06,4.77-.48,9.29-1.49,9.26-1.67s-2.13.13-6.61.46a87.26,87.26,0,0,1-10.4.45c-3.68-.22-2.93-.79-9.57-1.9a81.29,81.29,0,0,0-12.38-1.14C869.85,425.21,865.84,425.16,865.81,425.54Z"/><path class="cls-15" d="M870,430.09c.89-1.72,6.28.56,14.66.84a78.88,78.88,0,0,0,11.54-.61c5.19-.65,9.49-1.7,10.1-.38a1.42,1.42,0,0,1-.22,1.22c-1,1.65-4.32,1-7.6.91-3.58-.09-2.46.62-10.78,1.67a82.34,82.34,0,0,1-11.62.3c-2-.06-4.51-.21-5.62-1.9C870.32,432,869.59,430.86,870,430.09Z"/><path class="cls-15" d="M957.54,256.8c-1.79,1-.2,5.72.46,12.15.72,7.1-.59,7.56.15,17,.09,1.16.7,9,1.52,9,.63,0,1.09-4.67,1.21-5.92.6-6,0-9.07-.3-14.88-.52-10.64.71-16.46-1.67-17.37A1.79,1.79,0,0,0,957.54,256.8Z"/><path class="cls-15" d="M940.43,300c1.49,1.87-4.29,6.46-2.53,10.83,1.36,3.38,6.05,3.71,5.87,5.67-.13,1.49-2.93,2.59-5.06,2.73-3.62.25-6.93-2.17-8.61-5s-2.38-7-.2-10.43C932.71,299.52,939.12,298.39,940.43,300Z"/><path class="cls-15" d="M956.93,299.12c-.47.33-2.54,1.76-2.22,2.84.48,1.64,6.51,2.65,8.5-.1.73-1,1-2.64.31-3.55C962.37,296.87,959,297.72,956.93,299.12Z"/><path class="cls-15" d="M982.25,287.38c-1,1.64,3.77,4.19,4.25,9.62.44,5-3.37,6.68-2.53,11.14.67,3.53,4,7.2,7.19,7.29,1.06,0,3.72-.29,11.74-14.38,5.1-9,8-14.22,6.38-15.9s-6.19,3.05-15.19,3.14C987.48,288.36,983.23,285.82,982.25,287.38Z"/><path class="cls-15" d="M970.91,201.82c-2.71-.42-9.34-1.45-11.24,1.93a5.83,5.83,0,0,0,1.31,6.68c2.08,1.79,6.49.45,15.29-2.23,3-.92,4-1.34,4.05-2C980.49,204.53,975.24,202.49,970.91,201.82Z"/><path class="cls-14" d="M946.57,295.26a24.5,24.5,0,0,0-2.3,5.89,12.1,12.1,0,0,0-.49,5.24c.08.78-.27,4,2.24,6.12a8.17,8.17,0,0,0,5.9,1.89,6.55,6.55,0,0,1-2.5,1c-3.47.53-6.07-2.1-6.38-2.43a8.92,8.92,0,0,1-2.28-5.39C940.05,301,945.74,296,946.57,295.26Z"/><path class="cls-13" d="M946.91,251.84a27,27,0,0,1,5.16,10.33c1.06,4.23.31,5.55-.7,20.05-.88,12.43-.25,10.39-.71,12.55-.84,3.92-2.33,8-.31,11a23.12,23.12,0,0,0,1.83,2.22c2.64,3,4.07,3.43,3.94,4.36-.16,1.26-3,2.16-5.36,2a8.9,8.9,0,0,1-6.18-3.34c-2.4-3.15-1.35-7.25-.71-9.92,1-4.14,2.34-4.5,4-8.51,2.54-6.31,1.94-12.23,1.52-16.4-.43-4.33-.75-7.49-2.53-10.93-5.27-10.21-17.25-11-16.91-16.1.16-2.34,2.81-4.15,4.76-4.66C939.88,243.18,945.24,249.79,946.91,251.84Z"/><path class="cls-14" d="M962.63,310.19c0-.19,1.77-1.21,4-1.29,2.05-.08,3.91.65,3.88.87s-.63.13-1.86.15-1.74,0-2.36,0C964,309.84,962.67,310.34,962.63,310.19Z"/><path class="cls-14" d="M953,309.5c-.52-.27-1,.24-2.24.69-1.58.58-2.74.46-2.74.64s.79.3,1.48.31a24,24,0,0,0,2.59-.46c.83-.09,1.24,0,1.36-.27S953.3,309.69,953,309.5Z"/><path class="cls-15" d="M1074.29,434a49.69,49.69,0,0,0,15.39,5.67c17,3.19,25.31-4.92,39.08-1.82,11,2.48,22.72,11.49,21.67,17.42-2.22,12.49-63.06,22.5-75.74.2C1072.84,452.21,1070.55,445.7,1074.29,434Z"/><path class="cls-13" d="M940.2,267.36a16.67,16.67,0,0,0-3.39-7,15.88,15.88,0,0,0-9.57-4.94c-3.26-.53-3.41.37-11.69,1.3-6.64.74-8.25.35-9.95,1.89-2.08,1.89-2.18,4.82-2.28,8.43a35.17,35.17,0,0,0,2.74,14.43,51,51,0,0,1,6.37-4.18,66.29,66.29,0,0,1,11.47-4.78c4.4-1.5,5.31-1.51,9.72-3.11C936.39,268.4,938.75,268,940.2,267.36Z"/><path class="cls-13" d="M976,261.66c.21-4.15,6-6.72,6.78-7.09,2.87-1.28,5.43-1.19,10.53-1,4.91.17,7.37.26,9.93,1.32,3.49,1.44,6.39,4,9.62,3.64.27,0,.92-.11,1.11.21.57.93-3.56,4.4-3.75,4.55a28.44,28.44,0,0,1-10,5.17c-6.75,2.16-10.12,3.25-14,2.32C981.65,269.69,975.75,266,976,261.66Z"/><path class="cls-13" d="M982.91,335.32a30.76,30.76,0,0,1-3.46,5.51,24.17,24.17,0,0,1-9.72,8,26.55,26.55,0,0,1-14.8,1.2C963.84,345.27,974,340.09,982.91,335.32Z"/><path class="cls-14" d="M945.73,330.67c-4.08.82-6.12.93-7.22.8a1,1,0,0,0-.76.16c-.84.73.62,3.68,1,4.35a23.54,23.54,0,0,0,5.52,6.83c3.91,3.73,5.87,5.59,6.27,5.83,5.51,3.15,12.66.56,15.85-.85Z"/><path class="cls-13" d="M960.24,316.3c-1.45.9-1,3.56-.76,5.13.32,1.95,1.28,4.87,2.28,4.82s1.35-2.27,1.78-4.22c.58-2.58.93-4.18,0-5.2A2.82,2.82,0,0,0,960.24,316.3Z"/><path class="cls-15" d="M962.76,315.63c-.06.17-.85,2.54.55,4.1.11.12,1.15,1.24,2.18,1s1.54-2.18,1.42-3.39c0-.24-.26-2.53-1.77-2.84A2.53,2.53,0,0,0,962.76,315.63Z"/><path class="cls-15" d="M958.87,319.26c-.57.09-.89,1.85-.64,3.3.19,1.16.84,2.72,1.36,2.66.71-.08,1.38-3.17.15-5.16C959.58,319.79,959.22,319.21,958.87,319.26Z"/><path class="cls-16" d="M982.91,335.32a37.52,37.52,0,0,1-7.45.86c-3.19,0-3.71-.4-6.93-.35s-3.33.45-8,.66c-4.06.18-5.2-.08-6.23-.51-1.87-.79-1.85-1.56-3.64-2.13s-2.9-.07-5.72,0a28.58,28.58,0,0,1-5.77-.4c3.62-1.7,6.74-2.93,9.11-3.8,3.65-1.34,4.76-1.53,6.07-1.29,2.54.46,2.92,2,5.55,2.13a19.29,19.29,0,0,0,4.78-.92,26,26,0,0,1,3.57-.91,9.28,9.28,0,0,1,5.32,1.68C975.82,331.66,978.78,333.26,982.91,335.32Z"/><path class="cls-17" d="M982.91,335.32a45.28,45.28,0,0,1-5,5.24c-3.54,3.16-6.79,6-11.76,7.29-1.49.38-7.15,1.8-12.54-.83-1.36-.67-2.21-1.35-8.88-8-2.28-2.26-4.18-4.16-5.54-5.54a28.58,28.58,0,0,0,5.77.4c2.82-.12,3.86-.63,5.72,0s1.77,1.34,3.64,2.13c1,.43,2.17.69,6.23.51,4.67-.21,4.8-.61,8-.66s3.74.36,6.93.35A37.52,37.52,0,0,0,982.91,335.32Z"/><path class="cls-18" d="M982.91,335.32a9,9,0,0,1-2.08,1.32c-1.76.74-3.22.48-5.26.3a49,49,0,0,0-7.14-.1c-2.35.17-2.16.42-5.37.76s-4.74.5-6.63.2c-2.25-.35-2.31-.85-5.52-1.42-1.95-.34-3.89-.49-4-.5-2.57-.21-3.39,0-4.76-.51a8.27,8.27,0,0,1-3-1.87,28.58,28.58,0,0,0,5.77.4c2.82-.12,3.86-.63,5.72,0s1.77,1.34,3.64,2.13c1,.43,2.17.69,6.23.51,4.67-.21,4.8-.61,8-.66s3.74.36,6.93.35A37.52,37.52,0,0,0,982.91,335.32Z"/><path class="cls-19" d="M966.81,340c-3-.27-3.48.1-5.55-.07-3.4-.29-4.54-1.48-6-.61-.83.51-1.48,1.56-1.21,2.2.37.9,2.29.34,5.27.72,4.81.62,6.23,2.88,8.47,1.87,1.45-.66,2.5-2.34,2.13-3.19C969.81,340.52,969.38,340.19,966.81,340Z"/><path class="cls-20" d="M969.4,333.35c-.34-.75-2.77-.87-3.93.38-.15.16-.67.72-.5,1.14.31.76,2.92.93,4-.38C969.1,334.36,969.59,333.77,969.4,333.35Z"/><path class="cls-20" d="M957,333.63c-.19-.87-1.67-1.39-2.78-1-.16.06-1,.32-1,.76,0,.81,2.54,2.05,3.45,1.24A1.07,1.07,0,0,0,957,333.63Z"/><path class="cls-20" d="M961.65,331.53c.4,0,1.12,1.21.66,2.27-.3.69-1,1.24-1.37,1.07C960.35,334.54,961,331.55,961.65,331.53Z"/><path class="cls-21" d="M938.1,265.5a19.65,19.65,0,0,1-2.31,1.59c-.72.42-2.63,1.11-6.82,1.81a19.63,19.63,0,0,1-7.84-.15,14.89,14.89,0,0,1-9.08-5.87,19.63,19.63,0,0,1,3.54-2.24,20.92,20.92,0,0,1,6.34-1.9,19.32,19.32,0,0,1,6.19-.23,17.6,17.6,0,0,1,3.49.87,10.51,10.51,0,0,1,4.78,2.85A8.19,8.19,0,0,1,938.1,265.5Z"/><path class="cls-22" d="M933.34,260a4.88,4.88,0,0,1-.28,2.63c-1,2.52-4,3.13-4.63,3.27a6.43,6.43,0,0,1-5.26-.86,6.3,6.3,0,0,1-2.26-6.05,15.39,15.39,0,0,1,1.88-.51,16.29,16.29,0,0,1,4.81-.17A17,17,0,0,1,933.34,260Z"/><path class="cls-23" d="M927.13,258.57a1.92,1.92,0,0,0,.53,1.48c1,.87,3.18-.28,3.15-.84s-1.32-.71-2-.78A4.94,4.94,0,0,0,927.13,258.57Z"/><path class="cls-23" d="M927.49,262.25a1.21,1.21,0,0,0-.11,1.44c.58.7,2.57.09,2.71-.66.06-.32-.23-.61-.34-.72A1.62,1.62,0,0,0,927.49,262.25Z"/><path class="cls-24" d="M938.71,267.53a15.84,15.84,0,0,0-2.38-4,12.77,12.77,0,0,0-3.75-3.29c-2.23-1.22-4.27-1.24-6.68-1.26a22.37,22.37,0,0,0-9.06,1.77,21.12,21.12,0,0,0-5.47,3.49l-2.07-1.52c1.33-.58,3.25-1.39,5.61-2.27a37.68,37.68,0,0,1,6.89-2.18,21.85,21.85,0,0,1,6.43-.3,13.51,13.51,0,0,1,7.31,3A8.65,8.65,0,0,1,938.71,267.53Z"/><path class="cls-21" d="M980.1,260.42a10.05,10.05,0,0,0,1.94,3.85c2.37,2.88,6,2.47,7.14,2.52a20.1,20.1,0,0,0,9.32-2,23.22,23.22,0,0,0,7.33-5,6.73,6.73,0,0,0-2.33-2,13.86,13.86,0,0,0-5.58-2,23.67,23.67,0,0,0-4.84-.38,20.29,20.29,0,0,0-6,.85A18,18,0,0,0,980.1,260.42Z"/><path class="cls-22" d="M996.32,255.46a7.51,7.51,0,0,1,.58,2.1,5.87,5.87,0,0,1-.65,4.15c-1.34,2-3.94,2.06-4.38,2.08a7,7,0,0,1-4.71-1.82,9,9,0,0,1-3-4.61,23.22,23.22,0,0,1,12.12-1.9Z"/><path class="cls-23" d="M990.25,255.66a2.1,2.1,0,0,0,.43,2.33,2.07,2.07,0,0,0,3-.2,2.09,2.09,0,0,0,.07-2.38Z"/><path class="cls-23" d="M990.52,259.64c.25-.62,2.35-.78,2.84.1a1,1,0,0,1-.05,1c-.37.52-1.31.44-1.9.13S990.38,260,990.52,259.64Z"/><path class="cls-24" d="M977.34,263.53a23.81,23.81,0,0,1,7.39-5.82,20,20,0,0,1,7-1.92,17.72,17.72,0,0,1,6.88.71,22.43,22.43,0,0,1,5.67,2.88c1,.66,1.82,1.28,2.38,1.72l2.73-2.07a23.13,23.13,0,0,1-3.49-1c-1.59-.58-2.08-.95-3.54-1.52a23.73,23.73,0,0,0-4.69-1.27,24.48,24.48,0,0,0-5.81-.3,19.94,19.94,0,0,0-7.06,1.71C979.77,259.05,977.22,263.42,977.34,263.53Z"/><path class="cls-25" d="M976.77,247.33a1,1,0,0,0,1.3.73A62.17,62.17,0,0,1,988.83,245a67.62,67.62,0,0,1,11.44-1.11,70.67,70.67,0,0,1,15.49,1.52v-2.53a24.31,24.31,0,0,0-6-2.74,27.92,27.92,0,0,0-9.42-.91c-2.72.13-5,.51-12,2.23-3,.75-6.84,1.75-11.29,3a1,1,0,0,0-.7,1.11Z"/><path class="cls-25" d="M939.79,247.53a.94.94,0,0,1-1,1c-3.88-.35-13.47-1.18-23.34-1.62-9.19-.41-12-.18-14.58.5-.48.14-1.92.55-2,.31s3.25-2.21,6.28-3.75a1.23,1.23,0,0,1,.41-.13A96.57,96.57,0,0,1,919,242.73a97.58,97.58,0,0,1,20,1.87,1,1,0,0,1,.76.91Z"/><path class="cls-25" d="M1058.24,242.45c-2.65-13.86-5.5-24.06-5.55-24.22-10.35-37.13-10.12-36.66-11-39-6.78-18.12-10.17-27.19-18.53-34.93-4.66-4.32-6.62-4.51-11.79-6.61A119.12,119.12,0,0,1,993.23,128s-8.34-5.18-23.39-8.15a8,8,0,0,0-4.55.25c-1.42.55-1.89,1.3-2.89,1.92a5.45,5.45,0,0,1-.53.29h0a5.2,5.2,0,0,1-1.55.46h0c-1.93.29-4-.31-5.68-.66a11.13,11.13,0,0,0-1.63-.07c-1.89,0-5.3.16-10.51.38-1.14,0-2.45.18-3.89.39-.22,0-.45.06-.68.11h0a66.19,66.19,0,0,0-26.41,10.84,20.27,20.27,0,0,0-5.68,5.57c-2,2.68-5.59,7.2-15.18,17.11l-.58.61c-3.32,3.42-6.3,6.58-8.23,11.74-1.4,3.78-.79,4.75-2.83,12.86a70.23,70.23,0,0,1-3.74,12c-2.43,5.58-3.77,6-5.67,10.73a41.66,41.66,0,0,0-2.74,12.35c-1,9.16.84,11.45.2,22.69-.1,1.92-.28,4-.5,8.5-.19,3.69-.19,4.91-.41,7.19-.36,3.86-.9,6.45-1.11,7.7-1,6.12,1,8.06,1.72,17.92.65,8.67-.71,10-.3,20.55a34.51,34.51,0,0,1-.21,5.67,35.15,35.15,0,0,1-2.23,8.61c-2,5.63-1.56,11.89-.71,24.4.37,5.32.65,5.41.61,8.5-.06,5.66-1,9.78-2.32,15.09a116.17,116.17,0,0,1-5.27,16.41c-3.28,7.93-4.13,7.24-6.17,13.26a66.68,66.68,0,0,0-3.25,16.4,75.14,75.14,0,0,0-.1,10.73c.9-.36,2.38-.94,4.26-1.51a53.8,53.8,0,0,1,7.38-1.73c3.39-.56,6.9-2.16,15.14-6.42l8.46-4.41c10-5.22,15-7.83,15.39-8,6.44-2.79,9.78-3.56,13.46-6.89a25,25,0,0,0,6.79-10.63q.2-16.44.4-32.9a85.49,85.49,0,0,1-5.56-6.58,87.9,87.9,0,0,1-12.66-23.09c-2.93-8-3.77-15.12-4.68-27.17-.15-2.06-.31-4.27-.48-6.65A211,211,0,0,1,893.9,260a171.7,171.7,0,0,1,5.93-40.09c3.6-13,5.51-19.56,11.24-26.13,6.09-7,13.26-10.57,19.13-13.51,8.57-4.29,14-7,21.27-6.84,8.12.17,14.17,4.06,26.27,11.85,6.1,3.92,10.35,7.29,17.93,13.36,10.35,8.29,15.53,12.43,18.37,15.49,2.42,2.61,22.08,19,22.52,43.67a197.59,197.59,0,0,1-1.42,20c-.61,5.35.4,13.25-1.46,20.47-1.21,4.73-4.91,5.8-5.67,8.46h0c.51.17-13.18,45-11.46,44.61,2.63-.57,6.24,22.33,8.76,22.07s14.14-13.6,15.54-14.69c6.13-4.77,8-69.6,14-83.65,2.12-4.92,2.24-3.78,3.34-6.91C1061.12,260,1060.18,252.59,1058.24,242.45Zm-5.62,19c-2.58,9.3-3.86,14-4.66,15.59-2.28,4.7-4.63,7.52-5.27,12.15a18.71,18.71,0,0,1-1,4.05c-.81,2.2-1.63,4.41-3.64,5.27a5.53,5.53,0,0,1-4.36-.21c1-14.75,1.62-29.43,2.67-44.19a22.17,22.17,0,0,1,5.43-9c2.28-2.45,3.94-3,4.66-3.24s3.32-1,5.37.4c1.53,1,2.1,2.78,2.43,4.56C1055.17,251.94,1054,256.4,1052.62,261.46Z"/><path class="cls-25" d="M939.32,172.81a61,61,0,0,1-4.56,11.24c-3.67,6.94-6.52,9-9.11,15.8a30.63,30.63,0,0,0-2.28,9c-.2,2.48-1.11,13.5,6.53,19.74,6.69,5.47,15.72,3.85,17.47,3.5,4.15-.86,4.62-2.3,9.26-3,1.47-.24,4.61-.61,13.21,1.21a83.44,83.44,0,0,1,18.53,5.62,75.5,75.5,0,0,1,13.82,8,52.49,52.49,0,0,0-8.77-6.64,59.27,59.27,0,0,0-14.77-6.19c-1.42-.43-6.63-1.38-17-3.27a18.49,18.49,0,0,0-6-.3c-3.23.4-4.11,1.47-7.25,2.47-1.91.6-6.86,2.17-11.81.3a14.8,14.8,0,0,1-6.6-5.2c-3.05-4.06-3.3-8.36-3.54-12.23a29.3,29.3,0,0,1,1.64-12.07c.94-2.57,2.62-5.07,6-10.06,3.08-4.57,4.1-5.61,6.72-9.5,2.52-3.73,4.51-7.12,6-9.91Z"/><path class="cls-25" d="M929,179.09a40.62,40.62,0,0,1-3.85,11.19c-1.57,3-3,4.86-5,9.47a24,24,0,0,0-2,6.27,20.76,20.76,0,0,0,.46,7.75c.54,2.16,1.46,3.89,3.29,7.34s2.83,5.33,3.8,6.33,4.13,3.76,10.68,3.9a22.67,22.67,0,0,1-6-2.94,22.06,22.06,0,0,1-6.05-6.18,22.56,22.56,0,0,1-2.78-6.6,21,21,0,0,1-1-9.24c.4-2.69,1.36-4.53,3.29-8.2.6-1.14,1-1.83,4.23-6.91,2.9-4.59,4.35-6.88,4.91-7.7,1.5-2.21,3.66-5.21,6.5-8.66Z"/><path class="cls-25" d="M911.67,191a6.26,6.26,0,0,1,3.19,3.8c.43,1.62.32,4.2-1.44,5.39a3.9,3.9,0,0,1-2.28.61,5.25,5.25,0,0,0,2.05-1.82c.09-.15,1.66-2.67.31-5a4.75,4.75,0,0,0-2.89-2.12Z"/><path class="cls-25" d="M948.13,171.75a89.87,89.87,0,0,1,.3,14.68c-.38,5.88-1.09,7.53-1.82,8.71-1.88,3-4.74,4.34-9.52,6.48-6.6,2.94-8.3,2.07-11.8,4.91a13.56,13.56,0,0,0-5,7.29c-.69,3.05.31,5,.81,7.75.61,3.31.56,8.21-2.68,14.88a14.62,14.62,0,0,0,4-8.15,26.86,26.86,0,0,0-.21-5.11c-.31-4.17-.8-5.5-.4-8.21a9.27,9.27,0,0,1,1-3.59c1.23-2.16,3.26-3,6.58-4.4,7.51-3.1,7.67-3,9.57-3.9,2.82-1.4,5.72-2.84,8.25-5.77,3.38-3.92,4.22-8.34,4.91-12a35.74,35.74,0,0,0,.56-9c.91,1,2.26,2.35,4,3.89,4.06,3.61,6.08,5.42,9.22,6.54,4,1.44,7.78,1,10.63.7a30.82,30.82,0,0,0,6.12-1.31,28.36,28.36,0,0,0-34.52-14.43Z"/><path class="cls-25" d="M1012.83,210.33c-.2,7.66.06,14.16.4,19.13a189.73,189.73,0,0,0,2.43,19.75c1.82,10.29,3.19,13.09,3.75,14.17a31.64,31.64,0,0,0,10,11.24,41.18,41.18,0,0,1-6.83-8.86,43.87,43.87,0,0,1-4.76-12.7c-.36-1.69-.42-2.44-1.12-14.38-.54-9.38-.59-10.36-.6-12.2a121.7,121.7,0,0,1,.55-12.51Z"/><path class="cls-25" d="M900.13,210.33a37,37,0,0,0,7.19,4.25c2.75,1.22,5.72,2.12,10.33,4.45,1.57.8,3.23,1.71,4,3.57a6,6,0,0,1,.3,3.29,4.5,4.5,0,0,0-.43-2.43,4.63,4.63,0,0,0-1.19-1.46,10.17,10.17,0,0,0-3.31-2,47.41,47.41,0,0,0-6.76-1.69,26.17,26.17,0,0,1-7.22-2.74,6.64,6.64,0,0,0,1.77,4c1.6,1.58,3.87,1.82,5.8,2,2.24.23,3-.16,5.06.43a8.41,8.41,0,0,1,2.71,1.19,8.26,8.26,0,0,1,3.12,5c-.27,1.31-.53,2.62-.79,3.93,0-.86,0-4.48-2.58-6.41a8.13,8.13,0,0,0-4.35-1.31c-3.29-.32-4.47.79-7,.22a8.53,8.53,0,0,1-3.52-1.72,20.55,20.55,0,0,0,.73,9.85c1,3,2,6,4.59,7.37,2.86,1.51,6.87.54,10.22-2a8.16,8.16,0,0,1-2.68,3.49c-3.47,2.53-8.78,1.73-12-1a9.8,9.8,0,0,1-2.83-4.25,5.68,5.68,0,0,0-.75,3.32c.41,3.88,5.35,5.58,5.81,5.73,4.85,1.59,9.22-1.57,9.76-2a9.87,9.87,0,0,1-4.07,3.46c-3.27,1.48-6.43.48-8.58-.19a20.32,20.32,0,0,1-9.94-7.18c.77,2,1.82,4.87,3,8.36,1.61,5,2.42,7.49,2.43,9.49s-.48,6.63-6.23,12.15a19.47,19.47,0,0,0,3.49-5.92,19.91,19.91,0,0,0,1.07-9,20.76,20.76,0,0,0-5.17-11.4,34.21,34.21,0,0,1,8-32.95Z"/><path class="cls-25" d="M891.53,273c1.8,2.33,4.24,5.54,7.08,9.42,7.13,9.72,8.49,12.36,8.51,15.79,0,1.17,0,6.12-3.75,9a10.52,10.52,0,0,1-8,1.73,9.54,9.54,0,0,0,9.72-8.71c.27-2.36-.29-4.89-3.54-9.92a62.71,62.71,0,0,0-10.73-12.56C891.05,276.17,891.29,274.59,891.53,273Z"/><path class="cls-26" d="M918.05,347.83q-.19,16.46-.4,32.9a25,25,0,0,1-6.79,10.63c-3.68,3.33-7,4.1-13.46,6.89-.4.17-5.4,2.78-15.39,8l-8.46,4.41c7.24-12.24,8.63-15.84,8.05-16.26s-2.38,2.06-6.23,5c-8.27,6.37-17.5,8.85-17.91,8-.32-.61,5-2.57,10.93-8.5,6.62-6.58,12.53-15.69,10.93-17.31S869.24,386,869,385.59s8-3.43,12.3-10.63c2.47-4.15,2.49-9.55,2.43-20.2-.06-10.89-1.07-13.95-.3-23.24.44-5.48,1.45-12.29,2.58-12.3s1.84,8.41,2.73,8.36,1.33-7,1.21-14.13c-.15-10-1.5-16.48-.6-16.7,1.07-.27,3.74,8.71,4.55,8.5,1.41-.37-4.55-27.2-3.95-27.34.17,0,.72,2,1.37,3.95a63.16,63.16,0,0,0,3.83,9.13c.91,12.05,1.75,19.16,4.68,27.17a87.9,87.9,0,0,0,12.66,23.09A85.49,85.49,0,0,0,918.05,347.83Z"/><path class="cls-27" d="M1011.36,137.65c-.36.82-.76,1.69-1.17,2.61-3.89,8.7-4,9.44-5.36,10.33-5.53,3.64-11.62-1-26.74-3.34-12.56-1.95-18.84-2.92-25.91-.2-7.94,3-12.47,8.8-21.06,7.89-2.91-.3-3.61-1.08-6.28-.81-6.89.7-11.32,6.62-13.88,10-5,6.65-6.78,13.45-7.28,13.27-.29-.1.26-2.27.5-3.24a41.39,41.39,0,0,1,5.87-13.67c3-4.57,5.35-6.29,5.17-6.48-.43-.44-14.24,8.35-21.87,24.1a54.33,54.33,0,0,0-3.24,8.4,30.06,30.06,0,0,1,.1-5.26c1.07-10,6.91-16.05,5.77-16.81s-5.72,3.24-8.1,5.87c-4.27,4.72-5.85,9.12-6.38,8.91s.46-4.7,2.23-9.52a65.47,65.47,0,0,1,6.3-12.65l.58-.61c9.59-9.91,13.13-14.43,15.18-17.11a20.27,20.27,0,0,1,5.68-5.57,66.19,66.19,0,0,1,26.41-10.84h0a3.32,3.32,0,0,0,.68-.11c1.44-.21,2.75-.34,3.89-.39,5.21-.22,8.62-.37,10.51-.38a11.13,11.13,0,0,1,1.63.07c1.72.35,3.75,1,5.68.66h0a10.68,10.68,0,0,0,1.55-.46h0a5.45,5.45,0,0,0,.53-.29c1-.62,1.47-1.37,2.89-1.92a8,8,0,0,1,4.55-.25c15,3,23.39,8.15,23.39,8.15A119.12,119.12,0,0,0,1011.36,137.65Z"/><path class="cls-12" d="M1036.14,254.33a23.2,23.2,0,0,1,5.64-9.17c2.28-2.45,3.94-3,4.66-3.24s3.32-1,5.37.4c1.53,1,2.1,2.78,2.43,4.56.93,5.06-.22,9.52-1.62,14.58-2.58,9.3-3.86,14-4.66,15.59-2.28,4.69-4.63,7.52-5.27,12.15a18.71,18.71,0,0,1-1,4.05c-.81,2.2-1.62,4.41-3.64,5.27a6.28,6.28,0,0,1-4.56-.28C1034.53,283.48,1035.09,269.09,1036.14,254.33Z"/><path class="cls-14" d="M1049.28,251.54c-.44.59-1.06.53-2.48,1a8.52,8.52,0,0,0-2.69,1.26c-1.66,1.34-1.37,3.11-2.28,3.24s-1.94-1.3-2.22-2.68a4.79,4.79,0,0,1,1.11-3.8c2.33-2.83,7.57-2.92,8.66-1.21A2.11,2.11,0,0,1,1049.28,251.54Z"/><path class="cls-13" d="M1045.68,249.21c.53-1.11,3.81-1.32,5.22.2.54.58.78,1.4.71,3.39-.18,4.49-1.67,5.85-2.59,11.14-.09.53-.28,1.75-.66,4.2-.52,3.38-.5,3.4-.6,3.85-.45,1.93-1.23,3.35-2.79,6.12-2.58,4.61-3.55,5-4.2,5s-1.47-.1-1.57-.46c-.14-.54,1.44-1.21,2.68-2.18,1.91-1.46,2.64-3.31,3.8-6.37.73-1.91.55-2,2.08-8.76.65-2.89.92-5.85,1.67-8.71.47-1.79,1-3.48.15-4.35s-2.44-.22-3.44-1.42A1.78,1.78,0,0,1,1045.68,249.21Z"/><path class="cls-13" d="M1041.53,262.32c.67.1,1,1,1.42,1.92a10.65,10.65,0,0,1,.76,3.65,16.91,16.91,0,0,1-.61,4.71c-.54,2.08-1.29,5-2.78,5.21-.38.06-.91,0-1-.3s.33-.66.86-1.27a17.39,17.39,0,0,0,1.42-2,8.16,8.16,0,0,0,1.06-3.14,8.93,8.93,0,0,0,0-4.61c-.1-.35-.52-1.72-1.11-1.72s-.83.75-.91.91c-.33.67-.18,1.13-.41,1.22s-.87-.43-1.06-1.07a2.36,2.36,0,0,1,.41-1.87C1039.71,263.72,1040.57,262.18,1041.53,262.32Z"/><path class="cls-28" d="M1232.14,314.66c-7.06-1.66-10.1-4.17-17.16-6.68-5.56-2-6.92-1.56-13.52-3.18-10.81-2.66-11.54-4.81-29.77-12.16-14.26-5.74-17-5.73-20.35-10-4.31-5.6-2.28-9.16-7-13.87-5.09-5.1-13.21-6.68-19.44-5.87-7.59,1-8.77,5-16.8,5.46-4.7.25-4.65-1.12-12.16-2.22-11.15-1.65-14.59.88-24.9-.81a54.65,54.65,0,0,1-11.32-3.15,25.71,25.71,0,0,1-.65,3.24,29.85,29.85,0,0,1-2.22,5.73c-.56,1.12-.56,1-1.16,2.17-.79,1.62-1.27,2.85-1.86,4.38-.7,1.82-1.25,3.42-1.66,4.7-.59,1.83-1,3.29-1.32,4.5s-.33,1.31-.93,3.59c-.57,2.12-.85,3.2-1.1,4a24.39,24.39,0,0,1-1.56,4c-.55,1-2.68,5-6.74,6.18a15.46,15.46,0,0,1-4.75.39c-1.38-.09-1.69-.28-2.61-.27a8.89,8.89,0,0,0-5.16,2.07c-15.64,11.43-19.74,17.16-19.74,17.16-6.7,9.37-3,9.59-8.66,16.56-6.93,8.47-13.54,9.44-18.22,19.13-1.72,3.55-.91,3.57-2.74,7.14-1,1.88-4.73,8.78-14.73,15.19-11.51,7.38-21.56,7.9-21.57,11.85,0,2,2.68,2.92,2.89,6.76.12,2.21-.67,4,.3,4.78.72.59,1.84.18,2.51.08,2-.31,5,1.23,9.79,9,.21-.6,2.29-6.38,7.75-7.82a11.06,11.06,0,0,1,5.78.15,11.38,11.38,0,0,1,6,4c.56.77.42.94.69,1.07,2.16,1,8.46-9.18,18.3-21.87,4-5.14,5-9.94,8-9.95,2,0,3.47,1.85,4.63,3.34,3.82,4.9,7,14,3.19,22.66a22.61,22.61,0,0,1-10.2,10.7c3.7-1.86,6.88-3.19,9.28-4.12,3.85-1.48,5-1.67,5.7-1.75,3.91-.46,7.11.88,10.18,2.36,12.08,5.8,12.2,9.06,17.09,9.26,5.25.22,11.14-3.28,13.67-8.66a15.4,15.4,0,0,0,.85-10.12,27.26,27.26,0,0,0,7.29,8.2c3.29,2.4,4.71,2.19,6.43,4.51,2.37,3.17,1,5.3,3.5,8.95,2,2.86,5,4.75,5.62,4.26.46-.38-.45-2.23-1.22-3.8-1.51-3.07-2.52-3.63-3.49-5.77-1.23-2.68-.29-3.22-1.22-5.92-1.69-4.95-6.15-7-5.77-7.6s3.27.79,6.08,2.74c3.26,2.27,3.71,3.71,5.46,5,3.25,2.41,8.23,2.31,12,1.35a20.29,20.29,0,0,0,1.63,4,25,25,0,0,0,5.77,7.14c-2.5-5.6-2.38-7.47-1.67-8.05.4-.32,1-.25,2.13-.91a7.72,7.72,0,0,0,1.82-1.52c2.85-3.43-11.69-19.89-11.69-19.89-12.28-13.9-15-13.81-17.47-20.2-2.71-7.06-1.77-13.4-.76-20.2.92-6.17,2.63-17.67,9.72-20.2a8.78,8.78,0,0,1,6.08,0c4,1.67,4,6.18,7.74,10.48,2.9,3.27,5,2.94,10,5.77,5.39,3,5.11,4.55,20.2,20.66,5.83,6.21,7.08,7.28,9,10.47,3.94,6.72,2.38,8.78,5.77,12.76,4.92,5.78,9.28,2.7,16,9,4.89,4.59,5.4,8.94,9.26,9.27,3.22.27,6.49-2.43,6.23-3.35s-3.22.56-6.23-.6c-5.09-2-4.41-9-9.45-17.26a32.43,32.43,0,0,0,2.32-7.2c1.13-5.81.14-9.38,2.58-11.39,1.81-1.48,4.35-1.14,6.07-.91s5.88,1.14,13.82,9c5.69,5.6,7.31,8.82,10.64,8.65,1.92-.09,4-1.3,4.24-2.73.28-1.8-2.52-3.25-5.16-5.32-5.33-4.17-4.43-6.48-12-16.4-5.73-7.52-6.06-5.95-8.65-10.33-.39-.65-.75-1.3-1.07-1.95a27.42,27.42,0,0,1-1.15-2.49s0,0,0,0a50.34,50.34,0,0,1-3.1-13.16c-.83-6.07-2.58-18.92,2.13-21.1a2.9,2.9,0,0,1,1-.28c1.22-.1,3,.46,6.11,2.32l.62.38c8.54,5.24,14.17,11.76,18.68,17.62,7.85,10.2,9.32,14.52,16.25,18.23a39.71,39.71,0,0,0,6.53,2.58,106.18,106.18,0,0,0,24.57,5V315.88A45.45,45.45,0,0,1,1232.14,314.66Zm-208.78,24.16c-.62.22-2.51.89-3,.2-1.47-1.91,8.21-13.32,9.82-12.36C1031.4,327.42,1029.36,336.68,1023.36,338.82Zm18.63-7.4a2.23,2.23,0,0,1,2.83,1.12,2,2,0,0,1-.41,2.43c-1.06.76-3.45-.38-3.54-1.82A1.92,1.92,0,0,1,1042,331.42Zm4.65,47.49c-.4,4.92-2,9.62-2.83,9.52-.42-.05-.13-1.25-1-2.43-1.84-2.44-5.93-1.08-6.79-2.74-.54-1,.58-2.47,2-4.55,5.24-7.58,5.74-10.59,7-10.33C1046.82,368.75,1046.94,375.3,1046.64,378.91Zm8.51-18c-.76,4.12-2.66,8.26-3.34,8.1-.38-.09-.17-1.45-.31-3.64-.39-6.18-2.85-7.61-2.53-11.55.29-3.48,2.59-7.07,4-6.88C1055,347.16,1056.32,354.56,1055.15,360.89Zm10,19.44c-.87,2-1.86,1.45-2.83,3.44-1.62,3.3.5,6.05-1.32,7.8-.69.66-1.86,1.1-2.43.71-1.17-.83,1.66-4.28,1.12-9.12-.42-3.72-2.38-4-2.33-7.39,0-2.86,1.45-3.24,2.63-7.19,1.69-5.66.18-9.59,1.11-9.82s3.33,3,2.83,6.07c-.44,2.72-3,3.9-2.42,5.58.34,1,1.34.78,2.53,2C1066,374.4,1066.23,377.9,1065.17,380.33Zm14.33,16.81c6.39,5.09,7.94,3.42,10.63,6.83a11.06,11.06,0,0,1,2.28,5.39c-2.64-.18-4.49.78-7,.84-7,.15-14.05-7-15.49-13.82-.48-2.32-.58-5.79.76-6.38C1072.2,389.34,1074.23,392.94,1079.5,397.14Zm76.7-19c-1.49,3.67-2.72,6.86-3.65,9.32a29.72,29.72,0,0,1-4.1-4.46c-5.2-6.66-5.56-9.92-12-19.74-.31-.46-3-4.54-5.93-8.36a93.47,93.47,0,0,0-12.7-13.36h0c-1.59-1.41-3.32-2.89-5.25-4.48h0l-2.69-2.19c-17.07-13.77-19.8-13.25-27.65-21.42a84.84,84.84,0,0,1-13.06-17.77c1.95,1.7,4.88,4.2,8.51,7.14,6.68,5.43,10.25,7.88,16.1,12.3,1.73,1.31,5.33,4.19,11.74,9.35l6.55,5.27,1.45,1.18c14.49,11.68,15.13,12.27,17.77,13.52,8.69,4.08,11.88,2.35,19,7.28,3.18,2.21,9.53,6.62,10.18,13.22C1160.73,367.81,1159.76,369.36,1156.2,378.15Zm4.4-72.14c-.33,3-4.66,4.62-5.31,4.86-4.12,1.5-7.13-.13-7.75,1.06s2.31,3.13,5,7.29c.91,1.41,3.5,5.4,3.8,9.57.46,6.33-4.26,14.06-10,15.34-4.5,1-7.12-2.51-19.58-12.15-14.7-11.37-15.41-9.85-26.13-19.14a177.26,177.26,0,0,1-16.4-16.09,163.89,163.89,0,0,1-15.64-20.81c.92.42,2.33,1,4.09,1.67,5,1.79,6.95,1.64,8.81,3.49,1,1,.54,1.14,2.28,4.4,1.48,2.78,2.94,5.51,5.62,7.75,1.38,1.15,4.07,3.4,7,2.74,1.45-.33,3.08-1.4,3-2.44s-2.13-1.34-4.86-3c-1.46-.91-6-3.72-5.93-7.44a5.76,5.76,0,0,1,3.34-5c1.7-.67,3.82-.22,9.57,3.8,6,4.17,9.51,7.76,14.43,12.15,2,1.78,4.94,4.33,8.66,7.29a46.64,46.64,0,0,1,14.88-3.95c4.63-.42,12.71-1.15,18.23,3.65C1158.64,301.8,1160.86,303.73,1160.6,306Zm29.92,9.42c.45-.8,3-.12,7.6,1.06,4.77,1.24,7.39,1.92,10.17,3.8,3.09,2.08,2.93,3.33,6.69,7.29,5.62,5.93,10.18,7.55,9.87,8.2-.5,1-12.29-2.53-23.54-10.18C1196.26,322.17,1189.73,316.84,1190.52,315.43Zm35.55,31c-1.16,2-11.33-.44-19.3-5.62-8.23-5.35-13.76-13.34-12.9-14.28.47-.51,2.53,1.46,8,4.26,9.66,4.89,13.3,3.9,19,8.65C1221.15,339.64,1227.06,344.63,1226.07,346.41Z"/><path class="cls-29" d="M1103.34,320.59q6.2,11.06,12.38,22.1l3,.61q-4.7-9.65-9.41-19.29Z"/><path class="cls-30" d="M1169,314.82c.51,4.73.81,8.73,1,11.74a88.35,88.35,0,0,1,.3,12.36c-.28,4.14-.76,4.82-1,8.5a47.33,47.33,0,0,0,.61,11.54c.56-6.26,1.21-11.33,1.72-14.88.93-6.51,1.21-6.76,1.52-10.53a63.39,63.39,0,0,1,1.11-9.92,41,41,0,0,1,1.52-5.27Z"/><path class="cls-31" d="M1216,43.26c.53-1.25,1.39-2,6.53-5.47a11.21,11.21,0,0,0,3.19-2.73,5.57,5.57,0,0,0,.63-1,9.48,9.48,0,0,1,.73-1.56c1.4-2.09,4.23-2.5,8.36-3a39,39,0,0,1,6.49-.31V27.06a6.41,6.41,0,0,1-3.35.25c-.8-.16-2.47-.67-4.66-3.49-2.62-3.37-1.85-4.72-4.36-8.55-1.3-2-2.48-3.75-4.75-4.81l-.15-.07a9.73,9.73,0,0,0-5.73-.6,11.16,11.16,0,0,0-7,5.07c-2.06,3.36-.46,4.88-2.79,9.47-.78,1.54-2.46,4.84-5,4.9a3.05,3.05,0,0,1-2.58-1.26c-1-1.44-.35-4,1.93-6a7,7,0,0,0-3.35,2.23c-1.38,1.74-1,3.27-1.51,6.07-.34,1.79-1.65,4.43-4.26,9.72a55.65,55.65,0,0,1-2.84,5.47,9.84,9.84,0,0,1-1,1.1,13.41,13.41,0,0,1-5,2.77c-1.81.64-4,1.21-6.75,1.9l-.31.08c-6.68,1.69-10.07,2.52-13,1.26s-2.89-2.94-7.3-5.32a18,18,0,0,0-7.52-2.58c-4.82-.31-6.26,2.3-11.76,2.66a19,19,0,0,1-7.6-1.06c-6-2.39-9.63-9.34-11.12-16a33.65,33.65,0,0,1-.8-5.83c-.27-5.93,1.47-6.76,2.58-17.62,1.05-10.27,1.91-12.82.53-13.67-2.76-1.69-11.21,4.41-15.19,8.2a15.89,15.89,0,0,1-6.32,4.05,22.71,22.71,0,0,1-4.56.71c-6.5.74-9.74,1.11-11.24,1-3.17-.2-4.3-.79-5.87.1A4.36,4.36,0,0,0,1077.77,9a20,20,0,0,1-1.16,1.93,14,14,0,0,1-7.9,5.16c-5.17,1.24-9.89-2.05-11.44-3.13-5.18-3.61-7.37-10-11.54-22.68-2.49-7.58-4.36-13.3-5.86-17.71-1-3-1.92-5.44-2.71-7.4-1.57-3.87-2.83-6-4.5-7.68a14.91,14.91,0,0,0-1.61-1.43c-2.29-1.84-5-3.31-6.88-7-.18-.35-.34-.68-.47-1-2-4.67.25-7.37-1.66-13.89-1.52-5.2-4.66-9.4-7.39-13.06-3.39-4.54-6-6.72-5.57-9.82.32-2.23,2.08-3.83,3.54-4.86a27.56,27.56,0,0,1-4.75,1.52c-2.35.51-6.82,1.49-10.54.2-2-.7-3.57-2-11.84-15.8-.53-.88-1-1.67-1.42-2.37-1.48-2.47-2.25-3.79-2.43-4.2-3.62-8.57,0-12.13-2-21.17-.75-3.25-1-2-8.31-16.91-4.81-9.86-3.81-8.63-5.87-12.35A104.28,104.28,0,0,0,951-184.4a58.61,58.61,0,0,0-6.07-5.93c-3.46-2.82-4.83-3.15-6.08-5-2-2.95-2.75-7.48-.76-10.17.32-.43.69-.79,4.71-2.66a85.94,85.94,0,0,1,8.58-3.73c4.27-1.33,5.88-1.07,6.84-2.65s.85-3.92-.46-4.63c-.82-.45-1.94.1-3.49,1-4.64,2.63-8.25,5.28-12.31,7.29-2.71,1.36-3.67,1.45-4.4,1.07-1.25-.66-.91-2.24-2.88-5.09-.94-1.35-1.37-1.52-1.29-2,.14-1.2,2.43-1.65,7.13-3,7-2.07,8-2.87,8.12-3.72A2.48,2.48,0,0,0,947-226c-1.7-.65-3.7.94-4.94,1.82A35.43,35.43,0,0,1,926.71-218c-4.13.48-6.33.74-9.26.08-1.67-.37-3.56-1-4.56-.08a2.24,2.24,0,0,0-.38,2.59c.76,1.21,2.93.58,3.19,1.29.2.54-.91,1.38-2.44,2.44-.76.52-1.63,1.11-2.5,1.73-5.67,4.11-6.33,6.52-8.65,6.38-2.62-.15-4.41-3.37-5.22-4.83-3.63-6.54-.14-10.6-2.22-22.48-.71-4-1.19-4-1.83-8.4-.82-5.62-.55-9.13-2.23-9.73a2.76,2.76,0,0,0-2.63,1c-1.11,1.29-.42,2.95-.1,6.38a37.58,37.58,0,0,1-.31,8.81c-.41,3.63-.62,5.44-1.61,5.77-2.23.74-6.15-6.59-7.8-5.77-.42.21-.56.88-.61,1.11-.24,1.17.6,2,.91,2.84.72,1.79-.81,4-1.92,5.57-3.58,5-8.73,7.37-8.51,7.79s3.15-1.75,6.49-.91c1.35.34,3.31,1.29,3.54,2.73.16,1-.72,1.43-2.33,4.16-1.81,3.05-1.75,4.35-1.72,4.75.12,1.44.93,2.81,1.42,2.74.83-.12.05-4.4,1.92-5.37,1.24-.64,3,.5,3.14.61,3.15,2.1,1.18,6.26,3.19,10.91a9,9,0,0,0,.46.94c2.11,3.85,6.15,5.86,10.42,8,4.91,2.44,6.46,1.83,7.8,3.84,2.26,3.38-1.35,6.3-.31,12.46.18,1,2.42,4.75,6.89,12.25a104.86,104.86,0,0,1,5.27,9.21c1.64,3.46,1.71,4.35,3.14,6.68,2.43,4,3.95,4.19,6.17,7.19,3.77,5.09,4.21,11,4.46,14.18,0,.54.06,1,.07,1.53a21.81,21.81,0,0,1-.32,4.43c-.32,2-.66,3.31.25,5.78,1.37,3.73,3.41,4.31,4.55,8.71a16.92,16.92,0,0,1,.59,3.41,12,12,0,0,1-.38,3.88c-1.55,5.64-6.83,8.16-7.6,8.51a15,15,0,0,1-11.44.3c-3.26-1.28-3.69-3-6.38-3.14-3.54-.23-7.33,2.37-7.19,4.25,0,.68.6,1.08,1.42,1.49a17.86,17.86,0,0,1,4.55,2.66c3.36,3,4,7.29,4.46,10.63.25,1.74,2.28,17.5-8.1,24.71-4.76,3.31-10,3.33-12.86,3.34-9.25,0-10.28-4.48-20.55-5.87-3.52-.48-12.06-1.64-20.86,1.62-3.88,1.44-6.94,3.41-10.73,2.23-2.77-.86-5.27-3.2-7.3-2.13,0,0-1.06.58-1,1.22,0,.21.18.64,2.34,1.41s2.82.67,4.25,1.32A6.61,6.61,0,0,1,838-39.46c1.78,2-.76,4.78-.3,8.5.66,5.36,6.76,6.53,6.48,11.14a3.93,3.93,0,0,1-.06.48,7.44,7.44,0,0,1-1.86,3.57c-2.77,3.41-7,3.88-13.77,4.66-1.46.16-2.69.3-3.74.37a9.22,9.22,0,0,1-5-.68c-2.77-1.35-3.48-3.51-5.37-3.33-2.07.18-3.66,3-4.25,5.16-.89,3.22.36,5.35,1.82,10.73,2.24,8.2.52,7.48,2.13,10.53,2.22,4.22,5.76,6.07,11.74,12.56a16,16,0,0,1,1.83,2.32,16.73,16.73,0,0,1,2.42,6,13.83,13.83,0,0,1-.3,6.78c-2.28,6.42-11.49,8.59-15,9.42-5.55,1.31-10.16,1-10.23,1.92,0,.64,2,1.61,6.17,3.54,1.68.79,2.66,1.18,2.74,1.93.14,1.41-3.07,2.73-2.84,3.24.15.31,1.32-.23,2.94.2.59.16,1.59.43,1.82,1.12.4,1.15-1.75,2.46-1.41,3s2.1.28,3.54-.71,1.68-2.41,2.63-3.64c.34-.43,1.79-2.16,7.09-2.53,7.85-.56,15.9,2.42,19.95,4,10.73,4.06,10.52,4.49,14.68,5.87,6.69,2.23,10.33,2.17,39.89,5.27,5.32.55,11.71,1.29,13,4.86,1,3-2.29,5.68-1.21,7.28,1.79,2.69,11.65-4,24.9-4.86,12.73-.84,22.54,4,26.13,5.88,9.05,4.65,13.41,10.26,17.31,15.29.78,1,3.8,5,2.74,6.37s-5.18-.51-5.62.46c-.3.63,1,2.31,2.88,3,3.21,1.27,5.61-1.27,8,0,1.33.69,1.46,1.86,2.43,3.8,3.54,7,9.57,7,12,14,.42,1.2.91,2.63.3,3.19-1.38,1.27-6.42-3.89-15.64-8.66-7.93-4.11-8.75-2.65-17.77-7.44-4.92-2.62-8.33-5-9-4.25s2,4.23,3.49,5.92a24.43,24.43,0,0,0,3.11,2.94c.77.13,1.78.31,3,.56.88.19,2.94.63,5.68,1.42a77.57,77.57,0,0,1,9.37,3.23c2.94,1.24,5.07,2.37,5.6,2.65,2.62,1.4,2.84,1.75,6.4,3.81,1.55.91,3.8,2.21,6.76,3.66,2.78,1.36,5.16,2.36,6.38,2.86,3.8,1.58,4.25,1.55,5.94,2.48a25.64,25.64,0,0,1,5.2,3.88,40.73,40.73,0,0,1,6.7,8c2.92,4.46,4.49,8.24,7.51,15.6,1.46,3.55,3.23,7.91,5.17,13.95,1.07,3.32,1.15,3.93,3.83,13.67s2.72,9.59,4.8,17.27c1.94,7.15,2.93,10.83,4.13,15.85.37,1.56,0,.11,3.33,15.9a45,45,0,0,1,1.1,6.15c0,.44,0,.76,0,.92-.06,1.91-.12,5.35-.19,11.93a3.57,3.57,0,0,0,1.49,1.35,4.89,4.89,0,0,0,2.74.08c1.35-.14,4.79-.51,6.28-2.93,1.23-2,.21-3.83,1.52-4.86s3.17-.29,4,0c7.33,2.32,15.83,2.32,19.24,2.32,5.13,0,5.92-.94,9.52-.1,2.22.52,3.34,1.23,7.69,3.24,0,0,2.49,1.16,8.81,3.85,1,.41,18.05,7.45,31,.81,1-.51,5.38-2.85,11.44-5.47,3.48-1.5,5.2-2.09,7-1.41,2.58,1,2.82,3.66,5.87,4.55,1.53.45,3.68.42,4.16-.51.66-1.3-2.76-2.84-4.56-7.28-1.53-3.8-.22-5.61-2-7.3-1.5-1.39-3.63-1.32-6.79-1.21-4.66.16-5.82,2-8.3,1.62-1.82-.29-4.32-1.72-6.79-7.19l7.5,1.62c9,1.94,9.37,2,10.23,1.83,5.43-1.12,5.28-6.66,11.84-8.71,1.18-.37,1-.13,7.6-.61,7-.5,8.75-.89,11.23-1,3.84-.19,7.37.31,16.81,3.14,6.52,2,15,4.79,24.92,8.81V176.91a12.5,12.5,0,0,1-4.26,5.87c-2.24,1.63-4.67,2.08-9.93,2.34-7.12.34-9.34-.16-13,0-4.43.18-5.09,1.1-15.69,4.35-17.67,5.41-21,4.43-22.48,3.84-5.36-2.07-8.83-7.19-9.52-8.19-3.47-5.12-2.66-8.42-6.07-10.74-3.73-2.53-8.72-1.32-10.83-.81-1.07.26-3.2.88-16,7.8-1.34.72-3.13,1.69-4.66,1-1.79-.8-1.49-3.1-2.83-5.92-2.51-5.24-7-4.61-8.51-8.5s1.78-8.73,3.34-10.94c3.11-4.45,5.8-5.17,14.58-10.63,11.48-7.14,15.89-11.5,23.54-12,3.69-.25,5.33.59,6.07,1.06,3.56,2.24,2.45,6.06,6.08,8.66,2.64,1.88,3.93.38,7.45,2.58s3.65,4.54,5.31,4.41c2.2-.18,2.3-4.38,7-7.75.7-.51,2.56-1.82,3.49-1.22,1.08.7,0,3.38.91,4,.52.32,1.67,0,4.41-2.58,5.15-4.84,4.94-7.29,8-8.65,2.82-1.25,6.6-.84,7.74.91.83,1.26.11,3,.91,3.34.61.25,1.73-.47,2.13-1.37s0-1.34.3-1.52c.5-.29,1.42,1.36,3.5,2.13a4.51,4.51,0,0,0,2.73.3c1.72-.44,1.82-2,3.19-2.43,1.53-.51,3,.88,5,2.13a23.14,23.14,0,0,0,8,3v-4.11c-1.77-5.33-4.09-7.11-5.88-7.74s-3-.23-6.38-1.22a23.72,23.72,0,0,1-4.26-1.67,10.83,10.83,0,0,1-4-4.35,17.45,17.45,0,0,1,7.69-24.2c3.14-1.55,4.91-1.08,7.6-3a15,15,0,0,0,5.27-8.51V83c-.83.52-1.66,1-2.39,1.42-6.67,3.8-8.94,3.74-15.24,7.24-1.28.71-3.92,2.5-9.21,6.07-9.34,6.32-9.57,6.78-12.86,8.61-5.31,3-8.43,4.68-13.06,5.26-5.15.65-5.52-.94-10.73.11-2.63.53-4.33,1.29-10.44,2.73-3.6.85-4.86,1-5.06.61-.5-1,6.47-5,6.08-5.77-.07-.13-.38-.21-5.17,1.31-2,.65-4.13,1.17-6.17,1.82a7.28,7.28,0,0,1-3.75.52c-.49-.09-1.9-.36-2.29-1.28-.45-1.09.72-2.53,1.18-3.08,7.8-9.51,27.94-12.76,27.94-12.76,5.67-.92,10.61-1.21,10.73-.61s-4,1.41-9.72,4.46c-4,2.12-8.15,5-7.89,5.47.37.71,10.43-3.59,16.6-6.48a73,73,0,0,1,7.09-3.24c5.71-2.06,9.21-2,13.36-2.64,6.81-1.06,6.49-2.71,24.1-9.72,2.33-.92,4.8-1.91,6.9-2.69V58.6a21.21,21.21,0,0,0-6.49-2.58,19.27,19.27,0,0,0-2-.31h0c-2.07-.21-4.13-.11-8.66-.6a15,15,0,0,1-4.26-.76,9.58,9.58,0,0,1-5-8.51,7.74,7.74,0,0,1,.16-1.64A4.84,4.84,0,0,1,1216,43.26Zm20.35,179.62a1.69,1.69,0,0,1,.61,1.72c-.22,1-1.42,1.39-5.57,2.64-4.72,1.41-5.94,1.74-7.09,1-.86-.55-.64-1-1.52-1.73-2.57-2.05-7,0-7.09-.4s3.63-3.27,7.8-2.53c3.12.56,3.47,2.6,6,2.53C1232.94,226,1235,222.08,1236.39,222.88Zm-57.1-17.82c2.92-3.15,2.92-3.86,3.84-4.05,1.92-.37,2.66,2.57,5.67,4,2.75,1.27,4.49-.08,11.14-1.31,7.65-1.43,7.42,0,12-1.43,6.31-1.9,7.68-4.8,10.83-3.95s5.8,5,4.86,7.2c-.69,1.58-2.87,1.12-14.17,2.32-6.8.73-8,1.11-11.75,1s-4.36-.55-7.09-.2c-4.08.52-5.64,1.87-8.1.91-1.92-.75-1.84-1.93-3.85-2.44-2.67-.67-5,.88-5.26.31C1177.29,207.07,1178,206.47,1179.29,205.06Zm-1.73,14.58c1.46-.79,2.52-.95,6.69-1.51,8.18-1.12,9.22-1.18,10.22-.31,1.55,1.33,2.15,4.12,1.11,5.47-1.21,1.57-4,.27-9.41.1-7.92-.25-12.37,2.19-13,.91C1172.73,223.26,1175.26,220.89,1177.56,219.64ZM1121.42,80.77c1.41-1.39,8.8-8.73,13.67-6.68,2.74,1.16,2.22,4.26,6.23,6.68,3.49,2.13,6.06,1.08,6.83,2.74.26.55.72,2.28-5.62,9.11a123.44,123.44,0,0,1-10.63,9.87c-5.93,5.19-8.9,7.78-9.72,9-4.41,6.33-1.94,9.41-5.78,15.79-3.15,5.25-5.68,4.6-13.36,11.54-9.4,8.51-12.1,15.36-13.36,14.73-2.3-1.13,6.58-23.65,10.48-33,5.06-12.1,3.72-6.72,11.69-24.3C1114.55,90.3,1116.56,85.6,1121.42,80.77Zm18.88,26.68c0,1.26-2,2-4.15,3.14a55.68,55.68,0,0,0-9.62,6.38c-3.82,3.28-5.56,6.54-6,6.28s1.23-3.48,1.42-3.85a32.06,32.06,0,0,1,7.39-9.51c3.08-2.7,6.35-5.55,9-4.56C1139.32,105.68,1140.31,106.55,1140.3,107.45Zm-62.85,30.36a35.59,35.59,0,0,1,4.48-14c6.12-11.86,6.94-13.06,9-17.24,4.9-9.78,5.23-12.8,10.18-20.73,2.7-4.33,6.49-10.42,8.5-9.72s1.45,7.37.76,11.23a37.32,37.32,0,0,1-3.88,10.79c-4.14,8.42-7.16,14.57-9.26,19.21-3.94,8.74-7.29,17.62-7.29,17.62-2.87,7.6-4.65,13.29-7.52,13.36-1.24,0-2.24-1-2.88-1.67C1078.11,145.09,1077.08,142.65,1077.45,137.81ZM1043.6,34.86c.85-.57,4.34,2.85,6.69,6.07a30.51,30.51,0,0,1,4.76,10c3.8,14.15.12,30.95-.71,30.88-.3,0,.18-2.09-.51-6.38-1.11-6.95-3.53-8.84-4.86-15.19-.93-4.5.16-4.11-.61-9.42C1047,41.05,1042.58,35.54,1043.6,34.86Zm-39.38-14.38c.06-.77.41-5.06,1.72-5.27,1-.14,1.88,2,3.34,4.36,1.75,2.82,2.55,3.16,7.4,8.5,8.62,9.5,9.79,12.5,15.69,16.41,1.35.89,4.86,3.23,5.67,2.43s-2.25-5.76-4.36-8.51c-4.36-5.71-8-7.76-15.39-15.69-2.73-3-4.64-5.29-3.95-7.29a4.09,4.09,0,0,1,3.45-2.43c2.81-.21,4.53,2.93,9.21,8,5.12,5.55,5.17,4.07,7.8,7.5,3.06,4,1.66,4.26,6.68,14.88,2,4.23,3.63,7.18,2.33,9.12-1,1.49-3,1.23-3.44,2.63-.52,1.56,1.62,2.86,3.64,5.77,2.39,3.43,1.31,4.34,4.66,13.46,1.61,4.39,2.41,5.68,1.92,6.08-1.24,1-8.45-5.93-12.15-9.52a183.45,183.45,0,0,1-19.34-21.16C1005.56,32.46,1003.83,25.3,1004.22,20.48Zm-37.06-86c.74-.44,1.48.78,4.86,2.33s4.18,1,6.07,2.42c2.1,1.53,3.89,4.14,3.25,5.17s-3.34.41-5.27,0c-.84-.18-.87-.25-4.56-1.32a20.29,20.29,0,0,1-2.32-.7C966.41-59.18,965.76-64.67,967.16-65.48Zm-40.75-.46c.57-.53,4.7,4.69,13.51,9.87,8.34,4.9,10,3.36,16,7.6,1.24.87,2.21,1.67,13.66,14.8,5.2,6,3.4,4,9.12,10.56,8.82,10.18,11.61,13.21,11.09,13.82s-5.17-2.29-6.53-3.19C973.39-19,968.89-25,963.47-30.4c-10.47-10.5-12.74-7.25-24-18.37C931.27-56.88,925.7-65.29,926.41-65.94Zm-45,45.26c.89-1.37,3.79-1,6.08-.76,4.58.54,5.81,2.24,9.41,3.19,6.52,1.72,12.46-1.21,13.07-1.52,3.4-1.74,2.37-2.75,9.11-8.2a74.1,74.1,0,0,1,8-5.62c3.93-2.39,5.89-3.58,7.14-3.49,5.08.38,8,9.43,10.63,17.31C948.16-9.94,946.7-7.24,946-6.25c-1.22,1.73-2.23,1.27-6.53,3.64C933,1,932.68,3.44,927.32,5.44c-2.39.89-5.8,2.17-7.75.61C917.19,4.16,919-.31,917-1.39c-1.59-.84-4.51.94-6.23,2.89-3.6,4.08-1.81,8.79-4.25,10s-6.82-2.57-8.2-3.8c-4.92-4.39-4.62-7.46-9.72-15.79C884-15.61,880.23-18.81,881.45-20.68ZM963.16,73c-.66,1-2.57.24-14.88-2.13-14.37-2.76-16.06-2.48-22.33-4.4-5.67-1.75-7.2-2.86-15-6.23-10.63-4.56-10.71-3.74-28.71-10.48-5.21-1.95-18-6.84-28.7-15.34-2.51-2-6.06-5.11-5.32-7,.55-1.4,3.29-1.59,4.56-1.67,5.49-.38,7.74,2.79,10.32,1.51,1.79-.88,1.13-2.6,3.49-6.07.85-1.25,3.61-5.3,6.54-5.62,4.39-.48,6,7.81,12.91,14.13,5.7,5.2,9.7,4.19,26,9,10.09,3,17.77,5.21,25.82,9.57C953.09,56.57,965.09,70,963.16,73Zm96.75,111c-1.73,1-12.24-9.87-18.23-23.54-2-4.67-3.26-9-7.59-14.27-1.59-2-2-2-8.51-8.51-6-6-9.08-9-10-10.48-4.15-6.52-2.79-10.08-7-12.91-2.51-1.69-3.2-.55-7.59-2.74-2.58-1.28-8.16-4.06-8.2-8,0-2,1.35-3.51,2.58-4.86.72-.8,3.43-3.79,7.14-3.8,2.68,0,4.79,1.56,6.68,3.34,6.37,6,7.46,12,11.7,19.44,4.9,8.65,6.19,5.53,10.93,14,4.28,7.63,4.45,12.37,10.63,22.48.6,1,3.88,6.35,4.41,6.07s-1.34-4.46-12.3-28.85c-8-17.75-8.4-18.51-9.58-20.2-6.45-9.28-13.55-14.29-11.84-18.22.85-2,3.49-2.75,5-2.89,3.88-.35,6.94,3,8.66,4.86,3.47,3.78,2.72,5.62,7,11.09,2.4,3.07,2.73,2.6,4,4.7,2.28,3.91,1.43,6,3.19,10.49s4.76,7.87,5.32,7.59c.77-.39-4.51-6.83-4.25-16.1.07-2.64.57-4.91-.91-7.14s-3.23-2-5.62-4c-2.75-2.27-2.61-4.34-4.86-8.81-1.33-2.62-1.18-1.53-8.21-10.93-4.15-5.56-5.5-7.68-8.81-9.42-2.35-1.24-5-1.91-5.31-1.37s1.08,1.51,3.8,4.71,2.69,3.7,2.58,3.95c-.5,1.1-4.07,1.14-6.84-.31-2.34-1.21-2.17-2.48-4.55-3.79s-3.57-.65-6.38-1.37a17.56,17.56,0,0,1-7.75-4.7c-4.64-4.33-3.79-7.43-7.59-9.27-2.36-1.14-2.92-.07-6.68-.91A19.15,19.15,0,0,1,964.07,53c-2.48-3.13-5.14-8.93-2.88-13.51a7.62,7.62,0,0,1,3.64-3.65c3.53-1.55,7.16.59,7.9,1.06,2.73,1.72,2.18,3.25,5.16,7,3.61,4.5,5.53,3.68,9.42,8.5,2.2,2.74,1.46,2.84,4.25,6.38,2.29,2.9,2.4,2.35,6.38,6.84,2.3,2.6,3.6,4.29,4.41,4,.63-.27.61-1.65.6-1.82-.08-3.08-3.73-4.45-7.44-7.75-5.62-5-3.12-7.1-8.81-12-3-2.56-6.36-4.33-6.07-6.84a3.45,3.45,0,0,1,.76-1.66c1.74-2.56,5.25-3.83,8.2-3.65,1,.06,3.67.39,8.35,5,3.94,3.89,5.49,7.07,7.59,10.33,3.72,5.74,4.42,4.36,12.31,13.52,7,8.1,10.47,12.16,12.9,17.46,2.17,4.7,3.48,9.55,5.32,9.42,1-.08,2-1.61,2.13-2.89.14-1-.22-1.7-1.22-4-1.86-4.19-1.79-4.51-1.67-4.7.76-1.23,5.24-.76,8.06,1.82.18.17,3.54,3.33,2.73,6.68-.87,3.55-5.56,3.74-5.77,6.68-.15,1.92,1.67,4.24,3.49,4.41,3.19.29,5-6.11,8-5.77,1.73.19,2.8,2.39,3.19,3.18,3.7,7.64-2.69,19.18-4.56,32.66-1.72,12.4.87,23,3.34,33.26C1057,176.19,1061.21,183.33,1059.91,184.05Zm7.36,74.88a4.33,4.33,0,0,1-4.63-.31c-2.62-2.07-.74-7.09-.3-8.27s1-2.56,2-2.82c1.61-.39,3.7,1.94,4.48,4.11S1069.7,257.53,1067.27,258.93ZM1072,135.6c-.91,3.28,1.7,4.87.84,8.28a5.33,5.33,0,0,1-2.28,3.34c-2.18,1.24-4.79-.07-5.24-.3a8.66,8.66,0,0,1-3.87-4.63c-1-2.35-1.16-4.43-.84-10.18.41-7.19.64-10.93,1.75-11.09,1.43-.21,2.59,5.81,5.32,5.85,1.54,0,1.95-1.91,4.25-2.28,1.76-.29,4,.45,4.55,1.83.21.53.18,1.2-2.43,5.69C1072.15,135.36,1072.14,135,1072,135.6Zm7.9,102.07c-.7.38-.93,1.42-1.37,3.49-.51,2.44-.25,2.87-.68,4.25-.57,1.81-1.93,4-2.66,3.8-1.17-.3-.75-6.71,1.29-12,1.62-4.2,3-4.33,3.27-4.33.55,0,.61.34,2.73,1.6,1.52.9,2.16,1.12,2.2,1.66s-.58,1.12-1.06,1.37C1082.16,238.28,1081,237,1079.88,237.67Zm19.14,14.8c-5.22.06-6.79-.27-9.42.69a12.75,12.75,0,0,1-3.49.83c-1.92.17-4.82,0-5-.91-.24-1.1,3.82-3.17,7.44-4.18,1.33-.36,3.37-.8,8.81-.76,8.23.07,9.56,1.11,15.73.76,4.23-.24,6.88-.92,7-.53s-3.54,2-7.36,3C1108.41,252.37,1104.78,252.41,1099,252.47Zm40.47-27.26c1.23-1.15,4.31,2.33,10.74,3.65,6.25,1.28,10.24-.6,10.83.81s-2.61,4.53-6.18,5.77a12.47,12.47,0,0,1-13.46-3.75C1139.72,229.55,1138.45,226.19,1139.49,225.21Zm-6.78.81c1.66.31,3.27,3.31,2.22,5.36-1.27,2.53-5.78,2.2-6.68.72C1127.2,230.34,1130.37,225.59,1132.71,226Zm-4.53,29c.31.19.12.12,3.18,2.81,2.35,2.07,2.86,2.46,2.74,2.74-.37.83-6-.85-6.53-1-2.23-.66-2.2-.88-3.49-1.06-2.1-.3-3.31.12-4.18-.76a2,2,0,0,1-.61-1.83C1119.84,254.2,1124.92,253.14,1128.18,255.05Zm-7.67-14.8c-.07,1.54-4,2.54-7.34,3.39-4.38,1.11-7.62,1.19-13.93,1.31-4.19.09-6.6-.06-7-1.16-.29-.81.78-1.36,1.16-3.44a5.92,5.92,0,0,0-.56-4.25c-1.18-1.74-3-1-4.35-2.44-1.84-2-.58-5.91-.1-7.39,1.4-4.34,4.87-8.16,6.17-7.59.48.21.6,1.68.82,4.61.28,3.78.08,4.76.86,5.77,1.12,1.44,3.2,1.57,4,1.62,3.14.19,6.09-1.51,9.92-3.7,1.41-.81,2.66-1.6,3.09-1.21s-.57,1.78-.71,4.1a10.31,10.31,0,0,0,.5,3.54C1114.62,237.82,1120.59,238.33,1120.51,240.25Zm-17.37-30.53c1.93-2,2.73-1.52,5.17-3.95,2-2,2.28-3.16,3.44-3.24,1.64-.11,3.27,2,4,3.75,1.42,3.59-.4,7.66-2.43,10-.67.78-3.86,4.49-8.1,3.85-1.82-.28-4.42-1.44-5.07-3.65C1099.29,213.72,1102,210.87,1103.14,209.72ZM1140.41,120c-5.48,3.06-11.67,6.57-17.52,12.86-3.64,3.91-5.92,6.34-7.3,10.43-1,3-.91,5-2.73,8.91a46.16,46.16,0,0,1-3.84,6.28c-3.23,4.81-4.85,7.22-7.4,9.61s-3.13,2.16-4.76,4.16a19.77,19.77,0,0,0-3.64,7.79c-2.76,9.81-2.26,11.91-4.25,17.31-1.93,5.25-4.84,9.9-5.57,9.62-.93-.35,3.17-8.2,3.34-20.25.09-6.57-1.07-7.95,0-13.06,1-4.78,3-8.1,5.87-12.85a91.92,91.92,0,0,1,9.52-13c8.16-9.29,10.94-9.07,20.66-19.54,4.9-5.28,5-6.15,7.89-8.2,8.47-5.9,18.93-6.25,19.24-5.16C1150.1,115.55,1147.06,116.29,1140.41,120Zm44.95-35.13a9,9,0,0,1-6.31,7.21c-4.91,1.58-8.93-1.82-9.56-2.35-2.09-1.77-5-5.59-3.8-8.89,1-2.62,4.07-3.69,7-4.7,2.07-.72,3.48-1.21,5.24-.92C1181.72,75.87,1185.94,80,1185.36,84.88Z"/><path class="cls-32" d="M867.93,181.32c-3.61-3.87-3.24-7.68-5.31-15.64-3.25-12.51-9.18-22.38-11.09-21.88-.94.25-.28,2.87-2.58,6.84-1,1.77-2,3.45-3.8,4.1-1.3.47-2.45.18-7.89-2-5.82-2.29-7.24-3-8.51-2.28-1.71,1-.92,3.46-2.74,4.41-1.63.86-4.11-.15-5.61-1.37-2.95-2.39-2.13-5.65-4.86-7.13-1.17-.63-1.91-.37-3.8-.46a21.29,21.29,0,0,1-13.06-5.62c-3-2.87-1.7-4-4.41-7-5.72-6.26-16.64-6.75-18.07-4.1-.77,1.44,1.33,3.61.3,4.71s-4-.69-5.32.61c-.88.89-.39,2.7-.3,3,1.19,4.37,7,3.79,12.76,9.11a17.78,17.78,0,0,1,5.47,9.11c.33,1.53,1.17,5.35-.91,7.75-.5.57-1.49,1.43-6.23,2.13-7.75,1.13-10.11-.43-12.91,1.66-2.4,1.8-1.34,3.46-3.65,4.71-3.23,1.76-6.07-1.13-10.63.61-1.91.73-3.69,2.11-3.49,2.74s3.28-.05,6.53.15c5.07.3,7.81,2.87,12,5.31,6.27,3.66,7.71,2.35,17.16,5.93a99.06,99.06,0,0,1,19,9.87,134,134,0,0,1,21.57,17.16c5.8,5.42,9.19,9.31,11.54,14.88.94,2.23,3.71,8.84,1.06,11.55-1.7,1.73-4.91,1.12-7.44.6-11.67-2.39-17.41-4.61-22.33-5.77-1-.24-16.65-3.73-31.59,2.89-4.95,2.19-4.07,2.94-8.51,4.56-8.66,3.14-14,1-22.93,5.16-2.33,1.09-5.34,2.53-5.31,4.4,0,.7.45,2.15,9.26,5.93,8.27,3.54,9.4,2.91,11.54,5,3,2.91,1.47,4.77,4.56,12.45,3.24,8,6.35,9.61,5.62,13.67-.53,3-2.32,3-5.47,7.14-6.8,9-3.74,16-10.32,20.81a12,12,0,0,1-7,2.73c-4.4.05-7.25-3.1-9.42-1.67-1.33.88-.56,2.27-2,3.34-2.57,1.94-6.76-1.45-8.81.46a2.6,2.6,0,0,0-.76,2.58c.78,2.06,5.39.69,10.93,3,1.74.73,3.92,1.66,5.32,3.49,4.1,5.38.36,17.33-7.14,23.54-2.27,1.88-6,3.08-13.52,5.47-4.19,1.33-8.65,2.56-22.93,5.77-4.93,1.11-9,2-11.69,2.58,2.67.09,6.74.15,11.69-.15,9.38-.56,12.92-1.83,26.43-3.8,14.79-2.15,18.53-1.78,21.11-1.36,4.36.7,10.44,1.76,15.49,6.68a25.11,25.11,0,0,1,6.38,11.39c.84,2.71,3.48,11.26,0,19.75s-10.35,9.89-10.18,16.55c.07,2.33,1,5.92,3.34,6.83,3.5,1.37,7.19-4.38,16.56-9.87,5.11-3,7.7-3.45,12-5.32,4.49-1.95,8.16-4.27,28.4-23.54,17.19-16.36,22.3-22.06,24.15-24.15s4.77-9.6,12.3-14.88a34.55,34.55,0,0,1,5.65-3.21c-.7-6.76-.92-12.26-1-16.24-.07-4.52.08-6.32.54-8.34.68-3,1.46-3.81,2.35-7.84a42.67,42.67,0,0,0,.94-6.15c.23-2.9-.1-3.13-.06-7.28,0-2.73.16-2.88.36-7.78.13-3.34.2-5,.17-6.18a69.65,69.65,0,0,0-1.24-10.94,35.55,35.55,0,0,1-.9-5.77,25.51,25.51,0,0,1,.66-6.27c.32-1.72.59-5.18,1.1-12.1.31-4.26.51-7,.6-9.42a39.74,39.74,0,0,1-12.93-6.64c-3-2.37-9-7.18-10.33-14.58-.2-1.19-.86-5,1-6.38.48-.36,1.34-.71,5.47.3,5.73,1.41,8,3,11,2,.47-.16,1.51-.51,1.52-1,0-1.15-5.35-1.9-10.73-3.19a98.15,98.15,0,0,1-15.49-5.32c-5.48-2.51-4.45-3.32-15.95-11.54-12.57-9-18.85-13.48-19.9-14-2.21-1-5.62-2.47-6.83-5.77a9,9,0,0,1,1.06-7.74c1.86-2.8,3.74-1.86,7.9-5.62,1.37-1.23,1.19-1.36,4.56-4.71s4.08-3.77,5-3.79c1.46,0,2.57,1,5.32,4.1,4.54,5.14,6.22,7.44,6.22,7.44s3.27,4.47,7.75,9.87c3.08,3.72,9.94,12,20.35,15.49,6.68,2.24,9.67.79,14.73,4.4a25.24,25.24,0,0,1,5.62,6.15c.55-.92,1.19-2,2.08-3.49,1.14-1.95,2.76-4.82,4.61-8.43C875.91,186.16,871.32,184.93,867.93,181.32Zm-85.86,68.39c1.14-1.38,1.92-1.26,2.33-2.42.67-1.9-.92-3.43-.3-4.06.77-.79,3.9,1.09,5.51,2.28,1.93,1.42,3,2.23,3.14,3.6a4.62,4.62,0,0,1-3.08,4.25c-.84.27-1.21,0-2,.46-1.09.62-.86,1.42-1.92,2.38a4,4,0,0,1-3.75.95,2.55,2.55,0,0,1-1.22-.75C779.56,254.91,780.43,251.69,782.07,249.71Zm13.19,147.73c-1.74,3.85-4.71,7.33-5.55,6.91s.17-3.46.54-4.78a26.28,26.28,0,0,1,2.66-6.08c2.08-3.77,3.34-6.05,3.94-5.84C797.7,387.93,797.29,393,795.26,397.44Zm65.39-59.53a29.08,29.08,0,0,0-12.23,8.2c-4.43,5.13-5.92,11-9.27,10.85-1.63,0-2.82-1.48-3.41-2.2a7.62,7.62,0,0,1-.76-8.12,6.9,6.9,0,0,1,1.74-2.13c4.37-3.61,8.45-7.59,13.06-10.86a68.76,68.76,0,0,0,11.55-10.4Q861,330.57,860.65,337.91ZM863,277.76a3.85,3.85,0,0,1,.91,3.85c-.77,2.35-4.14,3.16-5.26,3.44-8.1,2-15.46,6.52-23.6,8.4-19.17,4.46-32.34,18.48-32.19,18.73s7.68-4.89,21.16-11.54c4.28-2.11,10.24-5,18.33-8.2a203.1,203.1,0,0,1,21.56-7.08q-.09,5-.2,9.92a75,75,0,0,0-11.64-.1,14.74,14.74,0,0,0-4.66.81c-3.36,1.27-4.81,3.57-6.78,5.56-2.82,2.84-5.64,4-10.64,6a44.42,44.42,0,0,1-16.7,3.14c.69.66,1.49,1.64,1.31,2.63-.39,2.19-5.33,3-6.88,3.24-12.78,2.3-31.11,13.17-30.28,16.71.31,1.29,3.25,2,5.27,1.72s2.39-1.2,7.09-3.85c3-1.68,3.93-1.94,5-1.82,1.9.21,2.22,1.46,3.85,2s3.44.18,10.43-4.56c6-4,6.8-5.29,9.92-6.07s7-.67,7.49.61c.22.6-.41,1.2-3.14,4.15-4.17,4.52-4.8,5.39-5.16,6.69-.51,1.82-.51,4.66,1,5.77,1.3.94,3,0,7.5-1.22,5.21-1.47,5.12-.9,7.89-1.82,2.53-.85,9.64-3.23,12.66-9.12,2.77-5.4-.67-8.39,2.63-12.35,2.44-2.92,4.9-2,8.1-6.08,1.12-1.42,2.19-3.28,3.54-3.13,1,.1,1.6,1.18,1.72,1.41,1.71,3.14-2.1,7.68-2.63,12.46,0,.24-.3,2.83-.3,2.83s-2.11,1.76-5,4.19-6.55,5.55-9.8,8.37c-7.91,6.86-13.05,11.73-22.58,20.75-7.38,7-8.35,8.15-9.12,9.12-2.2,2.79-2.76,4.07-4.75,5.26-3.61,2.15-5.48.19-11,1.11-6.6,1.1-8.06,4.56-15.19,4.76-3.53.11-4.32-.7-4.56-1.21-.82-1.78,3-4.62,2.13-6.07-.53-.91-2.16-.1-5.06-1.12-1-.36-3.11-1.08-3.65-2.43-.75-1.88,1.5-5.06,5.57-7.69a61.78,61.78,0,0,0-13.26-2c-5.91-.25-8.56.49-10.23-1.41-2.93-3.36.11-11.59.4-12.36,1.31-3.42,3.08-5.41,2.13-7.59-.8-1.86-3-2.4-2.73-3.34s2.71-1.15,3.75-1.22a17.11,17.11,0,0,1,5,.41c4.87.86,12.49-5.83,14.48-13,.69-2.48,2.12-7.66.8-11.75-.09-.3-.69-2.11-.1-2.53s1.91,1.21,2.94.81c1.39-.54.32-4.08,2-5.17.47-.29,1.71-.06,4.16.41,3.1.6,3.8,1,5.26.71,1.2-.23,1.74-.69,2-.41.63.62-1.11,3.46-1.73,4.46-1.44,2.37-2.16,2.69-2.42,4.15s.11,3.28.81,3.44c1,.24,2.29-2.7,2.93-2.43.44.19-.11,1.63.61,2.33s2.17.24,2.63.1c4.45-1.35,11.25-9.33,17.92-13.36,2.9-1.75,1.56-.21,11.7-4.3a152.6,152.6,0,0,0,15-6.79c4.84-2.55,5.5-3.3,9.52-5.06C855.71,277.88,860.75,275.73,863,277.76Zm-28.15,6.89c.06.72-1.09,1.29-5.46,3.23-11.18,5-12.17,5-12.56,4.56-.83-1,1.57-4.29,2.94-5.77a12.4,12.4,0,0,1,7.19-4.05C830.53,282.08,834.72,283.3,834.82,284.65Zm-1.11-9.32c2.4-1.48,7.46-3.42,9.42-1.12a4.67,4.67,0,0,1-.51,5.88c-1.06,1-2.43,1-4.25.91-2.73-.07-7.19-.95-7.39-2.73C830.84,277.1,832.59,276,833.71,275.33ZM814,288.39c-3.1,2.19-6.68,1.5-8.71,1.12-.48-.1-5.16-1-5.27-2.74-.06-1.12,1.79-2.1,2.23-2.32a8.84,8.84,0,0,1,4.76-.82c6.38.24,9.43-2.4,10.33-1.11S816.25,286.77,814,288.39Zm45.25-24.91c.24,2.82-9.48,6.14-14.3,7.37-5.64,1.45-6.39.52-12.38,2.13-6.85,1.83-7.32,3.44-13.21,4.86s-5.63-.15-13.51,1c-7.1,1-12.91,1.87-18.15,6-3.15,2.49-3.93,4.46-5.7,4.18-2.37-.37-2-4.08-6.23-13.22a38.94,38.94,0,0,1-3.72-12.3c-.09-.87-.25-2.72.53-3.11s2.1,1.6,4.71,2.89a10.54,10.54,0,0,0,8.36.53c2.86-1.25,2.42-3.34,6-5.37,2.44-1.39,2.85-.52,5.47-1.82a16.88,16.88,0,0,0,7.29-7.7c1.53-3.49.81-5.59,2.22-6.27,1.95-.95,5.17,2.14,6.89,3.64,4,3.48,9.95,5.69,21.87,10.13C850.34,262,859,260.85,859.22,263.48Z"/><path class="cls-33" d="M1233.51,55.71c-1,.67-2.89,1.53-6.43,3.65-7.72,4.6-9.3,6.79-14.79,8.4-3,.88-5.29,1.52-7.29.31-2.79-1.7-3.28-6-2.83-8.81.55-3.47,2.71-5.64,6.17-9,3.26-3.19,5.2-5.08,7.4-6a7.74,7.74,0,0,0-.16,1.64,9.58,9.58,0,0,0,5,8.51,15,15,0,0,0,4.26.76C1229.38,55.6,1231.44,55.5,1233.51,55.71Z"/><path class="cls-34" d="M861.7,2.56c-.72,4.27-3.86,9.71-9,10.63-4.82.87-8.92-2.75-9.72-3.5C838,5,840.34,0,835.13-4.12c-2.3-1.81-3.12-1.11-6.84-3.8a41.09,41.09,0,0,1-3.58-2.82c1-.07,2.28-.21,3.74-.37,6.81-.78,11-1.25,13.77-4.66a7.44,7.44,0,0,0,1.86-3.57c5.17-.8,6.5-.86,8.36.18,3.5,2,4.95,5.64,7.14,11.24C861.24-3.69,862.3-1,861.7,2.56Z"/><path class="cls-34" d="M1081.32,16.83c-.72,2.45-4.07,1.82-8.2,4.86s-3.67,5.94-6.68,6.69c-3.28.81-6.65-1.89-8.66-3.49-3-2.39-3-3.78-6.38-7.9-5.33-6.61-7.08-5.46-9.11-9.57-2.34-4.72-.1-6.38-2.74-12-.59-1.28-2.17-3.4-5.31-7.59-5-6.66-6.55-8.25-5.92-9.72s2.51-1,7-2.89a18.93,18.93,0,0,0,4.57-2.62c1.5,4.41,3.37,10.13,5.86,17.71C1049.9,3,1052.09,9.38,1057.27,13c1.55,1.08,6.27,4.37,11.44,3.13a14,14,0,0,0,7.9-5.16A20,20,0,0,0,1077.77,9a20,20,0,0,1,2,2.94C1080.93,14,1081.75,15.39,1081.32,16.83Z"/><path class="cls-34" d="M813.11-6.4c.88-.94,5.46,1.47,8.65,4.55,4.74,4.58,7.12,11.3,5.93,12.15-1.39,1-7.72-5.85-8.21-6.38C816.37.53,812-5.28,813.11-6.4Z"/><path class="cls-34" d="M1178.57,51.34l-1.87,2.55c-4.26,5.82-5.81,7-7.29,6.84a17.62,17.62,0,0,1-3-1.68c-3-1.8-3-2-3.64-2.12-2.37-.43-3.34,1.79-5.47,1.37-1.61-.32-1.92-1.77-3.49-3.19-1.07-1-3-2.14-8.2-2.43-10.48-.59-13.45,3.47-19,1.67-5.35-1.74-9.33-7.73-9.72-13.37a16.2,16.2,0,0,1,3.46-10.72c1.49,6.7,5.07,13.65,11.12,16a19,19,0,0,0,7.6,1.06c5.5-.36,6.94-3,11.76-2.66a18,18,0,0,1,7.52,2.58c4.41,2.38,4.38,4,7.3,5.32S1171.89,53,1178.57,51.34Z"/><path class="cls-34" d="M1121.27,57.44c-3.15-1.08-6.62,3.1-6.08,4.55.65,1.74,7.81,1.67,8.71-.61C1124.4,60.11,1123,58,1121.27,57.44Z"/><path class="cls-34" d="M1190.6,46.59a42.35,42.35,0,0,1-1.7,4.47c-2.24,5.25-4,9.35-8.2,12.55-5.58,4.25-12.26,4.49-12.45,4s4.59-1.62,9.72-6.38a29.13,29.13,0,0,0,3.64-4,28,28,0,0,0,4-7.77A13.41,13.41,0,0,0,1190.6,46.59Z"/><path class="cls-34" d="M1242,27.06v2.07a39,39,0,0,0-6.49.31c-4.13.54-7,.95-8.36,3a9.48,9.48,0,0,0-.73,1.56,12.11,12.11,0,0,0-2-.9c-.22-.09-1-.35-2.32-.81-2.22-.78-2.15-.79-2.34-.82-1.51-.18-2,.85-4.86,1.93-1.34.51-2.82,1.07-3.34.51s-.12-1.64.41-2.44c1.56-2.35,4.66-.9,7.69-3,1.72-1.21,3.56-3.67,3.24-6-.38-2.76-3.59-3.42-3.64-6.28a5.12,5.12,0,0,1,1.21-3.14,7.84,7.84,0,0,1,4.21-2.7l.15.07c2.27,1.06,3.45,2.8,4.75,4.81,2.51,3.83,1.74,5.18,4.36,8.55,2.19,2.82,3.86,3.33,4.66,3.49A6.41,6.41,0,0,0,1242,27.06Z"/><path class="cls-33" d="M1242,59.85v6.79a11.43,11.43,0,0,0-1.71-.83c-1.64-.63-3.67-.92-7.74-1.51-1.74-.25-2.37-.31-2.43-.61-.15-.75,3.39-2.11,6.22-2.81A28.83,28.83,0,0,1,1242,59.85Z"/><path class="cls-33" d="M1242,85.23v1.31a15,15,0,0,1-5.27,8.51c-2.69,2-4.46,1.49-7.6,3a17.45,17.45,0,0,0-7.69,24.2c-3.5-2.33-6-7-6.81-10.76-.41-1.83-1.15-5.09.38-8.28,1.24-2.59,3-3.07,9.56-7.52,5.45-3.68,4.78-3.73,8-5.69C1236.4,87.75,1239.55,85.85,1242,85.23Z"/><path class="cls-33" d="M1242,188.32v7.3a9.86,9.86,0,0,0-1.56-.18c-2.28-.07-3.69.58-4.32-.22s.36-1.78-.16-2.82c-.88-1.76-4.88-1.16-4.93-1.51S1233.35,189.92,1242,188.32Z"/><path class="cls-35" d="M1056.06,196.15c-1.5-10.88-8.78-10.94-15.24-26-3.65-8.53-2.77-11.87-7.7-18.83a41.62,41.62,0,0,0-10.53-10.38,63.05,63.05,0,0,0-8.25-4.25c-8.84-4.16-10.86-4.47-17.72-7.75-1.61-.77-2.85-1.4-3.85-1.93a.5.5,0,0,1,0,.21c-.22,1.48-6.3,2.86-9.31.41a24.14,24.14,0,0,1-2-2.38c-2.55-3-3.74-3.54-3.55-4,.08-.16.33-.24.71-.25a50.06,50.06,0,0,0-9.8-1.32c.84.84,2.09,2.07,3.68,3.49,4.64,4.13,7.78,6,7.34,7.39-.15.47-.59.68-1.32,1-4,1.84-7.65-1-9.56.81a1.94,1.94,0,0,0-.66,1.93c.33.79,1.76.85,3.59.91,3.35.1,4.84,0,7.14.1,2.67.11,4,.17,5,.71,2.27,1.24,1.75,2.91,4.2,4.56,2.23,1.49,3.78.85,4.56,2.27.52,1-.06,1.47-.31,4-.37,3.76.68,4.76-.3,6.89-.63,1.37-1.87,2.7-2.63,2.48-.93-.27-.37-2.62-2.18-4.35-.22-.21-1.2-1.15-1.92-.87s-1,1.65-.66,2.64.91.88,2,2.32c.59.8.88,1.2.81,1.62-.12.72-1.09.92-3.19,1.83a13.18,13.18,0,0,0-4.5,2.68c-.71.72-1.43,1.44-1.27,2.13.37,1.55,4.86,1.67,5.06,1.67,3.51.06,4.18-1.24,9.07-1.72,3.09-.31,4.31.07,4.81.25,1.5.54,1.79,1.2,3.49,1.72,1.31.4,3,.94,4.2.15,1.57-1.07.36-3.45,2.43-6.43.5-.71,1.08-1.53,2-1.62,1.28-.12,2.36,1.36,3.29,2.64s1.61,2.2,1.52,3.39-1,1.9-.66,2.63c.25.5.9.65,1.57.81,1.37.32,1.81-.14,2.73.1a4,4,0,0,1,2.33,2.43c.54,1.4.45,3.39-.66,4.3-.53.45-1.19.54-6.73-.05-2-.21-3-.33-3.24.11-.31.61,1,1.89,1.62,2.43,4.28,3.94,9.86,7.11,11.9,8.4s.68.81,10.63,10.73c7,7,6.36,5.9,9.41,9.21,5.42,5.87,6.27,8,7.88,7.77C1054.34,212.73,1057.17,204.23,1056.06,196.15Zm-67.59-61.26c-1.06.08-2.05-1-1.92-1.61s1.72-1.15,2.79-.71c.19.07.65.26.75.65C990.26,133.86,989.42,134.82,988.47,134.89Zm17,17.8c-.24.31-.78.26-1.22.23-2.35-.21-3.93-2.45-4.78-3.65-1-1.39-1.68-2.38-1.59-3.79a3.53,3.53,0,0,1,1.51-2.89,3.16,3.16,0,0,1,3.73.45c1,1.1-.19,2.26.38,4.79C1004.08,150.54,1006,152,1005.46,152.69Z"/><path class="cls-36" d="M1002.5,158.89c1,.31,1.54,3.29.35,4.66a2,2,0,0,1-.91.61,2.34,2.34,0,0,1-2.58-1C998.6,161.66,1001.28,158.52,1002.5,158.89Z"/></g></g></svg>