<svg xmlns="http://www.w3.org/2000/svg" xmlns:xlink="http://www.w3.org/1999/xlink" viewBox="0 0 744.85 450"><defs><style>.cls-1,.cls-33{fill:none;}.cls-2{clip-path:url(#clip-path);}.cls-3{fill:#fceed4;}.cls-4{clip-path:url(#clip-path-2);}.cls-5{fill:#9fc199;}.cls-6{fill:#b4d1b0;}.cls-7{fill:#a09a80;}.cls-8{clip-path:url(#clip-path-3);}.cls-9{fill:#ffcc71;}.cls-10{fill:#ddb6a6;}.cls-11{fill:#d8a695;}.cls-12{fill:#bc8e82;}.cls-13{fill:#e8c1b3;}.cls-13,.cls-17,.cls-18{opacity:0.5;}.cls-14{fill:#af567a;}.cls-15{fill:#c15b80;}.cls-16{fill:#934a6b;}.cls-17{fill:#cc628e;}.cls-18{fill:#c1638e;}.cls-19{fill:#e8cdcf;}.cls-20{fill:#67252b;}.cls-21{fill:#c9afb2;}.cls-22{fill:#601d22;}.cls-23{fill:#662430;}.cls-24{fill:#561f2b;}.cls-25{fill:#722d3b;}.cls-26{fill:url(#linear-gradient);}.cls-27{fill:url(#linear-gradient-2);}.cls-28{fill:url(#linear-gradient-3);}.cls-29{fill:url(#linear-gradient-4);}.cls-30{fill:url(#linear-gradient-5);}.cls-31{fill:#b5485b;}.cls-32{fill:url(#linear-gradient-6);}.cls-33{stroke-miterlimit:10;stroke-width:0.53px;stroke:url(#linear-gradient-7);}.cls-34{font-size:24px;fill:#193f19;font-family:Montserrat-Bold, Montserrat;font-weight:700;}.cls-35{letter-spacing:-0.01em;}</style><clipPath id="clip-path"><rect class="cls-1" x="763.76" width="496.24" height="450"/></clipPath><clipPath id="clip-path-2"><rect class="cls-1" x="0.48" y="-498.27" width="1240" height="450"/></clipPath><clipPath id="clip-path-3"><rect class="cls-1" x="0.48" width="744.37" height="450"/></clipPath><linearGradient id="linear-gradient" x1="573.65" y1="461.25" x2="746.96" y2="287.93" gradientUnits="userSpaceOnUse"><stop offset="0" stop-color="#e8d4d4"/><stop offset="0.85" stop-color="#d68d97"/><stop offset="1" stop-color="#d68d97"/></linearGradient><linearGradient id="linear-gradient-2" x1="671.64" y1="354.87" x2="671.64" y2="334.48" gradientUnits="userSpaceOnUse"><stop offset="0" stop-color="#dba1a9"/><stop offset="1" stop-color="#da9fa6"/></linearGradient><linearGradient id="linear-gradient-3" x1="726.74" y1="368.95" x2="726.74" y2="329.29" gradientUnits="userSpaceOnUse"><stop offset="0" stop-color="#e8d4d4"/><stop offset="0.03" stop-color="#d99aa2"/><stop offset="0.85" stop-color="#d68d97"/><stop offset="1" stop-color="#d68e98"/></linearGradient><linearGradient id="linear-gradient-4" x1="592.82" y1="289.09" x2="592.82" y2="-177.29" gradientUnits="userSpaceOnUse"><stop offset="0" stop-color="#d8939c"/><stop offset="0.19" stop-color="#d68d97"/><stop offset="1" stop-color="#c1526a"/></linearGradient><linearGradient id="linear-gradient-5" x1="293.68" y1="294.53" x2="463.39" y2="294.53" gradientUnits="userSpaceOnUse"><stop offset="0.53" stop-color="#d68d97"/><stop offset="1" stop-color="#c1526a"/></linearGradient><linearGradient id="linear-gradient-6" x1="582.95" y1="238.01" x2="582.95" y2="154.03" gradientUnits="userSpaceOnUse"><stop offset="0" stop-color="#d8939c"/><stop offset="0.19" stop-color="#d68d97"/><stop offset="1" stop-color="#d38591"/></linearGradient><linearGradient id="linear-gradient-7" x1="573.16" y1="194.3" x2="573.16" y2="188.93" xlink:href="#linear-gradient-6"/></defs><g id="Layer_5" data-name="Layer 5"><g class="cls-2"><image width="2732" height="2048" transform="translate(660.51) scale(0.22)" xlink:href="animation3.gif"/></g><rect class="cls-3" x="0.48" width="644.52" height="450"/><rect class="cls-3" x="0.85" width="744" height="450"/><g class="cls-4"><polygon class="cls-5" points="442.26 -148.71 412.78 -99.06 770.98 107.78 886.45 108.34 442.26 -148.71"/><polygon class="cls-6" points="614.11 -248.38 556.76 -215.11 1040.92 65.08 1040.92 -0.19 614.11 -248.38"/><polygon class="cls-6" points="556.86 -215.17 499.5 -181.91 999.7 108.02 1040.92 108.02 1040.92 65.08 556.86 -215.17"/><polyline class="cls-6" points="884.63 106.87 999.13 106.87 499.61 -181.97 442.25 -148.7 884.63 106.87"/><polygon class="cls-6" points="412.86 -99.38 355.5 -66.11 839.67 214.08 839.67 148.81 412.86 -99.38"/><polygon class="cls-6" points="355.61 -66.17 298.25 -32.91 798.45 257.02 839.67 257.02 839.67 214.08 355.61 -66.17"/><polyline class="cls-6" points="683.38 255.87 797.88 255.87 298.36 -32.97 241 0.3 683.38 255.87"/><path class="cls-7" d="M1039.55,114.32,542.22-173.24a4.07,4.07,0,0,0-4.31.15l-24.67,16.74a4.05,4.05,0,0,0,.26,6.88L971.42,114.32"/><path class="cls-7" d="M1104.24,70.81,606.92-216.75a4.06,4.06,0,0,0-4.31.15l-24.68,16.74a4.06,4.06,0,0,0,.26,6.88L1057.87,82.26"/></g><g class="cls-8"><circle class="cls-9" cx="515.7" cy="334.48" r="264.45"/><path class="cls-10" d="M713.05,452.91H375.8c1.82-1.81,4.49-4.32,7.92-7.11a130.25,130.25,0,0,1,20.46-13.37c9.76-5.42,11.12-6.05,12.28-6.27,5.13-1,7.76.34,13.55-1.19a30.16,30.16,0,0,0,8.87-4.09c14.06-8.88,24.07-12.5,30.73-17.12A25.71,25.71,0,0,0,474,400c10.15-11.21,4.3-29.77-1.23-55.25-12.11-55.82-19.51-89.95-5.73-117,9.58-18.84,29.23-34,51.16-37.25,26.71-4,47.36,11.05,54.3,16.1,23.79,17.31,31.31,41.82,33.56,51.29,3,12.48,1.61,24.6-1.09,48.85-1.89,17-4.18,28.23-12,66.84-.7,3.48-8.21,40.59-8.73,43.11,5.66.09,14.85.33,26.2,1.1,21.27,1.42,21.64,2.77,38.2,3.54s20.14-.37,29.19,2.46a60.67,60.67,0,0,1,19.37,10.09A59.18,59.18,0,0,1,713.05,452.91Z"/><path class="cls-11" d="M499,401.23a34.44,34.44,0,0,1-7.09,10.55c-6.52,6.55-13.05,7.45-21.29,10.56-18.28,6.89-15.83,13.69-31.65,18.91-12.62,4.17-12.53-.71-28.19,3.46-10,2.65-15.07,6-21,8.2h-14c1.82-1.81,4.49-4.32,7.92-7.11a130.25,130.25,0,0,1,20.46-13.37c9.76-5.42,11.12-6.05,12.28-6.27,5.13-1,7.76.34,13.55-1.19a30.16,30.16,0,0,0,8.87-4.09c14.06-8.88,24.07-12.5,30.73-17.12A287.94,287.94,0,0,1,499,401.23Z"/><path class="cls-12" d="M545,380.86a44.05,44.05,0,0,1-6.55,7.23,43.43,43.43,0,0,1-9.48,5.94c-5.69,2.63-12.05,5.57-18.76,4.5-1.23-.2-2.89-.6-4.23.34-1.78,1.25-1.17,3.6-2.18,7.23-1.45,5.24-5,8.64-5.32,8.46s1-1.82,1.3-4.78c.18-1.71.43-4-.75-5-1.35-1.23-3.45.08-8.12.75-4.93.7-5.28-.37-8.8.27-4.23.76-5.36,2.6-10.37,5.32-6.49,3.52-13.4,5.22-13.75,4.49-.47-1,11.44-4.95,22.76-16,5.12-5,13.2-12.91,15.62-24.83,2-9.91-.79-18.23,1.29-18.83,1.46-.42,3.07,3.62,8.12,9.28a51.76,51.76,0,0,0,11.94,10.23,44,44,0,0,0,22,6.35A14.71,14.71,0,0,0,545,380.86Z"/><path class="cls-11" d="M558.25,227.34c-9.13-2.85-9.14-4-14.91-4.92-5.93-.95-6.51.15-10.92-1.09-7.4-2.08-7.93-5.78-12.91-6s-8.86,3.22-12.28,6.24c-1.25,1.09-5.33,4.86-9,12.67-1.24,2.67-2.1,5.09-5.3,20.38-2.32,11.09-3.43,17.29-4,20.56-1.51,8.63-2.26,12.94-2.19,14.73.42,9.57,5.11,11.57,10.19,24.38,2.94,7.39,4.08,13.78,6.37,26.55,2.21,12.37,1.85,16,5.27,22A36.75,36.75,0,0,0,521,375.77a37.53,37.53,0,0,0,24,5.09A27.78,27.78,0,0,1,531.06,383c-6.74-.77-11.29-4-15.19-6.73-3.5-2.46-7.9-7.16-16.55-16.46-3-3.17-4.43-4.76-4.91-5.33a71.93,71.93,0,0,1-13.28-24.53c-1.68-5.42-2.24-10.85-3.37-21.72a194.59,194.59,0,0,1-1.22-22.63,180.56,180.56,0,0,1,1.44-21.9c1.12-8.45,2.78-20.35,8.63-34.3,3.22-7.69,5-11.86,9.16-16.66,2.28-2.61,10.3-11.52,23.83-14,10.86-2,19.42,1.24,25,3.36,4.17,1.57,9.62,5.36,20.51,12.92,3.4,2.36,18.81,13.19,20,21.1.11.7.47,3.06-.45,3.54-.68.36-1.75-.45-3.37-1.72-3.41-2.68-5.11-4-5.73-4.64C572.5,230.12,569.34,230.8,558.25,227.34Z"/><path class="cls-12" d="M631,448.89c-1.47-5.86,1.15-7.23.18-14.18a18.75,18.75,0,0,0-3.36-8.92c-1.33-1.76-2.47-3.26-4.37-3.73-3.32-.82-6,2.26-8.44,3.35a3,3,0,0,0,1,1.47c2.66,2,5.63-1.09,8.73.82,2.85,1.75,3.09,6.05,3.19,7.82s.4,7.34-3,8.92c-2.63,1.2-6.5-.36-7.82-2.83-1.47-2.7.73-5.44-.82-7-.9-.9-2.33-.67-5.64-.18-9.87,1.47-10.74,1.49-11.28.91-2.06-2.23,3.38-10.35,4.18-11.55a38.19,38.19,0,0,1,5.47-6.48c-1.81-4.27-4.44-6.59-7.65-10.89-10.44-14-7.71-23-15.46-26.56-4.6-2.11-9.29-.66-14.37.91-15.71,4.86-14.8,16-29.29,20.46-7.74,2.41-12.66.68-19.28,5.73-1.78,1.37-1.68,1.68-7.55,6.92-4.93,4.39-7.4,6.6-10.28,8.73-7.14,5.29-10.72,7.94-11,8.09-1.33.69-3.2,1.56-3.27,2.91-.06,1.06,1,2.06,4.09,3.91,4.83,2.89,7.25,4.33,9.91,4.73,5.07.77,5.31-1.74,12.46-1.36a46,46,0,0,0,7.1.18,21.26,21.26,0,0,0,5.09-.73c4.24-1.46,4.76-6.24,9.91-16,4.84-9.16,6.86-9.64,7.82-9.64,2.1,0,2.91,2.24,6.92,5.28s7.26,2.08,8.09,4.36c.61,1.67-.3,3.68-1.27,4.82-2.21,2.61-5.52,1.56-6.09,3.19s2.49,4.26,5.45,6.73c2.52,2.09,3.77,3.14,5.55,3.63,3.25.92,4.77-.5,8.19.28a8.69,8.69,0,0,1,5.18,2.73c1.71,2.11,1.79,5,1.87,7.87.06,2.52-.31,2.66,0,3.41,2.11,5.24,22.63,4,24.42-1.92.47-1.55-.51-3,.54-4.27,1.44-1.78,4.95-1.19,6.64-.91,4.75.8,5.59,2.69,10.91,4.37,2.09.65,7.27,2.29,8.64.45C633.12,453.6,631.84,452.16,631,448.89Zm-105.5-26.1C522.74,426.42,517.75,433,511,433c-1.66,0-4.42-.39-4.82-1.72s1.92-2.66,5.54-6.55c2.1-2.25,1.42-1.92,6.19-7.73,4.36-5.31,5.63-6.44,7.55-6.73,1.42-.22,3.76-.05,4.73,1.36C532,414.3,527.69,419.93,525.51,422.79Zm64.66-10.92c-2.26,3.13-4.48,1.46-9.55,5.56-2.49,2-3.06,3.31-7.09,6.45s-4.89,3-5.37,2.73c-1.18-.64-1.4-3.36-.36-5.18,1.12-2,3.07-1.82,5.37-3.19,2.89-1.72,4-4.51,6.18-10.1a49.51,49.51,0,0,0,3.09-12.36,10.88,10.88,0,0,1,7.73,4.18A10.55,10.55,0,0,1,590.17,411.87Z"/><path class="cls-11" d="M451.38,428.75c-.05.6,11.2,2,13,2.18,12.53,1.52,17.14,1.14,19,.95a41,41,0,0,0,8.32-1.5c0-.1-1.92.12-5.93.41a78,78,0,0,1-9.35.41c-3.31-.2-2.63-.71-8.59-1.7a72.69,72.69,0,0,0-11.12-1C455,428.45,451.41,428.41,451.38,428.75Z"/><path class="cls-13" d="M455.14,432.84c.79-1.55,5.63.5,13.16.75a70,70,0,0,0,10.37-.55c4.66-.58,8.52-1.53,9.07-.34a1.26,1.26,0,0,1-.2,1.09c-.94,1.49-3.88.9-6.82.82-3.22-.08-2.22.56-9.69,1.5a73.72,73.72,0,0,1-10.44.28c-1.8-.06-4-.2-5-1.71C455.44,434.52,454.78,433.53,455.14,432.84Z"/><path class="cls-13" d="M533.79,277.18c-1.62.87-.18,5.14.4,10.91.65,6.38-.53,6.79.14,15.28.08,1,.63,8.05,1.37,8.05.56,0,1-4.19,1.09-5.32.53-5.42,0-8.15-.28-13.37-.46-9.56.64-14.78-1.5-15.6A1.57,1.57,0,0,0,533.79,277.18Z"/><path class="cls-13" d="M518.41,316c1.34,1.69-3.85,5.81-2.27,9.73,1.22,3,5.43,3.33,5.28,5.1-.12,1.33-2.64,2.32-4.55,2.45-3.25.22-6.22-2-7.73-4.45a9,9,0,0,1-.18-9.37C511.48,315.55,517.24,314.53,518.41,316Z"/><path class="cls-13" d="M533.24,315.19c-.42.3-2.29,1.58-2,2.55.43,1.48,5.85,2.38,7.64-.09a2.89,2.89,0,0,0,.27-3.18C538.13,313.17,535.07,313.93,533.24,315.19Z"/><path class="cls-13" d="M556,304.64c-.93,1.48,3.39,3.77,3.82,8.64.39,4.54-3,6-2.28,10,.6,3.17,3.56,6.47,6.46,6.55.95,0,3.34-.26,10.55-12.92,4.58-8,7.22-12.77,5.73-14.28s-5.56,2.74-13.64,2.82C560.68,305.52,556.86,303.24,556,304.64Z"/><path class="cls-13" d="M545.79,227.79c-2.43-.38-8.38-1.3-10.09,1.73a5.21,5.21,0,0,0,1.18,6c1.86,1.61,5.82.41,13.73-2,2.71-.82,3.58-1.21,3.64-1.82C554.4,230.22,549.68,228.4,545.79,227.79Z"/><path class="cls-12" d="M523.93,311.72a22.12,22.12,0,0,0-2.06,5.29,10.77,10.77,0,0,0-.45,4.71c.08.7-.24,3.58,2,5.5a7.5,7.5,0,0,0,2.54,1.39,7.23,7.23,0,0,0,2.75.3,5.74,5.74,0,0,1-2.24.86c-3.12.47-5.45-1.89-5.73-2.18a8,8,0,0,1-2-4.85C518.07,316.89,523.18,312.36,523.93,311.72Z"/><path class="cls-11" d="M524.24,272.72a24.23,24.23,0,0,1,4.63,9.28c1,3.8.28,5-.63,18-.79,11.16-.23,9.34-.64,11.27-.75,3.52-2.09,7.17-.27,9.92a22.2,22.2,0,0,0,1.63,2c2.38,2.65,3.66,3.08,3.55,3.91-.15,1.13-2.73,1.94-4.82,1.82a8.05,8.05,0,0,1-5.55-3c-2.15-2.83-1.21-6.52-.63-8.92.89-3.72,2.1-4,3.54-7.64,2.28-5.66,1.74-11,1.37-14.73s-.68-6.73-2.28-9.82c-4.73-9.17-15.49-9.88-15.18-14.46.14-2.1,2.52-3.73,4.27-4.19C517.92,264.94,522.74,270.88,524.24,272.72Z"/><path class="cls-12" d="M538.36,325.13C538.31,325,540,324,542,324c1.84-.06,3.51.59,3.48.79s-.57.11-1.67.13-1.56,0-2.12,0C539.56,324.82,538.39,325.27,538.36,325.13Z"/><path class="cls-12" d="M529.66,324.52c-.47-.25-.94.21-2,.61-1.42.52-2.46.42-2.46.58s.7.27,1.33.27a20.2,20.2,0,0,0,2.32-.41c.75-.07,1.12,0,1.23-.23S530,324.68,529.66,324.52Z"/><path class="cls-13" d="M638.65,436.34a45.09,45.09,0,0,0,13.83,5.09c15.31,2.87,22.73-4.41,35.1-1.63,9.9,2.22,20.41,10.31,19.47,15.64-2,11.22-56.65,20.22-68,.18C637.36,452.7,635.3,446.85,638.65,436.34Z"/><path class="cls-11" d="M518.21,286.66a15,15,0,0,0-3.05-6.28,14.22,14.22,0,0,0-8.59-4.43c-2.93-.48-3.07.33-10.51,1.16-6,.67-7.4.32-8.93,1.7-1.87,1.7-2,4.33-2.05,7.58a31.52,31.52,0,0,0,2.46,13,45.94,45.94,0,0,1,5.73-3.76,59.18,59.18,0,0,1,10.3-4.29c3.95-1.35,4.76-1.36,8.73-2.8C514.79,287.6,516.9,287.23,518.21,286.66Z"/><path class="cls-11" d="M550.34,281.54c.19-3.72,5.37-6,6.09-6.36,2.58-1.16,4.87-1.08,9.46-.91,4.41.15,6.61.23,8.91,1.18,3.14,1.29,5.74,3.56,8.64,3.27.25,0,.83-.1,1,.19.52.84-3.19,3.95-3.36,4.09a25.65,25.65,0,0,1-9,4.64c-6.06,1.94-9.09,2.92-12.56,2.09C555.44,288.75,550.14,285.42,550.34,281.54Z"/><path class="cls-11" d="M556.57,347.71a26.83,26.83,0,0,1-3.11,4.94,21.58,21.58,0,0,1-8.73,7.2,23.86,23.86,0,0,1-13.29,1.08C539.45,356.64,548.56,352,556.57,347.71Z"/><path class="cls-12" d="M523.17,343.53a23.32,23.32,0,0,1-6.48.72,1,1,0,0,0-.69.14c-.75.66.57,3.31.87,3.91a21.18,21.18,0,0,0,5,6.14c3.51,3.35,5.27,5,5.63,5.23,4.95,2.83,11.37.51,14.24-.76Z"/><path class="cls-11" d="M536.21,330.62c-1.3.81-.91,3.2-.69,4.61.29,1.75,1.16,4.38,2.05,4.33s1.21-2,1.6-3.79c.52-2.32.84-3.75,0-4.67A2.55,2.55,0,0,0,536.21,330.62Z"/><path class="cls-13" d="M538.47,330c-.05.15-.76,2.28.5,3.68.1.11,1,1.12,1.95.87s1.39-2,1.28-3.05c0-.21-.23-2.27-1.59-2.55A2.3,2.3,0,0,0,538.47,330Z"/><path class="cls-13" d="M535,333.28c-.51.08-.8,1.66-.58,3,.17,1,.75,2.44,1.23,2.39.64-.08,1.24-2.85.13-4.64C535.61,333.76,535.29,333.23,535,333.28Z"/><path class="cls-14" d="M556.57,347.71a33.59,33.59,0,0,1-6.69.77c-2.87,0-3.33-.36-6.23-.32s-3,.41-7.18.6c-3.65.16-4.67-.07-5.6-.46-1.68-.71-1.66-1.4-3.27-1.91s-2.6-.07-5.14,0a25.21,25.21,0,0,1-5.18-.36c3.26-1.52,6.06-2.63,8.19-3.41,3.27-1.2,4.28-1.37,5.45-1.16,2.28.41,2.62,1.8,5,1.91a17.21,17.21,0,0,0,4.3-.82,22.51,22.51,0,0,1,3.2-.82,8.24,8.24,0,0,1,4.78,1.51C550.2,344.42,552.86,345.86,556.57,347.71Z"/><path class="cls-15" d="M556.57,347.71a41.43,41.43,0,0,1-4.51,4.71c-3.18,2.83-6.1,5.42-10.56,6.54-1.34.34-6.42,1.62-11.26-.74-1.23-.6-2-1.22-8-7.17-2-2-3.75-3.74-5-5a25.21,25.21,0,0,0,5.18.36c2.54-.11,3.47-.56,5.14,0s1.59,1.2,3.27,1.91c.93.39,2,.62,5.6.46,4.19-.19,4.31-.55,7.18-.6s3.36.33,6.23.32A33.59,33.59,0,0,0,556.57,347.71Z"/><path class="cls-16" d="M556.57,347.71a7.88,7.88,0,0,1-1.87,1.18c-1.58.67-2.89.43-4.72.27a45.72,45.72,0,0,0-6.42-.09c-2.11.15-1.93.38-4.82.69a22.54,22.54,0,0,1-6,.18c-2-.32-2.08-.77-5-1.28-1.76-.3-3.5-.44-3.59-.45-2.32-.18-3,0-4.28-.46a7.45,7.45,0,0,1-2.68-1.68,25.21,25.21,0,0,0,5.18.36c2.54-.11,3.47-.56,5.14,0s1.59,1.2,3.27,1.91c.93.39,2,.62,5.6.46,4.19-.19,4.31-.55,7.18-.6s3.36.33,6.23.32A33.59,33.59,0,0,0,556.57,347.71Z"/><path class="cls-17" d="M542.11,351.87c-2.72-.24-3.13.09-5-.07-3.06-.25-4.09-1.33-5.36-.54-.74.45-1.33,1.4-1.09,2,.34.81,2.06.31,4.74.65,4.32.55,5.59,2.58,7.61,1.67,1.3-.58,2.24-2.09,1.91-2.86C544.81,352.38,544.42,352.08,542.11,351.87Z"/><path class="cls-18" d="M544.43,345.94c-.3-.68-2.48-.78-3.52.34-.14.14-.61.65-.46,1,.28.68,2.63.84,3.62-.34C544.16,346.85,544.61,346.32,544.43,345.94Z"/><path class="cls-18" d="M533.31,346.19c-.18-.78-1.51-1.25-2.5-.91-.14,0-.85.28-.87.68,0,.73,2.28,1.84,3.09,1.11A1,1,0,0,0,533.31,346.19Z"/><path class="cls-18" d="M537.48,344.3c.36,0,1,1.09.59,2.05-.27.61-.94,1.11-1.23.95C536.31,347,536.92,344.32,537.48,344.3Z"/><path class="cls-19" d="M516.32,285a16,16,0,0,1-2.08,1.43c-.64.37-2.35,1-6.12,1.63a17.57,17.57,0,0,1-7.05-.14,13.26,13.26,0,0,1-8.14-5.28,18,18,0,0,1,3.17-2,19,19,0,0,1,5.69-1.7,17.24,17.24,0,0,1,5.56-.21,15.63,15.63,0,0,1,3.14.79,9.43,9.43,0,0,1,4.3,2.55A7.33,7.33,0,0,1,516.32,285Z"/><path class="cls-20" d="M512.05,280.09a4.44,4.44,0,0,1-.25,2.36c-.93,2.26-3.56,2.81-4.16,2.94a5.78,5.78,0,0,1-4.73-.78,5.65,5.65,0,0,1-2-5.43,13.73,13.73,0,0,1,1.69-.46,14.63,14.63,0,0,1,4.32-.16A15.32,15.32,0,0,1,512.05,280.09Z"/><path class="cls-21" d="M506.47,278.76a1.69,1.69,0,0,0,.47,1.33c.93.79,2.86-.24,2.83-.75s-1.18-.63-1.77-.7A4.24,4.24,0,0,0,506.47,278.76Z"/><path class="cls-21" d="M506.79,282.07a1.09,1.09,0,0,0-.1,1.3c.53.62,2.31.08,2.44-.6a.83.83,0,0,0-.31-.65A1.47,1.47,0,0,0,506.79,282.07Z"/><path class="cls-22" d="M516.87,286.82a14,14,0,0,0-2.14-3.64,11.39,11.39,0,0,0-3.36-3c-2-1.1-3.84-1.11-6-1.13a20.29,20.29,0,0,0-8.14,1.59,18.77,18.77,0,0,0-4.91,3.14l-1.86-1.37c1.19-.52,2.92-1.25,5.05-2a34.12,34.12,0,0,1,6.18-2,19.85,19.85,0,0,1,5.78-.27,12.25,12.25,0,0,1,6.57,2.7A7.83,7.83,0,0,1,516.87,286.82Z"/><path class="cls-19" d="M554,280.43a9.17,9.17,0,0,0,1.76,3.45c2.12,2.6,5.36,2.23,6.41,2.27a17.89,17.89,0,0,0,8.36-1.76,20.79,20.79,0,0,0,6.59-4.53,6,6,0,0,0-2.09-1.83,12.51,12.51,0,0,0-5-1.77,20.93,20.93,0,0,0-4.35-.34,18.32,18.32,0,0,0-5.39.76A16.14,16.14,0,0,0,554,280.43Z"/><path class="cls-20" d="M568.62,276a6.75,6.75,0,0,1,.52,1.89,5.27,5.27,0,0,1-.59,3.73,5,5,0,0,1-3.93,1.86,6.35,6.35,0,0,1-4.23-1.63,8,8,0,0,1-2.66-4.14A20.94,20.94,0,0,1,568.62,276Z"/><path class="cls-21" d="M563.16,276.15a1.93,1.93,0,0,0,.39,2.1,1.8,1.8,0,0,0,2.73-2.32Z"/><path class="cls-21" d="M563.41,279.72c.22-.55,2.1-.69,2.55.09a.9.9,0,0,1-.05.91c-.33.47-1.18.4-1.7.12S563.28,280.06,563.41,279.72Z"/><path class="cls-22" d="M551.57,283.23a21,21,0,0,1,6.64-5.23,17.81,17.81,0,0,1,6.32-1.73,16.09,16.09,0,0,1,6.18.63,19.86,19.86,0,0,1,5.09,2.6c.91.59,1.64,1.14,2.14,1.54l2.46-1.86a21.17,21.17,0,0,1-3.14-.87c-1.43-.51-1.87-.85-3.18-1.36a20.85,20.85,0,0,0-4.21-1.14,22.31,22.31,0,0,0-5.22-.27,18.07,18.07,0,0,0-6.34,1.53A14.61,14.61,0,0,0,551.57,283.23Z"/><path class="cls-23" d="M551.05,268.67a.88.88,0,0,0,1.18.66,55.15,55.15,0,0,1,9.66-2.79,59,59,0,0,1,10.28-1,62.94,62.94,0,0,1,13.91,1.36v-2.27a21.43,21.43,0,0,0-5.36-2.46,25.17,25.17,0,0,0-8.46-.82c-2.44.12-4.52.45-10.73,2-2.71.68-6.15,1.57-10.15,2.7a.86.86,0,0,0-.62,1Z"/><path class="cls-23" d="M517.84,268.85a.85.85,0,0,1-.93.87c-3.49-.32-12.09-1.06-21-1.46-8.26-.36-10.82-.16-13.1.46-.43.12-1.73.48-1.82.27s2.93-2,5.65-3.37a1.21,1.21,0,0,1,.37-.11,85.81,85.81,0,0,1,12.08-1,86.84,86.84,0,0,1,18,1.68.86.86,0,0,1,.69.82Z"/><path class="cls-23" d="M624.24,264.28c-2.39-12.45-4.94-21.61-5-21.75-9.3-33.36-9.1-32.93-9.89-35.07-6.1-16.28-9.14-24.42-16.65-31.37-4.19-3.88-6-4.06-10.59-5.94a107.92,107.92,0,0,1-16.29-8.66s-7.49-4.65-21-7.33a7.35,7.35,0,0,0-4.09.23,12.65,12.65,0,0,0-2.59,1.73,4.45,4.45,0,0,1-.48.26h0a4.71,4.71,0,0,1-1.39.41h0a15,15,0,0,1-5.1-.59,8.49,8.49,0,0,0-1.47-.06c-1.7,0-4.76.14-9.45.34a31.14,31.14,0,0,0-3.49.35c-.2,0-.4,0-.6.09h0a59.51,59.51,0,0,0-23.72,9.73,18.3,18.3,0,0,0-5.1,5c-1.85,2.41-5,6.47-13.63,15.38l-.53.54c-3,3.07-5.66,5.91-7.39,10.55-1.26,3.39-.71,4.27-2.54,11.55a61.82,61.82,0,0,1-3.37,10.73c-2.18,5-3.38,5.44-5.09,9.65a37.54,37.54,0,0,0-2.46,11.09c-.87,8.22.76,10.28.19,20.37-.1,1.73-.26,3.63-.46,7.64-.16,3.32-.17,4.41-.36,6.46-.33,3.47-.81,5.79-1,6.91-.94,5.51.88,7.25,1.54,16.1.58,7.79-.63,9-.27,18.46a31.15,31.15,0,0,1-.18,5.1,31.79,31.79,0,0,1-2,7.73c-1.79,5.06-1.4,10.68-.63,21.92.32,4.77.58,4.86.54,7.64,0,5.07-.93,8.78-2.09,13.55a105.57,105.57,0,0,1-4.72,14.74c-2.95,7.12-3.72,6.5-5.55,11.91a59.53,59.53,0,0,0-2.91,14.73,65.66,65.66,0,0,0-.09,9.64c.8-.32,2.13-.84,3.82-1.36a47.06,47.06,0,0,1,6.63-1.55c3-.51,6.2-1.95,13.6-5.77l7.59-4c9-4.69,13.48-7,13.83-7.19,5.79-2.5,8.79-3.19,12.1-6.18A22.57,22.57,0,0,0,498,388.5q.18-14.78.37-29.56a77.18,77.18,0,0,1-5-5.91,79.37,79.37,0,0,1-11.37-20.73c-2.63-7.2-3.38-13.59-4.2-24.41-.14-1.85-.28-3.83-.43-6a189.6,189.6,0,0,1-.69-21.88,154.39,154.39,0,0,1,5.32-36c3.24-11.63,5-17.57,10.1-23.47,5.47-6.28,11.91-9.5,17.19-12.14,7.7-3.85,12.55-6.28,19.1-6.14,7.3.16,12.73,3.65,23.6,10.64a179.73,179.73,0,0,1,16.1,12c9.3,7.44,14,11.16,16.51,13.91,2.17,2.34,19.83,17.09,20.22,39.22a175.3,175.3,0,0,1-1.28,18c-.54,4.81.36,11.91-1.3,18.4-1.09,4.25-4.41,5.2-5.09,7.59h0c.46.14-11.84,40.4-10.29,40.07,2.36-.52,5.6,20.06,7.87,19.82s12.7-12.21,14-13.2c5.51-4.28,7.16-62.51,12.6-75.14,1.91-4.42,2-3.39,3-6.2C626.83,280.05,626,273.4,624.24,264.28Zm-5,17.08c-2.32,8.36-3.47,12.54-4.19,14-2,4.21-4.16,6.75-4.73,10.91a16.5,16.5,0,0,1-.9,3.64c-.74,2-1.47,4-3.28,4.73a5,5,0,0,1-3.91-.19c.94-13.25,1.46-26.43,2.4-39.69a19.87,19.87,0,0,1,4.88-8,9.07,9.07,0,0,1,4.18-2.91c.64-.19,3-.86,4.82.36a5.88,5.88,0,0,1,2.18,4.1C621.49,272.81,620.44,276.82,619.19,281.36Z"/><path class="cls-23" d="M517.41,201.73a54.5,54.5,0,0,1-4.09,10.1c-3.3,6.23-5.85,8-8.18,14.19a27.47,27.47,0,0,0-2.05,8c-.18,2.22-1,12.12,5.87,17.73,6,4.91,14.12,3.46,15.68,3.14,3.73-.76,4.16-2.06,8.33-2.73,1.31-.21,4.13-.54,11.87,1.09a74.86,74.86,0,0,1,16.64,5.05,68.17,68.17,0,0,1,12.41,7.23,47.82,47.82,0,0,0-7.87-6,53.67,53.67,0,0,0-13.27-5.56c-1.28-.38-6-1.23-15.32-2.93a16.59,16.59,0,0,0-5.35-.27c-2.9.36-3.69,1.32-6.51,2.21-1.72.55-6.17,1.95-10.61.28a13.46,13.46,0,0,1-5.94-4.68c-2.73-3.64-3-7.5-3.17-11a26.4,26.4,0,0,1,1.47-10.84c.84-2.31,2.36-4.55,5.39-9,2.77-4.11,3.68-5,6-8.53s4.06-6.4,5.43-8.9Z"/><path class="cls-23" d="M508.14,207.37a36.73,36.73,0,0,1-3.46,10c-1.41,2.7-2.74,4.37-4.5,8.51a21.31,21.31,0,0,0-1.77,5.64,18.29,18.29,0,0,0,.4,7c.49,1.95,1.31,3.5,3,6.6s2.54,4.78,3.41,5.68,3.71,3.38,9.6,3.5a20.06,20.06,0,0,1-10.87-8.18,20.42,20.42,0,0,1-2.5-5.94,18.72,18.72,0,0,1-.89-8.3c.36-2.41,1.23-4.06,3-7.36.53-1,.9-1.65,3.79-6.21,2.61-4.12,3.91-6.18,4.41-6.91,1.36-2,3.29-4.68,5.85-7.78Z"/><path class="cls-23" d="M492.58,218a5.59,5.59,0,0,1,2.87,3.41c.39,1.45.28,3.77-1.3,4.84a3.5,3.5,0,0,1-2,.55A4.78,4.78,0,0,0,494,225.2c.08-.13,1.49-2.4.27-4.5a4.22,4.22,0,0,0-2.59-1.91Z"/><path class="cls-23" d="M525.33,200.78A80.16,80.16,0,0,1,525.6,214c-.34,5.28-1,6.76-1.64,7.82-1.69,2.72-4.25,3.9-8.55,5.82-5.93,2.64-7.45,1.86-10.59,4.41a12.15,12.15,0,0,0-4.5,6.55c-.63,2.73.28,4.52.72,7,.55,3,.5,7.37-2.41,13.37a13.15,13.15,0,0,0,3.6-7.33A25.31,25.31,0,0,0,502,247c-.28-3.74-.72-4.93-.36-7.37a8.39,8.39,0,0,1,.91-3.22c1.1-1.94,2.92-2.73,5.91-4,6.75-2.78,6.89-2.66,8.6-3.5a21.47,21.47,0,0,0,7.41-5.19c3-3.52,3.79-7.49,4.41-10.77a32.31,32.31,0,0,0,.5-8.05c.82.87,2,2.11,3.59,3.5,3.64,3.24,5.47,4.86,8.28,5.86a20.29,20.29,0,0,0,9.55.64,28.42,28.42,0,0,0,5.5-1.18,26.17,26.17,0,0,0-14-12.69A25.9,25.9,0,0,0,525.33,200.78Z"/><path class="cls-23" d="M583.44,235.43c-.17,6.88.06,12.73.37,17.19A166.64,166.64,0,0,0,586,270.36c1.63,9.25,2.86,11.76,3.37,12.73a28.45,28.45,0,0,0,9,10.09,37.25,37.25,0,0,1-6.14-7.95A39.8,39.8,0,0,1,588,273.81c-.32-1.51-.38-2.18-1-12.91-.5-8.43-.54-9.31-.55-11a110.93,110.93,0,0,1,.5-11.23Z"/><path class="cls-23" d="M482.22,235.43a33,33,0,0,0,6.45,3.82c2.47,1.1,5.14,1.91,9.28,4,1.41.72,2.9,1.53,3.59,3.21a5.29,5.29,0,0,1,.28,2.95,4.09,4.09,0,0,0-.39-2.18,4.46,4.46,0,0,0-1.07-1.32,9,9,0,0,0-3-1.77,42,42,0,0,0-6.07-1.52,23.58,23.58,0,0,1-6.48-2.46,6,6,0,0,0,1.59,3.59c1.44,1.42,3.47,1.64,5.21,1.82,2,.21,2.7-.14,4.55.39a7.6,7.6,0,0,1,2.43,1.07,7.49,7.49,0,0,1,2.8,4.52c-.24,1.18-.47,2.35-.71,3.53,0-.77,0-4-2.32-5.76a7.3,7.3,0,0,0-3.91-1.18c-3-.29-4,.71-6.32.21A7.79,7.79,0,0,1,485,246.8a18.8,18.8,0,0,0-.25,3.73,17.84,17.84,0,0,0,.91,5.11c.89,2.68,1.8,5.4,4.12,6.62,2.57,1.36,6.17.49,9.18-1.82a7.3,7.3,0,0,1-2.41,3.14c-3.12,2.27-7.89,1.55-10.73-.91a8.89,8.89,0,0,1-2.55-3.82,5.15,5.15,0,0,0-.67,3c.37,3.49,4.81,5,5.22,5.15,4.36,1.43,8.28-1.41,8.77-1.77a9,9,0,0,1-3.65,3.1c-2.95,1.33-5.78.43-7.71-.17a18.22,18.22,0,0,1-8.94-6.45c.7,1.81,1.64,4.38,2.66,7.51,1.45,4.46,2.18,6.73,2.18,8.52s-.42,6-5.59,10.92a17.5,17.5,0,0,0,3.14-5.32,18,18,0,0,0,.95-8.05A18.58,18.58,0,0,0,475,265a30.7,30.7,0,0,1,7.23-29.61Z"/><path class="cls-23" d="M474.49,291.73c1.61,2.09,3.81,5,6.36,8.46,6.4,8.73,7.63,11.1,7.64,14.19,0,1.05,0,5.49-3.36,8.09a9.48,9.48,0,0,1-7.19,1.55,8.58,8.58,0,0,0,8.73-7.83c.25-2.11-.26-4.39-3.18-8.91A56.32,56.32,0,0,0,473.85,296C474.06,294.58,474.27,293.15,474.49,291.73Z"/><path class="cls-24" d="M498.32,358.94q-.19,14.79-.37,29.56a22.57,22.57,0,0,1-6.09,9.55c-3.31,3-6.31,3.68-12.1,6.18-.35.16-4.85,2.5-13.83,7.19l-7.59,4c6.5-11,7.76-14.23,7.23-14.6s-2.14,1.84-5.59,4.5c-7.44,5.72-15.73,8-16.1,7.23-.29-.55,4.46-2.31,9.82-7.64,5.95-5.91,11.26-14.09,9.83-15.55s-9.06,3.91-9.28,3.55,7.21-3.09,11.05-9.55c2.22-3.73,2.23-8.59,2.18-18.15-.05-9.78-1-12.53-.27-20.87.4-4.92,1.31-11.05,2.32-11.05s1.66,7.55,2.45,7.5,1.2-6.32,1.09-12.69c-.14-9-1.34-14.8-.54-15,1-.24,3.36,7.83,4.09,7.63,1.26-.32-4.09-24.43-3.55-24.55a22.12,22.12,0,0,1,1.23,3.55,56.16,56.16,0,0,0,3.44,8.2c.82,10.82,1.57,17.21,4.2,24.41A79.37,79.37,0,0,0,493.31,353,77.18,77.18,0,0,0,498.32,358.94Z"/><path class="cls-25" d="M582.13,170.15l-1,2.34c-3.5,7.82-3.61,8.48-4.82,9.28-5,3.27-10.43-.9-24-3C541,177,535.32,176.15,529,178.59c-7.13,2.73-11.2,7.91-18.92,7.09-2.61-.27-3.24-1-5.64-.73-6.19.63-10.17,6-12.46,9-4.48,6-6.1,12.08-6.55,11.91-.26-.09.24-2,.45-2.91a37.07,37.07,0,0,1,5.28-12.27c2.71-4.11,4.8-5.66,4.64-5.83-.38-.39-12.79,7.5-19.65,21.65a49.49,49.49,0,0,0-2.91,7.55,27.81,27.81,0,0,1,.09-4.73c1-9,6.21-14.42,5.19-15.1s-5.14,2.91-7.28,5.28c-3.84,4.23-5.25,8.18-5.73,8s.41-4.22,2-8.55a59.1,59.1,0,0,1,5.66-11.37l.53-.54c8.61-8.91,11.78-13,13.63-15.38a18.3,18.3,0,0,1,5.1-5,59.51,59.51,0,0,1,23.72-9.73h0a2.73,2.73,0,0,0,.6-.09,31.14,31.14,0,0,1,3.49-.35c4.69-.2,7.75-.33,9.45-.34a8.49,8.49,0,0,1,1.47.06,15,15,0,0,0,5.1.59h0a8.92,8.92,0,0,0,1.39-.41h0a4.45,4.45,0,0,0,.48-.26,12.65,12.65,0,0,1,2.59-1.73,7.35,7.35,0,0,1,4.09-.23c13.52,2.68,21,7.33,21,7.33A107.92,107.92,0,0,0,582.13,170.15Z"/><path class="cls-10" d="M604.39,275a20.8,20.8,0,0,1,5.07-8.24,9.12,9.12,0,0,1,4.18-2.91c.64-.19,3-.86,4.82.36a5.86,5.86,0,0,1,2.18,4.09c.84,4.55-.2,8.56-1.45,13.1-2.31,8.36-3.47,12.54-4.19,14-2,4.21-4.16,6.75-4.73,10.91a16.63,16.63,0,0,1-.9,3.64c-.73,2-1.47,4-3.28,4.73a5.64,5.64,0,0,1-4.09-.25C602.94,301.14,603.45,288.22,604.39,275Z"/><path class="cls-12" d="M616.19,272.45c-.39.53-1,.47-2.23.91a7.84,7.84,0,0,0-2.41,1.13c-1.5,1.2-1.23,2.79-2,2.91s-1.75-1.17-2-2.41a4.32,4.32,0,0,1,1-3.41c2.09-2.54,6.8-2.62,7.78-1.09A1.89,1.89,0,0,1,616.19,272.45Z"/><path class="cls-11" d="M613,270.36c.47-1,3.42-1.19,4.68.18.49.52.71,1.26.64,3-.16,4-1.5,5.26-2.32,10-.08.47-.25,1.57-.59,3.77-.47,3-.45,3.05-.55,3.46a20.15,20.15,0,0,1-2.5,5.5c-2.32,4.14-3.19,4.47-3.77,4.5s-1.33-.08-1.41-.4c-.13-.49,1.29-1.1,2.41-2,1.71-1.32,2.36-3,3.41-5.73.65-1.71.49-1.77,1.86-7.87.59-2.59.83-5.25,1.5-7.82.43-1.61.9-3.13.14-3.91s-2.2-.2-3.09-1.27A1.57,1.57,0,0,1,613,270.36Z"/><path class="cls-11" d="M609.23,282.13c.6.09.92.88,1.27,1.73a9.35,9.35,0,0,1,.68,3.28,14.71,14.71,0,0,1-.54,4.23c-.49,1.87-1.16,4.48-2.5,4.68-.34.05-.82,0-.91-.27s.29-.59.77-1.14a16.27,16.27,0,0,0,1.27-1.77,7.42,7.42,0,0,0,1-2.82,8.11,8.11,0,0,0,0-4.14c-.1-.32-.47-1.55-1-1.55s-.75.67-.82.82c-.3.6-.16,1-.36,1.09s-.79-.38-1-.95a2.19,2.19,0,0,1,.37-1.69C607.59,283.39,608.37,282,609.23,282.13Z"/><path class="cls-26" d="M780.44,329.15c-6.34-1.49-9.06-3.74-15.41-6-5-1.77-6.22-1.4-12.15-2.86-9.7-2.38-10.36-4.32-26.73-10.92-12.81-5.15-15.32-5.14-18.28-9-3.87-5-2.06-8.23-6.28-12.46-4.58-4.58-11.87-6-17.46-5.28-6.82.89-7.89,4.53-15.1,4.91-4.22.23-4.17-1-10.92-2-10-1.48-13.1.79-22.37-.73A49.51,49.51,0,0,1,625.57,282a25,25,0,0,1-.57,2.91,27.29,27.29,0,0,1-2,5.15c-.51,1-.51.87-1,1.95-.71,1.45-1.14,2.55-1.67,3.93-.63,1.63-1.12,3.07-1.49,4.22-.53,1.65-.89,3-1.19,4s-.3,1.19-.84,3.23-.76,2.87-1,3.56a21.74,21.74,0,0,1-1.4,3.56c-.49.91-2.4,4.51-6,5.56a13.49,13.49,0,0,1-4.26.34c-1.25-.07-1.53-.24-2.35-.24a8,8,0,0,0-4.63,1.86c-14.06,10.27-17.74,15.42-17.74,15.42-6,8.41-2.66,8.61-7.78,14.87-6.22,7.61-12.16,8.48-16.36,17.19-1.55,3.19-.82,3.2-2.46,6.41-.87,1.68-4.26,7.88-13.24,13.64-10.33,6.63-19.36,7.1-19.37,10.65,0,1.83,2.41,2.62,2.59,6.07.11,2-.6,3.58.28,4.29.64.53,1.64.16,2.25.07,1.77-.28,4.5,1.11,8.8,8.12.18-.54,2.05-5.74,7-7a10,10,0,0,1,5.19.14,10.15,10.15,0,0,1,5.39,3.61c.5.69.38.85.61,1,1.94.92,7.61-8.25,16.44-19.65,3.58-4.61,4.51-8.93,7.23-8.93,1.79,0,3.12,1.66,4.16,3,3.43,4.4,6.29,12.54,2.87,20.35a20.43,20.43,0,0,1-9.16,9.62c3.32-1.68,6.18-2.87,8.34-3.71a21.14,21.14,0,0,1,5.12-1.57c3.5-.41,6.38.79,9.13,2.12,10.86,5.21,11,8.14,15.36,8.32,4.71.2,10-2.95,12.27-7.78a13.74,13.74,0,0,0,.77-9.09,24.35,24.35,0,0,0,6.55,7.36c3,2.16,4.23,2,5.78,4.05,2.12,2.86.87,4.77,3.14,8.05,1.77,2.56,4.5,4.26,5,3.82s-.4-2-1.1-3.41c-1.35-2.76-2.26-3.26-3.13-5.18-1.11-2.41-.27-2.9-1.1-5.32-1.51-4.45-5.53-6.33-5.18-6.83s2.94.71,5.46,2.46c2.93,2,3.33,3.33,4.91,4.5,2.92,2.16,7.39,2.08,10.81,1.21a18.28,18.28,0,0,0,1.47,3.57,22.48,22.48,0,0,0,5.18,6.41c-2.25-5-2.14-6.72-1.5-7.23.36-.29.9-.23,1.91-.82a7.3,7.3,0,0,0,1.64-1.37c2.55-3.08-10.51-17.87-10.51-17.87-11-12.48-13.47-12.4-15.69-18.14-2.43-6.34-1.59-12-.68-18.15.83-5.54,2.36-15.87,8.73-18.14a8,8,0,0,1,5.46,0c3.62,1.5,3.55,5.55,7,9.41,2.6,2.94,4.47,2.65,9,5.18,4.84,2.71,4.6,4.1,18.15,18.56,5.23,5.59,6.36,6.55,8.05,9.41,3.54,6,2.13,7.88,5.18,11.46,4.42,5.19,8.34,2.43,14.32,8.05,4.4,4.13,4.86,8,8.33,8.33,2.88.24,5.83-2.19,5.59-3s-2.89.5-5.59-.54c-4.58-1.77-4-8.08-8.5-15.5a28.94,28.94,0,0,0,2.09-6.47c1-5.22.13-8.43,2.32-10.23,1.63-1.34,3.91-1,5.45-.82s5.28,1,12.41,8.05c5.11,5,6.57,7.93,9.56,7.78,1.72-.09,3.62-1.17,3.81-2.46.25-1.61-2.26-2.92-4.64-4.77-4.78-3.75-4-5.83-10.77-14.74-5.15-6.75-5.45-5.34-7.78-9.27-.34-.59-.67-1.18-1-1.76-.39-.75-.73-1.5-1-2.24,0,0,0,0,0,0a45.34,45.34,0,0,1-2.78-11.82c-.75-5.45-2.32-17,1.91-19a2.83,2.83,0,0,1,.91-.25c1.09-.09,2.67.42,5.48,2.09l.57.34c7.67,4.71,12.72,10.56,16.77,15.83,7.06,9.16,8.38,13,14.6,16.37a35.23,35.23,0,0,0,5.87,2.32,95.51,95.51,0,0,0,22.07,4.5v-42.7A41.29,41.29,0,0,1,780.44,329.15ZM592.9,350.85c-.55.19-2.25.8-2.73.18-1.32-1.72,7.38-12,8.82-11.1C600.13,340.61,598.29,348.93,592.9,350.85Zm16.74-6.64a2,2,0,0,1,2.54,1,1.83,1.83,0,0,1-.36,2.18c-1,.68-3.11-.34-3.18-1.64A1.7,1.7,0,0,1,609.64,344.21Zm4.18,42.65c-.36,4.42-1.79,8.64-2.55,8.55-.37,0-.11-1.12-.9-2.18-1.65-2.19-5.33-1-6.1-2.46-.48-.92.52-2.21,1.82-4.09,4.71-6.8,5.16-9.51,6.27-9.28C614,377.74,614.08,383.62,613.82,386.86Zm7.64-16.18c-.68,3.7-2.38,7.41-3,7.27-.34-.08-.15-1.3-.27-3.27-.35-5.55-2.57-6.83-2.28-10.37.26-3.13,2.33-6.35,3.64-6.19C621.35,358.34,622.51,365,621.46,370.68Zm9,17.46c-.79,1.8-1.68,1.3-2.55,3.09-1.45,3,.45,5.43-1.18,7-.62.6-1.67,1-2.19.64-1-.74,1.5-3.84,1-8.19-.38-3.34-2.14-3.62-2.1-6.63,0-2.57,1.31-2.92,2.37-6.46,1.52-5.09.16-8.62,1-8.83s3,2.72,2.54,5.46c-.39,2.44-2.68,3.5-2.18,5,.31.91,1.2.7,2.27,1.81A6.92,6.92,0,0,1,630.47,388.14Zm12.86,15.09c5.74,4.58,7.14,3.08,9.55,6.14a9.88,9.88,0,0,1,2,4.84c-2.37-.16-4,.71-6.27.76-6.3.14-12.63-6.32-13.92-12.42-.44-2.08-.52-5.2.68-5.73C636.78,396.23,638.6,399.46,643.33,403.23Zm68.9-17.05c-1.33,3.29-2.44,6.16-3.28,8.38a27.5,27.5,0,0,1-3.68-4c-4.67-6-5-8.91-10.77-17.74-.28-.41-2.69-4.08-5.33-7.5a83,83,0,0,0-11.4-12h0c-1.42-1.26-3-2.59-4.71-4h0c-.77-.63-1.57-1.29-2.42-2-15.33-12.37-17.78-11.9-24.83-19.24a75.92,75.92,0,0,1-11.73-16c1.75,1.53,4.38,3.77,7.64,6.41,6,4.88,9.21,7.08,14.46,11.05,1.55,1.17,4.79,3.77,10.55,8.4l5.88,4.74,1.3,1.05c13,10.5,13.6,11,16,12.15,7.8,3.66,10.67,2.11,17,6.54,2.85,2,8.56,5.95,9.14,11.87C716.3,376.9,715.43,378.29,712.23,386.18Zm4-64.8c-.3,2.66-4.19,4.15-4.78,4.36-3.7,1.36-6.4-.11-6.95,1s2.07,2.81,4.5,6.55c.81,1.26,3.14,4.84,3.4,8.59.42,5.68-3.82,12.63-9,13.78-4.05.9-6.4-2.25-17.59-10.91-13.2-10.21-13.84-8.85-23.47-17.19a158.47,158.47,0,0,1-14.73-14.46,147,147,0,0,1-14.06-18.69c.84.38,2.1.93,3.68,1.5,4.47,1.6,6.24,1.47,7.92,3.14.9.89.48,1,2,3.95,1.33,2.5,2.64,5,5.05,7,1.24,1,3.66,3.05,6.28,2.46,1.3-.3,2.77-1.26,2.73-2.19s-1.92-1.2-4.37-2.73c-1.31-.81-5.37-3.34-5.32-6.68a5.15,5.15,0,0,1,3-4.5c1.53-.61,3.43-.21,8.6,3.41,5.34,3.74,8.53,7,13,10.91,1.79,1.6,4.43,3.89,7.77,6.55a41.61,41.61,0,0,1,13.37-3.55c4.16-.38,11.42-1,16.37,3.28C714.42,317.6,716.41,319.33,716.19,321.38Zm26.87,8.46c.4-.71,2.74-.1,6.83,1,4.28,1.12,6.64,1.72,9.13,3.41,2.78,1.88,2.64,3,6,6.55,5.05,5.33,9.15,6.79,8.86,7.37-.44.92-11-2.27-21.14-9.14C748.22,335.9,742.35,331.1,743.06,329.84ZM775,357.67c-1,1.83-10.17-.4-17.33-5.05-7.39-4.8-12.36-12-11.59-12.82.42-.47,2.27,1.31,7.22,3.82,8.68,4.4,12,3.5,17.06,7.77C770.58,351.58,775.88,356.07,775,357.67Z"/><path class="cls-27" d="M664.75,334.48q5.57,9.91,11.12,19.85l2.66.54-8.46-17.32Z"/><path class="cls-28" d="M723.69,329.29c.46,4.25.73,7.85.91,10.55a78.86,78.86,0,0,1,.27,11.1c-.26,3.72-.68,4.33-.91,7.64a43,43,0,0,0,.55,10.37c.5-5.63,1.09-10.18,1.54-13.37.84-5.85,1.1-6.07,1.37-9.46a56.11,56.11,0,0,1,1-8.92,37.7,37.7,0,0,1,1.36-4.72Z"/><path class="cls-29" d="M766,85.36c.48-1.12,1.26-1.8,5.87-4.91A9.94,9.94,0,0,0,774.71,78a4.92,4.92,0,0,0,.57-.91,8.4,8.4,0,0,1,.66-1.4c1.26-1.87,3.8-2.24,7.51-2.73a34.91,34.91,0,0,1,5.83-.28V70.81a5.85,5.85,0,0,1-3,.23c-.71-.15-2.21-.61-4.18-3.14-2.36-3-1.66-4.24-3.91-7.68-1.18-1.8-2.23-3.37-4.28-4.33l-.13,0a8.63,8.63,0,0,0-5.14-.54,10,10,0,0,0-6.27,4.55c-1.86,3-.42,4.39-2.51,8.51-.7,1.38-2.21,4.34-4.46,4.4a2.76,2.76,0,0,1-2.32-1.13c-.85-1.3-.3-3.62,1.74-5.37a6.5,6.5,0,0,0-3,2c-1.24,1.57-.89,2.94-1.36,5.46-.3,1.61-1.47,4-3.82,8.73a53.52,53.52,0,0,1-2.55,4.91,8.87,8.87,0,0,1-.93,1,12.36,12.36,0,0,1-4.47,2.49c-1.62.57-3.59,1.07-6,1.7l-.29.07c-6,1.52-9,2.26-11.63,1.13s-2.59-2.64-6.55-4.77a15.93,15.93,0,0,0-6.76-2.32c-4.33-.29-5.62,2.06-10.56,2.38a17,17,0,0,1-6.83-1c-5.44-2.14-8.65-8.39-10-14.4a30.59,30.59,0,0,1-.72-5.24c-.24-5.33,1.32-6.07,2.32-15.83.94-9.22,1.72-11.52.48-12.28-2.48-1.52-10.07,4-13.64,7.37a14.48,14.48,0,0,1-5.69,3.64,20.48,20.48,0,0,1-4.09.63c-5.84.67-8.75,1-10.09.91-2.86-.18-3.87-.71-5.28.09a3.92,3.92,0,0,0-1.51,1.63,16.8,16.8,0,0,1-1,1.74A12.67,12.67,0,0,1,633.65,61c-4.65,1.1-8.89-1.85-10.28-2.82-4.65-3.24-6.62-9-10.36-20.37-2.24-6.81-3.92-11.95-5.27-15.91-.94-2.72-1.72-4.89-2.43-6.65-1.42-3.48-2.55-5.37-4-6.9a14.91,14.91,0,0,0-1.44-1.28c-2.06-1.65-4.47-3-6.19-6.28q-.24-.47-.42-.9c-1.75-4.19.23-6.61-1.49-12.47-1.37-4.67-4.18-8.44-6.64-11.74-3-4.07-5.41-6-5-8.82a6.88,6.88,0,0,1,3.18-4.36A24.32,24.32,0,0,1,579-36.15c-2.11.46-6.12,1.34-9.46.19-1.8-.63-3.21-1.78-10.64-14.19-.48-.8-.91-1.51-1.28-2.14-1.32-2.21-2-3.4-2.18-3.77-3.25-7.7,0-10.89-1.82-19-.66-2.92-.93-1.8-7.46-15.18-4.32-8.87-3.42-7.76-5.27-11.1a93.87,93.87,0,0,0-13-17.78,51.78,51.78,0,0,0-5.46-5.32c-3.1-2.54-4.34-2.83-5.45-4.5-1.77-2.65-2.48-6.73-.69-9.14.29-.39.62-.71,4.23-2.39a74.55,74.55,0,0,1,7.71-3.34c3.83-1.21,5.28-1,6.14-2.39s.77-3.52-.41-4.16c-.74-.4-1.74.09-3.14.89-4.17,2.36-7.4,4.73-11.05,6.54-2.44,1.22-3.3,1.3-3.95,1-1.13-.59-.83-2-2.59-4.57-.84-1.21-1.23-1.36-1.16-1.84.13-1.08,2.18-1.48,6.41-2.73,6.29-1.86,7.19-2.58,7.29-3.34a2.24,2.24,0,0,0-1.49-2.05c-1.53-.58-3.32.84-4.44,1.64a32,32,0,0,1-13.78,5.52c-3.71.43-5.69.66-8.32.07-1.5-.33-3.19-.92-4.09-.07a2,2,0,0,0-.34,2.32c.68,1.09,2.62.53,2.86,1.16s-.81,1.24-2.19,2.2c-.69.47-1.47,1-2.25,1.55-5.09,3.69-5.68,5.86-7.77,5.73-2.35-.14-3.95-3-4.69-4.34-3.26-5.88-.12-9.52-2-20.19-.63-3.58-1.07-3.62-1.64-7.55-.74-5.05-.5-8.2-2-8.73a2.43,2.43,0,0,0-2.37.91c-1,1.16-.38,2.64-.09,5.73a34.31,34.31,0,0,1-.27,7.91c-.38,3.26-.56,4.89-1.46,5.18-2,.67-5.52-5.91-7-5.18-.38.19-.5.79-.55,1-.21,1,.54,1.83.82,2.55.65,1.61-.73,3.6-1.73,5-3.21,4.53-7.84,6.62-7.64,7s2.83-1.58,5.83-.83c1.21.31,3,1.17,3.18,2.46.15.94-.64,1.28-2.09,3.73-1.63,2.75-1.58,3.91-1.55,4.27.11,1.29.84,2.52,1.28,2.46.74-.11,0-4,1.72-4.82,1.11-.57,2.68.45,2.82.54,2.83,1.89,1.06,5.63,2.87,9.81a9.23,9.23,0,0,0,.41.84c1.89,3.46,5.52,5.27,9.36,7.18,4.41,2.19,5.8,1.65,7,3.46,2,3-1.22,5.66-.28,11.18.16.9,2.17,4.28,6.19,11a94.25,94.25,0,0,1,4.73,8.27c1.47,3.11,1.54,3.91,2.82,6,2.19,3.57,3.55,3.76,5.55,6.45,3.38,4.58,3.78,9.87,4,12.74,0,.49.06,1,.07,1.38a19.92,19.92,0,0,1-.3,4,8.49,8.49,0,0,0,.23,5.19c1.23,3.34,3.07,3.87,4.09,7.82a14.87,14.87,0,0,1,.52,3.06,10.66,10.66,0,0,1-.34,3.49c-1.39,5.07-6.13,7.32-6.82,7.64a13.47,13.47,0,0,1-10.28.27c-2.92-1.15-3.31-2.66-5.72-2.82-3.18-.21-6.59,2.13-6.46,3.82,0,.61.53,1,1.27,1.34a16.06,16.06,0,0,1,4.09,2.39c3,2.67,3.57,6.55,4,9.55.23,1.55,2.05,15.71-7.27,22.2-4.27,3-8.95,3-11.55,3-8.32,0-9.23-4-18.46-5.27-3.17-.43-10.83-1.47-18.74,1.45-3.49,1.3-6.24,3.06-9.64,2-2.49-.78-4.74-2.88-6.55-1.92-.05,0-1,.53-.91,1.1,0,.19.16.57,2.09,1.27s2.54.6,3.82,1.18a5.88,5.88,0,0,1,2,1.28c1.6,1.81-.69,4.29-.27,7.63.59,4.81,6.08,5.87,5.82,10a3,3,0,0,1-.05.43,6.72,6.72,0,0,1-1.68,3.21c-2.48,3.06-6.25,3.48-12.37,4.18-1.31.15-2.41.27-3.35.34a8.47,8.47,0,0,1-4.47-.61c-2.49-1.22-3.13-3.16-4.82-3-1.86.16-3.29,2.7-3.82,4.64-.8,2.89.32,4.81,1.64,9.64,2,7.37.47,6.72,1.91,9.45,2,3.79,5.18,5.46,10.55,11.28a16.82,16.82,0,0,1,1.64,2.09,15.18,15.18,0,0,1,2.18,5.37,12.53,12.53,0,0,1-.28,6.1c-2,5.76-10.31,7.71-13.46,8.45-5,1.18-9.12.89-9.18,1.73,0,.57,1.82,1.44,5.55,3.18,1.5.71,2.38,1.06,2.45,1.74.13,1.26-2.75,2.44-2.55,2.9.14.29,1.19-.21,2.64.18.53.15,1.43.39,1.64,1,.35,1-1.57,2.21-1.27,2.72s1.88.25,3.18-.63,1.51-2.17,2.36-3.28c.31-.38,1.61-1.93,6.37-2.27,7-.5,14.29,2.17,17.92,3.55,9.64,3.65,9.45,4,13.19,5.27,6,2,9.28,1.95,35.83,4.73,4.78.5,10.52,1.17,11.64,4.37.94,2.67-2.06,5.1-1.09,6.54,1.62,2.41,10.46-3.57,22.38-4.36a44.64,44.64,0,0,1,23.46,5.28c8.14,4.17,12.05,9.21,15.55,13.73.7.9,3.42,4.47,2.46,5.73s-4.65-.46-5.05.41c-.26.56.94,2.07,2.59,2.72,2.88,1.15,5-1.13,7.23,0,1.19.62,1.32,1.68,2.19,3.42,3.18,6.32,8.59,6.28,10.77,12.55.38,1.07.82,2.36.28,2.86-1.25,1.15-5.77-3.49-14.06-7.77-7.12-3.69-7.86-2.38-16-6.69-4.42-2.35-7.48-4.48-8-3.82s1.79,3.81,3.13,5.32a21.73,21.73,0,0,0,2.79,2.64c.7.12,1.61.28,2.67.51.79.16,2.64.56,5.11,1.28a66.26,66.26,0,0,1,8.41,2.9c2.64,1.11,4.56,2.12,5,2.37,2.35,1.26,2.55,1.58,5.74,3.43,1.4.82,3.42,2,6.08,3.29,2.5,1.22,4.64,2.11,5.73,2.57a51.35,51.35,0,0,1,5.34,2.22,22.85,22.85,0,0,1,4.67,3.49,36.33,36.33,0,0,1,6,7.15c2.63,4,4,7.4,6.75,14,1.31,3.18,2.91,7.1,4.65,12.53,1,3,1,3.52,3.44,12.28s2.44,8.61,4.31,15.51c1.74,6.43,2.63,9.73,3.71,14.24.33,1.4,0,.1,3,14.28a41.74,41.74,0,0,1,1,5.52c0,.4,0,.69,0,.83,0,1.72-.11,4.81-.17,10.72a3.17,3.17,0,0,0,1.34,1.21,4.36,4.36,0,0,0,2.46.07c1.21-.13,4.3-.46,5.64-2.63,1.1-1.78.19-3.44,1.37-4.37s2.84-.26,3.63,0c6.59,2.09,14.22,2.09,17.28,2.09,4.61,0,5.32-.85,8.55-.09,2,.47,3,1.1,6.92,2.91,0,0,2.23,1,7.91,3.46.87.37,16.21,6.69,27.83.73.89-.46,4.82-2.56,10.28-4.92,3.12-1.34,4.67-1.88,6.27-1.27,2.32.88,2.53,3.29,5.28,4.09,1.37.41,3.3.38,3.73-.45.6-1.17-2.48-2.56-4.1-6.55-1.37-3.41-.19-5-1.81-6.55-1.34-1.25-3.26-1.19-6.1-1.09-4.19.14-5.23,1.82-7.46,1.45-1.63-.26-3.88-1.54-6.09-6.45l6.73,1.45c8.09,1.74,8.42,1.8,9.19,1.64,4.88-1,4.75-6,10.64-7.82,1-.33.89-.12,6.82-.55,6.29-.45,7.87-.79,10.09-.91,3.45-.18,6.62.27,15.1,2.82,5.86,1.77,13.49,4.3,22.39,7.92V205.42a11.41,11.41,0,0,1-3.83,5.27c-2,1.47-4.19,1.87-8.92,2.1-6.39.31-8.39-.14-11.64,0-4,.16-4.57,1-14.1,3.91-15.87,4.85-18.83,4-20.19,3.45-4.81-1.87-7.93-6.47-8.55-7.36-3.12-4.6-2.39-7.57-5.45-9.65-3.35-2.28-7.84-1.19-9.73-.73-1,.24-2.87.79-14.38,7-1.2.65-2.81,1.52-4.18.91-1.61-.72-1.34-2.79-2.54-5.32-2.25-4.71-6.33-4.14-7.65-7.64s1.61-7.83,3-9.83c2.79-4,5.21-4.64,13.09-9.54,10.32-6.42,14.28-10.33,21.15-10.78,3.31-.22,4.79.53,5.45.95,3.19,2,2.2,5.44,5.46,7.78,2.37,1.69,3.53.34,6.69,2.32s3.28,4.07,4.77,4c2-.16,2.07-3.93,6.28-7,.63-.45,2.3-1.63,3.14-1.09s0,3,.81,3.55c.47.29,1.5,0,4-2.32,4.63-4.35,4.44-6.54,7.23-7.77,2.53-1.12,5.93-.75,7,.82.75,1.13.09,2.7.82,3,.55.22,1.55-.42,1.91-1.23s0-1.21.27-1.37c.45-.26,1.27,1.23,3.14,1.92a4.2,4.2,0,0,0,2.45.27c1.55-.4,1.64-1.78,2.87-2.19s2.71.8,4.5,1.92a20.79,20.79,0,0,0,7.2,2.73v-3.69c-1.6-4.79-3.67-6.39-5.29-7s-2.72-.21-5.73-1.09a21.48,21.48,0,0,1-3.82-1.5,9.73,9.73,0,0,1-3.63-3.91,15.66,15.66,0,0,1,6.9-21.74c2.83-1.39,4.42-1,6.83-2.73a13.47,13.47,0,0,0,4.74-7.64v-3.18c-.75.46-1.49.9-2.15,1.27-6,3.42-8,3.36-13.69,6.51-1.15.64-3.52,2.24-8.28,5.45-8.39,5.68-8.59,6.09-11.54,7.73-4.78,2.65-7.58,4.21-11.74,4.73-4.62.59-5-.85-9.64.09-2.36.48-3.89,1.17-9.37,2.46-3.23.76-4.37.92-4.55.55-.45-.95,5.82-4.53,5.46-5.19-.06-.11-.34-.18-4.64,1.18-1.83.59-3.71,1-5.55,1.64a6.45,6.45,0,0,1-3.36.46c-.44-.08-1.71-.32-2.06-1.15s.65-2.27,1.06-2.76c7-8.55,25.1-11.46,25.1-11.46,5.09-.83,9.53-1.09,9.64-.55s-3.59,1.27-8.73,4c-3.58,1.91-7.32,4.48-7.09,4.91.33.64,9.37-3.22,14.91-5.82a69.93,69.93,0,0,1,6.37-2.91c5.13-1.85,8.27-1.78,12-2.36,6.12-1,5.83-2.44,21.65-8.74,2.09-.82,4.31-1.71,6.2-2.41V99.14a19.27,19.27,0,0,0-5.83-2.32,17.76,17.76,0,0,0-1.77-.27h0c-1.87-.2-3.71-.1-7.79-.55a13,13,0,0,1-3.82-.68,8.58,8.58,0,0,1-4.5-7.64,7.39,7.39,0,0,1,.14-1.47A5.51,5.51,0,0,1,766,85.36Zm18.28,161.35a1.49,1.49,0,0,1,.55,1.54c-.2.9-1.27,1.25-5,2.37-4.24,1.27-5.34,1.56-6.37.91-.77-.49-.57-.91-1.36-1.55-2.32-1.85-6.26,0-6.37-.36s3.26-2.94,7-2.27c2.81.49,3.12,2.33,5.37,2.27C781.17,249.53,783,246,784.26,246.71ZM733,230.7c2.63-2.83,2.62-3.47,3.46-3.64,1.72-.33,2.38,2.31,5.09,3.55,2.46,1.14,4-.07,10-1.18,6.88-1.28,6.67,0,10.83-1.28,5.67-1.71,6.89-4.31,9.73-3.54s5.21,4.53,4.36,6.46c-.62,1.42-2.58,1-12.73,2.08-6.11.66-7.2,1-10.55.92s-3.92-.49-6.37-.18c-3.66.46-5.07,1.67-7.28.81-1.72-.67-1.65-1.73-3.45-2.18-2.4-.61-4.45.78-4.73.27C731.17,232.5,731.79,232,733,230.7Zm-1.55,13.1c1.31-.71,2.26-.86,6-1.36,7.36-1,8.29-1.06,9.19-.28,1.39,1.2,1.93,3.7,1,4.91-1.09,1.42-3.58.25-8.46.09-7.11-.22-11.11,2-11.64.82C727.08,247.05,729.36,244.92,731.42,243.8ZM681,119.06c1.27-1.26,7.91-7.85,12.28-6,2.46,1,2,3.82,5.59,6,3.14,1.91,5.45,1,6.14,2.46.23.49.65,2-5,8.18a111.68,111.68,0,0,1-9.55,8.87c-5.32,4.66-8,7-8.73,8.05-4,5.69-1.74,8.45-5.19,14.19-2.83,4.71-5.1,4.13-12,10.36-8.44,7.64-10.87,13.8-12,13.24-2.07-1,5.91-21.25,9.41-29.6,4.55-10.87,3.35-6,10.51-21.83C674.82,127.62,676.62,123.39,681,119.06Zm17,24c0,1.13-1.77,1.83-3.73,2.82a50.25,50.25,0,0,0-8.64,5.73c-3.43,3-5,5.88-5.37,5.64s1.11-3.12,1.28-3.45a28.89,28.89,0,0,1,6.64-8.55c2.77-2.42,5.7-5,8.09-4.09C697.07,141.43,698,142.22,698,143ZM641.5,170.29a31.69,31.69,0,0,1,4-12.62c5.5-10.66,6.24-11.73,8.12-15.49,4.4-8.78,4.69-11.49,9.14-18.62,2.42-3.89,5.83-9.35,7.63-8.73s1.31,6.62.69,10.1a34,34,0,0,1-3.48,9.68c-3.72,7.56-6.44,13.09-8.33,17.26-3.53,7.85-6.54,15.82-6.54,15.82-2.58,6.83-4.18,11.95-6.76,12a3.85,3.85,0,0,1-2.59-1.5C642.08,176.84,641.16,174.64,641.5,170.29ZM611.09,77.81c.76-.5,3.9,2.56,6,5.46a27.4,27.4,0,0,1,4.27,9c3.41,12.71.12,27.8-.64,27.73-.26,0,.17-1.87-.45-5.72-1-6.25-3.18-7.94-4.37-13.65-.84-4,.15-3.69-.54-8.46C614.1,83.38,610.17,78.43,611.09,77.81ZM575.71,64.9c.06-.7.37-4.55,1.55-4.73.86-.13,1.69,1.79,3,3.91,1.57,2.54,2.29,2.84,6.64,7.64,7.75,8.53,8.8,11.22,14.1,14.73,1.22.81,4.37,2.9,5.09,2.19s-2-5.17-3.91-7.64c-3.92-5.13-7.24-7-13.82-14.1-2.46-2.66-4.17-4.75-3.55-6.55a3.65,3.65,0,0,1,3.09-2.18c2.52-.19,4.07,2.63,8.28,7.18,4.6,5,4.64,3.66,7,6.73,2.76,3.6,1.49,3.84,6,13.37,1.79,3.8,3.26,6.45,2.09,8.19-.9,1.34-2.67,1.11-3.08,2.36-.47,1.41,1.45,2.58,3.27,5.19,2.14,3.08,1.17,3.9,4.18,12.09,1.45,3.94,2.16,5.1,1.73,5.46-1.12.91-7.59-5.32-10.92-8.55a166,166,0,0,1-17.37-19C576.92,75.66,575.36,69.23,575.71,64.9ZM542.42-12.32c.67-.39,1.34.71,4.37,2.1s3.75.94,5.46,2.18c1.88,1.36,3.49,3.71,2.91,4.63s-3,.37-4.73,0c-.75-.16-.78-.22-4.09-1.18a15.92,15.92,0,0,1-2.09-.63C541.75-6.66,541.16-11.59,542.42-12.32Zm-36.6-.41c.52-.48,4.22,4.21,12.14,8.87,7.49,4.4,8.94,3,14.32,6.82,1.11.79,2,1.5,12.28,13.3,4.67,5.35,3.05,3.55,8.19,9.48,7.92,9.14,10.43,11.87,10,12.42s-4.65-2.06-5.87-2.86C548,29.47,544,24.09,539.11,19.2c-9.4-9.43-11.44-6.52-21.56-16.51C510.19-4.59,505.18-12.14,505.82-12.73ZM465.44,27.93c.79-1.23,3.4-.93,5.45-.69,4.12.49,5.23,2,8.46,2.87a17.74,17.74,0,0,0,11.74-1.37c3.06-1.56,2.13-2.47,8.18-7.36a67.51,67.51,0,0,1,7.23-5.05c3.53-2.15,5.3-3.22,6.41-3.13,4.57.33,7.23,8.46,9.55,15.54,2.9,8.84,1.58,11.26,1,12.14-1.1,1.57-2,1.15-5.87,3.28-5.78,3.2-6.1,5.43-10.91,7.23-2.15.8-5.21,1.94-7,.55-2.14-1.7-.48-5.72-2.32-6.68-1.43-.76-4.05.83-5.6,2.59-3.23,3.67-1.63,7.9-3.82,9s-6.12-2.31-7.36-3.41c-4.42-3.94-4.15-6.7-8.73-14.19C467.71,32.49,464.34,29.61,465.44,27.93Zm73.39,84.17c-.59.94-2.31.21-13.36-1.91-12.91-2.48-14.43-2.22-20.06-4-5.1-1.56-6.47-2.57-13.51-5.59-9.54-4.09-9.61-3.36-25.78-9.41-4.68-1.75-16.19-6.14-25.79-13.78-2.24-1.79-5.44-4.6-4.77-6.27.49-1.26,3-1.43,4.09-1.51,4.94-.34,7,2.51,9.28,1.37,1.6-.79,1-2.34,3.13-5.46.77-1.12,3.25-4.76,5.87-5,3.94-.43,5.38,7,11.6,12.69,5.13,4.67,8.71,3.77,23.33,8,9.06,2.66,16,4.68,23.19,8.59C529.79,97.32,540.57,109.38,538.83,112.1Zm86.91,99.73c-1.56.86-11-8.87-16.37-21.14-1.85-4.2-2.94-8.08-6.83-12.83-1.42-1.75-1.76-1.81-7.64-7.64-5.44-5.4-8.16-8.09-9-9.41-3.73-5.86-2.51-9.06-6.27-11.6-2.26-1.52-2.88-.49-6.83-2.46-2.31-1.15-7.33-3.65-7.36-7.23,0-1.78,1.21-3.14,2.32-4.36.64-.71,3.08-3.41,6.41-3.41,2.41,0,4.31,1.4,6,3,5.72,5.4,6.7,10.75,10.51,17.46,4.4,7.77,5.56,5,9.82,12.55,3.84,6.85,4,11.11,9.54,20.19.54.88,3.49,5.7,4,5.46s-1.19-4-11-25.92c-7.17-16-7.54-16.63-8.59-18.14-5.8-8.34-12.18-12.84-10.64-16.38.76-1.75,3.13-2.46,4.5-2.59,3.48-.31,6.23,2.69,7.78,4.37,3.12,3.4,2.44,5.05,6.27,10,2.15,2.76,2.45,2.34,3.55,4.23,2,3.5,1.28,5.37,2.86,9.41s4.27,7.07,4.78,6.82c.69-.35-4.05-6.14-3.82-14.46.06-2.37.52-4.41-.82-6.41s-2.9-1.77-5.05-3.55c-2.46-2-2.34-3.9-4.36-7.91-1.19-2.36-1.06-1.38-7.37-9.83-3.73-5-4.94-6.89-7.92-8.45-2.11-1.12-4.48-1.72-4.77-1.23s1,1.35,3.41,4.23,2.42,3.32,2.32,3.55c-.44,1-3.65,1-6.14-.28-2.1-1.09-2-2.23-4.09-3.41s-3.2-.59-5.73-1.23a15.6,15.6,0,0,1-7-4.23c-4.16-3.89-3.4-6.66-6.82-8.32-2.12-1-2.62-.06-6-.82a17.09,17.09,0,0,1-9.69-5.73c-2.23-2.81-4.61-8-2.59-12.14a6.82,6.82,0,0,1,3.28-3.27c3.16-1.4,6.42.53,7.09.95,2.45,1.54,2,2.92,4.63,6.28,3.24,4,5,3.31,8.46,7.64,2,2.45,1.32,2.55,3.82,5.73,2.06,2.6,2.16,2.1,5.74,6.14,2.06,2.33,3.22,3.85,3.95,3.54.57-.24.55-1.48.55-1.63-.08-2.76-3.35-4-6.69-7-5-4.5-2.8-6.37-7.91-10.78-2.66-2.29-5.71-3.89-5.46-6.14a3.12,3.12,0,0,1,.69-1.5,8.54,8.54,0,0,1,7.36-3.27c.88,0,3.3.35,7.51,4.5,3.53,3.49,4.92,6.35,6.81,9.28,3.34,5.16,4,3.92,11.05,12.14,6.27,7.28,9.41,10.92,11.6,15.69,1.94,4.22,3.12,8.58,4.78,8.46.9-.07,1.74-1.45,1.91-2.6.13-.91-.2-1.53-1.1-3.54-1.67-3.77-1.6-4-1.5-4.23.69-1.1,4.71-.68,7.24,1.63.16.16,3.18,3,2.45,6-.77,3.19-5,3.36-5.18,6a4,4,0,0,0,3.13,4c2.87.26,4.47-5.49,7.23-5.19,1.56.17,2.53,2.16,2.87,2.87,3.33,6.85-2.41,17.22-4.09,29.33-1.54,11.14.77,20.7,3,29.88C623.16,204.77,626.91,211.18,625.74,211.83Zm6.61,67.26a3.89,3.89,0,0,1-4.16-.28c-2.35-1.86-.67-6.37-.27-7.43s.85-2.3,1.77-2.53c1.45-.35,3.32,1.75,4,3.69S634.53,277.84,632.35,279.09Zm4.23-110.78c-.82,2.95,1.53,4.37.75,7.44a4.76,4.76,0,0,1-2,3c-2,1.12-4.3-.06-4.71-.27a7.71,7.71,0,0,1-3.48-4.16c-.92-2.1-1-4-.75-9.14.37-6.46.57-9.81,1.57-10,1.29-.19,2.33,5.22,4.78,5.25,1.38,0,1.75-1.71,3.82-2,1.58-.26,3.6.4,4.09,1.64.19.48.16,1.08-2.19,5.11C636.73,168.09,636.72,167.8,636.58,168.31Zm7.1,91.68c-.63.34-.84,1.28-1.23,3.14-.46,2.19-.23,2.58-.62,3.82-.51,1.62-1.73,3.57-2.38,3.4-1.05-.26-.68-6,1.16-10.77,1.45-3.77,2.66-3.89,2.93-3.89.49,0,.55.3,2.45,1.43,1.37.81,1.94,1,2,1.5s-.52,1-1,1.23C645.73,260.54,644.7,259.43,643.68,260Zm17.19,13.3c-4.69,0-6.1-.24-8.46.61a11.18,11.18,0,0,1-3.14.75c-1.72.16-4.33,0-4.5-.82-.22-1,3.42-2.84,6.68-3.75,1.19-.32,3-.72,7.91-.68,7.39.06,8.59,1,14.13.68,3.8-.22,6.18-.83,6.27-.47s-3.18,1.82-6.62,2.66C669.3,273.2,666,273.24,660.87,273.29Zm36.35-24.49c1.11-1,3.87,2.09,9.65,3.28,5.61,1.14,9.2-.54,9.73.72s-2.35,4.07-5.55,5.19a11.22,11.22,0,0,1-12.1-3.37C697.43,252.7,696.29,249.68,697.22,248.8Zm-6.09.73c1.49.27,2.94,3,2,4.82-1.14,2.26-5.2,2-6,.64C686.18,253.41,689,249.14,691.13,249.53Zm-4.07,26.08c.28.16.11.1,2.86,2.52,2.11,1.85,2.57,2.21,2.46,2.46-.33.75-5.43-.76-5.87-.89a22,22,0,0,0-3.13-1c-1.88-.26-3,.12-3.75-.67a1.81,1.81,0,0,1-.55-1.64C679.57,274.84,684.13,273.89,687.06,275.61Zm-6.89-13.3c-.06,1.38-3.57,2.28-6.59,3-3.94,1-6.85,1.08-12.51,1.18-3.77.08-5.93,0-6.27-1-.26-.72.7-1.23,1-3.09a5.38,5.38,0,0,0-.5-3.82c-1.07-1.56-2.71-.87-3.91-2.19-1.65-1.81-.52-5.31-.09-6.63,1.26-3.9,4.37-7.33,5.54-6.83.43.19.54,1.51.74,4.14.25,3.4.07,4.28.77,5.19,1,1.3,2.88,1.41,3.64,1.45,2.82.17,5.47-1.35,8.91-3.32,1.26-.72,2.39-1.44,2.77-1.09s-.51,1.6-.63,3.68a9.26,9.26,0,0,0,.45,3.19C674.89,260.13,680.24,260.59,680.17,262.31Zm-15.6-27.42c1.74-1.81,2.46-1.37,4.64-3.55,1.8-1.8,2-2.84,3.1-2.91,1.47-.11,2.93,1.82,3.54,3.36,1.28,3.23-.36,6.88-2.18,9-.6.7-3.46,4-7.28,3.45-1.63-.24-4-1.29-4.55-3.27C661.11,238.48,663.57,235.92,664.57,234.89ZM698,154.3c-4.91,2.75-10.47,5.91-15.73,11.56-3.27,3.51-5.31,5.69-6.55,9.36-.91,2.67-.83,4.49-2.46,8a42.07,42.07,0,0,1-3.45,5.63c-2.9,4.33-4.36,6.5-6.64,8.64s-2.82,1.94-4.28,3.73a17.91,17.91,0,0,0-3.27,7c-2.48,8.81-2,10.69-3.82,15.55s-4.35,8.89-5,8.64c-.84-.32,2.84-7.37,3-18.19.08-5.91-1-7.15,0-11.73.9-4.3,2.68-7.28,5.27-11.55a82.47,82.47,0,0,1,8.55-11.64c7.34-8.35,9.83-8.16,18.56-17.56,4.4-4.74,4.45-5.53,7.09-7.37,7.61-5.3,17-5.61,17.28-4.63C706.75,150.3,704,151,698,154.3Zm40.38-31.55a8.09,8.09,0,0,1-5.66,6.47c-4.41,1.42-8-1.63-8.59-2.11-1.88-1.59-4.5-5-3.41-8,.86-2.35,3.65-3.32,6.27-4.23,1.87-.65,3.13-1.08,4.71-.82C735.15,114.66,739,118.34,738.42,122.75Z"/><path class="cls-30" d="M453.29,209.37c-3.25-3.47-2.91-6.89-4.77-14.05-2.92-11.23-8.25-20.1-10-19.64-.84.22-.26,2.57-2.32,6.14-.92,1.58-1.79,3.09-3.41,3.68-1.17.42-2.2.16-7.09-1.78-5.23-2.05-6.51-2.72-7.64-2-1.54.92-.83,3.1-2.46,4-1.47.77-3.7-.14-5.05-1.23-2.65-2.16-1.9-5.08-4.36-6.41-1.05-.57-1.71-.33-3.42-.42a19.09,19.09,0,0,1-11.72-5c-2.7-2.58-1.53-3.61-4-6.28-5.14-5.62-14.95-6.06-16.24-3.68-.69,1.29,1.19,3.24.28,4.23s-3.63-.62-4.78.55c-.79.8-.35,2.42-.27,2.72,1.06,3.93,6.29,3.41,11.46,8.19a16.06,16.06,0,0,1,4.91,8.18c.3,1.38,1.05,4.81-.82,7-.45.52-1.34,1.29-5.59,1.91-7,1-9.09-.38-11.6,1.5-2.16,1.62-1.21,3.11-3.27,4.23-2.91,1.58-5.47-1-9.55.55-1.72.65-3.32,1.89-3.14,2.45s2.94,0,5.87.14c4.54.28,7,2.58,10.77,4.78,5.64,3.28,6.93,2.1,15.42,5.32a89,89,0,0,1,17.05,8.86A120.44,120.44,0,0,1,417,238.57c5.21,4.87,8.26,8.37,10.36,13.37.85,2,3.34,7.94,1,10.37-1.53,1.55-4.42,1-6.69.54-10.47-2.15-15.64-4.14-20.05-5.18-.93-.22-15-3.35-28.38,2.59-4.45,2-3.65,2.65-7.64,4.09-7.78,2.83-12.61.91-20.6,4.64-2.09,1-4.8,2.28-4.77,4,0,.62.4,1.93,8.32,5.32,7.43,3.18,8.44,2.62,10.37,4.5,2.66,2.62,1.31,4.29,4.09,11.19,2.91,7.2,5.7,8.63,5,12.28-.48,2.65-2.09,2.67-4.91,6.41-6.11,8.09-3.37,14.37-9.28,18.69a10.82,10.82,0,0,1-6.28,2.46c-3.94,0-6.51-2.79-8.45-1.5-1.2.78-.51,2-1.78,3-2.3,1.75-6.07-1.3-7.91.41a2.34,2.34,0,0,0-.68,2.32c.7,1.85,4.84.62,9.82,2.73a11.16,11.16,0,0,1,4.78,3.14c3.67,4.84.32,15.57-6.41,21.14-2.05,1.7-5.42,2.77-12.15,4.91-3.77,1.21-7.77,2.31-20.6,5.19-4.43,1-8.08,1.79-10.5,2.32,2.4.08,6.06.13,10.5-.14,8.42-.5,11.61-1.64,23.74-3.41,13.29-1.93,16.64-1.6,19-1.23,3.92.64,9.38,1.59,13.92,6a22.55,22.55,0,0,1,5.73,10.23c.75,2.43,3.12,10.11,0,17.74s-9.3,8.88-9.15,14.87c.06,2.09.9,5.31,3,6.13,3.14,1.23,6.45-3.93,14.87-8.86,4.59-2.69,6.92-3.1,10.78-4.78,4-1.75,7.33-3.84,25.51-21.14,15.44-14.7,20-19.82,21.69-21.7s4.29-8.62,11.05-13.37a31.13,31.13,0,0,1,5.08-2.88c-.63-6.07-.83-11-.89-14.58a28.75,28.75,0,0,1,.48-7.49c.61-2.68,1.31-3.43,2.12-7.05a41.74,41.74,0,0,0,.84-5.52c.2-2.61-.1-2.82-.06-6.54,0-2.45.15-2.59.33-7,.11-3,.17-4.5.15-5.56a61.52,61.52,0,0,0-1.12-9.82,32.93,32.93,0,0,1-.81-5.19,23.29,23.29,0,0,1,.6-5.63c.29-1.54.52-4.65,1-10.87.29-3.82.47-6.23.54-8.46a35.72,35.72,0,0,1-11.61-6c-2.73-2.13-8.12-6.45-9.27-13.1-.19-1.07-.78-4.47.91-5.73.43-.33,1.2-.64,4.91.27,5.15,1.27,7.22,2.73,9.91,1.82.42-.14,1.35-.45,1.37-.9,0-1-4.81-1.71-9.64-2.87A88.86,88.86,0,0,1,425.19,230c-4.92-2.26-4-3-14.32-10.38-11.29-8.07-16.94-12.1-17.88-12.55-2-.93-5.05-2.22-6.14-5.18a8.11,8.11,0,0,1,1-7c1.67-2.51,3.36-1.67,7.1-5,1.22-1.1,1.06-1.22,4.09-4.22s3.66-3.39,4.5-3.41c1.31,0,2.31.89,4.77,3.68,4.09,4.62,5.6,6.68,5.6,6.68s2.93,4,7,8.87c2.76,3.34,8.93,10.78,18.28,13.92,6,2,8.68.7,13.23,4a22.58,22.58,0,0,1,5.05,5.52c.49-.83,1.07-1.77,1.87-3.14,1-1.74,2.48-4.32,4.13-7.56C460.46,213.72,456.33,212.62,453.29,209.37Zm-77.12,61.44c1-1.24,1.72-1.14,2.09-2.18.61-1.7-.83-3.08-.27-3.64.69-.71,3.5,1,4.95,2.05,1.73,1.27,2.72,2,2.82,3.22a4.12,4.12,0,0,1-2.77,3.82c-.75.25-1.08,0-1.77.42-1,.56-.78,1.28-1.73,2.13a3.63,3.63,0,0,1-3.37.86,2.32,2.32,0,0,1-1.09-.67C373.91,275.48,374.7,272.59,376.17,270.81ZM388,403.51c-1.56,3.45-4.23,6.58-5,6.2s.15-3.1.48-4.29A24.4,24.4,0,0,1,385.9,400c1.87-3.39,3-5.44,3.54-5.25C390.21,395,389.83,399.49,388,403.51ZM446.75,350a26.2,26.2,0,0,0-11,7.37c-4,4.6-5.32,9.84-8.32,9.75-1.47,0-2.54-1.34-3.07-2a6.86,6.86,0,0,1-.68-7.3,6.11,6.11,0,0,1,1.57-1.91c3.92-3.24,7.58-6.81,11.73-9.75a61.38,61.38,0,0,0,10.37-9.35Q447,343.45,446.75,350Zm2.09-54a3.46,3.46,0,0,1,.81,3.46c-.69,2.11-3.72,2.84-4.73,3.09-7.27,1.83-13.88,5.85-21.19,7.55-17.22,4-29.05,16.6-28.92,16.82s6.9-4.39,19-10.36c3.85-1.9,9.2-4.53,16.46-7.37a181.3,181.3,0,0,1,19.37-6.36c-.06,3-.11,5.94-.18,8.91a68.34,68.34,0,0,0-10.45-.09,12.91,12.91,0,0,0-4.19.73c-3,1.14-4.32,3.21-6.09,5-2.53,2.55-5.07,3.56-9.55,5.36a39.82,39.82,0,0,1-15,2.82,3,3,0,0,1,1.18,2.37c-.35,2-4.78,2.66-6.18,2.91-11.48,2.06-27.95,11.83-27.2,15,.28,1.16,2.92,1.76,4.73,1.54s2.16-1.08,6.37-3.46c2.68-1.5,3.53-1.73,4.46-1.63,1.7.18,2,1.31,3.45,1.81s3.09.16,9.37-4.09c5.37-3.63,6.11-4.75,8.91-5.45s6.32-.61,6.74.54c.19.55-.37,1.08-2.82,3.73-3.76,4.06-4.32,4.85-4.64,6-.46,1.64-.46,4.19.91,5.18,1.17.84,2.68.05,6.73-1.09,4.68-1.32,4.6-.81,7.09-1.64,2.27-.76,8.66-2.9,11.37-8.19,2.49-4.85-.6-7.54,2.36-11.09,2.19-2.62,4.4-1.8,7.28-5.46,1-1.28,2-2.95,3.18-2.82.87.09,1.44,1.07,1.55,1.28,1.53,2.81-1.89,6.89-2.36,11.18,0,.22-.28,2.55-.28,2.55l-4.47,3.76c-2.58,2.18-5.89,5-8.8,7.52-7.11,6.16-11.73,10.53-20.29,18.64-6.63,6.28-7.5,7.32-8.18,8.19-2,2.51-2.48,3.66-4.28,4.73-3.24,1.92-4.92.17-9.91,1-5.93,1-7.25,4.09-13.65,4.28-3.17.1-3.88-.64-4.09-1.09-.74-1.6,2.69-4.15,1.91-5.46-.48-.81-1.94-.09-4.54-1-.93-.32-2.8-1-3.28-2.18-.67-1.69,1.35-4.55,5-6.91a54.88,54.88,0,0,0-11.91-1.82c-5.31-.23-7.69.44-9.19-1.27-2.63-3,.1-10.41.36-11.1,1.17-3.07,2.77-4.86,1.92-6.82-.73-1.67-2.68-2.16-2.46-3s2.44-1,3.36-1.09a15.42,15.42,0,0,1,4.46.36c4.38.78,11.23-5.23,13-11.64.62-2.23,1.91-6.88.72-10.55-.08-.27-.62-1.9-.09-2.28s1.72,1.09,2.64.73c1.25-.48.29-3.66,1.82-4.64.42-.27,1.53-.06,3.73.37,2.79.53,3.41.89,4.73.63,1.07-.21,1.56-.61,1.82-.36.57.55-1,3.1-1.55,4-1.3,2.13-1.94,2.42-2.18,3.73s.1,2.94.73,3.09c.87.21,2-2.42,2.64-2.18.39.17-.11,1.46.54,2.09s2,.22,2.36.09c4-1.21,10.11-8.38,16.1-12,2.6-1.57,1.4-.19,10.51-3.87a135.92,135.92,0,0,0,13.46-6.09c4.34-2.3,4.93-3,8.55-4.55C442.31,296.11,446.84,294.18,448.84,296Zm-25.29,6.19c.05.65-1,1.16-4.91,2.91-10,4.46-10.93,4.52-11.27,4.09-.76-.93,1.41-3.86,2.63-5.18a11.12,11.12,0,0,1,6.46-3.64C419.7,299.88,423.46,301,423.55,302.19Zm-1-8.37c2.16-1.33,6.7-3.07,8.46-1a4.2,4.2,0,0,1-.45,5.28c-.95.87-2.18.86-3.82.82-2.46-.07-6.46-.86-6.64-2.46C420,295.41,421.55,294.44,422.55,293.82Zm-17.73,11.73c-2.78,2-6,1.35-7.82,1-.43-.09-4.64-.9-4.73-2.46-.06-1,1.6-1.89,2-2.09a7.91,7.91,0,0,1,4.28-.73c5.73.21,8.47-2.16,9.28-1S406.87,304.1,404.82,305.55Zm40.65-22.37c.21,2.53-8.52,5.51-12.85,6.61-5.07,1.31-5.74.47-11.12,1.92-6.15,1.65-6.57,3.09-11.86,4.36s-5.06-.13-12.14.89c-6.38.92-11.6,1.67-16.31,5.39-2.83,2.23-3.53,4-5.11,3.75-2.14-.33-1.82-3.67-5.6-11.87a34.91,34.91,0,0,1-3.34-11.05c-.08-.79-.23-2.45.48-2.8s1.88,1.44,4.23,2.6a9.4,9.4,0,0,0,7.5.47c2.57-1.12,2.18-3,5.37-4.82,2.19-1.25,2.56-.47,4.91-1.63a15.15,15.15,0,0,0,6.55-6.92c1.38-3.13.73-5,2-5.63,1.74-.85,4.63,1.92,6.18,3.27,3.59,3.12,8.94,5.11,19.65,9.1C437.49,281.83,445.28,280.81,445.47,283.18Z"/><path class="cls-31" d="M447.7,48.8c-.65,3.83-3.48,8.72-8.05,9.55-4.32.78-8-2.47-8.73-3.14-4.53-4.19-2.41-8.74-7.1-12.41-2.06-1.62-2.79-1-6.14-3.41-.91-.67-2.15-1.57-3.21-2.53.94-.07,2-.19,3.35-.34,6.12-.7,9.89-1.12,12.37-4.18a6.72,6.72,0,0,0,1.68-3.21c4.64-.72,5.84-.78,7.51.16,3.14,1.76,4.44,5.07,6.41,10.1C447.28,43.19,448.24,45.62,447.7,48.8Z"/><path class="cls-31" d="M566.25,9.24c-1.33.32-1.19,6.79.46,12,1,3.33,3.1,7.36,4.18,7.1s.92-4.24.73-6.28C571,15.48,567.68,8.89,566.25,9.24Z"/><path class="cls-31" d="M584.54,26.43c-1,.05-2.26,3.73-1.19,6.82.46,1.31,1.56,3.16,2.37,3,1.09-.22,1.55-4.12.45-7.28C585.91,28.21,585.27,26.39,584.54,26.43Z"/><path class="cls-31" d="M645,61.62c-.64,2.2-3.66,1.63-7.36,4.37s-3.31,5.33-6,6c-2.94.74-6-1.69-7.77-3.13-2.68-2.15-2.75-3.4-5.73-7.1-4.79-5.94-6.36-4.9-8.19-8.6-2.1-4.23-.09-5.72-2.46-10.77-.53-1.15-2-3-4.77-6.82-4.47-6-5.89-7.41-5.32-8.73s2.26-.9,6.27-2.59a17.35,17.35,0,0,0,4.11-2.36c1.35,4,3,9.1,5.27,15.91,3.74,11.37,5.71,17.13,10.36,20.37,1.39,1,5.63,3.92,10.28,2.82a12.67,12.67,0,0,0,7.09-4.64,16.8,16.8,0,0,0,1-1.74,18.47,18.47,0,0,1,1.83,2.65C644.62,59,645.35,60.32,645,61.62Z"/><path class="cls-31" d="M605.31,15.24a36.48,36.48,0,0,0-4.13,2c-4.74,2.88-5.07,5.72-7.37,5.55-2.46-.18-4.18-3.59-4.73-5.55-.28-1-.62-2.23,0-3.09,1-1.33,3.1-.22,5.82-.82,3.51-.77,4.82-3.67,6.36-5C602.76,9.87,603.89,11.76,605.31,15.24Z"/><path class="cls-31" d="M576.17-5.77c-1,.16-.81,1.77-3.09,6.55-1.73,3.61-2.39,3.85-2.55,5.55-.24,2.53.82,6.13,3.64,7.18a5.23,5.23,0,0,0,4.45-.45c3.09-1.89,2.89-6.62,2.82-8.28C581.22-.64,578.05-6.07,576.17-5.77Z"/><path class="cls-31" d="M404,40.75c.8-.84,4.91,1.32,7.78,4.09,4.26,4.11,6.39,10.15,5.32,10.92-1.24.9-6.93-5.26-7.37-5.73C407,47,403.09,41.76,404,40.75Z"/><path class="cls-31" d="M732.32,92.62l-1.67,2.29c-3.83,5.23-5.22,6.31-6.55,6.14a14.65,14.65,0,0,1-2.73-1.5c-2.71-1.62-2.66-1.8-3.27-1.91-2.13-.39-3,1.61-4.91,1.23-1.45-.29-1.73-1.59-3.14-2.87-1-.87-2.65-1.92-7.37-2.18-9.41-.53-12.08,3.12-17,1.5-4.81-1.56-8.39-6.94-8.73-12a14.51,14.51,0,0,1,3.1-9.63c1.34,6,4.55,12.26,10,14.4a17,17,0,0,0,6.83,1c4.94-.32,6.23-2.67,10.56-2.38A15.93,15.93,0,0,1,714.14,89c4,2.13,3.93,3.63,6.55,4.77S726.32,94.14,732.32,92.62Z"/><path class="cls-31" d="M680.85,98.1c-2.83-1-5.94,2.78-5.45,4.09.58,1.56,7,1.5,7.82-.55C683.67,100.5,682.4,98.62,680.85,98.1Z"/><path class="cls-31" d="M743.13,88.36a39.69,39.69,0,0,1-1.52,4c-2,4.71-3.58,8.39-7.37,11.27-5,3.82-11,4-11.19,3.55s4.13-1.45,8.73-5.73a26.16,26.16,0,0,0,3.28-3.64,24.94,24.94,0,0,0,3.6-7A12.36,12.36,0,0,0,743.13,88.36Z"/><path class="cls-32" d="M622.28,222.7c-1.35-9.78-7.89-9.83-13.69-23.37-3.28-7.67-2.48-10.66-6.91-16.92a37.66,37.66,0,0,0-9.46-9.33,59.78,59.78,0,0,0-7.41-3.82c-7.94-3.73-9.76-4-15.92-6.95-1.45-.7-2.56-1.26-3.46-1.74a.61.61,0,0,1,0,.19c-.2,1.33-5.67,2.57-8.37.37A23,23,0,0,1,555.3,159c-2.3-2.67-3.36-3.17-3.19-3.55.07-.14.29-.21.64-.22a45.57,45.57,0,0,0-8.81-1.19c.76.76,1.88,1.87,3.3,3.14,4.17,3.71,7,5.35,6.6,6.64-.13.42-.53.61-1.18.91-3.58,1.64-6.88-.9-8.59.72a1.76,1.76,0,0,0-.6,1.73c.3.71,1.59.77,3.23.82,3,.09,4.35,0,6.41.09,2.41.1,3.61.15,4.51.64,2,1.12,1.57,2.62,3.77,4.09,2,1.34,3.4.77,4.09,2.05.47.85-.05,1.32-.27,3.59-.34,3.38.6,4.27-.27,6.19-.57,1.23-1.69,2.42-2.37,2.23-.83-.25-.33-2.36-2-3.92-.19-.18-1.07-1-1.72-.77s-.91,1.47-.6,2.37.83.79,1.78,2.09c.53.71.79,1.07.73,1.45-.11.65-1,.83-2.87,1.64a11.85,11.85,0,0,0-4,2.41c-.64.65-1.29,1.29-1.14,1.91.32,1.39,4.36,1.5,4.55,1.5,3.15.06,3.75-1.11,8.14-1.55a9.62,9.62,0,0,1,4.32.23c1.35.49,1.61,1.08,3.13,1.55,1.18.36,2.74.84,3.78.13,1.41-1,.32-3.1,2.18-5.77.45-.65,1-1.38,1.77-1.46,1.15-.1,2.13,1.23,3,2.37s1.45,2,1.37,3-.93,1.71-.6,2.37c.23.45.81.58,1.41.73,1.23.29,1.63-.13,2.46.09a3.62,3.62,0,0,1,2.09,2.18c.48,1.26.4,3-.59,3.86-.48.4-1.07.48-6.05,0-1.83-.19-2.7-.3-2.91.09-.28.55.93,1.7,1.46,2.19a70.56,70.56,0,0,0,10.68,7.54c1.88,1.19.62.73,9.55,9.65,6.28,6.25,5.71,5.29,8.46,8.27,4.87,5.27,5.63,7.18,7.08,7C620.74,237.59,623.28,230,622.28,222.7Zm-60.71-55c-1,.07-1.84-.87-1.73-1.45s1.54-1,2.5-.64c.18.07.59.24.68.59C563.17,166.74,562.42,167.61,561.57,167.67Zm15.26,16c-.22.28-.7.23-1.09.2-2.12-.18-3.54-2.2-4.3-3.27-.88-1.25-1.51-2.14-1.43-3.41a3.13,3.13,0,0,1,1.36-2.59,2.8,2.8,0,0,1,3.34.4c.88,1-.16,2,.35,4.3C575.59,181.72,577.33,183,576.83,183.66Z"/><path class="cls-33" d="M574.17,189.23c.92.28,1.38,3,.32,4.18a1.93,1.93,0,0,1-.82.55,2.11,2.11,0,0,1-2.32-.87C570.66,191.71,573.07,188.9,574.17,189.23Z"/></g><text class="cls-34" transform="translate(74.93 197.39)">illust<tspan class="cls-35" x="61.34" y="0">r</tspan><tspan x="71.52" y="0">ations</tspan></text></g></svg>