<svg xmlns="http://www.w3.org/2000/svg" xmlns:xlink="http://www.w3.org/1999/xlink" viewBox="0 0 496.24 450"><defs><style>.cls-1{fill:none;}.cls-2{fill:#fceed4;}.cls-3{font-size:24px;fill:#193f19;font-family:Montserrat-Bold, Montserrat;font-weight:700;}.cls-4{letter-spacing:0.01em;}.cls-5{letter-spacing:-0.01em;}.cls-6{clip-path:url(#clip-path);}.cls-7{fill:#ffcc71;}.cls-8{fill:#fff;}</style><clipPath id="clip-path"><rect class="cls-1" x="112" y="-490.6" width="744.37" height="450"/></clipPath></defs><g id="Layer_5" data-name="Layer 5"><rect class="cls-2" x="0.12" width="164.16" height="154.53"/><rect class="cls-2" x="166.05" width="164.16" height="154.53"/><rect class="cls-2" x="332.08" width="164.16" height="154.53"/><rect class="cls-2" x="0.12" y="156.2" width="164.16" height="164.38"/><rect class="cls-2" x="166.05" y="156.2" width="164.16" height="164.38"/><rect class="cls-2" x="332.08" y="156.2" width="164.16" height="164.38"/><rect class="cls-2" x="0.12" y="322.38" width="164.16" height="127.62"/><rect class="cls-2" x="166.05" y="322.38" width="164.16" height="127.62"/><rect class="cls-2" x="332.08" y="322.38" width="164.16" height="127.62"/><text class="cls-3" transform="translate(74.93 197.39)">inst<tspan class="cls-4" x="46.99" y="0">a</tspan><tspan x="61.94" y="0">g</tspan><tspan class="cls-5" x="78.74" y="0">r</tspan><tspan x="88.92" y="0">am</tspan></text><g class="cls-6"><circle class="cls-7" cx="627.22" cy="-156.13" r="264.45"/></g><path class="cls-8" d="M350.35,127.09c-26.58,0-29.92.12-40.36.59s-17.55,2.13-23.78,4.55a50.15,50.15,0,0,0-28.64,28.64c-2.42,6.22-4.07,13.34-4.55,23.74s-.59,13.79-.59,40.4.13,29.91.59,40.35,2.13,17.54,4.55,23.77a50.09,50.09,0,0,0,28.63,28.64c6.24,2.42,13.34,4.08,23.77,4.55s13.78.59,40.38.59,29.91-.12,40.36-.59,17.55-2.13,23.78-4.55a50.09,50.09,0,0,0,28.63-28.64c2.41-6.23,4.06-13.34,4.55-23.77s.59-13.76.59-40.36-.13-29.92-.59-40.38-2.14-17.53-4.55-23.75a50.15,50.15,0,0,0-28.64-28.64c-6.24-2.42-13.37-4.08-23.78-4.55s-13.77-.59-40.38-.59h0Zm-8.78,17.65h8.79c26.14,0,29.24.08,39.55.56,9.55.43,14.74,2,18.19,3.37a32.43,32.43,0,0,1,18.58,18.59c1.35,3.44,2.94,8.62,3.37,18.17.47,10.32.57,13.42.57,39.55s-.1,29.23-.57,39.55c-.43,9.55-2,14.73-3.37,18.18a32.47,32.47,0,0,1-18.59,18.56c-3.43,1.35-8.62,2.94-18.18,3.38-10.31.47-13.41.58-39.55.58s-29.25-.11-39.57-.58c-9.55-.44-14.72-2-18.18-3.38A32.48,32.48,0,0,1,274,282.69c-1.33-3.43-2.94-8.62-3.37-18.17-.46-10.32-.56-13.41-.56-39.57s.1-29.23.56-39.54c.45-9.55,2-14.74,3.38-18.19a32.43,32.43,0,0,1,18.59-18.58c3.46-1.35,8.63-2.94,18.18-3.38,9-.41,12.53-.54,30.78-.55ZM402.62,161a11.75,11.75,0,0,0-4.5,22.6,11.62,11.62,0,0,0,4.5.9,11.75,11.75,0,1,0,0-23.5Zm-52.26,13.73a50.28,50.28,0,1,0,35.05,15A50.39,50.39,0,0,0,350.36,174.72Zm0,17.64a32.64,32.64,0,1,1-23.08,9.56A32.65,32.65,0,0,1,350.36,192.36Z"/></g></svg>