<svg width="60" height="60" viewBox="0 0 60 60" fill="none" xmlns="http://www.w3.org/2000/svg">
<circle cx="30" cy="30" r="30" fill="#C4C4C4"/>
<g clip-path="url(#clip0_108_3)">
<path d="M21.8102 45.6763V26.3285H15.3794V45.6763H21.8102ZM18.5957 23.6853C20.8382 23.6853 22.2341 22.1996 22.2341 20.3429C22.1923 18.4445 20.8383 17 18.6382 17C16.4385 17 15 18.4445 15 20.3429C15 22.1996 16.3955 23.6853 18.5537 23.6853H18.5955H18.5957ZM25.3697 45.6763H31.8005V34.8715C31.8005 34.2933 31.8423 33.7156 32.0121 33.3023C32.477 32.1469 33.5352 30.9503 35.3116 30.9503C37.6387 30.9503 38.5696 32.7246 38.5696 35.3255V45.6762H45.0001V34.5823C45.0001 28.6394 41.8274 25.8742 37.5963 25.8742C34.1272 25.8742 32.604 27.8134 31.7577 29.1341H31.8007V26.3281H25.3698C25.4542 28.1436 25.3698 45.6759 25.3698 45.6759L25.3697 45.6763Z" fill="white"/>
</g>
<defs>
<clipPath id="clip0_108_3">
<rect width="30" height="28.6763" fill="white" transform="translate(15 17)"/>
</clipPath>
</defs>
</svg>
