<svg width="245" height="60" viewBox="0 0 245 60" fill="none" xmlns="http://www.w3.org/2000/svg">
<path d="M93.762 38C93.654 38 93.582 37.952 93.546 37.856L90.594 29.09L90.576 29.018C90.576 28.934 90.63 28.892 90.738 28.892H91.764C91.872 28.892 91.944 28.94 91.98 29.036L94.23 36.092C94.242 36.116 94.26 36.128 94.284 36.128C94.308 36.128 94.326 36.116 94.338 36.092L96.588 29.036C96.624 28.94 96.696 28.892 96.804 28.892L97.83 28.91C97.962 28.91 98.01 28.976 97.974 29.108L95.022 37.856C94.986 37.952 94.914 38 94.806 38H93.762ZM102.647 27.236C102.359 27.236 102.119 27.14 101.927 26.948C101.735 26.756 101.639 26.516 101.639 26.228C101.639 25.928 101.735 25.688 101.927 25.508C102.119 25.316 102.359 25.22 102.647 25.22C102.935 25.22 103.175 25.316 103.367 25.508C103.559 25.688 103.655 25.928 103.655 26.228C103.655 26.516 103.559 26.756 103.367 26.948C103.175 27.14 102.935 27.236 102.647 27.236ZM102.143 37.982C102.023 37.982 101.963 37.922 101.963 37.802V29.054C101.963 28.934 102.023 28.874 102.143 28.874H103.061C103.181 28.874 103.241 28.934 103.241 29.054V37.802C103.241 37.922 103.181 37.982 103.061 37.982H102.143ZM110.493 38C110.385 38 110.313 37.952 110.277 37.856L107.325 29.09L107.307 29.018C107.307 28.934 107.361 28.892 107.469 28.892H108.495C108.603 28.892 108.675 28.94 108.711 29.036L110.961 36.092C110.973 36.116 110.991 36.128 111.015 36.128C111.039 36.128 111.057 36.116 111.069 36.092L113.319 29.036C113.355 28.94 113.427 28.892 113.535 28.892L114.561 28.91C114.693 28.91 114.741 28.976 114.705 29.108L111.753 37.856C111.717 37.952 111.645 38 111.537 38H110.493ZM119.378 27.236C119.09 27.236 118.85 27.14 118.658 26.948C118.466 26.756 118.37 26.516 118.37 26.228C118.37 25.928 118.466 25.688 118.658 25.508C118.85 25.316 119.09 25.22 119.378 25.22C119.666 25.22 119.906 25.316 120.098 25.508C120.29 25.688 120.386 25.928 120.386 26.228C120.386 26.516 120.29 26.756 120.098 26.948C119.906 27.14 119.666 27.236 119.378 27.236ZM118.874 37.982C118.754 37.982 118.694 37.922 118.694 37.802V29.054C118.694 28.934 118.754 28.874 118.874 28.874H119.792C119.912 28.874 119.972 28.934 119.972 29.054V37.802C119.972 37.922 119.912 37.982 119.792 37.982H118.874ZM128.052 28.748C129.132 28.748 129.966 29.024 130.554 29.576C131.142 30.128 131.436 30.86 131.436 31.772V37.82C131.436 37.94 131.376 38 131.256 38H130.338C130.218 38 130.158 37.94 130.158 37.82V37.082C130.158 37.058 130.146 37.04 130.122 37.028C130.11 37.016 130.092 37.022 130.068 37.046C129.768 37.406 129.378 37.682 128.898 37.874C128.418 38.054 127.884 38.144 127.296 38.144C126.444 38.144 125.73 37.928 125.154 37.496C124.578 37.064 124.29 36.404 124.29 35.516C124.29 34.616 124.614 33.908 125.262 33.392C125.922 32.864 126.834 32.6 127.998 32.6H130.086C130.134 32.6 130.158 32.576 130.158 32.528V31.844C130.158 31.232 129.984 30.752 129.636 30.404C129.3 30.044 128.772 29.864 128.052 29.864C127.476 29.864 127.008 29.978 126.648 30.206C126.288 30.422 126.066 30.728 125.982 31.124C125.946 31.244 125.874 31.298 125.766 31.286L124.794 31.16C124.662 31.136 124.608 31.088 124.632 31.016C124.728 30.344 125.088 29.798 125.712 29.378C126.336 28.958 127.116 28.748 128.052 28.748ZM127.548 37.046C128.256 37.046 128.868 36.872 129.384 36.524C129.9 36.164 130.158 35.684 130.158 35.084V33.68C130.158 33.632 130.134 33.608 130.086 33.608H128.196C127.404 33.608 126.768 33.77 126.288 34.094C125.808 34.418 125.568 34.868 125.568 35.444C125.568 35.972 125.748 36.374 126.108 36.65C126.48 36.914 126.96 37.046 127.548 37.046ZM139.675 28.766C140.635 28.766 141.397 29.048 141.961 29.612C142.537 30.176 142.825 30.932 142.825 31.88V37.82C142.825 37.94 142.765 38 142.645 38H141.727C141.607 38 141.547 37.94 141.547 37.82V32.132C141.547 31.472 141.343 30.932 140.935 30.512C140.539 30.092 140.023 29.882 139.387 29.882C138.727 29.882 138.193 30.086 137.785 30.494C137.377 30.902 137.173 31.436 137.173 32.096V37.82C137.173 37.94 137.113 38 136.993 38H136.075C135.955 38 135.895 37.94 135.895 37.82V29.072C135.895 28.952 135.955 28.892 136.075 28.892H136.993C137.113 28.892 137.173 28.952 137.173 29.072V29.846C137.173 29.87 137.179 29.888 137.191 29.9C137.215 29.912 137.233 29.906 137.245 29.882C137.773 29.138 138.583 28.766 139.675 28.766ZM147.561 38C147.441 38 147.381 37.94 147.381 37.82V25.58C147.381 25.46 147.441 25.4 147.561 25.4H148.479C148.599 25.4 148.659 25.46 148.659 25.58V32.942C148.659 32.966 148.665 32.984 148.677 32.996C148.701 33.008 148.725 33.002 148.749 32.978L152.565 28.982C152.625 28.922 152.697 28.892 152.781 28.892H153.861C153.933 28.892 153.981 28.916 154.005 28.964C154.029 29.012 154.017 29.06 153.969 29.108L151.665 31.664C151.641 31.688 151.635 31.718 151.647 31.754L154.401 37.784L154.419 37.856C154.419 37.952 154.365 38 154.257 38H153.285C153.189 38 153.123 37.952 153.087 37.856L150.765 32.6C150.741 32.552 150.711 32.546 150.675 32.582L148.695 34.67C148.671 34.694 148.659 34.724 148.659 34.76V37.82C148.659 37.94 148.599 38 148.479 38H147.561ZM161.978 28.766C162.938 28.766 163.7 29.048 164.264 29.612C164.84 30.176 165.128 30.932 165.128 31.88V37.82C165.128 37.94 165.068 38 164.948 38H164.03C163.91 38 163.85 37.94 163.85 37.82V32.132C163.85 31.472 163.646 30.932 163.238 30.512C162.842 30.092 162.326 29.882 161.69 29.882C161.03 29.882 160.496 30.086 160.088 30.494C159.68 30.902 159.476 31.436 159.476 32.096V37.82C159.476 37.94 159.416 38 159.296 38H158.378C158.258 38 158.198 37.94 158.198 37.82V29.072C158.198 28.952 158.258 28.892 158.378 28.892H159.296C159.416 28.892 159.476 28.952 159.476 29.072V29.846C159.476 29.87 159.482 29.888 159.494 29.9C159.518 29.912 159.536 29.906 159.548 29.882C160.076 29.138 160.886 28.766 161.978 28.766ZM175.317 29.072C175.317 28.952 175.377 28.892 175.497 28.892H176.415C176.535 28.892 176.595 28.952 176.595 29.072V37.694C176.595 39.038 176.205 40.022 175.425 40.646C174.657 41.27 173.595 41.582 172.239 41.582C171.963 41.582 171.753 41.576 171.609 41.564C171.489 41.552 171.429 41.486 171.429 41.366L171.465 40.538C171.465 40.478 171.483 40.43 171.519 40.394C171.555 40.37 171.597 40.364 171.645 40.376L172.131 40.394C173.247 40.394 174.057 40.172 174.561 39.728C175.065 39.296 175.317 38.606 175.317 37.658V36.992C175.317 36.968 175.305 36.956 175.281 36.956C175.269 36.944 175.251 36.95 175.227 36.974C174.675 37.694 173.889 38.054 172.869 38.054C172.089 38.054 171.393 37.844 170.781 37.424C170.181 37.004 169.779 36.41 169.575 35.642C169.431 35.15 169.359 34.418 169.359 33.446C169.359 32.918 169.371 32.474 169.395 32.114C169.431 31.754 169.497 31.43 169.593 31.142C169.809 30.422 170.199 29.846 170.763 29.414C171.327 28.97 172.005 28.748 172.797 28.748C173.865 28.748 174.675 29.102 175.227 29.81C175.251 29.834 175.269 29.84 175.281 29.828C175.305 29.816 175.317 29.798 175.317 29.774V29.072ZM175.227 35.246C175.263 35.066 175.287 34.844 175.299 34.58C175.311 34.316 175.317 33.932 175.317 33.428C175.317 32.816 175.311 32.408 175.299 32.204C175.287 31.988 175.257 31.79 175.209 31.61C175.113 31.106 174.873 30.692 174.489 30.368C174.117 30.032 173.643 29.864 173.067 29.864C172.503 29.864 172.023 30.026 171.627 30.35C171.243 30.674 170.973 31.094 170.817 31.61C170.697 31.994 170.637 32.594 170.637 33.41C170.637 34.286 170.697 34.892 170.817 35.228C170.937 35.732 171.195 36.152 171.591 36.488C171.999 36.812 172.491 36.974 173.067 36.974C173.655 36.974 174.135 36.812 174.507 36.488C174.891 36.164 175.131 35.75 175.227 35.246ZM186.642 29.072C186.642 28.952 186.702 28.892 186.822 28.892H187.74C187.86 28.892 187.92 28.952 187.92 29.072V37.82C187.92 37.94 187.86 38 187.74 38H186.822C186.702 38 186.642 37.94 186.642 37.82V37.046C186.642 37.022 186.63 37.004 186.606 36.992C186.582 36.98 186.564 36.986 186.552 37.01C186.048 37.754 185.25 38.126 184.158 38.126C183.582 38.126 183.048 38.012 182.556 37.784C182.076 37.544 181.692 37.202 181.404 36.758C181.128 36.314 180.99 35.78 180.99 35.156V29.072C180.99 28.952 181.05 28.892 181.17 28.892H182.088C182.208 28.892 182.268 28.952 182.268 29.072V34.778C182.268 35.462 182.46 36.008 182.844 36.416C183.228 36.812 183.75 37.01 184.41 37.01C185.094 37.01 185.634 36.806 186.03 36.398C186.438 35.99 186.642 35.45 186.642 34.778V29.072ZM192.171 41.6C192.087 41.6 192.045 41.54 192.045 41.42V40.7C192.045 40.58 192.105 40.52 192.225 40.52H192.297C192.765 40.508 193.125 40.436 193.377 40.304C193.641 40.184 193.863 39.95 194.043 39.602C194.235 39.266 194.439 38.75 194.655 38.054C194.679 38.006 194.679 37.97 194.655 37.946L191.613 29.09L191.595 29.018C191.595 28.934 191.649 28.892 191.757 28.892H192.711C192.819 28.892 192.891 28.94 192.927 29.036L195.267 36.308C195.279 36.332 195.297 36.344 195.321 36.344C195.345 36.344 195.363 36.332 195.375 36.308L197.679 29.036C197.715 28.94 197.787 28.892 197.895 28.892H198.831C198.963 28.892 199.011 28.958 198.975 29.09L195.645 38.792C195.357 39.596 195.087 40.19 194.835 40.574C194.583 40.958 194.265 41.222 193.881 41.366C193.509 41.522 192.981 41.6 192.297 41.6H192.171ZM209.367 31.916C209.415 32.252 209.439 32.672 209.439 33.176V33.752C209.439 33.872 209.379 33.932 209.259 33.932H203.445C203.397 33.932 203.373 33.956 203.373 34.004C203.397 34.664 203.433 35.09 203.481 35.282C203.613 35.822 203.895 36.248 204.327 36.56C204.759 36.872 205.311 37.028 205.983 37.028C206.487 37.028 206.931 36.914 207.315 36.686C207.699 36.458 207.999 36.134 208.215 35.714C208.287 35.606 208.371 35.582 208.467 35.642L209.169 36.056C209.265 36.116 209.289 36.2 209.241 36.308C208.941 36.884 208.491 37.34 207.891 37.676C207.291 38 206.601 38.162 205.821 38.162C204.969 38.15 204.255 37.946 203.679 37.55C203.103 37.154 202.689 36.602 202.437 35.894C202.221 35.318 202.113 34.49 202.113 33.41C202.113 32.906 202.119 32.498 202.131 32.186C202.155 31.862 202.203 31.574 202.275 31.322C202.479 30.542 202.887 29.918 203.499 29.45C204.123 28.982 204.873 28.748 205.749 28.748C206.841 28.748 207.681 29.024 208.269 29.576C208.857 30.128 209.223 30.908 209.367 31.916ZM205.749 29.864C205.161 29.864 204.669 30.02 204.273 30.332C203.889 30.632 203.637 31.04 203.517 31.556C203.445 31.808 203.397 32.216 203.373 32.78C203.373 32.828 203.397 32.852 203.445 32.852H208.107C208.155 32.852 208.179 32.828 208.179 32.78C208.155 32.24 208.119 31.856 208.071 31.628C207.939 31.088 207.669 30.662 207.261 30.35C206.865 30.026 206.361 29.864 205.749 29.864ZM217.56 28.766C218.52 28.766 219.282 29.048 219.846 29.612C220.422 30.176 220.71 30.932 220.71 31.88V37.82C220.71 37.94 220.65 38 220.53 38H219.612C219.492 38 219.432 37.94 219.432 37.82V32.132C219.432 31.472 219.228 30.932 218.82 30.512C218.424 30.092 217.908 29.882 217.272 29.882C216.612 29.882 216.078 30.086 215.67 30.494C215.262 30.902 215.058 31.436 215.058 32.096V37.82C215.058 37.94 214.998 38 214.878 38H213.96C213.84 38 213.78 37.94 213.78 37.82V29.072C213.78 28.952 213.84 28.892 213.96 28.892H214.878C214.998 28.892 215.058 28.952 215.058 29.072V29.846C215.058 29.87 215.064 29.888 215.076 29.9C215.1 29.912 215.118 29.906 215.13 29.882C215.658 29.138 216.468 28.766 217.56 28.766ZM231.835 27.614C231.979 28.094 232.051 28.658 232.051 29.306V34.922C232.051 35.906 231.727 36.692 231.079 37.28C230.431 37.856 229.585 38.144 228.541 38.144C227.533 38.144 226.711 37.862 226.075 37.298C225.451 36.722 225.139 35.978 225.139 35.066V34.814C225.139 34.694 225.199 34.634 225.319 34.634H226.237C226.357 34.634 226.417 34.694 226.417 34.814V34.958C226.417 35.57 226.615 36.068 227.011 36.452C227.407 36.836 227.917 37.028 228.541 37.028C229.189 37.028 229.723 36.83 230.143 36.434C230.563 36.026 230.773 35.492 230.773 34.832V32.204C230.773 32.18 230.761 32.168 230.737 32.168C230.713 32.156 230.695 32.162 230.683 32.186C230.155 32.894 229.363 33.248 228.307 33.248C227.551 33.248 226.915 33.08 226.399 32.744C225.895 32.408 225.511 31.934 225.247 31.322C224.995 30.818 224.869 30.134 224.869 29.27C224.869 28.538 224.959 27.938 225.139 27.47C225.391 26.774 225.793 26.234 226.345 25.85C226.909 25.466 227.599 25.274 228.415 25.274C229.279 25.274 230.005 25.484 230.593 25.904C231.193 26.312 231.607 26.882 231.835 27.614ZM228.469 32.132C228.997 32.132 229.441 32.006 229.801 31.754C230.173 31.49 230.431 31.13 230.575 30.674C230.707 30.326 230.773 29.84 230.773 29.216C230.773 28.7 230.719 28.262 230.611 27.902C230.467 27.446 230.209 27.08 229.837 26.804C229.465 26.528 229.009 26.39 228.469 26.39C227.953 26.39 227.509 26.522 227.137 26.786C226.765 27.038 226.501 27.41 226.345 27.902C226.213 28.238 226.147 28.694 226.147 29.27C226.147 29.882 226.225 30.362 226.381 30.71C226.525 31.142 226.777 31.49 227.137 31.754C227.497 32.006 227.941 32.132 228.469 32.132ZM243.022 32.078C243.274 32.618 243.4 33.302 243.4 34.13C243.4 34.874 243.304 35.474 243.112 35.93C242.86 36.626 242.458 37.166 241.906 37.55C241.354 37.934 240.664 38.126 239.836 38.126C238.972 38.126 238.246 37.922 237.658 37.514C237.07 37.106 236.656 36.53 236.416 35.786C236.272 35.306 236.2 34.742 236.2 34.094V28.478C236.2 27.494 236.524 26.714 237.172 26.138C237.82 25.55 238.666 25.256 239.71 25.256C240.73 25.256 241.552 25.538 242.176 26.102C242.8 26.666 243.112 27.41 243.112 28.334V28.586C243.112 28.706 243.052 28.766 242.932 28.766H242.014C241.894 28.766 241.834 28.706 241.834 28.586V28.442C241.834 27.83 241.636 27.332 241.24 26.948C240.844 26.564 240.334 26.372 239.71 26.372C239.062 26.372 238.528 26.576 238.108 26.984C237.688 27.38 237.478 27.908 237.478 28.568V31.214C237.478 31.238 237.49 31.256 237.514 31.268C237.538 31.268 237.556 31.256 237.568 31.232C238.096 30.512 238.894 30.152 239.962 30.152C240.718 30.152 241.348 30.32 241.852 30.656C242.368 30.992 242.758 31.466 243.022 32.078ZM241.906 35.498C242.05 35.126 242.122 34.67 242.122 34.13C242.122 33.506 242.038 33.026 241.87 32.69C241.726 32.246 241.474 31.898 241.114 31.646C240.754 31.394 240.31 31.268 239.782 31.268C239.254 31.268 238.81 31.4 238.45 31.664C238.09 31.916 237.838 32.27 237.694 32.726C237.55 33.098 237.478 33.584 237.478 34.184C237.478 34.712 237.538 35.15 237.658 35.498C237.802 35.954 238.054 36.32 238.414 36.596C238.786 36.872 239.248 37.01 239.8 37.01C240.316 37.01 240.76 36.884 241.132 36.632C241.504 36.368 241.762 35.99 241.906 35.498Z" fill="black"/>
<circle cx="30" cy="30" r="30" fill="#C4C4C4"/>
<g clip-path="url(#clip0_108_7)">
<path d="M21.8102 45.6763V26.3285H15.3794V45.6763H21.8102ZM18.5957 23.6853C20.8382 23.6853 22.2341 22.1996 22.2341 20.3429C22.1923 18.4445 20.8383 17 18.6382 17C16.4385 17 15 18.4445 15 20.3429C15 22.1996 16.3955 23.6853 18.5537 23.6853H18.5955H18.5957ZM25.3697 45.6763H31.8005V34.8715C31.8005 34.2933 31.8423 33.7156 32.0121 33.3023C32.477 32.1469 33.5352 30.9503 35.3116 30.9503C37.6387 30.9503 38.5696 32.7246 38.5696 35.3255V45.6762H45.0001V34.5823C45.0001 28.6394 41.8274 25.8742 37.5963 25.8742C34.1272 25.8742 32.604 27.8134 31.7577 29.1341H31.8007V26.3281H25.3698C25.4542 28.1436 25.3698 45.6759 25.3698 45.6759L25.3697 45.6763Z" fill="white"/>
</g>
<defs>
<clipPath id="clip0_108_7">
<rect width="30" height="28.6763" fill="white" transform="translate(15 17)"/>
</clipPath>
</defs>
</svg>
