<svg width="67" height="19" viewBox="0 0 67 19" fill="none" xmlns="http://www.w3.org/2000/svg">
<path d="M4.8 18C4.64 18 4.536 17.92 4.488 17.76L0.624 6.048C0.608 6.016 0.6 5.976 0.6 5.928C0.6 5.784 0.688 5.712 0.864 5.712H3.312C3.488 5.712 3.6 5.792 3.648 5.952L5.976 13.968C5.992 14.016 6.016 14.04 6.048 14.04C6.08 14.04 6.104 14.016 6.12 13.968L8.448 5.952C8.496 5.792 8.608 5.712 8.784 5.712L11.232 5.76C11.328 5.76 11.4 5.792 11.448 5.856C11.496 5.904 11.504 5.984 11.472 6.096L7.632 17.76C7.584 17.92 7.48 18 7.32 18H4.8ZM16.3657 4.056C15.8697 4.056 15.4617 3.896 15.1417 3.576C14.8217 3.256 14.6617 2.848 14.6617 2.352C14.6617 1.856 14.8217 1.448 15.1417 1.128C15.4617 0.807999 15.8697 0.647999 16.3657 0.647999C16.8618 0.647999 17.2697 0.807999 17.5897 1.128C17.9098 1.448 18.0698 1.856 18.0698 2.352C18.0698 2.848 17.9098 3.256 17.5897 3.576C17.2697 3.896 16.8618 4.056 16.3657 4.056ZM15.2137 18C15.1337 18 15.0617 17.976 14.9977 17.928C14.9497 17.864 14.9257 17.792 14.9257 17.712V6C14.9257 5.92 14.9497 5.856 14.9977 5.808C15.0617 5.744 15.1337 5.712 15.2137 5.712H17.4217C17.5017 5.712 17.5657 5.744 17.6137 5.808C17.6778 5.856 17.7098 5.92 17.7098 6V17.712C17.7098 17.792 17.6778 17.864 17.6137 17.928C17.5657 17.976 17.5017 18 17.4217 18H15.2137ZM25.4109 18C25.2509 18 25.1469 17.92 25.0989 17.76L21.2349 6.048C21.2189 6.016 21.2109 5.976 21.2109 5.928C21.2109 5.784 21.2989 5.712 21.4749 5.712H23.9229C24.0989 5.712 24.2109 5.792 24.2589 5.952L26.5869 13.968C26.6029 14.016 26.6269 14.04 26.6589 14.04C26.6909 14.04 26.7149 14.016 26.7309 13.968L29.0589 5.952C29.1069 5.792 29.2189 5.712 29.3949 5.712L31.8429 5.76C31.9389 5.76 32.0109 5.792 32.0589 5.856C32.1069 5.904 32.1149 5.984 32.0829 6.096L28.2429 17.76C28.1949 17.92 28.0909 18 27.9309 18H25.4109ZM36.9767 4.056C36.4807 4.056 36.0727 3.896 35.7527 3.576C35.4327 3.256 35.2727 2.848 35.2727 2.352C35.2727 1.856 35.4327 1.448 35.7527 1.128C36.0727 0.807999 36.4807 0.647999 36.9767 0.647999C37.4727 0.647999 37.8807 0.807999 38.2007 1.128C38.5207 1.448 38.6807 1.856 38.6807 2.352C38.6807 2.848 38.5207 3.256 38.2007 3.576C37.8807 3.896 37.4727 4.056 36.9767 4.056ZM35.8247 18C35.7447 18 35.6727 17.976 35.6087 17.928C35.5607 17.864 35.5367 17.792 35.5367 17.712V6C35.5367 5.92 35.5607 5.856 35.6087 5.808C35.6727 5.744 35.7447 5.712 35.8247 5.712H38.0327C38.1127 5.712 38.1767 5.744 38.2247 5.808C38.2887 5.856 38.3207 5.92 38.3207 6V17.712C38.3207 17.792 38.2887 17.864 38.2247 17.928C38.1767 17.976 38.1127 18 38.0327 18H35.8247ZM47.3899 5.544C48.3979 5.544 49.2859 5.72 50.0539 6.072C50.8219 6.424 51.4139 6.912 51.8299 7.536C52.2459 8.144 52.4539 8.84 52.4539 9.624V17.712C52.4539 17.792 52.4219 17.864 52.3579 17.928C52.3099 17.976 52.2459 18 52.1659 18H49.9579C49.8779 18 49.8059 17.976 49.7419 17.928C49.6939 17.864 49.6699 17.792 49.6699 17.712V16.944C49.6699 16.896 49.6539 16.872 49.6219 16.872C49.5899 16.856 49.5579 16.864 49.5259 16.896C48.7419 17.76 47.6059 18.192 46.1179 18.192C44.9179 18.192 43.9259 17.888 43.1419 17.28C42.3739 16.672 41.9899 15.768 41.9899 14.568C41.9899 13.32 42.4219 12.352 43.2859 11.664C44.1659 10.96 45.3979 10.608 46.9819 10.608H49.5499C49.6299 10.608 49.6699 10.568 49.6699 10.488V9.912C49.6699 9.288 49.4859 8.808 49.1179 8.472C48.7499 8.12 48.1979 7.944 47.4619 7.944C46.8539 7.944 46.3579 8.056 45.9739 8.28C45.6059 8.488 45.3739 8.784 45.2779 9.168C45.2299 9.36 45.1179 9.44 44.9419 9.408L42.6139 9.12C42.5339 9.104 42.4619 9.08 42.3979 9.048C42.3499 9 42.3339 8.944 42.3499 8.88C42.4779 7.904 42.9979 7.104 43.9099 6.48C44.8379 5.856 45.9979 5.544 47.3899 5.544ZM46.8139 15.984C47.5979 15.984 48.2699 15.776 48.8299 15.36C49.3899 14.944 49.6699 14.416 49.6699 13.776V12.648C49.6699 12.568 49.6299 12.528 49.5499 12.528H47.5339C46.6859 12.528 46.0139 12.688 45.5179 13.008C45.0379 13.328 44.7979 13.784 44.7979 14.376C44.7979 14.888 44.9819 15.288 45.3499 15.576C45.7339 15.848 46.2219 15.984 46.8139 15.984ZM62.3289 5.544C63.6249 5.544 64.6569 5.928 65.4249 6.696C66.2089 7.464 66.6009 8.512 66.6009 9.84V17.712C66.6009 17.792 66.5689 17.864 66.5049 17.928C66.4569 17.976 66.3929 18 66.3129 18H64.1049C64.0249 18 63.9529 17.976 63.8889 17.928C63.8409 17.864 63.8169 17.792 63.8169 17.712V10.416C63.8169 9.68 63.6089 9.088 63.1929 8.64C62.7769 8.176 62.2249 7.944 61.5369 7.944C60.8489 7.944 60.2889 8.168 59.8569 8.616C59.4409 9.064 59.2329 9.656 59.2329 10.392V17.712C59.2329 17.792 59.2009 17.864 59.1369 17.928C59.0889 17.976 59.0249 18 58.9449 18H56.7369C56.6569 18 56.5849 17.976 56.5209 17.928C56.4729 17.864 56.4489 17.792 56.4489 17.712V6.024C56.4489 5.944 56.4729 5.88 56.5209 5.832C56.5849 5.768 56.6569 5.736 56.7369 5.736H58.9449C59.0249 5.736 59.0889 5.768 59.1369 5.832C59.2009 5.88 59.2329 5.944 59.2329 6.024V6.792C59.2329 6.84 59.2489 6.872 59.2809 6.888C59.3129 6.904 59.3369 6.888 59.3529 6.84C60.0089 5.976 61.0009 5.544 62.3289 5.544Z" fill="black"/>
</svg>
