<svg xmlns="http://www.w3.org/2000/svg" xmlns:xlink="http://www.w3.org/1999/xlink" viewBox="0 0 1240 450"><defs><style>.cls-1,.cls-22,.cls-23{fill:none;}.cls-2,.cls-30,.cls-31,.cls-32,.cls-33,.cls-34{fill:#fff;}.cls-3{fill:#fceed4;}.cls-4{font-size:24px;fill:#193f19;font-family:Montserrat-Bold, Montserrat;font-weight:700;}.cls-5{letter-spacing:0em;}.cls-6{letter-spacing:-0.02em;}.cls-7{letter-spacing:0.01em;}.cls-8{letter-spacing:0em;}.cls-9{clip-path:url(#clip-path);}.cls-10{opacity:0.2;}.cls-11,.cls-12,.cls-19,.cls-20,.cls-21{fill:#009bb2;}.cls-11,.cls-12,.cls-18,.cls-19,.cls-20,.cls-24,.cls-25,.cls-26,.cls-27,.cls-28,.cls-29,.cls-31,.cls-32,.cls-33,.cls-34{isolation:isolate;}.cls-11{opacity:0.25;}.cls-12,.cls-13{opacity:0.5;}.cls-14,.cls-24,.cls-25,.cls-26,.cls-27,.cls-28,.cls-29{fill:#4054b2;}.cls-15{opacity:0.75;}.cls-16{fill:#9fa9d8;}.cls-17{fill:#7fcdd8;}.cls-19,.cls-20,.cls-24,.cls-25,.cls-26,.cls-27,.cls-28,.cls-29{font-size:13.24px;}.cls-19,.cls-20,.cls-24,.cls-25,.cls-26,.cls-27,.cls-28,.cls-29,.cls-31,.cls-32,.cls-33,.cls-34{font-family:Montserrat-Light, Montserrat;font-weight:300;}.cls-19,.cls-26{letter-spacing:-0.02em;}.cls-22{stroke:#009bb2;stroke-miterlimit:10;}.cls-22,.cls-23{stroke-width:1.38px;stroke-dasharray:6.62 3.31;}.cls-23{stroke:#4054b2;stroke-linecap:round;stroke-linejoin:round;}.cls-25{letter-spacing:-0.01em;}.cls-27{letter-spacing:-0.05em;}.cls-28{letter-spacing:-0.05em;}.cls-29{letter-spacing:-0.03em;}.cls-30{fill-rule:evenodd;}.cls-31,.cls-32,.cls-33,.cls-34{font-size:9.93px;}.cls-32{letter-spacing:-0.06em;}.cls-33{letter-spacing:-0.01em;}.cls-34{letter-spacing:-0.02em;}</style><clipPath id="clip-path"><rect class="cls-1" x="0.48" width="1240" height="450"/></clipPath></defs><g id="Layer_5" data-name="Layer 5"><rect class="cls-2" x="0.48" width="1240" height="450"/><path class="cls-3" d="M.74,104.27c110.56,30.66,204,38.49,269.75,39.63,86.06,1.5,173.29,3,281.86-25.32C615,102.24,662.4,81.78,712,105.37c30.29,14.41,49.87,39.77,80.37,79.27C839,245,835.21,266.07,866.14,291.44c36.13,29.64,78.58,31.46,132.12,33,51.6,1.51,138.15-3.32,242.22-46.24V450H.74C-1.83,334.76,3.31,219.51.74,104.27Z"/><text class="cls-4" transform="translate(74.93 197.15)">ma<tspan class="cls-5" x="39.98" y="0">r</tspan><tspan class="cls-6" x="50.23" y="0">k</tspan><tspan x="65.52" y="0">eti</tspan><tspan class="cls-7" x="98.33" y="0">n</tspan><tspan class="cls-8" x="115.05" y="0">g design</tspan></text><g class="cls-9"><g id="Layer_2-2" data-name="Layer 2"><g id="Layer_1-2" data-name="Layer 1-2"><g class="cls-10"><path class="cls-11" d="M909.61,409.11v31.14h-.16A122.39,122.39,0,0,0,787.07,562.63q0,3.14.15,6.22l-23.31,0-9.25,0c0-1.52-.07-3-.07-4.57,0-1.93,0-3.85.11-5.77A155.23,155.23,0,0,1,909.61,409.11Z"/><path class="cls-12" d="M1065.07,564.35c0,1.31,0,2.62,0,3.92l-33.33.07c.09-1.89.14-3.8.14-5.71A122.38,122.38,0,0,0,909.61,440.25V409.11h.22A155.24,155.24,0,0,1,1065.07,564.35Z"/></g><g class="cls-10"><g class="cls-13"><path class="cls-14" d="M911.29,66.88V98.32h-.16A123.65,123.65,0,0,0,787.51,222q0,3.16.16,6.28a122.79,122.79,0,0,0,17.14,56.82l-28,18.91a155.71,155.71,0,0,1-21.46-66.38q-.4-4.54-.54-9.18h9.34v-.11l-9.34,0c0-1.53-.07-3.07-.07-4.62,0-1.94,0-3.89.1-5.82A156.84,156.84,0,0,1,911.29,66.88Z"/></g><g class="cls-15"><path class="cls-14" d="M1068.34,223.71c0,1.32,0,2.64,0,4a156,156,0,0,1-20.58,73.82l-30.41-16.16a123,123,0,0,0,17.33-57.61c.09-1.91.13-3.83.13-5.76A123.62,123.62,0,0,0,911.29,98.33V66.88h.23A156.83,156.83,0,0,1,1068.34,223.71Z"/></g><path class="cls-14" d="M1047.71,301.49a156.77,156.77,0,0,1-136.19,79h-.23A156.69,156.69,0,0,1,776.77,304l28-18.91a123.57,123.57,0,0,0,106.33,60.53h.16a123.57,123.57,0,0,0,106-60.25Z"/></g><rect class="cls-16" x="902.64" y="41.82" width="16.78" height="481.58" rx="8.39"/><rect class="cls-17" x="902.69" y="400.73" width="16.78" height="481.58" rx="8.39"/><g class="cls-18"><text class="cls-19" transform="translate(789.71 404.15) scale(0.87 1)">C</text><text class="cls-20" transform="translate(797.68 404.15) scale(0.87 1)">on</text><text class="cls-19" transform="translate(812.57 404.15) scale(0.87 1)">t</text><text class="cls-20" transform="translate(816.94 404.15) scale(0.87 1)">ent</text></g><circle class="cls-21" cx="911.59" cy="438.74" r="5.38"/><circle class="cls-17" cx="814.02" cy="439.44" r="29.1"/><line class="cls-22" x1="843.04" y1="439.13" x2="911.72" y2="438.58"/><path class="cls-2" d="M799.06,424.58a2.85,2.85,0,0,0-2.83,2.84V452a2.86,2.86,0,0,0,2.83,2.84h27.4a2.86,2.86,0,0,0,2.83-2.84v-5.28l8.22-8.22a.94.94,0,0,0,0-1.33l-3.31-3.31a.9.9,0,0,0-1.28,0l0,0-3.59,3.59v-10a2.84,2.84,0,0,0-2.83-2.83Zm0,1.89h27.4a.92.92,0,0,1,.94.89v2.89H798.12v-2.83a.93.93,0,0,1,.9-.95Zm22.67.95a.95.95,0,0,0,0,1.89,1,1,0,0,0,.95-.95.94.94,0,0,0-.94-.94Zm3.31,0a.95.95,0,0,0,0,1.89,1,1,0,0,0,1-.95.94.94,0,0,0-.94-.94Zm-26.92,4.72H827.4v7.17l-7.27,7.28a.92.92,0,0,0-.28.66v3.31a1,1,0,0,0,.94.95h3.31a1,1,0,0,0,.67-.28l2.64-2.64V452a.92.92,0,0,1-.9.94H799.06a.92.92,0,0,1-.94-.9V432.14Zm3.22,3.31a.95.95,0,1,0,0,1.89h17a.95.95,0,1,0,.12-1.89H801.34Zm32.21.37,2,2-1.27,1.27-2-2Zm-2.6,2.59,2,2-9.2,9.22h-2v-2Zm-29.61,1.27a1,1,0,0,0,0,1.9h11.39a1,1,0,0,0,.91-1,1,1,0,0,0-.88-.91Zm0,3.78a1,1,0,0,0-.93,1,.94.94,0,0,0,1,.92h15.17a.95.95,0,1,0,.12-1.89H801.34Zm0,4.26a.95.95,0,0,0,0,1.89h11.39a.94.94,0,0,0,0-1.88Z"/><circle class="cls-14" cx="911" cy="72.83" r="5.38"/><line class="cls-1" x1="1033.06" y1="63.58" x2="1031" y2="67.46"/><line class="cls-23" x1="911.17" y1="157.38" x2="979.85" y2="156.83"/><circle class="cls-16" cx="813.1" cy="73.61" r="29.1"/><g class="cls-18"><text class="cls-24" transform="translate(759.64 38.03) scale(0.87 1)">St</text><text class="cls-25" transform="translate(771.24 38.03) scale(0.87 1)">r</text><text class="cls-24" transform="translate(775.67 38.03) scale(0.87 1)">a</text><text class="cls-26" transform="translate(782.39 38.03) scale(0.87 1)">t</text><text class="cls-24" transform="translate(786.76 38.03) scale(0.87 1)">egy </text><text class="cls-27" transform="translate(810.53 38.03) scale(0.87 1)">W</text><text class="cls-24" transform="translate(822.54 38.03) scale(0.87 1)">o</text><text class="cls-25" transform="translate(829.68 38.03) scale(0.87 1)">r</text><text class="cls-26" transform="translate(834.12 38.03) scale(0.87 1)">k</text><text class="cls-24" transform="translate(840.71 38.03) scale(0.87 1)">s</text><text class="cls-24" transform="translate(846.21 38.03) scale(0.87 1)">h</text><text class="cls-24" transform="translate(853.97 38.03) scale(0.87 1)">op</text></g><path class="cls-2" d="M805.7,80.71a3.09,3.09,0,1,0,3.08-3.09A3.09,3.09,0,0,0,805.7,80.71Zm5.1,0a2,2,0,1,1-2-2h0A2,2,0,0,1,810.8,80.71Z"/><path class="cls-2" d="M815.2,80.71a3.09,3.09,0,1,0,3.09-3.09A3.1,3.1,0,0,0,815.2,80.71Zm5.11,0a2,2,0,1,1-2-2h0A2,2,0,0,1,820.31,80.71Z"/><path class="cls-2" d="M827.79,83.8a3.09,3.09,0,1,0-3.08-3.09A3.09,3.09,0,0,0,827.79,83.8Zm0-5.11a2,2,0,1,1-2,2h0A2,2,0,0,1,827.79,78.69Z"/><path class="cls-2" d="M832,85a3.39,3.39,0,0,0-2.22-1.1.38.38,0,0,0-.37.08,2.69,2.69,0,0,1-1.4.49h-.37a3,3,0,0,1-1.48-.49,1,1,0,0,0-.37-.08,3.48,3.48,0,0,0-2.21,1.1,4,4,0,0,0-.57.83,3.44,3.44,0,0,0-.58-.78,3.64,3.64,0,0,0-2.26-1.11.41.41,0,0,0-.37.09,3.17,3.17,0,0,1-1.11.45h-.53a3,3,0,0,1-1.44-.5,1.63,1.63,0,0,0-.37-.08A3.54,3.54,0,0,0,814.11,85a5.58,5.58,0,0,0-.57.78A8.27,8.27,0,0,0,813,85a3.61,3.61,0,0,0-2.26-1.11.41.41,0,0,0-.37.09,2.86,2.86,0,0,1-1.15.45H809a2.91,2.91,0,0,1-1.81-.5,1.53,1.53,0,0,0-.37-.08A3.51,3.51,0,0,0,804.57,85a4.15,4.15,0,0,0-1.07,2.75v1.53a.62.62,0,0,0,.16.37.44.44,0,0,0,.37.16h28.54a.54.54,0,0,0,.53-.53V87.75A3.8,3.8,0,0,0,832,85Zm0,3.74H804.55v-1a2.91,2.91,0,0,1,.78-2,2.25,2.25,0,0,1,1.39-.78,3.81,3.81,0,0,0,1.49.53c.08,0,.12.09.2.09H809a5.19,5.19,0,0,0,1.81-.58,2.86,2.86,0,0,1,1.41.78,3,3,0,0,1,.78,1.85.45.45,0,0,0,.37.46l.16,0a.53.53,0,0,0,.37-.17.39.39,0,0,0,.12-.37,3,3,0,0,1,.79-1.85,2.27,2.27,0,0,1,1.4-.78,4.31,4.31,0,0,0,1.44.53c.08,0,.12.09.2.09h.62A5.26,5.26,0,0,0,820.3,85a2.83,2.83,0,0,1,1.4.78,3,3,0,0,1,.78,1.85.54.54,0,0,0,.45.5h.13a.61.61,0,0,0,.37-.21s0-.08.08-.12v0h0s0-.13,0-.17a3,3,0,0,1,.78-1.85,2.3,2.3,0,0,1,1.4-.78,3.66,3.66,0,0,0,1.66.57h.78a.65.65,0,0,0,.2,0,4.85,4.85,0,0,0,1.48-.53,2.86,2.86,0,0,1,1.41.78,3,3,0,0,1,.78,2Z"/><path class="cls-2" d="M804.06,82.56a.82.82,0,0,0,.16-.45V80.5c0-2.43,0-4.19-.08-5.51l2.1.7a.46.46,0,0,0,.21,0,.69.69,0,0,0,.53-.25l.62-.86a.67.67,0,0,0,.24,0h14.7a2.29,2.29,0,0,0,2.3-2.27V60.63a2.29,2.29,0,0,0-2.29-2.31H802.36a2.3,2.3,0,0,0-2.3,2.3h0v2.3a3.51,3.51,0,0,0-1.28-.25,3.3,3.3,0,1,0,3.29,3.3h0a3.4,3.4,0,0,0-.82-2.18.52.52,0,0,0,0-.21v-3a1.09,1.09,0,0,1,1.07-1.07h20.18a1.1,1.1,0,0,1,1.07,1.07V72.35a1.1,1.1,0,0,1-1.07,1.07H808.41l1.89-2.71a.19.19,0,0,0,.09-.16,1.6,1.6,0,0,0-.09-1.32s-.08-.13-.12-.17l2.31-3.37a.63.63,0,0,0-.22-.86.62.62,0,0,0-.81.16L809,68.57a1.78,1.78,0,0,0-1.48.83l-2,2.76-2.1-1a1.45,1.45,0,0,0-.33-.45,3.49,3.49,0,0,0-2.3-1.2.79.79,0,0,0-.45.13,2.72,2.72,0,0,1-1.4.49h-.33a2.69,2.69,0,0,1-1.4-.49.81.81,0,0,0-.45-.13,3.54,3.54,0,0,0-2.31,1.2,4.51,4.51,0,0,0-1.07,2.92v8.52a.56.56,0,0,0,.52.61.17.17,0,0,0,.1,0h9.59A.55.55,0,0,0,804.06,82.56ZM798.79,68a2.06,2.06,0,1,1,0-4.11h0a2,2,0,0,1,2.06,2v.1a2.07,2.07,0,0,1-2.07,2Zm6.65,5.48a.63.63,0,0,0,.78-.21l2.26-3.17a.69.69,0,0,1,.62-.29h0a.09.09,0,0,0,.08,0,.36.36,0,0,1,0,.25l-3.08,4.24-2.14-.7c0-.33-.08-.66-.12-.91Zm-2.51,8.06h-4.48a.34.34,0,0,0-.2,0h-3.57V73.66a3.08,3.08,0,0,1,.78-2.09,2.35,2.35,0,0,1,1.32-.79,6.26,6.26,0,0,0,1.44.54.33.33,0,0,0,.17,0h.9s.13,0,.16,0a4.7,4.7,0,0,0,1.45-.54,2.58,2.58,0,0,1,1.31.79l.08.08a.65.65,0,0,0,.21.33c.33.74.5,2.55.5,8.55v1Z"/><path class="cls-2" d="M819.69,62.85h-13.5a.67.67,0,0,0-.62.7.68.68,0,0,0,.62.62h13.46a.73.73,0,0,0,.74-.66A.69.69,0,0,0,819.69,62.85Z"/><path class="cls-2" d="M819.65,66.14H814.3a.66.66,0,1,0,0,1.32h5.35a.66.66,0,0,0,0-1.32Z"/><path class="cls-2" d="M819.65,69.14H814.3a.66.66,0,1,0,0,1.32h5.35a.66.66,0,0,0,0-1.32Z"/><circle class="cls-14" cx="911.03" cy="157.46" r="5.38"/><circle class="cls-14" cx="911.03" cy="242.42" r="5.38"/><circle class="cls-16" cx="1006.88" cy="156.56" r="29.1"/><g class="cls-18"><text class="cls-24" transform="translate(959.04 119.15) scale(0.87 1)">Ma</text><text class="cls-25" transform="translate(976.76 119.15) scale(0.87 1)">r</text><text class="cls-26" transform="translate(981.2 119.15) scale(0.87 1)">k</text><text class="cls-24" transform="translate(987.73 119.15) scale(0.87 1)">et Res</text><text class="cls-26" transform="translate(1022.82 119.15) scale(0.87 1)">e</text><text class="cls-24" transform="translate(1029.53 119.15) scale(0.87 1)">a</text><text class="cls-25" transform="translate(1036.24 119.15) scale(0.87 1)">r</text><text class="cls-25" transform="translate(1040.62 119.15) scale(0.87 1)">c</text><text class="cls-24" transform="translate(1046.91 119.15) scale(0.87 1)">h</text></g><path class="cls-2" d="M1003.78,165.87a9.63,9.63,0,0,1,0-19.25h0a9.56,9.56,0,0,1,6.81,2.83h0a9.62,9.62,0,0,1-6.82,16.42Zm0-18a8.36,8.36,0,1,0,5.92,2.45h0A8.31,8.31,0,0,0,1003.79,147.89Z"/><path class="cls-2" d="M1005.9,150.72a5.69,5.69,0,0,0-2.59-.18l-.2-1.25a6.9,6.9,0,0,1,3.16.22Z"/><path class="cls-2" d="M989.23,173.8a1.61,1.61,0,0,1-1.16-.48L986.73,172a1.64,1.64,0,0,1,0-2.32l9-9a.64.64,0,0,1,.89,0,.76.76,0,0,1,.08.11,8.22,8.22,0,0,0,2.58,2.57.64.64,0,0,1,.19.88l-.08.1-9,9A1.64,1.64,0,0,1,989.23,173.8Zm6.89-11.74-8.49,8.49a.39.39,0,0,0,0,.54h0l1.34,1.34a.39.39,0,0,0,.53,0l8.49-8.49a9.85,9.85,0,0,1-1.88-1.88Z"/><path class="cls-2" d="M1023.65,145.83h-8a.63.63,0,0,1-.63-.62h0v-8a.62.62,0,0,1,.62-.63.64.64,0,0,1,.45.19l8,8a.64.64,0,0,1,0,.9.67.67,0,0,1-.45.18Zm-7.38-1.26h5.86l-5.86-5.85Z"/><path class="cls-2" d="M1023.65,174.09H996.52a.63.63,0,0,1-.63-.63h0v-3.71h1.26v3.07H1023V145.46l-7.63-7.64H997.15V147h-1.26v-9.84a.63.63,0,0,1,.63-.63h19.12a.63.63,0,0,1,.45.18l8,8a.64.64,0,0,1,.19.45v28.26A.64.64,0,0,1,1023.65,174.09Z"/><rect class="cls-2" x="1000.04" y="154.39" width="1.26" height="5.14"/><rect class="cls-2" x="1002.9" y="155.86" width="1.26" height="3.67"/><rect class="cls-2" x="1006.01" y="152.93" width="1.26" height="6.6"/><rect class="cls-2" x="998.97" y="139.81" width="3.3" height="1.26"/><rect class="cls-2" x="999.02" y="142.5" width="8.38" height="1.26"/><rect class="cls-2" x="1014.63" y="150.07" width="5.89" height="1.26"/><rect class="cls-2" x="1014.63" y="154.69" width="5.89" height="1.26"/><rect class="cls-2" x="1014.63" y="158.9" width="5.89" height="1.26"/><rect class="cls-2" x="1011.69" y="163.61" width="8.83" height="1.26"/><circle class="cls-16" cx="812.84" cy="242.44" r="29.1"/><g class="cls-18"><text class="cls-28" transform="translate(763.95 205.95) scale(0.87 1)">V</text><text class="cls-24" transform="translate(771.23 205.95) scale(0.87 1)">alue </text><text class="cls-29" transform="translate(798.5 205.95) scale(0.87 1)">P</text><text class="cls-25" transform="translate(806.43 205.95) scale(0.87 1)">r</text><text class="cls-24" transform="translate(810.81 205.95) scale(0.87 1)">oposition</text></g><path class="cls-30" d="M796.52,227.91h32.61a1.49,1.49,0,0,1,1.49,1.49h0v23.72a1.49,1.49,0,0,1-1.49,1.48H796.52a1.48,1.48,0,0,1-1.48-1.48V229.4a1.48,1.48,0,0,1,1.47-1.49Zm0,1.49v23.72h32.61V229.4Z"/><polygon class="cls-2" points="795.03 251.63 830.62 251.63 830.62 250.15 795.03 250.15 795.03 251.63"/><path class="cls-2" d="M806.15,259.05h13.36a.75.75,0,0,0,.74-.75.74.74,0,0,0-.74-.74H806.15a.74.74,0,0,0-.74.74A.75.75,0,0,0,806.15,259.05Z"/><path class="cls-2" d="M808.34,258.54l1.48-4.45a.74.74,0,1,0-1.39-.52.43.43,0,0,0,0,.05l-1.49,4.45a.74.74,0,0,0,1.41.47Z"/><path class="cls-2" d="M817.3,258.54l-1.48-4.45a.74.74,0,1,1,1.38-.52.08.08,0,0,1,0,.05l1.49,4.45a.76.76,0,0,1-.51.92A.74.74,0,0,1,817.3,258.54Z"/><path class="cls-2" d="M811.78,247.17l-2.87-3a.74.74,0,0,0-1-.06.73.73,0,0,0-.07,1l0,.05,3,3.18a1.2,1.2,0,0,0,1.33.26l2.13-1a.94.94,0,0,0,.47-1.24.9.9,0,0,0-.2-.28l-3-3.18a.74.74,0,0,0-1.12,1l0,.05,2.52,2.65Z"/><path class="cls-2" d="M807.55,244.23l-1.88-4,5.37-2.5-.62-1.35L804.78,239a1.19,1.19,0,0,0-.58,1.58l2.13,4.57a1.19,1.19,0,0,0,1.58.57h0l5.64-2.63-.63-1.34Z"/><path class="cls-2" d="M813.16,242.24l6-.09,0,1.49-6.07.08a1.46,1.46,0,0,1-1.32-.83l-2.38-5.1a1.46,1.46,0,0,1,.21-1.54l4-4.59,1.12,1-3.93,4.56Z"/><path class="cls-2" d="M813.51,232.46l5,10.75a.74.74,0,0,0,1.34-.62l-5-10.76a.74.74,0,1,0-1.37.56l0,.07Z"/><path class="cls-2" d="M820.81,236.42l1.34-.63a.74.74,0,1,0-.56-1.38l-.07,0-1.34.62a.74.74,0,0,0-.31,1A.75.75,0,0,0,820.81,236.42Z"/><path class="cls-2" d="M818.65,233.48l1-1.13a.76.76,0,0,0-.09-1,.75.75,0,0,0-1,.1h0l-1,1.14a.74.74,0,0,0,0,1.05.75.75,0,0,0,1.05-.05l0,0Z"/><path class="cls-2" d="M821,240.1h1.48a.74.74,0,1,0,.09-1.48H821a.74.74,0,1,0-.09,1.48Z"/><g class="cls-13"><path class="cls-14" d="M1086.76,214.12h111.15a13.66,13.66,0,0,1,13.66,13.65h0a13.67,13.67,0,0,1-13.66,13.66H1086.76a13.67,13.67,0,0,1-13.66-13.66h0A13.66,13.66,0,0,1,1086.76,214.12Z"/></g><g class="cls-13"><path class="cls-14" d="M1046.62,340.86h111.16a13.65,13.65,0,0,1,13.65,13.65h0a13.66,13.66,0,0,1-13.65,13.66H1046.62A13.66,13.66,0,0,1,1033,354.51h0A13.65,13.65,0,0,1,1046.62,340.86Z"/></g><path class="cls-2" d="M1076.63,347.16h-4.2l-.51-1.28a.28.28,0,0,0-.28-.19h-4.11a.3.3,0,0,0-.28.19l-.51,1.28h-4.21a.3.3,0,0,0-.3.29h0V363a.29.29,0,0,0,.3.29h14.11a.29.29,0,0,0,.29-.29h0V347.45a.29.29,0,0,0-.29-.29Zm-1.47,12.06h-2.05a.29.29,0,0,0-.3.29v2.06H1064V348.63h.59v.58a.29.29,0,0,0,.29.29h9.41a.3.3,0,0,0,.3-.29h0v-.59h.59Zm-.41.58-1.35,1.35V359.8Zm-7.82-12.05a.31.31,0,0,0,.28-.18l.51-1.29h3.72l.51,1.29a.31.31,0,0,0,.28.18H1074v1.18h-8.82v-1.17Zm9.41,15h-13.52v-15h1.77V348h-.88a.29.29,0,0,0-.3.3v13.51a.29.29,0,0,0,.3.3h9.4a.27.27,0,0,0,.21-.09l2.35-2.35a.29.29,0,0,0,.09-.21V348.33a.31.31,0,0,0-.29-.3h-.89v-.29h1.77Zm-3.23-12.05a1.18,1.18,0,1,0,1.17,1.18h0a1.17,1.17,0,0,0-1.17-1.18Zm0,1.76a.59.59,0,1,1,.58-.58.58.58,0,0,1-.58.58Zm.29,1.47v.59a1.18,1.18,0,0,1-1.18,1.18h-6a.73.73,0,0,0-.69.78.73.73,0,0,0,.69.69h4.11a1.32,1.32,0,1,1,.12,2.64h-2a.29.29,0,0,1-.26-.32.28.28,0,0,1,.26-.26h1.91a.74.74,0,0,0,.78-.69.73.73,0,0,0-.69-.78h-4.2a1.34,1.34,0,0,1-1.39-1.27,1.33,1.33,0,0,1,1.27-1.38h6.14a.58.58,0,0,0,.59-.59h0v-.59a.3.3,0,0,1,.59,0Zm-6,5.22-.38.38.38.38a.29.29,0,0,1-.41.41h0l-.38-.38-.38.38a.3.3,0,0,1-.42,0,.29.29,0,0,1,0-.39l.38-.38-.38-.38a.3.3,0,0,1,0-.42.29.29,0,0,1,.39,0l.38.38.38-.38a.3.3,0,0,1,.41,0h0a.3.3,0,0,1,0,.42Zm-2.56-8.15a.3.3,0,0,1,.3-.29h2.35a.3.3,0,0,1,.27.32.32.32,0,0,1-.27.27h-2.35a.31.31,0,0,1-.3-.3h0Zm0,1.47a.3.3,0,0,1,.3-.29h5.29a.3.3,0,0,1,.27.32.32.32,0,0,1-.27.27h-5.29a.31.31,0,0,1-.3-.3h0Zm0,1.47a.29.29,0,0,1,.3-.29h5.29a.3.3,0,0,1,.27.32.32.32,0,0,1-.27.27h-5.29a.31.31,0,0,1-.3-.3h0Z"/><path class="cls-2" d="M1194.58,235.24a6.7,6.7,0,1,1,6.7-6.71h0A6.71,6.71,0,0,1,1194.58,235.24Zm0-12.88a6.18,6.18,0,1,0,6.19,6.18,6.18,6.18,0,0,0-6.19-6.18Z"/><path class="cls-2" d="M1194.58,234a5.41,5.41,0,1,1,5.41-5.42h0A5.41,5.41,0,0,1,1194.58,234Zm0-10.31a4.9,4.9,0,1,0,4.9,4.9h0A4.91,4.91,0,0,0,1194.58,223.64Z"/><path class="cls-2" d="M1194.58,232.66a4.13,4.13,0,1,1,4.12-4.13h0A4.13,4.13,0,0,1,1194.58,232.66Zm0-7.72a3.61,3.61,0,1,0,3.61,3.61h0a3.61,3.61,0,0,0-3.61-3.62h0Z"/><path class="cls-2" d="M1194.58,231.37a2.84,2.84,0,1,1,2.84-2.84h0A2.84,2.84,0,0,1,1194.58,231.37Zm0-5.15a2.32,2.32,0,1,0,2.32,2.32,2.32,2.32,0,0,0-2.32-2.32Z"/><path class="cls-2" d="M1194.58,230.09a1.55,1.55,0,1,1,1.55-1.56h0A1.55,1.55,0,0,1,1194.58,230.09Zm0-2.58a1,1,0,1,0,1,1h0a1,1,0,0,0-1-1Z"/><path class="cls-2" d="M1190,236a.26.26,0,0,1-.09-.5l2.83-1a.25.25,0,0,1,.33.16.26.26,0,0,1-.15.33l-2.84,1Z"/><path class="cls-2" d="M1190,236h0a.28.28,0,0,1-.23-.28l.26-2.48a.28.28,0,0,1,.27-.23.26.26,0,0,1,.23.28l-.26,2.48A.25.25,0,0,1,1190,236Z"/><path class="cls-2" d="M1199.22,236l-.09,0-2.83-1a.26.26,0,0,1,.17-.49l2.84,1a.25.25,0,0,1,.15.32h0A.25.25,0,0,1,1199.22,236Z"/><path class="cls-2" d="M1199.22,236a.27.27,0,0,1-.26-.23l-.25-2.48a.26.26,0,0,1,.23-.28.27.27,0,0,1,.27.23l.26,2.48a.26.26,0,0,1-.23.28Z"/><path class="cls-2" d="M1194.58,228.8a.25.25,0,0,1-.18-.08.25.25,0,0,1,0-.36l7.72-7.72a.25.25,0,0,1,.37,0,.25.25,0,0,1,0,.36l-7.73,7.72A.23.23,0,0,1,1194.58,228.8Z"/><path class="cls-2" d="M1201.54,223.13a.26.26,0,0,1-.26-.26.25.25,0,0,1,.08-.18l1.8-1.8a.25.25,0,0,1,.36,0h0a.27.27,0,0,1,0,.36l-1.81,1.8A.25.25,0,0,1,1201.54,223.13Z"/><path class="cls-2" d="M1200.25,221.84a.26.26,0,0,1-.26-.25.27.27,0,0,1,.08-.19l1.8-1.8a.26.26,0,0,1,.36,0h0a.25.25,0,0,1,0,.36l-1.81,1.81A.29.29,0,0,1,1200.25,221.84Z"/><path class="cls-2" d="M1201.54,223.13h-1.29a.26.26,0,0,1-.28-.23.27.27,0,0,1,.23-.29h1.34a.27.27,0,0,1,.23.29A.26.26,0,0,1,1201.54,223.13Z"/><path class="cls-2" d="M1203.34,221.32h-1.27a.25.25,0,0,1-.26-.25.26.26,0,0,1,.26-.26h1.29a.26.26,0,0,1,.25.26.25.25,0,0,1-.25.25h0Z"/><path class="cls-2" d="M1202.07,221.32a.25.25,0,0,1-.26-.25h0v-1.29a.25.25,0,0,1,.28-.23.27.27,0,0,1,.24.23v1.29a.26.26,0,0,1-.26.25Z"/><path class="cls-2" d="M1200.25,223.13a.26.26,0,0,1-.26-.26v-1.29a.26.26,0,0,1,.52-.05v1.35A.26.26,0,0,1,1200.25,223.13Z"/><g class="cls-18"><text class="cls-31" transform="translate(1085.78 230.86) scale(0.87 1)">Go </text><text class="cls-32" transform="translate(1100.03 230.86) scale(0.87 1)">T</text><text class="cls-31" transform="translate(1104.42 230.86) scale(0.87 1)">o Ma</text><text class="cls-33" transform="translate(1125.29 230.86) scale(0.87 1)">r</text><text class="cls-34" transform="translate(1128.62 230.86) scale(0.87 1)">k</text><text class="cls-31" transform="translate(1133.52 230.86) scale(0.87 1)">et St</text><text class="cls-33" transform="translate(1153.03 230.86) scale(0.87 1)">r</text><text class="cls-31" transform="translate(1156.36 230.86) scale(0.87 1)">a</text><text class="cls-34" transform="translate(1161.39 230.86) scale(0.87 1)">t</text><text class="cls-31" transform="translate(1164.67 230.86) scale(0.87 1)">egy</text></g><g class="cls-18"><text class="cls-31" transform="translate(1083.98 357.08) scale(0.87 1)">Sales Sta</text><text class="cls-34" transform="translate(1121.77 357.08) scale(0.87 1)">t</text><text class="cls-31" transform="translate(1125.04 357.08) scale(0.87 1)">egy</text></g><polyline class="cls-23" points="919.39 308.72 1102.17 308.75 1102.17 342.04"/><polyline class="cls-23" points="919.3 267.15 1142.44 267.19 1142.44 240.82"/><line class="cls-23" x1="842.35" y1="73.39" x2="911.03" y2="72.84"/><line class="cls-23" x1="842.49" y1="242.61" x2="911.17" y2="242.06"/><path class="cls-14" d="M804.4,319.36l.88-.12a6.5,6.5,0,0,0,1.7,4.67c1.88,2.11,3.81,2.16,4.75,1.12,2.79-3.07-4.31-7.49-.48-10.83,1.45-1.27,3.72-1.28,5.81,1.05a6.89,6.89,0,0,1,1.69,3.69l-.83.31a6.29,6.29,0,0,0-1.52-3.4c-1.66-1.85-3.48-1.93-4.51-.93-3.07,3,3.93,7.36.59,10.8-1.33,1.38-3.8,1.43-6.15-1.2A7.05,7.05,0,0,1,804.4,319.36Z"/><path class="cls-14" d="M816.36,333.62a3.16,3.16,0,0,1-2.08-.94,2.55,2.55,0,0,1-.08-4l4.78-4.84-1.28-1.28.62-.6c.5.52.76.77,1.27,1.27l1.6-1.62.65.64-1.59,1.63c.89.87,1.34,1.3,2.25,2.14l-.58.63c-.92-.85-1.38-1.28-2.27-2.15-1.87,1.93-2.8,2.89-4.68,4.81a1.78,1.78,0,0,0,0,2.84,2.36,2.36,0,0,0,1.58.69A7.81,7.81,0,0,1,816.36,333.62Z"/><path class="cls-14" d="M828.45,331l-.61.76c-.06,0-.11-.11-.17-.16-1.68-1.37-3.66-1.06-5.34.89l-3.55,4.11L818,336l6.87-7.84.67.59-1.49,1.72A3.81,3.81,0,0,1,828.45,331Z"/><path class="cls-14" d="M833.9,340l-3.75,5.44-.79-.55,1.06-1.53a3.91,3.91,0,0,1-4.19-.63c-1.89-1.41-2.27-3.25-1.17-4.65,1-1.23,2.55-1.66,4.8,0,1.1.83,1.67,1.23,2.8,2l.48-.69a2.69,2.69,0,0,0-.65-4.14,5.09,5.09,0,0,0-3.5-1c0-.35,0-.52.08-.86a5.94,5.94,0,0,1,4,1.19C835,336,835.37,337.86,833.9,340Zm-2.81,2.34,1.12-1.6c-1.13-.79-1.69-1.2-2.8-2-1.68-1.25-2.81-1-3.54-.06s-.52,2.4,1,3.5A3.48,3.48,0,0,0,831.09,342.33Z"/><path class="cls-14" d="M838.39,349.9a3.1,3.1,0,0,1-2.22-.47,2.56,2.56,0,0,1-.9-3.91l3.68-5.73c-.61-.39-.91-.58-1.51-1l.48-.72c.59.4.89.59,1.49,1l1.23-1.93.77.49-1.21,1.93c1,.65,1.56,1,2.62,1.61l-.43.74c-1.07-.64-1.6-1-2.65-1.63L836.15,346a1.78,1.78,0,0,0,.55,2.78,2.4,2.4,0,0,0,1.69.34Z"/><path class="cls-14" d="M850.2,351.31c-2.62-1.24-5.21-2.59-7.72-4a4.33,4.33,0,0,0,5.48,5.94c.09.34.13.5.23.84a4.89,4.89,0,0,1-4.3-.27,5.12,5.12,0,0,1-2.3-6.87l.18-.33c1.35-2.32,4.21-3.66,6.71-2.35a5.07,5.07,0,0,1,1.87,6.82Zm-7.33-4.7c2.23,1.27,4.52,2.48,6.83,3.58a3.86,3.86,0,0,0-6.83-3.58Z"/><path class="cls-14" d="M863.31,350.93q-1.59,4.38-3.2,8.74c-.89,3.05-3.91,4.09-6.68,2.85a7.34,7.34,0,0,1-3.88-3.48l.82-.47a6.21,6.21,0,0,0,3.39,3.11c2.67,1.1,4.39.35,5.36-2.25l.62-1.65a4.72,4.72,0,0,1-4.91.62A4.93,4.93,0,0,1,852,352c0-.11.08-.21.13-.32a5.07,5.07,0,0,1,6.55-2.65,4.6,4.6,0,0,1,2.95,3.78c.33-.88.5-1.32.83-2.21Zm-2.6,4.35a4.14,4.14,0,0,0-7.66-3.16,4.14,4.14,0,1,0,7.66,3.16Z"/><path class="cls-14" d="M874.6,354.45c-2.63,3.43-5.41,6.74-8.29,10-1.38,1.59-2.62,1.85-4,1.38a3.47,3.47,0,0,1-2.09-1.7l.74-.55a2.69,2.69,0,0,0,1.64,1.42c.95.31,1.79.12,2.83-1l.92-1q-.75-5.62-1.13-11.31l.94.32c.24,3.38.58,6.76,1,10.12q3.34-3.82,6.47-7.85Z"/></g></g></g></g></svg>