<svg xmlns="http://www.w3.org/2000/svg" viewBox="0 0 877.6 973.2"><defs><style>.cls-1{fill:#fceed4;}.cls-2{fill:#193f19;}.cls-3{fill:#b59b79;}.cls-4{fill:#edb88c;}.cls-10,.cls-5{fill:#f4c5a2;}.cls-5{opacity:0.35;}.cls-6{fill:#b5743a;opacity:0.4;}.cls-7{fill:#e2a674;}.cls-10,.cls-14,.cls-7,.cls-8,.cls-9{opacity:0.5;}.cls-15,.cls-8{fill:#3a2110;}.cls-16,.cls-20,.cls-9{fill:#452812;}.cls-11{fill:#c75642;}.cls-12{fill:#b74b3d;}.cls-13{fill:#d35f53;}.cls-14{fill:#ef9d6f;}.cls-16{opacity:0.8;}.cls-17{fill:#94af94;}.cls-18{fill:#728c72;}.cls-19{fill:#3f2513;}</style></defs><g id="Layer_2" data-name="Layer 2"><g id="Layer_9" data-name="Layer 9"><path class="cls-1" d="M789.4,617.07A92.06,92.06,0,0,1,802,663.7a93,93,0,0,1-1.15,14.64c0,.26-.08.52-.13.77a82.37,82.37,0,0,1-3.6,13.23h0q-2,4.67-4.06,9.25a.37.37,0,0,0,0,.11c-1.3,2.77-2.58,5.55-3.9,8.31-.59,1.25-1.19,2.5-1.81,3.74q-8.35,16.9-18.17,32.91-4.71,7.71-9.77,15.2-5.68,8.45-11.77,16.58c-3.15,4.23-6.4,8.39-9.71,12.49q-3.66,4.53-7.46,9-4.77,5.6-9.76,11c-.36.4-.73.79-1.09,1.18a416.33,416.33,0,0,1-74.9,63.82q-11.74,7.82-24,14.83c-5,2.89-10.13,5.65-15.28,8.32-.81.43-1.63.84-2.44,1.25a412.15,412.15,0,0,1-66.95,27c-3.11.94-6.23,1.86-9.38,2.73A415.1,415.1,0,0,1,0,530.2c0-229.19,185.8-415,415-415a417.71,417.71,0,0,1,60,4.31c151.21,21.88,276,125.31,328.43,264.24-24,24-46.3,50.95-53.31,95.11-8.3,52.29,10.45,93.07,34.52,130.85Q787,613.42,789.4,617.07Z"/><circle class="cls-2" cx="12.68" cy="201.71" r="11.68"/><circle class="cls-2" cx="77.56" cy="201.71" r="11.68"/><circle class="cls-2" cx="142.44" cy="201.71" r="11.68"/><circle class="cls-2" cx="207.32" cy="201.71" r="11.68"/><circle class="cls-2" cx="12.68" cy="253.62" r="11.68"/><circle class="cls-2" cx="77.56" cy="253.62" r="11.68"/><circle class="cls-2" cx="142.44" cy="253.62" r="11.68"/><circle class="cls-2" cx="207.32" cy="253.62" r="11.68"/><circle class="cls-2" cx="12.68" cy="305.52" r="11.68"/><circle class="cls-2" cx="77.56" cy="305.52" r="11.68"/><circle class="cls-2" cx="142.44" cy="305.52" r="11.68"/><circle class="cls-2" cx="207.32" cy="305.52" r="11.68"/><path class="cls-3" d="M877.17,265.06c-4.41,58.46-40.73,85.74-73.76,118.69-24,24-46.3,50.95-53.31,95.11-8.3,52.29,10.45,93.07,34.52,130.85q2.36,3.7,4.78,7.36c11.33,17.16,15.13,40.37,11.45,61.27,0,.26-.08.52-.13.77a82.37,82.37,0,0,1-3.6,13.23h0q-1.22,3.28-2.7,6.38c-.46.95-.91,1.91-1.36,2.87a.37.37,0,0,0,0,.11c-1.3,2.77-2.58,5.55-3.9,8.31-.59,1.25-1.19,2.5-1.81,3.74q-8.35,16.9-18.17,32.91-4.71,7.71-9.77,15.2-5.68,8.45-11.77,16.58c-3.15,4.23-6.4,8.39-9.71,12.49q-3.66,4.53-7.46,9-4.77,5.6-9.76,11c-.36.4-.73.79-1.09,1.18a416.33,416.33,0,0,1-74.9,63.82q-11.74,7.82-24,14.83c-5,2.89-10.13,5.65-15.28,8.32-.81.43-1.63.84-2.44,1.25a412.15,412.15,0,0,1-66.95,27c-76.61-88-75.66-284.4-75.38-304.11C463.35,432,557.4,369.12,515.66,216.11c-11.21-41.11-27.6-71.73-40.68-96.6C457.9,87,446.44,64.35,459.49,41c29.78-53.4,153.85-50.74,239.58-14.09C791.53,66.39,884.74,164.86,877.17,265.06Z"/></g><g id="Layer_3" data-name="Layer 3"><path class="cls-4" d="M421.59,265.89c-23.84-.21-41.45,1.29-56.82,9.06S341,298,324.42,328.47C314.11,347.4,312,357.66,311.25,361.4c-1.73,9.31-.65,12.17-3.29,22.24-2.35,8.93-4.75,12.62-10.71,26.35,0,0-3.74,8.62-9.88,24.7-15.26,40,1.84,95.72,4.12,102.93a170.24,170.24,0,0,0,17.29,37.87c8.6,14,13.13,21.35,22.23,26.35,9.67,5.31,21.95,4.16,46.11,1.65,21.26-2.21,32.07-3.34,46.94-8.24A159.58,159.58,0,0,0,467.7,573c37.68-27.8,50.62-69.47,54.34-81.52,31.5-101.87-40.16-219.61-83.16-224.79C436.15,266.38,429,266,421.59,265.89Z"/><path class="cls-4" d="M344.19,596.9c6.17,7.81,14,20.2,15.64,36.23,2,19.17-6.27,30.37-8.23,41.17-7.47,41.17,68.37,120,122.69,101.28,51.88-17.84,66.54-118.58,36.23-153.15-7.68-8.75-18.76-13.87-25.53-29.65-8.51-19.84-3.52-41,1.65-55.16Z"/></g><g id="Layer_7" data-name="Layer 7"><path class="cls-5" d="M303.84,424c1.15-.35,3.22-.62,9.88,3.3,5.84,3.44,11.33,6.67,10.7,9.06s-6.51,2.68-9.88,2.47c-6.91-.45-15.63-4.33-15.64-9.06C298.89,427.23,301.36,424.75,303.84,424Z"/><path class="cls-5" d="M424.88,476.68c-1.07-4.62-2.35-10.13-.82-15.64,3.9-14,23.62-19.51,34.58-20.59,2.22-.22,21.46-2.1,24.7,5.77,2.15,5.2-3.81,12-11.52,20.58-5.58,6.21-28.33,31.53-39.53,25.53C428,490,426.5,483.66,424.88,476.68Z"/><path class="cls-6" d="M517.93,660.3c-3.26,18.79-10.86,41.63-17.3,41.17s-2.55-22.72-18.11-42-32.08-13.06-43.64-28.82c-4.16-5.67-6.79-13-8-20.8a61.64,61.64,0,0,0,11.66-7.61,69.78,69.78,0,0,0,18.71-24.79c2.13-1.38,4.28-2.87,6.41-4.44A129.77,129.77,0,0,0,483,559.78a82.93,82.93,0,0,1,25.08,21.48C527.29,606.41,521.85,637.73,517.93,660.3Z"/><path class="cls-7" d="M322,493.15a44.19,44.19,0,0,1,8.24,21.41c1.1,12.48-4.49,18.84-9.88,35.41-8.43,25.87-3.8,38-9.06,39.52-8.1,2.34-30.65-23.09-28-50.23C285.2,519.42,300.3,501.86,322,493.15Z"/><path class="cls-7" d="M402.65,524.44c-.25-1.36,2.09-3.47,4.12-3.29.91.08,1.11.57,4.11,3.29,2.26,2,2.71,2.27,3.3,3.29.85,1.48,1.46,3.69.82,4.12-.83.56-2.65-2.64-7.41-4.94C404.6,525.47,402.85,525.54,402.65,524.44Z"/><path class="cls-6" d="M406.77,524.44a1.47,1.47,0,0,1,.82-.82,2,2,0,0,1,2.47.82,1.58,1.58,0,0,1,0,1.65c-.7.82-2.92.21-3.29-.83A1.21,1.21,0,0,1,406.77,524.44Z"/><path class="cls-7" d="M371,389c-.63,6.23-2.3,9.55-5.68,14.94h0c-3.21,5.14-8,12.17-14.9,25.41-4.88,9.36-6.43,13.4-11.53,18.11-2.7,2.5-5,3.86-6.58,7.41-.27.57-3.83,8.72.82,14.82a12.61,12.61,0,0,0,5.76,4.12,9,9,0,0,1-5.76-.82c-4.48-2.44-4.86-8.55-4.94-9.88-.41-6.75,4-11.38,9.06-18.12,4.58-6.08,9.1-14.21,18.11-30.47,1.24-2.22,2.34-4.22,3.34-6,.42-.31.81-.63,1.19-1,11.12-9.53,10.85-25.9,10.2-32.7a6.29,6.29,0,0,1,.32.7A47.31,47.31,0,0,1,371,389Z"/><path class="cls-7" d="M408.41,386.93c-5.14-1.31-21.06,18.79-23.05,22.23-4.09,7.07-11.06,19.1-7.41,31.29,1.95,6.54,7.1,13.66,11.52,19.76,3.88,5.36,6.46,8,5.77,11.53-.8,4.14-5.69,7.93-10.71,8.24a11.52,11.52,0,0,1-4.94-.83,12.55,12.55,0,0,0,6.59,3.3c5.88.86,10.93-3.23,13.18-6.59,5.44-8.14-1.87-19.88-3.3-22.23-4.68-7.72-8.4-6.66-9.47-11.12-2.49-10.38,17.36-17.26,18.12-33.76C405,402.93,411.92,387.82,408.41,386.93Z"/><path class="cls-8" d="M360.65,465.15c.06-1.1,4.77-2.57,9.06-1.64.67.14,6.85,1.57,8.24,6.59a8.15,8.15,0,0,1,0,4.11c-4.19-1.29-5.66-3-6.18-4.53s0-2.28-.82-3.29a5.65,5.65,0,0,0-6.59-.82,3.12,3.12,0,0,1-1.65.82C361.75,466.43,360.62,465.71,360.65,465.15Z"/><path class="cls-8" d="M347.89,465.57c.23-.64-.65-1.2-2.47-3.3-2-2.35-2.4-3.36-3.29-3.29s-1.43,1-1.65,1.65c-.61,1.84,1.19,3.65,1.65,4.11a5,5,0,0,0,3.29,1.65C346.12,466.42,347.63,466.31,347.89,465.57Z"/><path class="cls-9" d="M334.72,442.51c-.4.28-.24,1.15,0,1.65.07.15.39.83.82.82s1.07-.91.82-1.65S335.13,442.22,334.72,442.51Z"/><path class="cls-5" d="M363.12,446.22c-3.7-2-9.33-2.43-10.7,0-1,1.82.55,4.93,2.47,6.58,4.3,3.7,12.41,1.87,13.18-.82C368.63,450,365.27,447.36,363.12,446.22Z"/><path class="cls-10" d="M354.07,476.68c-.94,0-.47,4.52-3.3,9.88-2.14,4.08-4.67,5.78-4.11,6.59s3.65.1,5.76-1.65c3.42-2.82,3.32-7.61,3.29-9.05C355.66,479.77,354.84,476.68,354.07,476.68Z"/><path class="cls-7" d="M346.66,474.21c.16.51,5.68-2.35,13.17-.82,4.43.9,7.18,2.86,7.41,2.47s-3-3.84-7.41-4.94C353.05,469.24,346.48,473.65,346.66,474.21Z"/><path class="cls-7" d="M354.89,491.5c-2.16,3.25-3.52,3.72-3.29,4.94.53,2.84,8.64,5,10.7,2.47.74-.88.18-1.72-1.65-9.88-.78-3.51-1-4.88-1.64-4.94C358,484,357.75,487.21,354.89,491.5Z"/><path class="cls-11" d="M409.24,524.44a108.35,108.35,0,0,1-23.06,9.06c-8.77,2.33-17,4.51-28,3.29-10.58-1.17-18.31-2.32-28-7.41-4.53-2.38-6.84-6.93-9.06-10.7a19.9,19.9,0,0,1-2.47-11.5v0l0,0c12.27-8.93,19.05-9.06,23-7.37,2.42,1,4.49,3,9,4.12,4.78,1.12,8,.19,10.71,0,12.71-.94,17.89,13.75,36.23,18.93a43.28,43.28,0,0,0,9.38,1.58l1.52.06Z"/><path class="cls-5" d="M331.84,552.44c5.93-.06,5.93,13.4,15.64,18.11,9.24,4.48,17.57-3.66,23.88,1.65,3.64,3.06,5,9.22,3.29,13.17-4.45,10.51-29,17.35-42.81,5.77-8.94-7.53-11.91-21.73-7.42-31.29C325.07,558.47,327.89,552.48,331.84,552.44Z"/><path class="cls-7" d="M526.54,473.49a166.89,166.89,0,0,1-4.5,18c-3.72,12.05-16.66,53.72-54.34,81.52-2.13,1.57-4.28,3.06-6.41,4.44a163.14,163.14,0,0,1-37.23,17.79c-14.87,4.9-25.68,6-46.94,8.24-11.1,1.16-19.68,2-26.67,2.1h-.32a2.19,2.19,0,0,1,.47-.26,33.11,33.11,0,0,1,5.86-1.24C372.34,601.59,414,597,443.77,576a90,90,0,0,0,9.57-7.75,78.23,78.23,0,0,0,7.77-8.39c18-22.62,25.15-53.41,28.82-69.17,8.05-34.55,3.94-53.05,9.88-54.34S519.69,451.56,526.54,473.49Z"/><path class="cls-12" d="M408.61,524.43a47.11,47.11,0,0,1-7.2,1.25c-5.58.45-10-.73-16.46-2.47-6.09-1.63-5.67-2.21-10.71-3.3a87.55,87.55,0,0,0-13.17-1.65c-7.22-.45-7.72.21-10.71-.82s-4.17-2.31-8.23-3.29a48.08,48.08,0,0,0-5.77-.83c-6.14-.67-7-.36-9.05-.82a16.76,16.76,0,0,1-8.65-5.32v0l0,0a24.23,24.23,0,0,0,9.42,4.57c4,.9,5.79.18,10.7.82,5.7.75,5.35,2,11.53,3.29,6.89,1.45,8.44.14,17.29,1.65,2,.33,3.77.78,7.41,1.65,15.77,3.79,17.35,5.48,23.88,5.76a51.08,51.08,0,0,0,8.15-.48Z"/><path class="cls-13" d="M350.36,505.91c.5-.46,1.86-.06,2.47.83s.55,2.14,0,2.47-2-.52-2.47-1.65C350.34,507.5,349.88,506.37,350.36,505.91Z"/><path class="cls-13" d="M361.89,505.09c.07-.32,1.86-.25,3.29,0,1.22.21,4.68.8,4.94,2.47a1.61,1.61,0,0,1-.82,1.65c-.89.34-1.65-1-4.12-2.47C363.22,505.6,361.83,505.37,361.89,505.09Z"/><path class="cls-13" d="M355.3,529.79c.15-.64,4,1.05,8.24-.82,2.64-1.17,3.8-3,4.94-2.47.9.42,1.29,2.11.82,3.29-1.09,2.78-6.75,2.51-7.41,2.47C358.29,532.05,355.17,530.37,355.3,529.79Z"/><path class="cls-14" d="M356.46,604.1c-2.16.62-4.33,1.25-6.51,1.86C349.79,605.3,352.2,604.77,356.46,604.1Z"/><path class="cls-7" d="M461.29,577.46a69.78,69.78,0,0,1-18.71,24.79c-25.87,21.35-56.52,12-65.05,29.65-3.48,7.23.86,10.41,5,34.58,3.54,21,6.62,56.25,0,58.46-8,2.69-31-42.35-37.47-77-1.49-8-7.19-20.27,5.43-42.35,7-.09,15.58-1,26.68-2.11,21.26-2.21,32.07-3.34,46.94-8.24A163.14,163.14,0,0,0,461.29,577.46Z"/><path class="cls-6" d="M528.06,464.29a171.6,171.6,0,0,1-6,27.21c-3.62,11.73-16,51.51-51.36,79.25,5.23-8.84,21.23-29.17,26.66-59.48,5.7-31.8-.74-63.29,9.06-68.35C513.06,439.48,521.9,455.41,528.06,464.29Z"/><path class="cls-5" d="M375.48,286.47c5.89-2.6,11.23-3.69,21.4-5.76,12.1-2.46,13.47-1.42,14-.82,3.9,4.36-3.29,22.13-15.64,26.35-6.32,2.15-8.58-1.08-18.94-.83-17.08.42-26.36,9.59-28,7.41C346.3,310.16,358.33,294.06,375.48,286.47Z"/><path class="cls-7" d="M391.94,263.42c1,3.61-11.85,8.81-23.87,17.29-18.34,12.93-27.71,28.58-36.23,42.82-10.45,17.44-13,29.11-21.41,56.81-13.74,45-23.49,51.7-26.35,77.4a224.13,224.13,0,0,0-.83,33.76c1.14,29.94,6.89,51,6.59,51.06s-10.5-25.69-11.53-60.11C278,471.09,278.57,457,298.08,382c12.22-47,15.51-55,19.76-63.4,5.29-10.45,27.74-54.74,60.11-57.64C382.6,260.53,391.15,260.64,391.94,263.42Z"/><path class="cls-6" d="M434.76,256.83c-1.44,1.14,3.42,8.63,9.88,22.23,6.93,14.58,10.66,25.92,18.12,48.58,9,27.49,13.64,41.5,17.29,61.76,4.84,26.92,3.2,38.27,13.17,53.52,7,10.72,15.88,21.55,22.24,25.53,8.16-97.83-22.76-151.17-38.7-171.27C464,281.07,437.7,254.51,434.76,256.83Z"/><path class="cls-7" d="M422.82,517.44a12.62,12.62,0,0,0,0,8.24c1.3,3.33,3.5,3.64,4.12,6.58.88,4.22-2.95,6.87-1.65,9.06,1.08,1.81,5.09,2.4,7.41.82,5.54-3.77,3.82-21.6-4.11-24.7A8.91,8.91,0,0,0,422.82,517.44Z"/></g><g id="Layer_6" data-name="Layer 6"><path class="cls-15" d="M485.4,409.57a19.61,19.61,0,0,1-12.35,0c-4.51-1.66-6.13-4.61-9.06-7.41a26.07,26.07,0,0,0-5.66-4.07.39.39,0,0,0-.11-.06c-3.7-1.22-2.87-1.22-7.81-2-.39-.07-8.11-1.23-8.5-1.25a41.34,41.34,0,0,0-10,.84,34,34,0,0,0-17.29,8.23c4-3.8,10.29-9.47,18.53-11.12a66.91,66.91,0,0,1,10.51-.6l.77.05c3.64.26,8.27.44,12.59,2.2.25.1,1.4.72,1.65.82a31.24,31.24,0,0,1,7.41,4.95c3.1,2.62,4.94,6.85,11.12,8.64A23.13,23.13,0,0,0,485.4,409.57Z"/><path class="cls-15" d="M459.46,403a11.12,11.12,0,1,1-15.83-10.07l.77.05a40.18,40.18,0,0,1,12.36,2.75,10.84,10.84,0,0,1,1.57,2.37A11.13,11.13,0,0,1,459.46,403Z"/><path class="cls-15" d="M356.47,396.59c-.25-.62-1.12-1.61-2.4-3.9a20.39,20.39,0,0,0-3.3-4.11c-4.06-3.67-6.84-4.47-11.52-4.94a74.17,74.17,0,0,0-9.06,0c-3.62.21-10.71,1.64-14,4.11a10.67,10.67,0,0,1-3.29,1.65,7.07,7.07,0,0,1-4.12,0,8.13,8.13,0,0,0,4.12-.82c2-1,1.64-1.65,3.29-3.3,5.37-5.36,18-4.58,22.23-4.11.05,0,0,0,0,0,6.1.71,10.29,2.34,13.18,4.94.23.19-.23-.22,0,0C355.32,389.71,356.23,395.58,356.47,396.59Z"/><path class="cls-15" d="M356.54,396.8s0-.09-.07-.19A.63.63,0,0,1,356.54,396.8Z"/><path class="cls-15" d="M351.6,390.64A9.44,9.44,0,1,1,338.29,382l.13,0c6.1.72,9.62,2.55,12.51,5.15a10.25,10.25,0,0,1,.43,1.36A10,10,0,0,1,351.6,390.64Z"/><path class="cls-16" d="M404.3,366.35a18.55,18.55,0,0,0,.82,5.76c.53,1.82.85,2.82,1.65,3.29,2.14,1.27,6.4-2.46,7.41-3.29,11.16-9.17,38-4.4,39.52-4.12a69.85,69.85,0,0,1,30.47,14q-2.48-8.24-4.94-16.47A93.44,93.44,0,0,0,457,358.11C429.6,352.7,404.88,360.86,404.3,366.35Z"/><path class="cls-16" d="M369.71,370.46c1-.9.92-3.76.83-4.94a12.06,12.06,0,0,0-.83-3.29c-1.16-2.75-9-10-22.23-12.35-16.5-2.88-30.65,3.8-37.05,7.41-.28,3.29-.55,6.59-.83,9.88a70.44,70.44,0,0,1,7.83-3.71c5.58-2.23,16.08-6.43,26.34-4.94C358,360.59,367.15,372.9,369.71,370.46Z"/></g><g id="Layer_5" data-name="Layer 5"><path class="cls-17" d="M747.59,778.45C671.92,879.68,551.11,945.2,415,945.2A413.58,413.58,0,0,1,135.9,837.35c.91-11.13,2-17.32,3.26-20.6.75-2,3.67-8.79,1.82-14.34a10.07,10.07,0,0,0-.67-1.55,6.65,6.65,0,0,0-.33-.58c-2.07-3.27-2.07-4-3.29-8.23a12.3,12.3,0,0,1,.82-8.23c2.37-5.43,4.19-7.46,6.59-9.06a10.1,10.1,0,0,0,2.16-2,12.07,12.07,0,0,0,1.66-2.63c3.42-7.39,1.37-19.94,1.94-34.12,1.19-29.66,13.6-61.1,26.35-65a20,20,0,0,0,6.13-2.65,10.83,10.83,0,0,0,1.36-1.11,9.92,9.92,0,0,0,1.57-2c1.08-1.84,2.33-2.29,3.33-3.08a4,4,0,0,0,1.06-1.22,5.44,5.44,0,0,0,.55-1.46c1.55-6.6,8.07-12,11.53-14,10-5.79,14.84-3.59,20.5-6.22a17,17,0,0,0,3.57-2.31c.21-.16.41-.34.63-.53,5.16-4.54,5.73-6.16,10.7-9.88,7.83-5.83,17.73-3.91,22.24-2.47,12.64,4,47.17,4.7,81.51,0,5.91,11.2,9.48,58.71,25.53,76.58,16.28,18.12,43.88,45.86,81.52,33.76,23.27-7.48,44.43-41.5,48.58-51.87C511,646.17,494.93,627.4,508.05,615c18.81-17.77,55.37,17.64,123.51,23.87,6.84.63,30.65,4.26,57.64,17.3,8.65,4.18,13,6.27,17.29,9.88a56.69,56.69,0,0,1,8.25,8.55q1.6,2,3,4.17c8.87,13.31,12.41,28.51,18.22,38.53q.51.87,1,1.68a27,27,0,0,0,1.58,2.24,19.85,19.85,0,0,1,4.12,17.29s0,.05,0,.07c-.11.58-.2,1.18-.26,1.81C741.47,749.31,745.37,763.16,747.59,778.45Z"/></g><g id="Layer_8" data-name="Layer 8"><path class="cls-18" d="M249.49,681.71a32.8,32.8,0,0,0-9.88-7.41c-4-1.91-7-2.33-18.94-3.29-16.66-1.35-21.51-1.41-27.17-4.94a27.47,27.47,0,0,1-4.9-3.91,4,4,0,0,0,1.06-1.22,42.81,42.81,0,0,0,9.61,5.13c17.81,6.71,31.47-2.44,42.81,5.76A22.11,22.11,0,0,1,249.49,681.71Z"/><path class="cls-18" d="M210.79,684.18a21.3,21.3,0,0,0-6.58-5.76c-5.18-2.87-8.76-1.8-14-4.12a22.54,22.54,0,0,1-7.87-5.94,10.83,10.83,0,0,0,1.36-1.11,24.36,24.36,0,0,0,3.21,3.76c7,6.38,15.62,2.5,21.41,9.06A13.45,13.45,0,0,1,210.79,684.18Z"/><path class="cls-18" d="M197.62,783a70.48,70.48,0,0,1-17.29-2.47c-11.59-3.18-16.35-7.79-26.35-8.23a34.62,34.62,0,0,0-7.72.52,12.07,12.07,0,0,0,1.66-2.63,26.43,26.43,0,0,1,3.59-.36c3.11-.11,5.69.32,17.29,4.11,8.41,2.75,10.93,3.79,17.29,5.77C190.94,781.21,195,782.3,197.62,783Z"/><path class="cls-18" d="M182.8,802.75a36.7,36.7,0,0,0-8.24-3.29c-2.87-.76-7.09-1.49-14.82-.82A86.73,86.73,0,0,0,141,802.41a10.07,10.07,0,0,0-.67-1.55c1.58-.44,3.41-.92,5.43-1.4,11.51-2.69,19.53-4.46,28-1.65A30,30,0,0,1,182.8,802.75Z"/><path class="cls-18" d="M257.73,904.86a304.53,304.53,0,0,1-6.59-52.7c-1.12-31.13,2.86-56,8.24-89.75,2.7-16.95,5.43-30.88,7.41-40.35-2,6.21-4.74,15.27-7.41,26.35a400.82,400.82,0,0,0-9.89,66.7,331.37,331.37,0,0,0-.82,38.7,300.28,300.28,0,0,0,6.59,51.05Z"/><path class="cls-18" d="M261.85,667.71c-3.84-6-13.87-19.86-32.12-26.34a56.14,56.14,0,0,0-7.49-2.11,17,17,0,0,0,3.57-2.31,51.19,51.19,0,0,1,16.27,6.89A52.07,52.07,0,0,1,261.85,667.71Z"/><path class="cls-18" d="M717.75,678.79c-10.44,5.61-18.9,6.64-25.26,6.22-9.43-.63-19.11-4.76-30.47,0a32.35,32.35,0,0,0-9.88,6.58,14,14,0,0,1,2.47-4.94c6.24-7.83,20.14-6.13,25.53-5.76,8.26.57,19.62-.36,34.6-6.27Q716.34,676.66,717.75,678.79Z"/><path class="cls-18" d="M737,719c-.56.18-1.14.37-1.71.59-2.68,1-3.75,2-8.24,4.94-6.84,4.5-10.26,6.75-13.17,7.41-2.58.59-6.7.83-12.35-1.65,11.23,1.35,17.19-1.31,20.58-4.11,2.84-2.36,4.52-5.34,9.06-7.41a18.68,18.68,0,0,1,4.78-1.45Q736.48,718.19,737,719Z"/><path class="cls-18" d="M742.7,738.6c-.11.58-.2,1.18-.26,1.81a22.78,22.78,0,0,0-7.13-1.88,29.28,29.28,0,0,0-9.06.82,46.89,46.89,0,0,0-8.23,2.47,21.14,21.14,0,0,1,24.68-3.22Z"/><path class="cls-18" d="M720.66,810.91c-.36.4-.73.79-1.09,1.18a15.84,15.84,0,0,0-4-1.1c-5.52-.82-10.94.62-14.83,1.65a52.82,52.82,0,0,0-9.05,3.29c9.9-7.58,17.54-7.82,21.41-7.41A21.18,21.18,0,0,1,720.66,810.91Z"/><path class="cls-18" d="M605.36,899.06c-.81.43-1.63.84-2.44,1.25-.34-5.82-.69-10.92-1-15.21-.79-10.91-1.68-20.51-2.51-29.31q-.25-2.55-.48-5c-2.29-24.46-3.85-43.24-1.12-68.61,1.23-11.53,3-20.78,4.11-26.35V818.4c.06,9.6.31,16.62.65,22.55.15,2.59.31,5,.47,7.27.8,10.5,1.77,19.41,2.18,38.52Q605.34,893.1,605.36,899.06Z"/><path class="cls-18" d="M469.35,811.81A74.12,74.12,0,0,0,461.11,834c-4.59,23.48,3.65,42.69,7.41,50.23a108.41,108.41,0,0,1,.83-72.46Z"/><path class="cls-18" d="M410.06,782.17a34.64,34.64,0,0,1,17.29,38.7q-2.06-10.29-4.12-20.59Z"/><path class="cls-18" d="M268.43,857.92a78.53,78.53,0,0,0,42.82,52.7,57.63,57.63,0,0,1-42.82-52.7Z"/><path class="cls-18" d="M605.21,829.93a90.66,90.66,0,0,1-56.82,69.16,70.15,70.15,0,0,0,25.53-11.52c11-8,16.74-17.24,21.41-24.71A112.67,112.67,0,0,0,606,840.63C605.76,837.06,605.48,833.49,605.21,829.93Z"/></g><g id="Layer_4" data-name="Layer 4"><path class="cls-15" d="M596.15,426.45c35.35,18.48,51.71,40,60.11,56,12.63,24,10.77,42.11,23.06,95.51,5.74,25,11.67,45,15.64,57.64l-15.64-24.7c-3.32-22.69-6.84-42.16-9.89-57.64-8.52-43.25-13.23-54.31-23-62.58-10.64-8.95-16.92-5.91-28-14.82C602.24,462.87,597.58,442,596.15,426.45Z"/><path class="cls-15" d="M516.28,595.25a127.73,127.73,0,0,0-10.7,51.88c.45,35.09,16.35,49.74,17.29,76.58.63,18.17-5.5,44.74-38.7,78.22A86.14,86.14,0,0,0,522,772.29c19.08-26.8,15.78-55.76,14.83-62.58,13,22.77,21.94,49.23,14.82,74.93-8.94,32.22-36.72,40.05-46.11,72.46-5.33,18.37-4.32,43.16,14,76.58-3.2-9.26-10.13-33.44-1.64-61.76,9.69-32.34,40.65-35.92,58.46-64.23,11.21-17.82,19.42-47.08,5.76-97.16,14.94,19.39,28.31,43.79,32.94,73.29,5.69,36.25-5.54,56.48-7.41,104.57a342.55,342.55,0,0,0,7.41,84.81c-2.31-45,7.92-75.5,17.29-94.69,19.07-39.07,41.31-45.09,44.47-77.4,2-20.52-5.81-39.48-21.41-77.4-15-36.52-22.63-40.28-23.06-58.47-.82-35.21,27-50.59,21.41-65C648.93,587.58,619.93,579,516.28,595.25Z"/><path class="cls-15" d="M769.13,746.67q-10,16.41-21.54,31.78-8.22,11-17.17,21.45c1.27-8.16,2.38-15.43,3.24-21.85,3.66-27.42-9.48-109.87-84-135.86-18.57-6.48-42.94,2.83-53.52,2.47-39.65-1.34-60-18.35-79.11-12.53a48.51,48.51,0,0,0-6.52-9.7c-7.68-8.76-18.76-13.87-25.53-29.65-4.43-10.31-5.2-21-4.19-30.84,27.69-26.75,38-59.9,41.24-70.44,16.13-52.16,5.22-108-15.06-150.88q5.61-36,10.95-69A608.73,608.73,0,0,1,592,380.34c17,32,18,40.69,47.76,105.4,30.26,65.85,45.39,98.78,62.58,124.34,44.89,66.72,53.41,69.52,64.23,112.8A89.65,89.65,0,0,1,769.13,746.67Z"/><path class="cls-19" d="M759.36,761.87q-5.68,8.45-11.77,16.58c-3.15,4.23-6.4,8.39-9.71,12.49-24.34-23.51-64.43-30.44-78.33-70.53-8.67-25,3.21-33-3.29-69.16-6.84-38-26.72-66.46-42.82-84.82a248.41,248.41,0,0,0,13.18,73.29c8.57,25,14.63,29.27,20.58,46.11,16,45.34-6.19,75.76-9.88,123.51-1.32,17.1-.5,39.43,7.35,66.57A265.56,265.56,0,0,0,668.61,932c-22-14.12-37.28-28.12-48-41.29-14.06-17.3-20.13-33.18-22.84-46-9.51-45,18-72.67,15.64-133.39-1.53-40-15.12-71.77-25.52-91.4-3.85,13.08-9.23,33-14,57.64-10,51.44-4.52,57.92-12.35,100.45-10.44,56.67-23.87,65.77-26.35,112a251.74,251.74,0,0,0,.76,37.25c.89,9.38,2.16,17.38,3.36,23.68a196.39,196.39,0,0,1-12.75-21c-10.41-19.88-17.56-42.87-16.07-68,2-34,18.12-41.84,26.35-86.46,8.4-45.59-6.47-48,0-98,6.42-49.74,26.24-87.1,37-107.05A350.76,350.76,0,0,1,611,515.38c59.71,46.86,78.24,90,84,121,5.54,29.91-1.09,47,13.17,74.94C722.87,740.25,743.72,749.11,759.36,761.87Z"/><path class="cls-20" d="M364.77,275.77c-11.45,6.05-21.08,21.05-40.35,52.7,0,0-9.54,15.86-12.85,31.35-.14.62-.24,1.15-.32,1.58-1.73,9.31-.65,12.17-3.29,22.24-2.35,8.93-4.75,12.62-10.71,26.35,0,0-3.74,8.63-9.88,24.7-15.26,40,1.84,95.72,4.12,102.93a170.24,170.24,0,0,0,17.29,37.87c6.18,10,10.24,16.67,15.41,21.45l0,0c.25.22.49.45.75.66s.53.46.79.67q.81.68,1.68,1.29l.62.43c.36.26.74.5,1.12.74l.88.54.95.54c5.19,2.85,11.13,3.84,19.25,3.76a65.78,65.78,0,0,1,9.57,27.53c2,19.17-6.27,30.37-8.23,41.17-2.74,15.1,5.74,35.28,20.24,53.84q-.4,4.49-.89,8.33a308.39,308.39,0,0,0-21.41,23.88A266.78,266.78,0,0,0,329.37,789c-9.85,16.07-17.41,32-26.77,50.45-9.59,19-24.71,48.62-44.46,86.45,7.57-53.72,1.57-94.18-5.76-121.86-6.2-23.42-13.15-36.92-17.3-68.34-3.7-28.15-7.31-58.51,8.24-86.46,10.29-18.51,18.19-15.15,27.17-33.76,10.55-21.85,9.33-41.52,6.59-77.4-6.6-86.43-7.91-82.39-7.41-96.34,1.6-44.66,14.79-77.77,23.05-98,9.15-22.38,32.54-79.61,67.52-91.4,6.53-2.2,13.67-2.89,32.94-9.05,11.41-3.66,18.22-6.4,28-5.77a48.84,48.84,0,0,1,19.76,5.77c13.28-1.54,36.05-2.22,60.11,8.23,42.15,18.3,61.14,58.47,68.34,75.75,13.5,32.4,5.32,48.54,25.53,87.28,4.56,8.75,13.63,24.52,28.82,54.35,6.71,13.18,10.07,19.78,10.7,21.41,18.21,46.66-2,94.94-3.29,98-8,18.34-12.92,17.65-23.06,42-9.6,23-14.39,34.59-10.7,45.29,7.32,21.23,40.88,30.42,74.1,39.52,18.56,5.08,21.47,4,28.82,9.06,22.66,15.62,28.07,48,20.59,70.81a57.75,57.75,0,0,1-5.77,12.35c6.81-24.36,1.07-48.4-14.82-60.93a45.1,45.1,0,0,0-23-9.06,74.12,74.12,0,0,1,9,7.41c1.45,1.4,28.4,28.12,23.06,62.58a60.87,60.87,0,0,1-3.29,12.35,75.75,75.75,0,0,0-3.3-32.11c-1.73-5.24-8.51-25.72-27.17-37-15.54-9.44-25.06-3.88-51.05-10.71a142.53,142.53,0,0,1-37.06-15.64,159.4,159.4,0,0,0,51.06,28.82C616.27,748.72,577.43,737.46,562,706c-6.64-13.52-6.46-28.5-6.59-58.46-.17-38.62,8-53.09,3.3-79.87-4.11-23.27-13.22-28.88-31.29-60.93-1.56-2.76-3.78-6.71-6.46-11.71-11.6-21.76-31.54-63.35-40.48-112.63-2-11.15-11.07-64.49-27.17-98-1.89-3.92-3.48-9.05-8.65-13.59-1.77-1.56-5.55-1.5-10.7-1.65a50.16,50.16,0,0,1-11.18-1.63C417.16,266.26,387.67,263.67,364.77,275.77Z"/><path class="cls-20" d="M269.26,791.23c-4.44,2.19,19.46,38.41,16.46,86.45a144.13,144.13,0,0,1-15.64,56,135,135,0,0,0,19.76-36.23c4.56-12.69,13.76-38.31,4.94-67.52C288,807.33,272.47,789.64,269.26,791.23Z"/><path class="cls-20" d="M306.31,819.22c6,4.62,4.26,15.41,3.29,21.41a49.05,49.05,0,0,1-7.41,18.94c1.66-11,.16-19.15-1.64-24.7-2.75-8.48-7.14-13.77-4.94-16.47C297.42,816.16,303,816.65,306.31,819.22Z"/><path class="cls-20" d="M336,733.59a88.53,88.53,0,0,0-14,51.87c2.89-8,5.69-16.84,8.24-26.35C332.59,750.13,334.47,741.58,336,733.59Z"/><path class="cls-20" d="M344.19,749.23c-1.35-.07-.79,8.83-5.77,23.88-5.26,15.92-10.71,20.58-11.53,32.94a47.42,47.42,0,0,0,1.65,15.64,49.87,49.87,0,0,1,3.3-22.23c4-10,8.72-11.44,12.35-20.58C349.82,764.65,346,749.32,344.19,749.23Z"/><path class="cls-20" d="M343.36,727.82c3.58-3.55,20.41,1.92,28,14,9.16,14.59-1.23,29.13,8.23,40.35,5.15,6.1,13.23,7.75,18.94,8.23-5.43,1.66-12.78,2.89-18.11-.82-7.67-5.34-2.78-15.05-10.71-26.35-7.08-10.1-14.9-7.93-22.23-19.76C344.87,739.25,340.64,730.54,343.36,727.82Z"/><path class="cls-20" d="M529.45,475c-8.14,4.18,13.61,39.64-1.64,66.69-6.3,11.17-13.4,11.12-16.47,21.41-4.61,15.41,6.27,32.34,16.47,44.47-5.8-7.77-12.69-19.74-10.71-32.94,2-13.61,11.6-15.84,21.41-33.76.83-1.51,20.18-37.83,4.94-57.64C539.79,478.51,533,473.22,529.45,475Z"/><path class="cls-20" d="M247.85,644.66c-4.85,3.51-22.66,17.26-28.82,42.82a75.13,75.13,0,0,0,4.11,46.93,71.14,71.14,0,0,1-2.47-27.17c2.94-27.62,21.69-44.74,27.18-49.41Z"/><path class="cls-20" d="M234.67,690.77a202.54,202.54,0,0,1-8.23,24.7c-7,17.13-12.28,23.49-14.82,30.47-4.1,11.25-3.13,30.06,22.23,62.58-4.53-5.5-17.13-22.25-17.29-46.11-.12-18.11,7-31.67,9.88-37.06a83.16,83.16,0,0,1,14-18.94Z"/><path class="cls-20" d="M239.61,730.29c-4.22,7.86-9.21,20.05-8.23,34.59,1.05,15.51,7.94,19.43,11.53,41.17,1.92,11.62,4.9,29.7-4.94,37.87-4.11,3.41-9.26,4.12-13.18,4.12,2.16,1,7.25,2.79,12.35.83,1.15-.45,6.4-2.66,9.88-12.36,6.23-17.31-3.31-30.17-4.94-53.52a101,101,0,0,1,3.3-32.93Q242.5,740.18,239.61,730.29Z"/><path class="cls-20" d="M263.49,785.46c3.2,30.81-4.46,46.08-12.35,54.35-8.8,9.23-20,11.93-25.52,24.7-4.32,9.93-2.74,20.22-.83,27.17a40.9,40.9,0,0,1,.83-17.29c1.76-6.44,5.1-12,14.82-22.23a216.33,216.33,0,0,1,28-24.7Z"/><path class="cls-20" d="M246.2,776.4a130.79,130.79,0,0,1,2.47,60.94A75.34,75.34,0,0,0,252.79,825a78.72,78.72,0,0,0-.83-38.7Z"/><path class="cls-20" d="M261,841.45c-3.84.5-1.65,13.57-8.23,27.18-6.23,12.88-13.71,12.57-18.12,23-2.65,6.32-4.11,16.37,2.47,32.12a31.46,31.46,0,0,1-3.29-21.41c1.93-9,8.81-9.95,18.94-22.24C257,875.11,271,858,266,846.39,265,844.18,262.91,841.21,261,841.45Z"/><path class="cls-20" d="M546.75,304.59c3.27-.81,3,65.25,51,102.1,21.55,16.55,39.06,16.64,47.76,34.59,10.65,22-1.88,50.37-14.83,71.63a114.81,114.81,0,0,0,4.94-34.58c-.11-10.82-.3-27.54-9-41.17-10.64-16.57-26.15-16.46-41.17-25.53C541.62,385.18,543.16,305.48,546.75,304.59Z"/><path class="cls-15" d="M414.18,829.1a41.07,41.07,0,0,1-7.41,14,45.94,45.94,0,0,0,.82-24.7,46.73,46.73,0,0,0-18.12-26.35c2.85,5.15,22.31,41.72,5.77,79.05a81.07,81.07,0,0,1-23.88,30.46A120.82,120.82,0,0,0,360.65,779.7c2.29,18.93,7.39,81.42-32.93,137.51a181.58,181.58,0,0,1-48.58,46.11C296,942.12,318.1,908,326.89,862c3.9-20.37,3.43-38,2.48-73.09v-.19c-1.82-67-11-88.92-9.06-144.92.64-19,2.31-35,3.88-46.9l0,0c.25.22.49.45.75.66s.53.46.79.67q.81.68,1.68,1.29l.62.43c.36.26.74.5,1.12.74l.88.54.95.54c5.19,2.85,11.13,3.84,19.25,3.76a65.78,65.78,0,0,1,9.57,27.53c2,19.17-6.27,30.37-8.23,41.17-2.87,15.8,11,30.88,22.23,47.76,3.29,4.94,8.23,13.17,11.07,20.71,3.12,8.32,4.83,14.63,5.4,18.81C394.3,790.94,417.48,817.84,414.18,829.1Z"/><path class="cls-20" d="M720.9,794.93a57.75,57.75,0,0,1-5.77,12.35c6.81-24.36,1.07-48.4-14.82-60.93a45.1,45.1,0,0,0-23-9.06,74.12,74.12,0,0,1,9,7.41c1.45,1.4,28.4,28.12,23.06,62.58a60.87,60.87,0,0,1-3.29,12.35,75.75,75.75,0,0,0-3.3-32.11c-1.73-5.24-8.51-25.72-27.17-37-15.54-9.44-25.06-3.88-51.05-10.71a142.53,142.53,0,0,1-37.06-15.64,159.4,159.4,0,0,0,51.06,28.82C616.27,748.72,577.43,737.46,562,706c-6.64-13.52-6.46-28.5-6.59-58.46-.17-38.62,8-53.09,3.3-79.87-4.11-23.27-13.22-28.88-31.29-60.93-1.56-2.76-3.78-6.71-6.46-11.71-11.6-21.76-31.54-63.35-40.48-112.63-2-11.15-11.07-64.49-27.17-98-1.89-3.92-3.48-9.05-8.65-13.59-1.77-1.56-5.56-1.5-10.7-1.65a50.28,50.28,0,0,1-11.18-1.63c-5.6-1.29-35.09-3.88-58,8.22-11.44,6-21.08,21.05-40.35,52.7,0,0-9.55,15.87-12.86,31.35-.13.62-.23,1.15-.31,1.58-1.73,9.31-.65,12.17-3.29,22.24-2.35,8.93-4.75,12.62-10.71,26.35,0,0-3.74,8.63-9.88,24.7-15.26,40,1.84,95.72,4.12,102.93a170.24,170.24,0,0,0,17.29,37.87c6.18,10,10.24,16.67,15.41,21.45-1.57,11.87-3.24,27.94-3.88,46.9-1.9,56,7.24,77.92,9.06,144.92V789c-9.85,16.07-17.41,32-26.77,50.45-9.59,19-24.71,48.62-44.46,86.45,7.57-53.72,1.57-94.18-5.76-121.86-6.2-23.42-13.15-36.92-17.3-68.34-3.7-28.15-7.31-58.51,8.24-86.46,10.29-18.51,18.19-15.15,27.17-33.76,10.55-21.85,9.33-41.52,6.59-77.4-6.6-86.43-7.91-82.39-7.41-96.34,1.6-44.66,14.79-77.77,23.05-98,9.15-22.38,32.54-79.61,67.52-91.4,6.53-2.2,13.67-2.89,32.94-9.05,11.41-3.66,18.22-6.4,28-5.77a48.84,48.84,0,0,1,19.76,5.77c13.28-1.54,36.05-2.22,60.11,8.23,42.15,18.3,61.14,58.47,68.34,75.75,13.5,32.4,5.32,48.54,25.53,87.28,4.56,8.75,13.63,24.52,28.82,54.35,6.71,13.18,10.07,19.78,10.7,21.41,18.21,46.66-2,94.94-3.29,98-8,18.34-12.92,17.65-23.06,42-9.6,23-14.39,34.59-10.7,45.29,7.32,21.23,40.88,30.42,74.1,39.52,18.56,5.08,21.47,4,28.82,9.06C723,739.74,728.38,772.17,720.9,794.93Z"/><path class="cls-19" d="M336,724.53c-11.07,48.76-33.54,60.26-56,132.57a485.14,485.14,0,0,0-20.58,110.34c-14.46-87.18-3.72-151.34,9.88-195.15,14.35-46.26,35.35-81.07,37.05-144.1a299.17,299.17,0,0,0-6.11-68.47,171.61,171.61,0,0,0,8.58,15.77c7.7,12.53,12.13,19.73,19.51,24.69C339.21,634.67,346.25,679.22,336,724.53Z"/><path class="cls-19" d="M314.54,615.84c5.08.31-7.39,53.44,23.88,98.81,14,20.31,21.63,17.11,28,32.94,12.07,30-10.39,53.65-23.06,107.86A294.38,294.38,0,0,0,336,930.38a176.57,176.57,0,0,1-9.06-48.58C324.53,825.4,352,809.18,344.19,769c-6.67-34.5-28.94-33.24-38.7-74.1C295.47,653,310.26,615.57,314.54,615.84Z"/><path class="cls-20" d="M289.84,633.13c-26,78-16.3,122-.82,148.22,9.35,15.83,30.64,41.86,23.88,70.81-2.78,11.9-9.46,20.68-14.82,26.35A53.39,53.39,0,0,0,322,855.45c7.87-15.19,4.32-30.67.83-46.93-2.64-12.32-12.31-62.3-16.47-77.4A498.76,498.76,0,0,1,289.84,633.13Z"/><path class="cls-15" d="M683.12,600.55c20.48,4.55,30.57,13.18,36,20.34,6,7.86,7.45,15.45,16.34,22.34,7.73,6,16.38,7.85,22.38,8.49-6.27.68-15,.56-22.79-4.31-9.63-6-10.22-14.7-19.78-23.65-4.72-4.41-12.43-9.65-25.26-12.33Z"/><path class="cls-15" d="M723.78,656.19c28.76,11.47,36.5,22.76,37.88,31.29.8,5,.69,16.67,8.23,21.41a13,13,0,0,0,4.12,1.64,11.8,11.8,0,0,1-6.59-1.64c-5.14-3.26-4.32-9.51-7.41-18.12-.64-1.77-4.61-12.46-14-19.76a38.34,38.34,0,0,0-17.29-7.41Z"/><path class="cls-20" d="M290.66,372.11a157.25,157.25,0,0,0-21.4,37.05c-7.26,17.86-14.67,36.08-7.41,54.35A47,47,0,0,0,275,481.62c-.27-1.64-.55-3.29-.82-4.94a33.24,33.24,0,0,1-7.41-8.23c-9.63-15.24-3.56-34.27-.83-42.82a79.06,79.06,0,0,1,13.18-24.7Z"/><path class="cls-20" d="M275.84,496.44A141.13,141.13,0,0,0,270.08,517c-3.73,18.75-1.64,28.47-3.29,40.35-1.43,10.19-11.74,36.14-26.35,52.7,2.58-1.6,12.05-15.75,15.64-19.77,15-16.84,14.13-42.65,14-45.28-.4-8.35-2.25-15.49,1.65-24.71a34.78,34.78,0,0,1,4.94-8.23Q276.25,504.26,275.84,496.44Z"/></g></g></svg>