<svg width="1440" height="77" viewBox="0 0 1440 77" fill="none" xmlns="http://www.w3.org/2000/svg">
<rect width="1440" height="77" fill="#302EE7"/>
<path d="M454.396 54.528C463.996 54.528 468.46 48.96 468.46 39.648V21.696H461.452V39.504C461.452 45.12 459.148 47.856 454.396 47.856C449.644 47.856 447.34 45.12 447.34 39.504V21.696H440.332V39.648C440.332 48.96 444.748 54.528 454.396 54.528ZM482.64 54V30.096L495.408 52.128C496.464 53.904 498.24 54.624 500.304 54.624C502.848 54.624 505.2 52.8 505.2 49.584V21.696H498.576V45.456L485.808 23.568C484.752 21.792 483.072 21.024 480.96 21.024C478.32 21.024 475.968 22.896 475.968 26.112V54H482.64ZM543.042 37.872C543.042 28.128 536.082 21.696 525.618 21.696H513.57V54H525.474C535.65 54 543.042 47.808 543.042 37.872ZM535.842 37.872C535.842 43.92 531.522 47.712 525.474 47.712H520.578V28.176H525.618C531.714 28.176 535.842 32.064 535.842 37.872ZM572.611 54V47.712H556.051V40.992H571.315V34.704H556.051V27.984H572.323V21.696H555.235C550.771 21.696 549.043 24.048 549.043 27.744V48C549.043 51.696 550.771 54 555.235 54H572.611ZM586.388 54L586.436 43.68H589.172C592.82 43.68 594.212 45.264 595.7 48.24L598.58 54H606.164L603.044 47.616C601.364 44.256 600.164 42.048 598.1 40.896C602.228 39.792 604.82 36.384 604.82 31.968C604.82 25.104 599.204 21.696 591.908 21.696H579.476V54H586.388ZM592.004 28.176C595.172 28.176 597.62 29.52 597.62 32.688C597.62 35.712 595.22 37.44 591.908 37.44H586.436L586.484 28.176H592.004ZM640.323 54.672C645.939 54.672 651.315 51.696 653.715 46.656L648.003 43.44C646.515 46.224 643.923 48 640.035 48C634.611 48 630.771 43.728 630.771 37.872C630.771 32.016 634.659 27.744 640.035 27.744C643.923 27.744 646.419 29.52 648.003 32.304L653.715 29.088C651.315 24.048 645.939 21.072 640.323 21.072C630.915 21.072 623.571 28.512 623.571 37.872C623.571 47.232 630.915 54.672 640.323 54.672ZM672.761 54.624C682.313 54.624 689.609 47.424 689.609 37.872C689.609 28.368 682.361 21.12 672.761 21.12C663.209 21.12 655.961 28.368 655.961 37.872C655.961 47.424 663.209 54.624 672.761 54.624ZM672.761 48C667.385 48 663.161 43.584 663.161 37.872C663.161 32.16 667.385 27.744 672.761 27.744C678.185 27.744 682.361 32.16 682.361 37.872C682.361 43.584 678.137 48 672.761 48ZM701.875 54V30.096L714.643 52.128C715.699 53.904 717.475 54.624 719.539 54.624C722.083 54.624 724.435 52.8 724.435 49.584V21.696H717.811V45.456L705.043 23.568C703.987 21.792 702.307 21.024 700.195 21.024C697.555 21.024 695.203 22.896 695.203 26.112V54H701.875ZM743.172 54.624C750.036 54.624 755.508 50.4 755.508 44.592C755.508 37.248 749.172 35.52 744.372 34.704C740.868 34.08 738.18 33.408 738.18 30.816C738.18 28.848 740.004 27.6 742.644 27.6C745.908 27.6 748.02 29.04 749.076 31.104L754.932 28.176C752.868 23.568 748.26 21.12 742.932 21.12C736.26 21.12 731.172 25.44 731.172 31.104C731.172 38.4 737.748 40.128 742.596 40.944C745.956 41.52 748.5 41.952 748.5 44.64C748.5 46.944 746.196 48.192 743.172 48.192C739.812 48.192 737.556 46.992 736.5 44.64L730.644 47.568C732.708 52.176 737.364 54.624 743.172 54.624ZM784.376 21.696H758.36V28.176H767.864V54H774.872V28.176H784.376V21.696ZM796.341 54L796.389 43.68H799.125C802.773 43.68 804.165 45.264 805.653 48.24L808.533 54H816.117L812.997 47.616C811.317 44.256 810.117 42.048 808.053 40.896C812.181 39.792 814.773 36.384 814.773 31.968C814.773 25.104 809.157 21.696 801.861 21.696H789.429V54H796.341ZM801.957 28.176C805.125 28.176 807.573 29.52 807.573 32.688C807.573 35.712 805.173 37.44 801.861 37.44H796.389L796.437 28.176H801.957ZM835.865 54.528C845.465 54.528 849.929 48.96 849.929 39.648V21.696H842.921V39.504C842.921 45.12 840.617 47.856 835.865 47.856C831.113 47.856 828.809 45.12 828.809 39.504V21.696H821.801V39.648C821.801 48.96 826.217 54.528 835.865 54.528ZM871.885 54.672C877.501 54.672 882.877 51.696 885.277 46.656L879.565 43.44C878.077 46.224 875.485 48 871.597 48C866.173 48 862.333 43.728 862.333 37.872C862.333 32.016 866.221 27.744 871.597 27.744C875.485 27.744 877.981 29.52 879.565 32.304L885.277 29.088C882.877 24.048 877.501 21.072 871.885 21.072C862.477 21.072 855.133 28.512 855.133 37.872C855.133 47.232 862.477 54.672 871.885 54.672ZM912.626 21.696H886.61V28.176H896.114V54H903.122V28.176H912.626V21.696ZM917.679 21.696V54H924.687V21.696H917.679ZM947.449 54.624C957.001 54.624 964.297 47.424 964.297 37.872C964.297 28.368 957.049 21.12 947.449 21.12C937.897 21.12 930.649 28.368 930.649 37.872C930.649 47.424 937.897 54.624 947.449 54.624ZM947.449 48C942.073 48 937.849 43.584 937.849 37.872C937.849 32.16 942.073 27.744 947.449 27.744C952.873 27.744 957.049 32.16 957.049 37.872C957.049 43.584 952.825 48 947.449 48ZM976.562 54V30.096L989.33 52.128C990.386 53.904 992.162 54.624 994.226 54.624C996.77 54.624 999.122 52.8 999.122 49.584V21.696H992.498V45.456L979.73 23.568C978.674 21.792 976.994 21.024 974.882 21.024C972.242 21.024 969.89 22.896 969.89 26.112V54H976.562Z" fill="#FEF7ED"/>
<path d="M-193.604 54.528C-184.004 54.528 -179.54 48.96 -179.54 39.648V21.696H-186.548V39.504C-186.548 45.12 -188.852 47.856 -193.604 47.856C-198.356 47.856 -200.66 45.12 -200.66 39.504V21.696H-207.668V39.648C-207.668 48.96 -203.252 54.528 -193.604 54.528ZM-165.36 54V30.096L-152.592 52.128C-151.536 53.904 -149.76 54.624 -147.696 54.624C-145.152 54.624 -142.8 52.8 -142.8 49.584V21.696H-149.424V45.456L-162.192 23.568C-163.248 21.792 -164.928 21.024 -167.04 21.024C-169.68 21.024 -172.032 22.896 -172.032 26.112V54H-165.36ZM-104.958 37.872C-104.958 28.128 -111.918 21.696 -122.382 21.696H-134.43V54H-122.526C-112.35 54 -104.958 47.808 -104.958 37.872ZM-112.158 37.872C-112.158 43.92 -116.478 47.712 -122.526 47.712H-127.422V28.176H-122.382C-116.286 28.176 -112.158 32.064 -112.158 37.872ZM-75.3889 54V47.712H-91.9489V40.992H-76.6849V34.704H-91.9489V27.984H-75.6769V21.696H-92.7649C-97.2289 21.696 -98.9569 24.048 -98.9569 27.744V48C-98.9569 51.696 -97.2289 54 -92.7649 54H-75.3889ZM-61.6117 54L-61.5637 43.68H-58.8277C-55.1797 43.68 -53.7877 45.264 -52.2997 48.24L-49.4197 54H-41.8357L-44.9557 47.616C-46.6357 44.256 -47.8357 42.048 -49.8997 40.896C-45.7717 39.792 -43.1797 36.384 -43.1797 31.968C-43.1797 25.104 -48.7957 21.696 -56.0917 21.696H-68.5237V54H-61.6117ZM-55.9957 28.176C-52.8277 28.176 -50.3797 29.52 -50.3797 32.688C-50.3797 35.712 -52.7797 37.44 -56.0917 37.44H-61.5637L-61.5157 28.176H-55.9957ZM-7.67737 54.672C-2.06137 54.672 3.31463 51.696 5.71463 46.656L0.00262642 43.44C-1.48537 46.224 -4.07737 48 -7.96537 48C-13.3894 48 -17.2294 43.728 -17.2294 37.872C-17.2294 32.016 -13.3414 27.744 -7.96537 27.744C-4.07737 27.744 -1.58137 29.52 0.00262642 32.304L5.71463 29.088C3.31463 24.048 -2.06137 21.072 -7.67737 21.072C-17.0854 21.072 -24.4294 28.512 -24.4294 37.872C-24.4294 47.232 -17.0854 54.672 -7.67737 54.672ZM24.7613 54.624C34.3133 54.624 41.6093 47.424 41.6093 37.872C41.6093 28.368 34.3613 21.12 24.7613 21.12C15.2093 21.12 7.96125 28.368 7.96125 37.872C7.96125 47.424 15.2093 54.624 24.7613 54.624ZM24.7613 48C19.3853 48 15.1613 43.584 15.1613 37.872C15.1613 32.16 19.3853 27.744 24.7613 27.744C30.1853 27.744 34.3613 32.16 34.3613 37.872C34.3613 43.584 30.1373 48 24.7613 48ZM53.8748 54V30.096L66.6428 52.128C67.6988 53.904 69.4748 54.624 71.5388 54.624C74.0828 54.624 76.4348 52.8 76.4348 49.584V21.696H69.8108V45.456L57.0428 23.568C55.9868 21.792 54.3068 21.024 52.1948 21.024C49.5547 21.024 47.2028 22.896 47.2028 26.112V54H53.8748ZM95.1724 54.624C102.036 54.624 107.508 50.4 107.508 44.592C107.508 37.248 101.172 35.52 96.3724 34.704C92.8684 34.08 90.1804 33.408 90.1804 30.816C90.1804 28.848 92.0044 27.6 94.6444 27.6C97.9084 27.6 100.02 29.04 101.076 31.104L106.932 28.176C104.868 23.568 100.26 21.12 94.9324 21.12C88.2604 21.12 83.1724 25.44 83.1724 31.104C83.1724 38.4 89.7484 40.128 94.5964 40.944C97.9564 41.52 100.5 41.952 100.5 44.64C100.5 46.944 98.1964 48.192 95.1724 48.192C91.8124 48.192 89.5564 46.992 88.5004 44.64L82.6444 47.568C84.7084 52.176 89.3644 54.624 95.1724 54.624ZM136.376 21.696H110.36V28.176H119.864V54H126.872V28.176H136.376V21.696ZM148.341 54L148.389 43.68H151.125C154.773 43.68 156.165 45.264 157.653 48.24L160.533 54H168.117L164.997 47.616C163.317 44.256 162.117 42.048 160.053 40.896C164.181 39.792 166.773 36.384 166.773 31.968C166.773 25.104 161.157 21.696 153.861 21.696H141.429V54H148.341ZM153.957 28.176C157.125 28.176 159.573 29.52 159.573 32.688C159.573 35.712 157.173 37.44 153.861 37.44H148.389L148.437 28.176H153.957ZM187.865 54.528C197.465 54.528 201.929 48.96 201.929 39.648V21.696H194.921V39.504C194.921 45.12 192.617 47.856 187.865 47.856C183.113 47.856 180.809 45.12 180.809 39.504V21.696H173.801V39.648C173.801 48.96 178.217 54.528 187.865 54.528ZM223.885 54.672C229.501 54.672 234.877 51.696 237.277 46.656L231.565 43.44C230.077 46.224 227.485 48 223.597 48C218.173 48 214.333 43.728 214.333 37.872C214.333 32.016 218.221 27.744 223.597 27.744C227.485 27.744 229.981 29.52 231.565 32.304L237.277 29.088C234.877 24.048 229.501 21.072 223.885 21.072C214.477 21.072 207.133 28.512 207.133 37.872C207.133 47.232 214.477 54.672 223.885 54.672ZM264.626 21.696H238.61V28.176H248.114V54H255.122V28.176H264.626V21.696ZM269.679 21.696V54H276.687V21.696H269.679ZM299.449 54.624C309.001 54.624 316.297 47.424 316.297 37.872C316.297 28.368 309.049 21.12 299.449 21.12C289.897 21.12 282.649 28.368 282.649 37.872C282.649 47.424 289.897 54.624 299.449 54.624ZM299.449 48C294.073 48 289.849 43.584 289.849 37.872C289.849 32.16 294.073 27.744 299.449 27.744C304.873 27.744 309.049 32.16 309.049 37.872C309.049 43.584 304.825 48 299.449 48ZM328.562 54V30.096L341.33 52.128C342.386 53.904 344.162 54.624 346.226 54.624C348.77 54.624 351.122 52.8 351.122 49.584V21.696H344.498V45.456L331.73 23.568C330.674 21.792 328.994 21.024 326.882 21.024C324.242 21.024 321.89 22.896 321.89 26.112V54H328.562Z" fill="#0E0467"/>
<path d="M1102.4 54.528C1112 54.528 1116.46 48.96 1116.46 39.648V21.696H1109.45V39.504C1109.45 45.12 1107.15 47.856 1102.4 47.856C1097.64 47.856 1095.34 45.12 1095.34 39.504V21.696H1088.33V39.648C1088.33 48.96 1092.75 54.528 1102.4 54.528ZM1130.64 54V30.096L1143.41 52.128C1144.46 53.904 1146.24 54.624 1148.3 54.624C1150.85 54.624 1153.2 52.8 1153.2 49.584V21.696H1146.58V45.456L1133.81 23.568C1132.75 21.792 1131.07 21.024 1128.96 21.024C1126.32 21.024 1123.97 22.896 1123.97 26.112V54H1130.64ZM1191.04 37.872C1191.04 28.128 1184.08 21.696 1173.62 21.696H1161.57V54H1173.47C1183.65 54 1191.04 47.808 1191.04 37.872ZM1183.84 37.872C1183.84 43.92 1179.52 47.712 1173.47 47.712H1168.58V28.176H1173.62C1179.71 28.176 1183.84 32.064 1183.84 37.872ZM1220.61 54V47.712H1204.05V40.992H1219.32V34.704H1204.05V27.984H1220.32V21.696H1203.24C1198.77 21.696 1197.04 24.048 1197.04 27.744V48C1197.04 51.696 1198.77 54 1203.24 54H1220.61ZM1234.39 54L1234.44 43.68H1237.17C1240.82 43.68 1242.21 45.264 1243.7 48.24L1246.58 54H1254.16L1251.04 47.616C1249.36 44.256 1248.16 42.048 1246.1 40.896C1250.23 39.792 1252.82 36.384 1252.82 31.968C1252.82 25.104 1247.2 21.696 1239.91 21.696H1227.48V54H1234.39ZM1240 28.176C1243.17 28.176 1245.62 29.52 1245.62 32.688C1245.62 35.712 1243.22 37.44 1239.91 37.44H1234.44L1234.48 28.176H1240ZM1288.32 54.672C1293.94 54.672 1299.31 51.696 1301.71 46.656L1296 43.44C1294.51 46.224 1291.92 48 1288.03 48C1282.61 48 1278.77 43.728 1278.77 37.872C1278.77 32.016 1282.66 27.744 1288.03 27.744C1291.92 27.744 1294.42 29.52 1296 32.304L1301.71 29.088C1299.31 24.048 1293.94 21.072 1288.32 21.072C1278.91 21.072 1271.57 28.512 1271.57 37.872C1271.57 47.232 1278.91 54.672 1288.32 54.672ZM1320.76 54.624C1330.31 54.624 1337.61 47.424 1337.61 37.872C1337.61 28.368 1330.36 21.12 1320.76 21.12C1311.21 21.12 1303.96 28.368 1303.96 37.872C1303.96 47.424 1311.21 54.624 1320.76 54.624ZM1320.76 48C1315.39 48 1311.16 43.584 1311.16 37.872C1311.16 32.16 1315.39 27.744 1320.76 27.744C1326.19 27.744 1330.36 32.16 1330.36 37.872C1330.36 43.584 1326.14 48 1320.76 48ZM1349.87 54V30.096L1362.64 52.128C1363.7 53.904 1365.47 54.624 1367.54 54.624C1370.08 54.624 1372.43 52.8 1372.43 49.584V21.696H1365.81V45.456L1353.04 23.568C1351.99 21.792 1350.31 21.024 1348.19 21.024C1345.55 21.024 1343.2 22.896 1343.2 26.112V54H1349.87ZM1391.17 54.624C1398.04 54.624 1403.51 50.4 1403.51 44.592C1403.51 37.248 1397.17 35.52 1392.37 34.704C1388.87 34.08 1386.18 33.408 1386.18 30.816C1386.18 28.848 1388 27.6 1390.64 27.6C1393.91 27.6 1396.02 29.04 1397.08 31.104L1402.93 28.176C1400.87 23.568 1396.26 21.12 1390.93 21.12C1384.26 21.12 1379.17 25.44 1379.17 31.104C1379.17 38.4 1385.75 40.128 1390.6 40.944C1393.96 41.52 1396.5 41.952 1396.5 44.64C1396.5 46.944 1394.2 48.192 1391.17 48.192C1387.81 48.192 1385.56 46.992 1384.5 44.64L1378.64 47.568C1380.71 52.176 1385.36 54.624 1391.17 54.624ZM1432.38 21.696H1406.36V28.176H1415.86V54H1422.87V28.176H1432.38V21.696ZM1444.34 54L1444.39 43.68H1447.13C1450.77 43.68 1452.17 45.264 1453.65 48.24L1456.53 54H1464.12L1461 47.616C1459.32 44.256 1458.12 42.048 1456.05 40.896C1460.18 39.792 1462.77 36.384 1462.77 31.968C1462.77 25.104 1457.16 21.696 1449.86 21.696H1437.43V54H1444.34ZM1449.96 28.176C1453.13 28.176 1455.57 29.52 1455.57 32.688C1455.57 35.712 1453.17 37.44 1449.86 37.44H1444.39L1444.44 28.176H1449.96ZM1483.86 54.528C1493.46 54.528 1497.93 48.96 1497.93 39.648V21.696H1490.92V39.504C1490.92 45.12 1488.62 47.856 1483.86 47.856C1479.11 47.856 1476.81 45.12 1476.81 39.504V21.696H1469.8V39.648C1469.8 48.96 1474.22 54.528 1483.86 54.528ZM1519.89 54.672C1525.5 54.672 1530.88 51.696 1533.28 46.656L1527.57 43.44C1526.08 46.224 1523.49 48 1519.6 48C1514.17 48 1510.33 43.728 1510.33 37.872C1510.33 32.016 1514.22 27.744 1519.6 27.744C1523.49 27.744 1525.98 29.52 1527.57 32.304L1533.28 29.088C1530.88 24.048 1525.5 21.072 1519.89 21.072C1510.48 21.072 1503.13 28.512 1503.13 37.872C1503.13 47.232 1510.48 54.672 1519.89 54.672ZM1560.63 21.696H1534.61V28.176H1544.11V54H1551.12V28.176H1560.63V21.696ZM1565.68 21.696V54H1572.69V21.696H1565.68ZM1595.45 54.624C1605 54.624 1612.3 47.424 1612.3 37.872C1612.3 28.368 1605.05 21.12 1595.45 21.12C1585.9 21.12 1578.65 28.368 1578.65 37.872C1578.65 47.424 1585.9 54.624 1595.45 54.624ZM1595.45 48C1590.07 48 1585.85 43.584 1585.85 37.872C1585.85 32.16 1590.07 27.744 1595.45 27.744C1600.87 27.744 1605.05 32.16 1605.05 37.872C1605.05 43.584 1600.82 48 1595.45 48ZM1624.56 54V30.096L1637.33 52.128C1638.39 53.904 1640.16 54.624 1642.23 54.624C1644.77 54.624 1647.12 52.8 1647.12 49.584V21.696H1640.5V45.456L1627.73 23.568C1626.67 21.792 1624.99 21.024 1622.88 21.024C1620.24 21.024 1617.89 22.896 1617.89 26.112V54H1624.56Z" fill="#F99FDC"/>
</svg>
