<svg width="50" height="50" viewBox="0 0 50 50" fill="none" xmlns="http://www.w3.org/2000/svg">
<circle cx="25" cy="25" r="25" fill="#0E0467"/>
<path d="M15.4576 28.7758L24.5009 20.8059L33.5442 28.7758C33.7058 28.9185 33.9227 28.9984 34.1486 28.9984C34.3744 28.9984 34.5913 28.9185 34.7529 28.7758C34.8311 28.7065 34.8933 28.6238 34.9357 28.5325C34.9781 28.4412 35 28.3432 35 28.2441C35 28.1451 34.9781 28.0471 34.9357 27.9558C34.8933 27.8645 34.8311 27.7818 34.7529 27.7125L25.1324 19.2322C24.9635 19.0833 24.7369 19 24.5009 19C24.265 19 24.0384 19.0833 23.8695 19.2322L14.249 27.7109C14.1702 27.7802 14.1075 27.8631 14.0648 27.9547C14.022 28.0463 14 28.1447 14 28.2441C14 28.3436 14.022 28.442 14.0648 28.5336C14.1075 28.6252 14.1702 28.7081 14.249 28.7774C14.4105 28.9201 14.6274 29 14.8533 29C15.0791 29 15.296 28.9201 15.4576 28.7774L15.4576 28.7758Z" fill="#FEF7ED"/>
</svg>
