<svg xmlns="http://www.w3.org/2000/svg" viewBox="0 0 605.5 611.5"><defs><style>.cls-1{fill:#fceed4;}.cls-2,.cls-3{fill:none;stroke:#193f19;}.cls-2{stroke-miterlimit:10;stroke-width:7px;}.cls-3{stroke-linecap:round;stroke-linejoin:round;stroke-width:14px;}</style></defs><g id="Layer_2" data-name="Layer 2"><g id="Layer_1-2" data-name="Layer 1"><path class="cls-1" d="M192.33,82.53c41.81-50.36,114-59.06,176.21-46.16C445.1,52.25,517.37,97.13,561.59,165s57.68,159.11,28.18,235.42c-16.09,41.65-43.7,77.34-74.7,108.18-84.56,84.12-214.45,135.2-318,79.62C144.79,560.19,106.78,509.09,78.15,455,55.9,413,38,366.72,38.26,318.58,38.88,223,125.58,162.93,192.33,82.53Z"/><path class="cls-2" d="M157.57,55c41.81-50.36,114-59.06,176.21-46.16C410.34,24.71,482.61,69.59,526.83,137.5S584.51,296.61,555,372.92c-16.09,41.64-43.7,77.34-74.7,108.18-84.56,84.12-214.45,135.2-318,79.62C110,532.65,72,481.55,43.39,427.48,21.14,385.46,3.19,339.18,3.5,291,4.12,195.44,90.83,135.39,157.57,55Z"/><path class="cls-3" d="M197.82,286.83c28.7-39,66.1-81.8,94.8-120.78C334,209.73,361.83,241.88,401.3,283.58"/><path class="cls-3" d="M297.35,410.85a1999.85,1999.85,0,0,1-4.05-242.6"/></g></g></svg>