<svg width="11" height="19" viewBox="0 0 11 19" fill="none" xmlns="http://www.w3.org/2000/svg">
<g clip-path="url(#clip0_237_556)">
<path d="M5.34375 16.625C5.01125 16.625 4.75 16.3638 4.75 16.0312V5.34375C4.75 5.01125 5.01125 4.75 5.34375 4.75C5.67625 4.75 5.9375 5.01125 5.9375 5.34375V16.0312C5.9375 16.3638 5.67625 16.625 5.34375 16.625Z" fill="#3C6A2C"/>
<path d="M9.49991 8.90641C9.42204 8.90736 9.34483 8.892 9.27325 8.86132C9.20167 8.83064 9.1373 8.78533 9.08429 8.72828L5.34366 4.98766L1.60304 8.72828C1.36554 8.96578 0.997412 8.96578 0.759912 8.72828C0.522412 8.49078 0.522412 8.12266 0.759912 7.88516L4.91616 3.72891C5.15366 3.49141 5.52179 3.49141 5.75929 3.72891L9.91554 7.88516C10.153 8.12266 10.153 8.49078 9.91554 8.72828C9.79679 8.84703 9.64241 8.90641 9.49991 8.90641Z" fill="#3C6A2C"/>
</g>
<defs>
<clipPath id="clip0_237_556">
<rect width="10.6875" height="19" fill="white"/>
</clipPath>
</defs>
</svg>
