<svg width="1024" height="1024" viewBox="0 0 1024 1024" fill="none" xmlns="http://www.w3.org/2000/svg">
<g clip-path="url(#clip0_56_1943)">
<circle cx="512" cy="512" r="512" fill="#FCFCFC"/>
<path d="M496.361 376.707L266.966 617.71C263.136 621.731 261 627.074 261 632.63C261 638.185 263.136 643.528 266.966 647.549L267.225 647.808C269.081 649.765 271.316 651.322 273.793 652.387C276.27 653.451 278.937 654 281.632 654C284.328 654 286.995 653.451 289.472 652.387C291.949 651.322 294.183 649.765 296.04 647.808L512.043 420.86L727.96 647.808C729.817 649.765 732.051 651.322 734.528 652.387C737.005 653.451 739.672 654 742.368 654C745.063 654 747.73 653.451 750.207 652.387C752.684 651.322 754.918 649.765 756.775 647.808L757.034 647.549C760.864 643.528 763 638.185 763 632.63C763 627.074 760.864 621.731 757.034 617.71L527.639 376.707C525.621 374.588 523.195 372.9 520.507 371.747C517.819 370.595 514.925 370 512 370C509.075 370 506.181 370.595 503.493 371.747C500.805 372.9 498.379 374.588 496.361 376.707Z" fill="#0A150A"/>
</g>
<defs>
<clipPath id="clip0_56_1943">
<rect width="1024" height="1024" fill="white"/>
</clipPath>
</defs>
</svg>
