<svg width="171" height="60" viewBox="0 0 171 60" fill="none" xmlns="http://www.w3.org/2000/svg">
<path d="M93.762 37C93.654 37 93.582 36.952 93.546 36.856L90.594 28.09L90.576 28.018C90.576 27.934 90.63 27.892 90.738 27.892H91.764C91.872 27.892 91.944 27.94 91.98 28.036L94.23 35.092C94.242 35.116 94.26 35.128 94.284 35.128C94.308 35.128 94.326 35.116 94.338 35.092L96.588 28.036C96.624 27.94 96.696 27.892 96.804 27.892L97.83 27.91C97.962 27.91 98.01 27.976 97.974 28.108L95.022 36.856C94.986 36.952 94.914 37 94.806 37H93.762ZM102.647 26.236C102.359 26.236 102.119 26.14 101.927 25.948C101.735 25.756 101.639 25.516 101.639 25.228C101.639 24.928 101.735 24.688 101.927 24.508C102.119 24.316 102.359 24.22 102.647 24.22C102.935 24.22 103.175 24.316 103.367 24.508C103.559 24.688 103.655 24.928 103.655 25.228C103.655 25.516 103.559 25.756 103.367 25.948C103.175 26.14 102.935 26.236 102.647 26.236ZM102.143 36.982C102.023 36.982 101.963 36.922 101.963 36.802V28.054C101.963 27.934 102.023 27.874 102.143 27.874H103.061C103.181 27.874 103.241 27.934 103.241 28.054V36.802C103.241 36.922 103.181 36.982 103.061 36.982H102.143ZM110.493 37C110.385 37 110.313 36.952 110.277 36.856L107.325 28.09L107.307 28.018C107.307 27.934 107.361 27.892 107.469 27.892H108.495C108.603 27.892 108.675 27.94 108.711 28.036L110.961 35.092C110.973 35.116 110.991 35.128 111.015 35.128C111.039 35.128 111.057 35.116 111.069 35.092L113.319 28.036C113.355 27.94 113.427 27.892 113.535 27.892L114.561 27.91C114.693 27.91 114.741 27.976 114.705 28.108L111.753 36.856C111.717 36.952 111.645 37 111.537 37H110.493ZM125.199 30.916C125.247 31.252 125.271 31.672 125.271 32.176V32.752C125.271 32.872 125.211 32.932 125.091 32.932H119.277C119.229 32.932 119.205 32.956 119.205 33.004C119.229 33.664 119.265 34.09 119.313 34.282C119.445 34.822 119.727 35.248 120.159 35.56C120.591 35.872 121.143 36.028 121.815 36.028C122.319 36.028 122.763 35.914 123.147 35.686C123.531 35.458 123.831 35.134 124.047 34.714C124.119 34.606 124.203 34.582 124.299 34.642L125.001 35.056C125.097 35.116 125.121 35.2 125.073 35.308C124.773 35.884 124.323 36.34 123.723 36.676C123.123 37 122.433 37.162 121.653 37.162C120.801 37.15 120.087 36.946 119.511 36.55C118.935 36.154 118.521 35.602 118.269 34.894C118.053 34.318 117.945 33.49 117.945 32.41C117.945 31.906 117.951 31.498 117.963 31.186C117.987 30.862 118.035 30.574 118.107 30.322C118.311 29.542 118.719 28.918 119.331 28.45C119.955 27.982 120.705 27.748 121.581 27.748C122.673 27.748 123.513 28.024 124.101 28.576C124.689 29.128 125.055 29.908 125.199 30.916ZM121.581 28.864C120.993 28.864 120.501 29.02 120.105 29.332C119.721 29.632 119.469 30.04 119.349 30.556C119.277 30.808 119.229 31.216 119.205 31.78C119.205 31.828 119.229 31.852 119.277 31.852H123.939C123.987 31.852 124.011 31.828 124.011 31.78C123.987 31.24 123.951 30.856 123.903 30.628C123.771 30.088 123.501 29.662 123.093 29.35C122.697 29.026 122.193 28.864 121.581 28.864ZM133.285 27.802C133.681 27.802 134.023 27.88 134.311 28.036C134.407 28.084 134.443 28.162 134.419 28.27L134.221 29.152C134.185 29.272 134.107 29.308 133.987 29.26C133.783 29.176 133.549 29.134 133.285 29.134L133.051 29.152C132.427 29.176 131.911 29.41 131.503 29.854C131.095 30.286 130.891 30.838 130.891 31.51V36.82C130.891 36.94 130.831 37 130.711 37H129.793C129.673 37 129.613 36.94 129.613 36.82V28.072C129.613 27.952 129.673 27.892 129.793 27.892H130.711C130.831 27.892 130.891 27.952 130.891 28.072V29.17C130.891 29.206 130.897 29.23 130.909 29.242C130.933 29.242 130.951 29.23 130.963 29.206C131.215 28.762 131.533 28.42 131.917 28.18C132.313 27.928 132.769 27.802 133.285 27.802ZM141.355 37.144C140.491 37.144 139.747 36.922 139.123 36.478C138.499 36.034 138.067 35.422 137.827 34.642C137.659 34.09 137.575 33.352 137.575 32.428C137.575 31.504 137.659 30.772 137.827 30.232C138.055 29.464 138.481 28.858 139.105 28.414C139.729 27.97 140.485 27.748 141.373 27.748C142.225 27.748 142.957 27.97 143.569 28.414C144.193 28.858 144.619 29.458 144.847 30.214C145.015 30.73 145.099 31.468 145.099 32.428C145.099 33.4 145.015 34.138 144.847 34.642C144.619 35.422 144.193 36.034 143.569 36.478C142.957 36.922 142.219 37.144 141.355 37.144ZM141.355 36.028C141.931 36.028 142.423 35.872 142.831 35.56C143.239 35.236 143.515 34.804 143.659 34.264C143.767 33.832 143.821 33.226 143.821 32.446C143.821 31.654 143.773 31.048 143.677 30.628C143.533 30.088 143.251 29.662 142.831 29.35C142.423 29.026 141.925 28.864 141.337 28.864C140.749 28.864 140.251 29.026 139.843 29.35C139.435 29.662 139.159 30.088 139.015 30.628C138.919 31.048 138.871 31.654 138.871 32.446C138.871 33.238 138.919 33.844 139.015 34.264C139.147 34.804 139.417 35.236 139.825 35.56C140.245 35.872 140.755 36.028 141.355 36.028ZM153.27 27.766C154.23 27.766 154.992 28.048 155.556 28.612C156.132 29.176 156.42 29.932 156.42 30.88V36.82C156.42 36.94 156.36 37 156.24 37H155.322C155.202 37 155.142 36.94 155.142 36.82V31.132C155.142 30.472 154.938 29.932 154.53 29.512C154.134 29.092 153.618 28.882 152.982 28.882C152.322 28.882 151.788 29.086 151.38 29.494C150.972 29.902 150.768 30.436 150.768 31.096V36.82C150.768 36.94 150.708 37 150.588 37H149.67C149.55 37 149.49 36.94 149.49 36.82V28.072C149.49 27.952 149.55 27.892 149.67 27.892H150.588C150.708 27.892 150.768 27.952 150.768 28.072V28.846C150.768 28.87 150.774 28.888 150.786 28.9C150.81 28.912 150.828 28.906 150.84 28.882C151.368 28.138 152.178 27.766 153.27 27.766ZM161.857 26.236C161.569 26.236 161.329 26.14 161.137 25.948C160.945 25.756 160.849 25.516 160.849 25.228C160.849 24.928 160.945 24.688 161.137 24.508C161.329 24.316 161.569 24.22 161.857 24.22C162.145 24.22 162.385 24.316 162.577 24.508C162.769 24.688 162.865 24.928 162.865 25.228C162.865 25.516 162.769 25.756 162.577 25.948C162.385 26.14 162.145 26.236 161.857 26.236ZM161.353 36.982C161.233 36.982 161.173 36.922 161.173 36.802V28.054C161.173 27.934 161.233 27.874 161.353 27.874H162.271C162.391 27.874 162.451 27.934 162.451 28.054V36.802C162.451 36.922 162.391 36.982 162.271 36.982H161.353ZM168.245 26.236C167.957 26.236 167.717 26.14 167.525 25.948C167.333 25.756 167.237 25.516 167.237 25.228C167.237 24.928 167.333 24.688 167.525 24.508C167.717 24.316 167.957 24.22 168.245 24.22C168.533 24.22 168.773 24.316 168.965 24.508C169.157 24.688 169.253 24.928 169.253 25.228C169.253 25.516 169.157 25.756 168.965 25.948C168.773 26.14 168.533 26.236 168.245 26.236ZM167.741 36.982C167.621 36.982 167.561 36.922 167.561 36.802V28.054C167.561 27.934 167.621 27.874 167.741 27.874H168.659C168.779 27.874 168.839 27.934 168.839 28.054V36.802C168.839 36.922 168.779 36.982 168.659 36.982H167.741Z" fill="black"/>
<circle cx="30" cy="30" r="30" fill="#C4C4C4"/>
<path fill-rule="evenodd" clip-rule="evenodd" d="M16.6081 14.4167L14.4165 19.766V41.6294H22.2082V45.5834H26.5899L30.7294 41.6294H37.0619L45.5832 33.4879V14.4167H16.6081ZM42.6606 32.0939L37.7901 36.7448H29.9998L25.8603 40.6987V36.7462H19.287V17.2075H42.6606V32.0939V32.0939ZM37.7901 22.5583V30.6899H34.8689V22.5583H37.7915H37.7901ZM29.9998 22.5583V30.6899H27.0787V22.5583H29.9998V22.5583Z" fill="white"/>
</svg>
