<svg width="106" height="126" viewBox="0 0 106 126" fill="none" xmlns="http://www.w3.org/2000/svg">
<path d="M83.5759 47.461V102.036C83.5759 113.715 74.1078 123.179 62.4334 123.179H24.1425C12.4682 123.179 3 113.715 3 102.036V47.461H83.5759Z" stroke="#328ADB" stroke-width="5" stroke-miterlimit="10"/>
<path d="M103 71.9817V88.5877C103 94.6823 98.059 99.6186 91.9691 99.6186H83.5764V60.9508H91.9691C98.059 60.9508 103 65.8917 103 71.9817Z" stroke="#328ADB" stroke-width="5" stroke-miterlimit="10"/>
<path d="M22.0653 37.9285C38.345 21.8326 15.2308 18.5049 25.5814 2" stroke="#328ADB" stroke-width="5" stroke-miterlimit="10"/>
<path d="M42.7158 37.9285C58.9909 21.8326 35.8813 18.5049 46.2319 2" stroke="#328ADB" stroke-width="5" stroke-miterlimit="10"/>
<path d="M63.3619 37.9285C79.6371 21.8326 56.5274 18.5049 66.878 2" stroke="#328ADB" stroke-width="5" stroke-miterlimit="10"/>
<path d="M15.6584 88.4361L16.8994 85.6508C18.4437 86.8917 20.8981 87.7742 23.2697 87.7742C26.2757 87.7742 27.5442 86.6987 27.5442 85.2647C27.5442 81.1005 16.0721 83.8307 16.0721 76.6606C16.0721 73.5444 18.5541 70.897 23.8489 70.897C26.1654 70.897 28.5921 71.5037 30.2744 72.6068L29.1437 75.3921C27.4063 74.3717 25.5035 73.8753 23.8213 73.8753C20.843 73.8753 19.6296 75.0336 19.6296 76.4951C19.6296 80.6041 31.0741 77.9292 31.0741 85.0165C31.0741 88.1051 28.5646 90.7525 23.2697 90.7525C20.2638 90.7525 17.2579 89.8149 15.6584 88.4361Z" fill="#F29639"/>
<path d="M40.1426 71.1728H43.7276V90.4768H40.1426V71.1728Z" fill="#F29639"/>
<path d="M70.6149 78.0395C70.6149 82.2864 67.4711 84.9062 62.3969 84.9062H58.0397V90.4768H54.4547V71.1728H62.3969C67.4711 71.1728 70.6149 73.765 70.6149 78.0395ZM67.0023 78.0395C67.0023 75.6127 65.3753 74.2063 62.2315 74.2063H58.0397V81.8727H62.2315C65.3753 81.8727 67.0023 80.4663 67.0023 78.0395Z" fill="#F29639"/>
</svg>
