<svg width="471" height="80" viewBox="0 0 471 80" fill="none" xmlns="http://www.w3.org/2000/svg">
<g clip-path="url(#clip0_23_331)">
<path d="M7.14323 38.8758C3.99463 38.8758 1.42859 36.3081 1.42859 33.1575V22.4983C1.42859 19.3477 3.99463 16.78 7.14323 16.78C10.2918 16.78 12.8579 19.3477 12.8579 22.4983V33.1575C12.8579 36.3081 10.2918 38.8758 7.14323 38.8758ZM7.14323 19.6808C5.58973 19.6808 4.32752 20.9438 4.32752 22.4983V33.1575C4.32752 34.712 5.58973 35.975 7.14323 35.975C8.69672 35.975 9.95893 34.712 9.95893 33.1575V22.4983C9.95893 20.9438 8.69672 19.6808 7.14323 19.6808Z" fill="#328ADB"/>
<path d="M58.6027 38.8758C55.4541 38.8758 52.8881 36.3081 52.8881 33.1575V22.4983C52.8881 19.3477 55.4541 16.78 58.6027 16.78C61.7513 16.78 64.3173 19.3477 64.3173 22.4983V33.1575C64.3173 36.3081 61.7513 38.8758 58.6027 38.8758ZM58.6027 19.6808C57.0492 19.6808 55.787 20.9438 55.787 22.4983V33.1575C55.787 34.712 57.0492 35.975 58.6027 35.975C60.1562 35.975 61.4184 34.712 61.4184 33.1575V22.4983C61.4184 20.9438 60.1562 19.6808 58.6027 19.6808Z" fill="#328ADB"/>
<path d="M8.47482 18.8203L5.82556 17.6544C10.5554 6.92575 21.1663 0 32.873 0C40.7653 0 48.186 3.08119 53.7758 8.66065C56.3835 11.27 58.4502 14.2956 59.9343 17.6405L57.285 18.8064C55.9535 15.7807 54.081 13.0604 51.7369 10.7009C46.7019 5.66273 40.0024 2.88688 32.8869 2.88688C22.3314 2.88688 12.7469 9.13255 8.48869 18.8064L8.47482 18.8203Z" fill="#328ADB"/>
<path d="M28.4344 48.9938C25.1887 48.9938 22.5533 46.3567 22.5533 43.109C22.5533 39.8612 25.1887 37.2242 28.4344 37.2242C31.6801 37.2242 34.3155 39.8612 34.3155 43.109C34.3155 46.3567 31.6801 48.9938 28.4344 48.9938ZM28.4344 40.111C26.7838 40.111 25.4384 41.4573 25.4384 43.109C25.4384 44.7606 26.7838 46.1069 28.4344 46.1069C30.085 46.1069 31.4305 44.7606 31.4305 43.109C31.4305 41.4573 30.085 40.111 28.4344 40.111Z" fill="#328ADB"/>
<path d="M23.9958 44.5524H14.5361C9.00181 44.5524 5.68677 41.8876 5.68677 37.4323H8.5857C8.5857 40.9299 11.8175 41.6655 14.5361 41.6655H23.9958V44.5663V44.5524Z" fill="#328ADB"/>
<path d="M19.9041 48.4802C23.7878 50.9507 28.2403 52.2554 32.873 52.2554C37.5057 52.2554 41.9582 50.9507 45.8419 48.4802C52.9713 51.5475 58.8663 57.1131 62.3339 64.0666C54.7884 72.3803 44.1497 77.1131 32.873 77.1131C21.5963 77.1131 10.9576 72.3803 3.41209 64.0805C6.87971 57.127 12.7747 51.5614 19.9041 48.4941M45.4813 45.2325C41.9443 47.8279 37.5751 49.3685 32.873 49.3685C28.1709 49.3685 23.7878 47.8279 20.2509 45.2325C11.1657 48.6607 3.82821 55.6836 -0.013916 64.5663C7.82291 74.0042 19.6406 80.0278 32.8591 80.0278C46.0777 80.0278 57.9092 74.0181 65.746 64.5663C61.9039 55.6836 54.5664 48.6607 45.4813 45.2325Z" fill="#328ADB"/>
<path d="M38.8096 45.0659C38.227 45.0659 37.6722 44.7051 37.4502 44.1221C37.1728 43.3727 37.5473 42.5399 38.2963 42.2623C39.1286 41.957 39.9192 41.5684 40.6821 41.1103C45.3287 38.3484 48.2137 33.2963 48.2137 27.8973C48.2137 27.2172 48.1721 26.551 48.0889 25.8987V25.7599L48.075 25.6905L48.0334 25.4962C46.8683 18.1124 40.363 12.5468 32.8869 12.5468C24.4259 12.5468 17.5461 19.4309 17.5461 27.8973C17.5461 31.3532 18.6696 34.6287 20.7918 37.3352C21.2911 37.9597 21.1802 38.8758 20.5421 39.3615C19.918 39.8612 19.0025 39.7502 18.5032 39.1117C15.9787 35.8779 14.6333 31.9917 14.6333 27.8834C14.6333 17.821 22.8169 9.64607 32.873 9.64607C41.8749 9.64607 49.4205 16.0722 50.863 24.941C50.8907 25.052 50.9185 25.177 50.9324 25.3019C50.9324 25.4268 50.9462 25.5239 50.9601 25.6211C51.0572 26.3567 51.0988 27.1201 51.0988 27.8834C51.0988 34.2956 47.6728 40.3053 42.1523 43.5808C41.2508 44.1221 40.2937 44.5801 39.3089 44.9549C39.1424 45.0243 38.9621 45.052 38.7957 45.052L38.8096 45.0659Z" fill="#328ADB"/>
<path d="M90.4216 35.864L93.168 29.771C96.1085 31.9223 100.505 33.4212 104.694 33.4212C109.494 33.4212 111.435 31.8251 111.435 29.6738C111.435 23.1228 91.1152 27.6197 91.1152 14.6426C91.1152 8.70228 95.9143 3.74739 105.846 3.74739C110.243 3.74739 114.737 4.80221 117.982 6.84246L115.486 12.991C112.24 11.145 108.897 10.2429 105.804 10.2429C101.005 10.2429 99.16 12.0472 99.16 14.2401C99.16 20.6801 119.48 16.2387 119.48 29.077C119.48 34.9202 114.639 39.9167 104.653 39.9167C99.1045 39.9167 93.5147 38.2651 90.4216 35.864Z" fill="#F29639"/>
<path d="M125.32 21.8321C125.32 11.4365 133.406 3.74739 144.447 3.74739C155.488 3.74739 163.574 11.3949 163.574 21.8321C163.574 32.2692 155.433 39.9167 144.447 39.9167C133.462 39.9167 125.32 32.2276 125.32 21.8321ZM155.377 21.8321C155.377 15.1839 150.689 10.6454 144.447 10.6454C138.205 10.6454 133.517 15.1978 133.517 21.8321C133.517 28.4663 138.205 33.0187 144.447 33.0187C150.689 33.0187 155.377 28.4663 155.377 21.8321Z" fill="#F29639"/>
<path d="M203.965 39.3199L203.91 18.3345L193.618 35.6142H189.97L179.734 18.7786V39.306H172.146V4.34421H178.832L191.912 26.0791L204.798 4.34421H211.442L211.539 39.3199H203.951H203.965Z" fill="#F29639"/>
<path d="M245.355 31.8251H229.126L226.033 39.3199H217.739L233.315 4.34421H241.305L256.937 39.3199H248.448L245.355 31.8251ZM242.803 25.6766L237.255 12.2831L231.706 25.6766H242.789H242.803Z" fill="#F29639"/>
<path d="M307.911 23.9278V39.3199H300.116V25.1353C300.116 20.7911 298.174 18.7925 295.025 18.7925C291.53 18.7925 289.089 21.0409 289.089 25.8432V39.3338H281.293V25.1492C281.293 20.805 279.449 18.8064 276.203 18.8064C272.763 18.8064 270.308 21.0548 270.308 25.857V39.3477H262.513V12.4358H269.947V15.5309C271.945 13.2269 274.941 12.0333 278.381 12.0333C282.126 12.0333 285.316 13.4768 287.216 16.433C289.366 13.6849 292.861 12.0333 296.898 12.0333C303.292 12.0333 307.883 15.7252 307.883 23.9278H307.911Z" fill="#F29639"/>
<path d="M343.877 28.0777H323.557C324.306 31.4226 327.149 33.4768 331.241 33.4768C334.084 33.4768 336.137 32.6301 337.982 30.8813L342.129 35.3782C339.633 38.2235 335.888 39.7224 331.047 39.7224C321.754 39.7224 315.72 33.8793 315.72 25.8848C315.72 17.8904 321.864 12.0472 330.048 12.0472C338.232 12.0472 344.03 17.3491 344.03 25.982C344.03 26.5788 343.932 27.4254 343.877 28.0777ZM323.46 23.5253H336.692C336.137 20.1249 333.599 17.932 330.104 17.932C326.608 17.932 324.014 20.0833 323.46 23.5253Z" fill="#F29639"/>
<path d="M369.038 38.0153C367.443 39.1672 365.099 39.7085 362.699 39.7085C356.36 39.7085 352.657 36.4608 352.657 30.0625V19.0146H348.51V13.0187H352.657V6.49548H360.452V13.0465H367.138V19.0423H360.452V29.9792C360.452 32.2831 361.7 33.5323 363.795 33.5323C364.946 33.5323 366.097 33.1853 366.944 32.533L369.038 38.0291V38.0153Z" fill="#F29639"/>
<path d="M392.604 12.0472V19.2366C391.952 19.1811 391.453 19.1395 390.856 19.1395C386.556 19.1395 383.713 21.4851 383.713 26.6343V39.3199H375.918V12.4358H383.352V15.9889C385.253 13.3935 388.443 12.0472 392.59 12.0472H392.604Z" fill="#F29639"/>
<path d="M398.804 4.34421C398.804 1.90146 400.746 0 403.645 0C406.544 0 408.486 1.8043 408.486 4.19153C408.486 6.78695 406.544 8.68841 403.645 8.68841C400.746 8.68841 398.804 6.78695 398.804 4.34421ZM399.747 12.4358H407.543V39.3199H399.747V12.4358Z" fill="#F29639"/>
<path d="M415.282 25.8848C415.282 17.7932 421.524 12.0472 430.262 12.0472C435.908 12.0472 440.346 14.4899 442.288 18.8897L436.241 22.1374C434.798 19.5836 432.648 18.4455 430.193 18.4455C426.254 18.4455 423.147 21.1936 423.147 25.8848C423.147 30.576 426.24 33.3241 430.193 33.3241C432.634 33.3241 434.784 32.2276 436.241 29.6322L442.288 32.9355C440.346 37.238 435.894 39.7363 430.262 39.7363C421.524 39.7363 415.282 33.9903 415.282 25.8987V25.8848Z" fill="#F29639"/>
<path d="M446.685 36.8217L449.279 31.2283C451.678 32.7828 455.326 33.8237 458.614 33.8237C462.206 33.8237 463.552 32.88 463.552 31.381C463.552 26.9813 447.323 31.4781 447.323 20.7356C447.323 15.6419 451.914 12.0472 459.751 12.0472C463.441 12.0472 467.546 12.8938 470.085 14.3928L467.491 19.9445C464.841 18.4455 462.192 17.9459 459.751 17.9459C456.256 17.9459 454.758 19.0423 454.758 20.4441C454.758 25.0382 470.986 20.5968 470.986 31.1867C470.986 36.1832 466.34 39.7363 458.308 39.7363C453.759 39.7363 449.168 38.4872 446.671 36.8355L446.685 36.8217Z" fill="#F29639"/>
<path d="M92.8351 53.7266H97.551V74.1291H92.8351V53.7266Z" fill="#F29639"/>
<path d="M119.425 65.1492V74.1291H114.875V65.857C114.875 63.3171 113.71 62.1513 111.699 62.1513C109.521 62.1513 107.94 63.4837 107.94 66.3706V74.1152H103.391V58.4316H107.732V60.2637C108.953 58.9174 110.783 58.1957 112.92 58.1957C116.623 58.1957 119.411 60.347 119.411 65.1353L119.425 65.1492Z" fill="#F29639"/>
<path d="M134.974 73.3657C134.044 74.0319 132.671 74.3511 131.27 74.3511C127.567 74.3511 125.417 72.4497 125.417 68.73V62.2901H123.003V58.7925H125.417V54.9757H129.966V58.7925H133.864V62.2901H129.966V68.6745C129.966 70.0069 130.688 70.7425 131.922 70.7425C132.588 70.7425 133.268 70.5343 133.753 70.1596L134.974 73.3657Z" fill="#F29639"/>
<path d="M153.643 67.5642H141.784C142.214 69.5212 143.878 70.7148 146.264 70.7148C147.929 70.7148 149.121 70.2151 150.19 69.2019L152.603 71.8251C151.147 73.4906 148.969 74.365 146.139 74.365C140.716 74.365 137.193 70.9507 137.193 66.2873C137.193 61.6239 140.771 58.2096 145.557 58.2096C150.342 58.2096 153.713 61.3047 153.713 66.3428C153.713 66.6898 153.657 67.1895 153.629 67.5642H153.643ZM141.729 64.9133H149.44C149.121 62.9285 147.637 61.6516 145.598 61.6516C143.559 61.6516 142.048 62.9008 141.729 64.9133Z" fill="#F29639"/>
<path d="M158.11 52.4913H162.659V74.1152H158.11V52.4913Z" fill="#F29639"/>
<path d="M168.221 52.4913H172.771V74.1152H168.221V52.4913Z" fill="#F29639"/>
<path d="M177.764 53.7266C177.764 52.297 178.901 51.1867 180.594 51.1867C182.286 51.1867 183.423 52.2415 183.423 53.6294C183.423 55.1423 182.286 56.2526 180.594 56.2526C178.901 56.2526 177.764 55.1423 177.764 53.7127V53.7266ZM178.319 58.4455H182.868V74.1291H178.319V58.4455Z" fill="#F29639"/>
<path d="M204.59 58.4455V71.5059C204.59 77.3352 201.441 80.0139 195.796 80.0139C192.827 80.0139 189.942 79.2922 188.111 77.8626L189.915 74.601C191.26 75.6836 193.438 76.3775 195.449 76.3775C198.653 76.3775 200.054 74.9202 200.054 72.0888V71.4226C198.861 72.7412 197.141 73.3796 195.102 73.3796C190.761 73.3796 187.265 70.3817 187.265 65.8015C187.265 61.2214 190.761 58.2235 195.102 58.2235C197.28 58.2235 199.097 58.9452 200.29 60.4719V58.4594H204.603L204.59 58.4455ZM200.109 65.7877C200.109 63.4837 198.39 61.9431 196.004 61.9431C193.618 61.9431 191.87 63.4837 191.87 65.7877C191.87 68.0916 193.618 69.6322 196.004 69.6322C198.39 69.6322 200.109 68.0916 200.109 65.7877Z" fill="#F29639"/>
<path d="M225.423 67.5642H213.564C213.994 69.5212 215.658 70.7148 218.044 70.7148C219.708 70.7148 220.901 70.2151 221.969 69.2019L224.383 71.8251C222.926 73.4906 220.749 74.365 217.919 74.365C212.496 74.365 208.973 70.9507 208.973 66.2873C208.973 61.6239 212.551 58.2096 217.337 58.2096C222.122 58.2096 225.492 61.3047 225.492 66.3428C225.492 66.6898 225.437 67.1895 225.409 67.5642H225.423ZM213.508 64.9133H221.22C220.901 62.9285 219.417 61.6516 217.378 61.6516C215.339 61.6516 213.827 62.9008 213.508 64.9133Z" fill="#F29639"/>
<path d="M245.896 65.1492V74.1291H241.346V65.857C241.346 63.3171 240.181 62.1513 238.17 62.1513C235.992 62.1513 234.411 63.4837 234.411 66.3706V74.1152H229.862V58.4316H234.203V60.2637C235.424 58.9174 237.255 58.1957 239.391 58.1957C243.094 58.1957 245.882 60.347 245.882 65.1353L245.896 65.1492Z" fill="#F29639"/>
<path d="M261.445 73.3657C260.515 74.0319 259.142 74.3511 257.741 74.3511C254.038 74.3511 251.888 72.4497 251.888 68.73V62.2901H249.474V58.7925H251.888V54.9757H256.437V58.7925H260.335V62.2901H256.437V68.6745C256.437 70.0069 257.159 70.7425 258.393 70.7425C259.059 70.7425 259.739 70.5343 260.224 70.1596L261.445 73.3657Z" fill="#F29639"/>
<path d="M292.931 61.1242C292.931 65.6766 289.519 68.4941 284.081 68.4941H279.976V74.1152H275.26V53.7127H284.081C289.532 53.7127 292.931 56.5441 292.931 61.1103V61.1242ZM288.159 61.1242C288.159 58.8758 286.703 57.5711 283.818 57.5711H279.976V64.6496H283.818C286.703 64.6496 288.159 63.3449 288.159 61.1242Z" fill="#F29639"/>
<path d="M307.037 58.2096V62.4011C306.662 62.3733 306.371 62.3456 306.01 62.3456C303.514 62.3456 301.849 63.7196 301.849 66.7176V74.1152H297.3V58.4316H301.641V60.4996C302.751 58.9868 304.61 58.1957 307.023 58.1957L307.037 58.2096Z" fill="#F29639"/>
<path d="M309.769 66.2734C309.769 61.5545 313.403 58.1957 318.383 58.1957C323.362 58.1957 326.969 61.5545 326.969 66.2734C326.969 70.9924 323.362 74.3511 318.383 74.3511C313.403 74.3511 309.769 71.0062 309.769 66.2734ZM322.378 66.2734C322.378 63.567 320.658 61.9292 318.383 61.9292C316.108 61.9292 314.361 63.567 314.361 66.2734C314.361 68.9799 316.108 70.6176 318.383 70.6176C320.658 70.6176 322.378 68.9799 322.378 66.2734Z" fill="#F29639"/>
<path d="M329.84 72.6579L331.352 69.3963C332.753 70.2984 334.875 70.9091 336.803 70.9091C338.897 70.9091 339.688 70.3539 339.688 69.4795C339.688 66.9119 330.228 69.5351 330.228 63.2755C330.228 60.3053 332.905 58.2096 337.483 58.2096C339.633 58.2096 342.032 58.7092 343.516 59.5836L342.004 62.8175C340.465 61.9431 338.925 61.6516 337.496 61.6516C335.458 61.6516 334.584 62.2901 334.584 63.109C334.584 65.7877 344.043 63.1922 344.043 69.3685C344.043 72.2831 341.339 74.3512 336.65 74.3512C334.001 74.3512 331.324 73.6155 329.868 72.6579H329.84Z" fill="#F29639"/>
<path d="M365.238 66.2734C365.238 71.2006 361.825 74.3511 357.428 74.3511C355.473 74.3511 353.878 73.7405 352.712 72.4497V79.7641H348.163V58.4316H352.504V60.2359C353.642 58.8619 355.334 58.1957 357.428 58.1957C361.825 58.1957 365.238 61.3463 365.238 66.2734ZM360.633 66.2734C360.633 63.567 358.913 61.9292 356.638 61.9292C354.363 61.9292 352.643 63.567 352.643 66.2734C352.643 68.9799 354.363 70.6176 356.638 70.6176C358.913 70.6176 360.633 68.9799 360.633 66.2734Z" fill="#F29639"/>
<path d="M384.864 67.5642H373.005C373.449 69.5212 375.099 70.7148 377.485 70.7148C379.15 70.7148 380.342 70.2151 381.41 69.2019L383.824 71.8251C382.368 73.4906 380.19 74.365 377.36 74.365C371.937 74.365 368.414 70.9507 368.414 66.2873C368.414 61.6239 371.992 58.2096 376.778 58.2096C381.563 58.2096 384.934 61.3047 384.934 66.3428C384.934 66.6898 384.878 67.1895 384.85 67.5642H384.864ZM372.949 64.9133H380.661C380.342 62.9285 378.858 61.6516 376.819 61.6516C374.78 61.6516 373.269 62.9008 372.949 64.9133Z" fill="#F29639"/>
<path d="M388.151 66.2734C388.151 61.5545 391.786 58.1957 396.89 58.1957C400.177 58.1957 402.771 59.6253 403.908 62.1929L400.385 64.0944C399.539 62.6093 398.291 61.9431 396.862 61.9431C394.56 61.9431 392.756 63.5531 392.756 66.2873C392.756 69.0215 394.56 70.6315 396.862 70.6315C398.291 70.6315 399.539 69.9931 400.385 68.4802L403.908 70.4094C402.771 72.9216 400.177 74.3789 396.89 74.3789C391.799 74.3789 388.151 71.034 388.151 66.3012V66.2734Z" fill="#F29639"/>
<path d="M418.223 73.3657C417.293 74.0319 415.92 74.3511 414.519 74.3511C410.816 74.3511 408.666 72.4497 408.666 68.73V62.2901H406.253V58.7925H408.666V54.9757H413.216V58.7925H417.113V62.2901H413.216V68.6745C413.216 70.0069 413.937 70.7425 415.171 70.7425C415.837 70.7425 416.517 70.5343 417.002 70.1596L418.223 73.3657Z" fill="#F29639"/>
<path d="M421.566 53.7266C421.566 52.297 422.703 51.1867 424.395 51.1867C426.087 51.1867 427.225 52.2415 427.225 53.6294C427.225 55.1423 426.087 56.2526 424.395 56.2526C422.703 56.2526 421.566 55.1423 421.566 53.7127V53.7266ZM422.12 58.4455H426.67V74.1291H422.12V58.4455Z" fill="#F29639"/>
<path d="M448.238 65.1492V74.1291H443.689V65.857C443.689 63.3171 442.524 62.1513 440.513 62.1513C438.321 62.1513 436.754 63.4837 436.754 66.3706V74.1152H432.204V58.4316H436.546V60.2637C437.766 58.9174 439.597 58.1957 441.733 58.1957C445.437 58.1957 448.225 60.347 448.225 65.1353L448.238 65.1492Z" fill="#F29639"/>
<path d="M470.029 58.4455V71.5059C470.029 77.3352 466.88 80.0139 461.235 80.0139C458.267 80.0139 455.382 79.2922 453.551 77.8626L455.354 74.601C456.686 75.6836 458.877 76.3775 460.888 76.3775C464.092 76.3775 465.493 74.9202 465.493 72.0888V71.4226C464.3 72.7412 462.58 73.3796 460.542 73.3796C456.2 73.3796 452.705 70.3817 452.705 65.8015C452.705 61.2214 456.2 58.2235 460.542 58.2235C462.733 58.2235 464.536 58.9452 465.729 60.4719V58.4594H470.043L470.029 58.4455ZM465.549 65.7877C465.549 63.4837 463.829 61.9431 461.443 61.9431C459.057 61.9431 457.31 63.4837 457.31 65.7877C457.31 68.0916 459.057 69.6322 461.443 69.6322C463.829 69.6322 465.549 68.0916 465.549 65.7877Z" fill="#F29639"/>
</g>
<defs>
<clipPath id="clip0_23_331">
<rect width="471" height="80" fill="white"/>
</clipPath>
</defs>
</svg>
