<svg width="313" height="239" viewBox="0 0 313 239" fill="none" xmlns="http://www.w3.org/2000/svg">
<path d="M8.79081 63.363C4.07823 50.6348 11.3547 36.615 24.4755 33.1425L101.06 12.8744C111.744 10.0468 122.928 15.2179 127.695 25.189L201.263 179.08C208.56 194.346 197.432 212 180.512 212H79.8337C70.2111 212 61.6057 206.01 58.2646 196.986L8.79081 63.363Z" fill="#202020"/>
<path d="M308.558 191.757C301.703 127.466 289.594 77.4346 230.11 20.2865C217.703 8.36668 198.074 9.48894 186.056 21.8003L115.278 94.3034C102.339 107.557 110.511 130.574 128.725 133.938C154.35 138.671 185.456 146.295 207.338 157.858C229.478 169.558 256.277 190.203 277.346 207.741C290.076 218.337 310.314 208.226 308.558 191.757Z" fill="#3C6A2C"/>
<mask id="mask0_15_288" style="mask-type:alpha" maskUnits="userSpaceOnUse" x="7" y="12" width="197" height="200">
<path d="M8.79081 63.363C4.07823 50.6348 11.3547 36.615 24.4755 33.1425L101.06 12.8744C111.744 10.0468 122.928 15.2179 127.695 25.189L201.263 179.08C208.56 194.346 197.432 212 180.512 212H79.8337C70.2111 212 61.6057 206.01 58.2646 196.986L8.79081 63.363Z" fill="#202020"/>
</mask>
<g mask="url(#mask0_15_288)">
<path d="M308.558 191.757C301.703 127.466 289.594 77.4346 230.11 20.2865C217.703 8.36668 198.074 9.48894 186.056 21.8003L115.278 94.3034C102.339 107.557 110.511 130.574 128.725 133.938C154.35 138.671 185.456 146.295 207.338 157.858C229.478 169.558 256.277 190.203 277.346 207.741C290.076 218.337 310.314 208.226 308.558 191.757Z" fill="#FCFCFC"/>
</g>
</svg>
