<svg width="345" height="175" viewBox="0 0 345 175" fill="none" xmlns="http://www.w3.org/2000/svg">
<path d="M140.88 33.4H149.088V67H140.88V33.4ZM177.697 33.4H186.289L174.241 67H164.497L152.449 33.4H161.041L169.393 59.896L177.697 33.4ZM189.63 33.4H197.838V67H189.63V33.4ZM226.495 67L224.527 60.76H211.807L209.839 67H201.199L213.295 33.4H222.991L235.087 67H226.495ZM213.727 54.52H222.559L218.143 40.552L213.727 54.52ZM258.731 33.4H266.987V67H259.787L246.683 47.416V67H238.427V33.4H245.627L258.731 52.984V33.4Z" fill="#D64517"/>
<path d="M198.768 93.56H214.608V113H210.672L209.568 108.824C207.168 111.848 203.616 113.624 198.768 113.624C188.784 113.624 181.68 106.184 181.68 96.2C181.68 86.264 188.784 78.824 198.768 78.824C204.48 78.824 209.28 81.272 212.304 85.304L205.488 89.816C204 87.944 201.744 86.696 198.768 86.696C192.912 86.696 189.888 91.448 189.888 96.2C189.888 100.952 192.912 105.704 198.768 105.704C203.328 105.704 205.92 103.256 206.976 100.088H198.768V93.56ZM239.783 79.4H247.991V99.944C247.991 109.16 242.759 113.624 233.975 113.624C225.191 113.624 219.911 109.16 219.911 99.944V79.4H228.167V99.128C228.167 103.592 230.279 105.704 233.975 105.704C237.623 105.704 239.783 103.592 239.783 99.128V79.4ZM283.803 79.4L271.707 100.376V113H263.451V100.376L251.355 79.4H260.187L267.579 93.704L274.971 79.4H283.803ZM295.385 105.272H308.297V113H287.177V79.4H307.865V87.176H295.385V92.36H306.329V99.704H295.385V105.272ZM333.403 79.4H341.659V113H334.459L321.355 93.416V113H313.099V79.4H320.299L333.403 98.984V79.4Z" fill="#202020"/>
<path fill-rule="evenodd" clip-rule="evenodd" d="M146.541 75.5701C137.086 73.9016 122.997 79.2778 117.065 82.8001C112.729 85.0488 106.366 92.2409 101.663 101.099C101.791 101.112 101.916 101.168 102.017 101.269L102.1 101.351C102.471 101.723 102.208 102.358 101.682 102.358C101.526 102.358 101.376 102.296 101.265 102.186L101.183 102.103C101.173 102.093 101.164 102.084 101.156 102.074C100.553 103.257 99.9805 104.467 99.4481 105.696C99.6276 105.707 99.7696 105.857 99.7696 106.039V106.088C99.7696 106.193 99.7282 106.293 99.6544 106.367L99.4438 106.577C99.2963 106.725 99.2134 106.925 99.2134 107.133V107.495C99.2134 107.73 99.0232 107.92 98.7886 107.92C98.7037 107.92 98.6268 107.896 98.5624 107.855C98.423 108.215 98.2872 108.577 98.1554 108.939C95.4172 116.47 93.9428 124.421 93.9917 134.09C94.0608 134.07 94.1335 134.059 94.208 134.059C94.5402 134.059 94.835 134.272 94.9401 134.587L95.2253 135.443C95.2836 135.617 95.2381 135.81 95.1079 135.94C94.9181 136.13 94.6103 136.13 94.4205 135.94L94.3709 135.891C94.2753 135.795 94.1484 135.738 94.0142 135.729C94.0343 136.629 94.0672 137.545 94.1131 138.476C94.5454 137.914 95.0499 137.229 95.4083 136.673C95.5517 136.45 96.2334 136.441 96.3518 136.678C96.4001 136.775 96.3811 136.891 96.3048 136.968L96.0309 137.242C95.9299 137.343 95.8582 137.469 95.8235 137.608L95.4085 139.268C95.3567 139.475 95.1705 139.621 94.957 139.621C94.8335 139.621 94.7152 139.67 94.6279 139.757L94.541 139.844C94.3369 140.048 94.2657 140.35 94.3569 140.624L94.7476 141.796C94.7587 141.829 94.772 141.861 94.7876 141.892L94.9965 142.31C95.1453 142.608 94.9289 142.958 94.5962 142.958C94.5342 142.958 94.4749 142.945 94.4208 142.922C94.6301 145.295 94.917 147.771 95.2844 150.361L96.0527 150.617C96.2796 150.693 96.4327 150.905 96.4327 151.144C96.4327 151.506 96.0929 151.771 95.7421 151.684L95.4671 151.615C95.6108 152.575 95.7653 153.552 95.9308 154.544C96.0512 155.267 96.1803 155.965 96.3175 156.639C96.3324 156.643 96.3472 156.648 96.362 156.653L96.9075 156.835C96.9616 156.853 97.0144 156.874 97.0655 156.9L97.8312 157.283C98.004 157.369 98.1354 157.521 98.1965 157.704C98.3864 158.274 97.8446 158.815 97.2751 158.626L96.7154 158.439C97.1398 160.211 97.6219 161.801 98.1451 163.226C98.2392 163.167 98.356 163.142 98.4814 163.167L100.08 163.486C100.223 163.515 100.326 163.64 100.326 163.786C100.326 163.955 100.189 164.092 100.02 164.092H98.4758C98.7091 164.678 98.9494 165.235 99.1954 165.763C99.2163 165.761 99.2373 165.76 99.2586 165.76H100.253C100.993 165.76 101.685 165.39 102.095 164.774L102.29 164.482C102.46 164.228 102.55 163.928 102.55 163.622C102.55 163.21 102.387 162.816 102.096 162.525L101.472 161.901C101.094 161.523 100.882 161.011 100.882 160.477C100.882 159.942 100.67 159.43 100.292 159.053L99.6869 158.447C99.4041 158.165 99.334 157.733 99.5129 157.375C99.6702 157.06 99.9918 156.862 100.344 156.862H100.851C101.211 156.862 101.54 157.065 101.701 157.387L102.029 158.044C102.244 158.473 102.857 158.473 103.072 158.044C103.095 157.997 103.112 157.948 103.122 157.897L103.282 157.094C103.51 155.959 102.985 154.806 101.979 154.231L101.498 153.956C100.528 153.402 100.16 152.187 100.66 151.188L100.771 150.965C100.844 150.82 100.882 150.659 100.882 150.496V149.075C100.882 148.665 100.386 148.459 100.095 148.75L100.075 148.77C99.9064 148.939 99.6328 148.939 99.464 148.77C99.3183 148.624 99.2957 148.396 99.41 148.224L100.072 147.231C100.229 146.996 100.248 146.695 100.122 146.442L99.982 146.163C99.8647 145.929 99.5794 145.834 99.3447 145.951C99.0289 146.109 98.6573 145.879 98.6573 145.526V145.301C98.6573 145.222 98.6722 145.145 98.7012 145.072L99.6695 142.652C99.7356 142.486 99.7696 142.31 99.7696 142.132V141.289C99.7696 140.982 100.019 140.733 100.326 140.733H100.457C100.692 140.733 100.882 140.923 100.882 141.158C100.882 141.474 101.214 141.679 101.497 141.538L101.893 141.34C101.96 141.306 102.021 141.262 102.074 141.209L102.2 141.084C102.429 140.854 102.717 140.691 103.032 140.613L104.379 140.276C104.612 140.218 104.775 140.007 104.775 139.767C104.775 139.305 105.334 139.067 105.661 139.394C105.8 139.533 105.848 139.739 105.786 139.925L105.675 140.258C105.485 140.828 105.793 141.443 106.362 141.633L106.443 141.66C106.794 141.777 107.068 142.051 107.185 142.402L107.556 143.514L107.572 143.58C107.931 145.014 108.112 146.486 108.112 147.963V149.02C108.112 149.402 107.921 149.759 107.603 149.971C107.003 150.371 106.919 151.22 107.429 151.729L107.744 152.044C107.964 152.264 108.018 152.6 107.879 152.878C107.7 153.235 107.266 153.38 106.909 153.201L106.794 153.144C106.571 153.033 106.409 152.83 106.348 152.588L105.887 150.744L105.402 149.287C105.355 149.146 105.298 149.009 105.231 148.876L104.787 147.987C104.56 147.533 104.632 147.019 104.704 146.501C104.739 146.246 104.775 145.989 104.775 145.738C104.775 145.294 104.404 144.07 104.219 143.514L103.919 142.613C103.784 142.208 103.321 142.016 102.939 142.207C102.701 142.326 102.55 142.57 102.55 142.836V143.763C102.55 143.965 102.503 144.164 102.413 144.344L102.398 144.375C102.157 144.857 102.251 145.439 102.633 145.821C102.929 146.117 103.057 146.541 102.975 146.952L102.55 149.075L102.413 149.624C102.2 150.475 102.844 151.3 103.722 151.3C104.341 151.3 104.88 151.721 105.03 152.322L105.181 152.922C105.269 153.276 105.587 153.525 105.952 153.525C106.253 153.525 106.529 153.695 106.663 153.964L106.722 154.081C106.892 154.422 107.246 154.637 107.627 154.637C108.197 154.637 108.668 155.099 108.668 155.668V155.817C108.668 156.13 108.544 156.43 108.323 156.651L107.863 157.111C107.661 157.313 107.415 157.465 107.144 157.555L106.108 157.9C105.976 157.944 105.887 158.068 105.887 158.207C105.887 158.385 106.032 158.53 106.211 158.53H107.18C107.737 158.53 108.231 158.886 108.407 159.414L108.578 159.927C108.636 160.101 108.622 160.291 108.54 160.454L108.316 160.902C108.216 161.103 107.948 161.147 107.789 160.988C107.66 160.859 107.451 160.859 107.344 161.006C107.174 161.239 107 161.562 107 161.867C107 162.451 106.226 162.328 106.042 161.774L105.926 161.428C105.901 161.353 105.848 161.291 105.777 161.256C105.504 161.119 105.227 161.433 105.396 161.687L105.805 162.299C105.859 162.38 105.887 162.475 105.887 162.572V164.648C105.887 164.903 105.618 165.07 105.39 164.955L104.934 164.727C104.831 164.676 104.747 164.592 104.696 164.489L104.664 164.425C104.48 164.059 103.957 164.059 103.774 164.425C103.704 164.565 103.704 164.73 103.774 164.87L105.167 167.656C105.265 167.852 105.226 168.09 105.071 168.245C104.899 168.417 104.629 168.444 104.427 168.309L103.557 167.729C103.263 167.533 102.918 167.429 102.566 167.429H100.042C103.072 172.902 106.404 174.36 108.722 174.566C112.429 174.895 117.786 174.833 123.007 167.818C122.914 167.759 122.837 167.668 122.797 167.547C122.686 167.215 122.933 166.872 123.283 166.872C123.407 166.872 123.517 166.915 123.602 166.983C123.647 166.916 123.693 166.848 123.739 166.78C123.981 166.416 124.205 166.042 124.41 165.66C124.256 165.701 124.091 165.685 123.946 165.613L123.435 165.357C123.247 165.263 123.128 165.071 123.128 164.861C123.128 164.483 122.757 164.215 122.398 164.335L122.19 164.404C121.831 164.524 121.46 164.257 121.46 163.878C121.46 163.668 121.578 163.476 121.766 163.382L121.973 163.279C122.331 163.1 122.763 163.17 123.045 163.453L123.48 163.887C123.615 164.023 123.772 164.135 123.943 164.221L124.723 164.611C124.772 164.635 124.816 164.667 124.855 164.706C124.86 164.712 124.866 164.717 124.871 164.723C125.516 163.286 125.937 161.742 126.19 160.129C125.952 160.124 125.715 159.993 125.607 159.723C125.469 159.377 125.65 158.987 126.003 158.87C126.123 158.829 126.244 158.826 126.354 158.852C126.413 158.286 126.453 157.712 126.477 157.133C126.468 157.138 126.46 157.142 126.451 157.147L125.589 157.578C125.225 157.76 124.797 157.495 124.797 157.088C124.797 156.943 124.854 156.804 124.958 156.703C125.276 156.395 125.719 155.993 126.126 155.681C126.257 155.581 126.387 155.536 126.505 155.537C126.488 151.794 125.912 147.89 125.373 144.232C124.643 139.287 123.98 134.79 124.851 131.742C125.097 130.881 125.411 130.122 125.778 129.454C125.728 129.42 125.68 129.381 125.635 129.336C125.454 129.155 125.353 128.91 125.353 128.655V127.934C125.353 127.591 125.524 127.271 125.81 127.081C126.327 126.736 127.006 126.931 127.283 127.447C130.54 124.224 135.532 124.646 137.642 125.068C139.357 125.411 141.495 127.023 143.273 131.337C143.358 131.3 143.453 131.278 143.554 131.278H143.575C143.954 131.278 144.262 131.586 144.262 131.966C144.262 132.226 144.115 132.464 143.882 132.581L143.864 132.59C143.831 132.606 143.799 132.619 143.765 132.63C144.664 135.182 145.442 138.523 145.985 142.865C147.32 153.543 150.249 159.179 151.546 160.662L151.551 160.668C152.281 161.502 153.387 162.765 155.712 163.239C155.732 163.2 155.758 163.163 155.791 163.13L155.826 163.095C155.9 163.021 156 162.979 156.104 162.979C156.318 162.979 156.492 163.15 156.497 163.362C158.245 163.559 160.587 163.339 163.782 162.33C174.349 158.994 179.082 140.327 179.91 129.517C180.427 122.771 178.798 103.934 172.68 93.3671C172.179 92.5009 171.674 91.6576 171.156 90.8385L170.485 92.1802C170.434 92.2827 170.329 92.3475 170.214 92.3475C170.023 92.3475 169.88 92.1728 169.918 91.9855L170.263 90.2581C170.297 90.0898 170.403 89.9593 170.54 89.8872C166.849 84.319 162.313 79.9492 153.484 77.2147C153.547 77.3526 153.569 77.5114 153.537 77.6741L153.259 79.0645C153.202 79.3502 152.951 79.5559 152.66 79.5559C152.322 79.5559 152.048 79.2822 152.048 78.9446V77.5267C152.048 77.2601 152.187 77.0259 152.396 76.8924C150.619 76.3886 148.676 75.9468 146.541 75.5701ZM145.06 80.8967C143.948 81.2674 142.057 82.4539 143.391 84.2336C145.894 87.5706 155.071 93.1321 162.857 93.6883C164.637 93.6883 164.711 92.2052 164.525 91.4636C163.598 89.7952 161.745 86.792 158.408 84.7898C155.208 82.8703 149.509 80.3405 145.06 80.8967ZM162.42 86.35L163.033 86.5544C163.375 86.6683 163.728 86.414 163.728 86.0539C163.728 85.8268 163.582 85.6251 163.367 85.5533L162.754 85.3489C162.412 85.235 162.059 85.4893 162.059 85.8495C162.059 86.0766 162.204 86.2782 162.42 86.35ZM176.461 105.695H175.605C175.478 105.695 175.356 105.645 175.267 105.555L174.426 104.714C173.664 103.952 172.536 103.686 171.514 104.027C170.633 104.32 170.217 105.326 170.632 106.156L170.859 106.611C170.924 106.741 171.01 106.86 171.113 106.963L171.581 107.431C171.851 107.701 172.289 107.701 172.559 107.431L172.904 107.086C173.212 106.778 173.738 106.996 173.738 107.431C173.738 107.701 173.957 107.92 174.227 107.92H174.825C175.189 107.92 175.528 107.738 175.729 107.436L176.478 106.312C176.505 106.272 176.542 106.24 176.585 106.219C176.846 106.088 176.753 105.695 176.461 105.695ZM175.244 102.914C175.334 102.914 175.407 102.987 175.407 103.077C175.407 103.222 175.231 103.295 175.129 103.193C175.026 103.09 175.099 102.914 175.244 102.914ZM167.972 100.866C168.216 100.988 168.475 100.729 168.353 100.485C168.266 100.312 168.036 100.275 167.899 100.412C167.762 100.549 167.799 100.779 167.972 100.866ZM169.011 104.583C168.857 104.583 168.733 104.458 168.733 104.305V103.749C168.733 103.595 168.857 103.471 169.011 103.471C169.165 103.471 169.289 103.595 169.289 103.749V104.305C169.289 104.458 169.165 104.583 169.011 104.583ZM166.786 104.583H168.062C168.135 104.583 168.206 104.612 168.258 104.664C168.433 104.84 168.309 105.139 168.062 105.139H166.786C166.633 105.139 166.508 105.015 166.508 104.861C166.508 104.707 166.633 104.583 166.786 104.583ZM164.962 105.695H164.75C164.471 105.695 164.224 105.517 164.136 105.253C163.968 104.748 164.449 104.267 164.954 104.436L165.156 104.503C165.31 104.554 165.437 104.664 165.509 104.81C165.713 105.216 165.417 105.695 164.962 105.695ZM164.84 101.569V102.105C164.84 102.26 164.928 102.402 165.067 102.472C165.393 102.635 165.755 102.322 165.639 101.975L165.47 101.467C165.426 101.335 165.302 101.246 165.163 101.246C164.985 101.246 164.84 101.391 164.84 101.569ZM158.753 104.282L159.139 103.992C159.565 103.673 160.136 103.621 160.612 103.86C160.832 103.969 161.018 104.134 161.154 104.338L161.442 104.77C161.816 105.33 161.816 106.06 161.442 106.621C161.133 107.085 160.612 107.364 160.054 107.364H159.78C159.132 107.364 158.539 106.997 158.249 106.417C157.879 105.677 158.091 104.778 158.753 104.282ZM153.404 102.932C153.37 103.013 153.337 103.092 153.304 103.165C153.228 103.335 153.296 103.538 153.463 103.622L153.585 103.683C153.901 103.841 154.273 103.611 154.273 103.258V102.98C154.273 102.937 154.263 102.894 154.244 102.856C154.112 102.593 153.515 102.66 153.404 102.932ZM167.621 118.487C167.23 118.487 167.382 117.345 167.551 116.564C167.589 116.386 167.749 116.262 167.931 116.262C168.082 116.262 168.219 116.347 168.287 116.482L168.579 117.067C168.68 117.269 168.733 117.492 168.733 117.718V118.487C168.733 118.831 168.521 118.749 168.227 118.637C168.046 118.568 167.833 118.487 167.621 118.487ZM169.358 119.462L169.796 118.585C169.829 118.52 169.872 118.461 169.923 118.409L170.169 118.164C170.297 118.035 170.297 117.826 170.169 117.698C170.009 117.539 169.741 117.582 169.641 117.783L168.913 119.239C168.83 119.405 168.951 119.599 169.135 119.599C169.23 119.599 169.316 119.546 169.358 119.462ZM156.498 117.931V117.375C156.498 117.067 156.747 116.818 157.054 116.818C157.361 116.818 157.61 117.067 157.61 117.375V117.931C157.61 118.238 157.361 118.487 157.054 118.487C156.747 118.487 156.498 118.238 156.498 117.931ZM154.273 117.131V118.555C154.273 118.825 154.491 119.043 154.761 119.043C155.078 119.043 155.311 118.745 155.234 118.437L154.888 117.055C154.853 116.916 154.729 116.818 154.585 116.818C154.413 116.818 154.273 116.958 154.273 117.131ZM156.756 122.34L155.385 119.599L155.572 119.879C156.15 120.747 157.124 121.268 158.166 121.268C158.782 121.268 159.09 122.012 158.655 122.447L158.41 122.692C158.254 122.848 158.042 122.936 157.82 122.936H157.72C157.312 122.936 156.938 122.705 156.756 122.34ZM152.604 116.262H152.817C153.23 116.262 153.499 115.827 153.314 115.457C153.22 115.269 153.028 115.15 152.817 115.15H152.604C152.297 115.15 152.048 115.399 152.048 115.706C152.048 116.013 152.297 116.262 152.604 116.262ZM150.38 112.188V111.813C150.38 111.506 150.629 111.257 150.936 111.257H151.042C151.291 111.257 151.492 111.458 151.492 111.707C151.492 111.777 151.476 111.845 151.445 111.908L151.207 112.383C151.074 112.65 150.718 112.708 150.508 112.497C150.426 112.415 150.38 112.304 150.38 112.188ZM147.256 109.565C147.347 109.902 147.452 110.246 147.537 110.511C147.577 110.636 147.648 110.749 147.741 110.842C148.187 111.288 148.946 111.109 149.145 110.511L149.217 110.297C149.25 110.196 149.268 110.09 149.268 109.984V109.588C149.268 108.974 148.77 108.476 148.155 108.476C147.541 108.476 147.096 108.972 147.256 109.565ZM153.717 128.873V127.385C153.717 127.078 153.966 126.829 154.273 126.829H154.617C154.756 126.829 154.894 126.862 155.019 126.924L155.067 126.948C155.569 127.199 155.81 127.781 155.632 128.313L155.458 128.837C155.41 128.979 155.33 129.109 155.223 129.216L155.024 129.415C154.655 129.784 154.031 129.683 153.798 129.216C153.744 129.109 153.717 128.992 153.717 128.873ZM155.385 131.509V132.014C155.385 132.26 155.455 132.501 155.587 132.708L158.356 137.06C158.931 137.962 159.926 138.508 160.995 138.508H161.286C161.43 138.508 161.572 138.532 161.709 138.577L162.919 138.98C163.052 139.025 163.115 139.177 163.052 139.303C162.944 139.52 163.202 139.737 163.397 139.59L164.803 138.536C164.828 138.518 164.851 138.498 164.872 138.476L165.611 137.737C165.809 137.539 166.12 137.508 166.354 137.664C166.801 137.962 167.382 137.553 167.251 137.031L167.118 136.499C167.083 136.358 167.01 136.23 166.908 136.127L166.685 135.904C166.227 135.447 165.572 135.256 164.93 135.339C164.071 135.45 163.171 135.481 163.171 135.172C163.171 134.756 162.201 133.985 161.62 133.583C161.543 133.529 161.469 133.469 161.403 133.403L160.784 132.784C160.567 132.567 160.567 132.215 160.784 131.997C160.888 131.893 160.947 131.752 160.947 131.604V131.429C160.947 131.007 160.677 130.632 160.277 130.499L160.049 130.423C159.577 130.265 159.056 130.388 158.704 130.74L158.297 131.147C158.213 131.231 158.166 131.345 158.166 131.464C158.166 131.908 157.59 132.083 157.344 131.713L157.086 131.327C157.065 131.295 157.04 131.265 157.012 131.237L156.728 130.953C156.58 130.805 156.38 130.722 156.172 130.722C155.737 130.722 155.385 131.074 155.385 131.509ZM153.592 133.336L152.813 132.298C152.498 131.878 152.798 131.278 153.323 131.278C153.564 131.278 153.785 131.415 153.893 131.631L154.667 133.178C154.747 133.338 154.96 133.373 155.086 133.246C155.223 133.109 155.458 133.164 155.519 133.349L155.828 134.275C155.901 134.493 155.884 134.731 155.781 134.936L155.138 136.221C154.935 136.628 154.829 137.077 154.829 137.532V138.033C154.829 138.342 154.729 138.642 154.544 138.888L153.768 139.923C153.489 140.295 152.916 140.244 152.708 139.828C152.641 139.694 152.624 139.541 152.661 139.396L153.034 137.902C153.118 137.566 153.239 137.24 153.394 136.93L153.708 136.302C154.07 135.578 154.129 134.74 153.873 133.973L153.783 133.701C153.739 133.57 153.674 133.447 153.592 133.336ZM156.776 139.343L158.086 140.653C158.137 140.704 158.207 140.733 158.279 140.733C158.483 140.733 158.615 140.519 158.524 140.337L158.217 139.722C158.183 139.655 158.139 139.594 158.086 139.541L157.332 138.787C157.178 138.633 156.929 138.633 156.776 138.787C156.622 138.94 156.622 139.189 156.776 139.343ZM155.712 144.185L155.404 144.339C155.101 144.49 154.733 144.338 154.626 144.016C154.48 143.58 154.895 143.165 155.331 143.31L155.657 143.419C155.827 143.476 155.941 143.634 155.941 143.813C155.941 143.971 155.852 144.114 155.712 144.185ZM151.492 145.738V146.295C151.492 146.602 151.741 146.851 152.048 146.851C152.355 146.851 152.604 146.602 152.604 146.295V145.738C152.604 145.431 152.355 145.182 152.048 145.182C151.741 145.182 151.492 145.431 151.492 145.738ZM147.669 144.556L148.318 143.907C148.463 143.762 148.711 143.865 148.711 144.07V145.101C148.711 145.453 148.426 145.738 148.074 145.738C147.6 145.738 147.292 145.24 147.504 144.816L147.555 144.715C147.584 144.656 147.623 144.603 147.669 144.556ZM150.258 149.944L151.053 151.535C151.301 152.031 152.048 151.854 152.048 151.3V150.531C152.048 149.98 151.737 149.476 151.243 149.229L151.063 149.139C150.979 149.097 150.887 149.075 150.794 149.075C150.348 149.075 150.058 149.545 150.258 149.944ZM149.563 154.246L148.887 153.232C148.785 153.079 148.805 152.875 148.935 152.745C149.107 152.573 149.393 152.601 149.528 152.804L150.204 153.818C150.306 153.971 150.286 154.174 150.156 154.304C149.984 154.476 149.698 154.448 149.563 154.246ZM158.33 150.94L158.447 150.881C158.616 150.797 158.722 150.625 158.722 150.436C158.722 150.067 158.333 149.826 158.002 149.992L157.885 150.05C157.716 150.135 157.61 150.307 157.61 150.495C157.61 150.865 157.999 151.105 158.33 150.94ZM169.547 146.811L169.249 146.215C169.012 145.74 169.357 145.182 169.887 145.182C170.194 145.182 170.467 145.379 170.564 145.67L170.775 146.303C170.88 146.617 170.737 146.961 170.441 147.109C170.112 147.274 169.712 147.14 169.547 146.811ZM171.907 150.025L172.37 150.488C172.523 150.641 172.756 150.679 172.95 150.582L173.681 150.216C173.718 150.198 173.748 150.168 173.767 150.131L173.965 149.735C174.026 149.613 173.869 149.501 173.773 149.597C173.751 149.619 173.721 149.632 173.689 149.632H172.07C171.865 149.632 171.762 149.88 171.907 150.025ZM170.12 152.138L170.657 151.601C170.837 151.421 171.111 151.377 171.338 151.49L171.366 151.504C171.713 151.677 171.787 152.139 171.514 152.412L170.584 153.342C170.463 153.463 170.362 153.603 170.286 153.756L169.947 154.434C169.885 154.558 169.758 154.637 169.619 154.637H169.449C169.185 154.637 169.053 154.317 169.24 154.13C169.272 154.098 169.297 154.058 169.311 154.014L169.723 152.781C169.803 152.538 169.939 152.318 170.12 152.138ZM164.284 154.081C163.977 154.081 163.728 154.33 163.728 154.637C163.728 155.171 164.408 155.398 164.729 154.971C165.004 154.604 164.742 154.081 164.284 154.081ZM154.273 155.881V155.537C154.273 155.347 154.427 155.193 154.617 155.193C154.747 155.193 154.866 155.267 154.924 155.383L155.078 155.691C155.219 155.973 155.014 156.305 154.698 156.305C154.463 156.305 154.273 156.115 154.273 155.881ZM140.254 118.046L139.487 118.813C139.34 118.96 139.257 119.16 139.257 119.369C139.257 119.803 139.609 120.155 140.043 120.155H140.091C140.552 120.155 140.925 119.782 140.925 119.321V118.324C140.925 118.107 140.749 117.931 140.532 117.931C140.428 117.931 140.328 117.972 140.254 118.046ZM142.444 110.443L142.96 109.412C143.076 109.179 143.314 109.032 143.575 109.032C143.954 109.032 144.262 109.34 144.262 109.72V110.357C144.262 110.547 144.416 110.701 144.606 110.701C144.736 110.701 144.855 110.774 144.913 110.891L145.126 111.315C145.282 111.629 145.282 111.997 145.126 112.31L145.07 112.421C144.909 112.744 144.624 112.99 144.282 113.104C143.634 113.32 142.923 113.028 142.617 112.417L142.444 112.07C142.188 111.558 142.188 110.955 142.444 110.443ZM131.163 104.543L131.687 105.242C131.907 105.535 132.221 105.744 132.576 105.833L134.251 106.251L137.032 107.364L137.574 107.635C137.924 107.81 138.144 108.167 138.144 108.557V109.032C138.144 109.339 137.895 109.588 137.588 109.588C137.281 109.588 137.032 109.837 137.032 110.144V110.375C137.032 110.583 137.115 110.783 137.262 110.931L137.588 111.257C137.944 111.613 138.144 112.096 138.144 112.599V113.194C138.144 113.378 138.071 113.554 137.941 113.684C137.73 113.895 137.678 114.218 137.812 114.484L137.954 114.77C138.071 115.003 138.309 115.15 138.569 115.15C138.949 115.15 139.257 114.842 139.257 114.462V113.956C139.257 113.665 139.421 113.399 139.682 113.269L139.944 113.138C140.179 113.02 140.274 112.735 140.157 112.5C139.999 112.185 140.228 111.813 140.581 111.813H140.597C140.795 111.813 140.973 111.692 141.047 111.508L141.746 109.76C141.886 109.412 141.629 109.032 141.253 109.032C141.052 109.032 140.868 109.146 140.778 109.326L140.754 109.375C140.564 109.754 140.06 109.835 139.761 109.536L139.417 109.192C139.314 109.09 139.257 108.951 139.257 108.805V108.78C139.257 108.385 139.673 108.128 140.026 108.305L140.108 108.345C140.264 108.423 140.452 108.393 140.576 108.269C140.756 108.089 140.727 107.787 140.514 107.646L139.257 106.808L132.394 103.112C132.16 102.986 131.883 102.962 131.63 103.047C131.005 103.255 130.767 104.016 131.163 104.543ZM133.008 110.701H132.158C131.778 110.701 131.471 110.393 131.471 110.013C131.471 109.753 131.618 109.515 131.851 109.398L132.085 109.281C132.399 109.124 132.767 109.124 133.08 109.281L133.315 109.398C133.548 109.515 133.695 109.753 133.695 110.013C133.695 110.393 133.387 110.701 133.008 110.701ZM131.221 117.182L131.39 117.69C131.442 117.844 131.552 117.971 131.697 118.044C132.104 118.247 132.583 117.952 132.583 117.497V116.961C132.583 116.575 132.27 116.262 131.884 116.262C131.407 116.262 131.07 116.73 131.221 117.182ZM126.512 111.025L127.448 110.838C127.803 110.767 128.134 111.038 128.134 111.4C128.134 111.647 127.976 111.866 127.742 111.944L126.836 112.245C126.609 112.321 126.358 112.262 126.189 112.093C125.831 111.735 126.016 111.124 126.512 111.025ZM124.797 113.04V113.785C124.797 114.303 124.24 115.111 124.24 114.594V113.04C124.24 112.793 124.54 112.669 124.715 112.844C124.767 112.896 124.797 112.967 124.797 113.04ZM126.648 122.944L126.677 122.856C126.835 122.382 127.437 122.24 127.791 122.593C127.995 122.798 128.046 123.111 127.917 123.37L127.875 123.453C127.711 123.782 127.311 123.915 126.982 123.751C126.685 123.602 126.543 123.259 126.648 122.944ZM117.092 129.054H116.55C116.133 129.054 115.732 128.888 115.437 128.593L115.131 128.287C114.91 128.066 114.786 127.766 114.786 127.453V127.173C114.786 126.676 115.189 126.273 115.686 126.273C115.825 126.273 115.963 126.306 116.088 126.368L117.553 127.1C117.902 127.275 118.123 127.632 118.123 128.023C118.123 128.592 117.661 129.054 117.092 129.054ZM112.005 131.147V129.054C112.005 128.747 112.254 128.498 112.561 128.498C112.868 128.498 113.117 128.747 113.117 129.054V129.879C113.117 130.063 113.19 130.239 113.32 130.369C113.531 130.58 113.584 130.902 113.45 131.169L113.307 131.455C113.191 131.687 112.953 131.835 112.692 131.835C112.313 131.835 112.005 131.527 112.005 131.147ZM114.054 132.362L114.007 132.502C113.827 133.042 114.145 133.621 114.697 133.759L115.537 133.969C115.77 134.027 116.016 134 116.231 133.893C116.678 133.669 116.893 133.151 116.735 132.676L116.707 132.592C116.556 132.14 116.133 131.835 115.656 131.835H114.786C114.454 131.835 114.159 132.047 114.054 132.362ZM115.722 135.347L115.745 135.324C116.094 134.976 116.682 135.071 116.903 135.512C116.973 135.652 117.086 135.765 117.226 135.835L117.933 136.189C118.049 136.247 118.123 136.366 118.123 136.496C118.123 136.686 117.969 136.84 117.779 136.84H116.472C116.12 136.84 115.799 136.641 115.641 136.326L115.582 136.209C115.439 135.921 115.495 135.574 115.722 135.347ZM120.691 137.396H121.035C121.269 137.396 121.46 137.206 121.46 136.971C121.46 136.655 121.127 136.45 120.845 136.591L120.537 136.745C120.421 136.803 120.347 136.922 120.347 137.052C120.347 137.242 120.501 137.396 120.691 137.396ZM114.786 135.99V135.172C114.786 134.864 114.537 134.615 114.23 134.615C113.923 134.615 113.674 134.864 113.674 135.172V135.606C113.674 135.687 113.664 135.767 113.644 135.846L113.252 137.414C113.168 137.748 113.266 138.101 113.51 138.345C113.617 138.452 113.749 138.534 113.893 138.582L114.774 138.875C115.113 138.988 115.342 139.306 115.342 139.663C115.342 139.978 115.52 140.266 115.801 140.407L116.008 140.51C116.294 140.653 116.625 140.676 116.928 140.575L117.882 140.257C118.036 140.206 118.164 140.095 118.236 139.95C118.44 139.543 118.144 139.065 117.689 139.065H117.648C117.296 139.065 117.01 138.779 117.01 138.427V138.377C117.01 138.117 116.863 137.879 116.63 137.762L115.546 137.22C115.08 136.987 114.786 136.511 114.786 135.99ZM120.347 140.733C120.347 140.426 120.098 140.177 119.791 140.177C119.484 140.177 119.235 140.426 119.235 140.733C119.235 141.04 119.484 141.289 119.791 141.289C120.098 141.289 120.347 141.04 120.347 140.733ZM118.123 146.064V145.657C118.123 145.366 118.287 145.1 118.548 144.97C118.927 144.78 119.081 144.318 118.891 143.939L118.842 143.84C118.738 143.631 118.72 143.39 118.794 143.168L118.97 142.64C119.128 142.166 119.573 141.845 120.073 141.845C120.253 141.845 120.431 141.887 120.593 141.968L120.828 142.086C121.233 142.288 121.54 142.642 121.683 143.071L121.718 143.177C121.901 143.724 121.758 144.328 121.35 144.736L121.297 144.789C121.045 145.041 120.904 145.382 120.904 145.738V146.114C120.904 146.23 120.858 146.341 120.776 146.423L120.708 146.491C120.53 146.668 120.232 146.619 120.12 146.395C119.984 146.125 119.598 146.125 119.463 146.395L119.257 146.806C119.243 146.836 119.235 146.868 119.235 146.9C119.235 147.087 119.009 147.181 118.877 147.049L118.286 146.458C118.181 146.353 118.123 146.212 118.123 146.064ZM123.352 145.629L123.494 145.915C123.611 146.148 123.849 146.295 124.109 146.295C124.489 146.295 124.797 145.987 124.797 145.607V145.413C124.797 144.978 124.444 144.626 124.01 144.626H123.971C123.788 144.626 123.611 144.699 123.481 144.829C123.27 145.04 123.218 145.362 123.352 145.629ZM122.016 149.288V148.519C122.016 148.212 122.265 147.963 122.572 147.963C122.879 147.963 123.128 148.212 123.128 148.519V149.288C123.128 149.499 123.009 149.691 122.821 149.785C122.451 149.97 122.016 149.701 122.016 149.288ZM120.904 149.308C120.904 149.18 120.799 149.075 120.671 149.075C120.512 149.075 120.399 149.231 120.45 149.382C120.533 149.633 120.904 149.573 120.904 149.308ZM118.842 150.581C118.752 150.671 118.752 150.817 118.842 150.907C118.987 151.052 119.235 150.949 119.235 150.744C119.235 150.539 118.987 150.436 118.842 150.581ZM111.509 162.167L111.808 163.665C111.923 164.236 112.424 164.648 113.007 164.648H113.505C113.905 164.648 114.23 164.323 114.23 163.923C114.23 163.681 114.109 163.455 113.907 163.32L113.139 162.808C112.84 162.609 112.798 162.186 113.052 161.932C113.095 161.889 113.131 161.839 113.159 161.784L113.28 161.541C113.532 161.038 113.573 160.455 113.395 159.92L113.368 159.838C113.207 159.357 113.245 158.831 113.472 158.378C113.604 158.112 113.674 157.819 113.674 157.522V156.699C113.674 156.447 113.573 156.205 113.395 156.027C113.217 155.849 113.117 155.608 113.117 155.356V154.768C113.117 154.347 113.355 153.962 113.732 153.773C114.045 153.617 114.414 153.617 114.727 153.773C115.104 153.962 115.342 154.347 115.342 154.768V155.749C115.342 155.935 115.453 156.417 115.898 156.862C116.303 157.267 116.432 158.01 116.451 158.419C116.455 158.492 116.471 158.564 116.504 158.629C116.691 159.003 117.236 158.964 117.369 158.568L117.507 158.154C117.546 158.036 117.551 157.91 117.521 157.79L117.163 156.361C117.063 155.961 116.856 155.595 116.565 155.304L116.291 155.03C116.04 154.778 115.898 154.437 115.898 154.081V153.755C115.898 153.608 115.957 153.466 116.061 153.362C116.278 153.145 116.63 153.145 116.848 153.362C116.952 153.466 117.093 153.525 117.241 153.525H117.892C118.327 153.525 118.679 153.173 118.679 152.738C118.679 152.53 118.596 152.329 118.449 152.182L117.97 151.704C117.705 151.438 117.505 151.115 117.386 150.758L117.01 149.632L116.56 147.831C116.491 147.553 116.348 147.3 116.145 147.098L115.9 146.853C115.567 146.52 115.057 146.437 114.636 146.648C114.376 146.778 114.178 147.006 114.086 147.281L113.674 148.519L113.191 150.448C113.142 150.645 113.117 150.846 113.117 151.049V152.969C113.117 153.276 112.868 153.525 112.561 153.525C112.254 153.525 112.005 153.774 112.005 154.081V158.693C112.005 158.945 111.905 159.186 111.727 159.364C111.549 159.542 111.449 159.784 111.449 160.036V161.561C111.449 161.765 111.469 161.967 111.509 162.167ZM112.561 145.182V144.07C112.561 143.763 112.81 143.514 113.117 143.514C113.425 143.514 113.674 143.763 113.674 144.07V145.182C113.674 145.489 113.425 145.738 113.117 145.738C112.81 145.738 112.561 145.489 112.561 145.182ZM110.739 140.947L110.441 142.435C110.414 142.571 110.336 142.701 110.259 142.83C110.143 143.024 110.03 143.215 110.098 143.412C110.119 143.473 110.189 143.514 110.337 143.514C110.983 143.514 111.54 143.057 111.667 142.423L111.915 141.182C111.968 140.917 111.837 140.649 111.595 140.528C111.241 140.351 110.816 140.559 110.739 140.947ZM110.337 136.562V136.215C110.337 135.946 110.555 135.728 110.824 135.728C111.142 135.728 111.374 136.026 111.297 136.334L111.12 137.043C111.005 137.505 111.354 137.952 111.83 137.952H112.168C112.385 137.952 112.561 138.128 112.561 138.346C112.561 138.45 112.52 138.55 112.446 138.624L112.207 138.863C112.074 138.995 111.912 139.096 111.734 139.155L111.02 139.393C110.59 139.536 110.252 139.874 110.109 140.304L109.97 140.721C109.857 141.06 109.539 141.289 109.182 141.289C108.867 141.289 108.579 141.111 108.438 140.83L108.381 140.716C108.215 140.382 108.241 139.987 108.435 139.669C108.802 139.068 109.224 138.288 109.224 137.952C109.224 137.769 109.35 137.642 109.524 137.557C109.938 137.353 110.337 137.023 110.337 136.562ZM103.291 135.176L103.407 134.827C103.542 134.422 104.005 134.23 104.387 134.421C104.625 134.54 104.775 134.783 104.775 135.049V135.417C104.775 136.025 104.097 136.388 103.591 136.05C103.305 135.86 103.182 135.502 103.291 135.176ZM108.24 126.401C108.163 126.325 108.145 126.208 108.193 126.111C108.311 125.874 108.668 125.959 108.668 126.223C108.668 126.447 108.398 126.559 108.24 126.401ZM104.775 128.748V126.562C104.775 126.174 104.367 125.921 104.019 126.095C103.809 126.2 103.695 126.433 103.741 126.664L104.17 128.808C104.198 128.951 104.324 129.054 104.469 129.054C104.638 129.054 104.775 128.917 104.775 128.748ZM102.55 129.398V129.954C102.55 130.307 102.922 130.536 103.238 130.379C103.472 130.261 103.568 129.976 103.45 129.741L103.202 129.244C103.143 129.127 103.024 129.054 102.894 129.054C102.704 129.054 102.55 129.208 102.55 129.398ZM101.438 128.776V128.22C101.438 128.066 101.563 127.941 101.716 127.941C101.87 127.941 101.994 128.066 101.994 128.22V128.776C101.994 128.929 101.87 129.054 101.716 129.054C101.563 129.054 101.438 128.929 101.438 128.776ZM101.275 126.436C101.365 126.346 101.365 126.2 101.275 126.11C101.13 125.965 100.882 126.068 100.882 126.273C100.882 126.478 101.13 126.581 101.275 126.436ZM97.3146 123.492H96.7262C96.2055 123.492 95.7294 123.786 95.4965 124.252L95.4741 124.297C95.373 124.499 95.3203 124.722 95.3203 124.948V127.023C95.3203 127.223 95.4825 127.385 95.6826 127.385C95.8037 127.385 95.9169 127.325 95.984 127.224L96.8205 125.969C96.9324 125.801 97.0607 125.645 97.2034 125.502L97.8708 124.835C98.0183 124.687 98.1011 124.487 98.1011 124.279C98.1011 123.844 97.749 123.492 97.3146 123.492ZM97.3412 133.151L97.4896 133.002C97.5263 132.966 97.5568 132.923 97.58 132.877C97.7723 132.492 97.4036 132.067 96.9956 132.203L96.7966 132.269C96.5792 132.342 96.4327 132.545 96.4327 132.774C96.4327 133.248 97.0059 133.486 97.3412 133.151ZM110.824 150.641L109.888 149.237C109.821 149.136 109.708 149.075 109.587 149.075C109.386 149.075 109.224 149.238 109.224 149.438V149.862C109.224 150.071 109.307 150.271 109.455 150.418L110.194 151.157C110.452 151.415 110.893 151.233 110.893 150.868C110.893 150.787 110.869 150.708 110.824 150.641ZM120.347 153.289V153.755C120.347 153.964 120.265 154.164 120.117 154.311L119.972 154.456C119.856 154.572 119.699 154.637 119.535 154.637C119.114 154.637 118.817 154.224 118.95 153.824L119.191 153.101C119.22 153.014 119.269 152.935 119.334 152.869C119.708 152.496 120.347 152.76 120.347 153.289ZM120.384 158.422L120.66 157.592C120.78 157.232 120.513 156.862 120.134 156.862C119.924 156.862 119.732 156.98 119.638 157.168L119.382 157.679C119.29 157.865 119.29 158.083 119.382 158.269L119.491 158.485C119.639 158.781 120.033 158.845 120.267 158.611C120.32 158.558 120.36 158.493 120.384 158.422ZM123.684 154.915V156.584C123.684 156.737 123.809 156.862 123.962 156.862C124.116 156.862 124.24 156.737 124.24 156.584V154.915C124.24 154.761 124.116 154.637 123.962 154.637C123.809 154.637 123.684 154.761 123.684 154.915ZM123.128 159.364V159.527C123.128 159.601 123.099 159.672 123.047 159.724C122.872 159.899 122.572 159.775 122.572 159.527V159.364C122.572 159.211 122.697 159.086 122.85 159.086C123.004 159.086 123.128 159.211 123.128 159.364ZM119.791 163.814C119.791 163.66 119.916 163.535 120.069 163.535C120.223 163.535 120.347 163.66 120.347 163.814C120.347 163.967 120.223 164.092 120.069 164.092C119.916 164.092 119.791 163.967 119.791 163.814ZM116.883 164.82L116.813 164.61C116.68 164.214 117.094 163.855 117.468 164.042C117.533 164.075 117.605 164.092 117.677 164.092H118.227C118.524 164.092 118.817 164.161 119.083 164.294L119.43 164.467C119.661 164.583 119.837 164.786 119.919 165.031L120.212 165.91C120.279 166.11 120.13 166.316 119.919 166.316C119.837 166.316 119.759 166.284 119.701 166.226L119.109 165.635C118.834 165.359 118.46 165.204 118.07 165.204H117.415C117.173 165.204 116.959 165.049 116.883 164.82ZM115.575 161.311C115.734 161.311 115.846 161.155 115.796 161.004C115.712 160.754 115.342 160.814 115.342 161.078C115.342 161.207 115.446 161.311 115.575 161.311ZM120.904 166.66C120.904 166.777 120.999 166.872 121.116 166.872C121.274 166.872 121.377 166.706 121.306 166.565C121.206 166.364 120.904 166.436 120.904 166.66ZM119.638 106.074C120.055 106.178 120.347 106.553 120.347 106.983C120.347 107.5 119.928 107.92 119.41 107.92C118.981 107.92 118.606 107.627 118.501 107.21C118.33 106.524 118.951 105.902 119.638 106.074ZM116.82 106.903C116.937 106.844 117.01 106.725 117.01 106.595C117.01 106.405 116.857 106.251 116.667 106.251H116.323C116.088 106.251 115.898 106.442 115.898 106.676C115.898 106.992 116.231 107.197 116.513 107.056L116.82 106.903ZM113.578 104.853L113.511 104.65C113.365 104.215 113.819 103.822 114.23 104.027L115.035 104.43C115.223 104.524 115.342 104.716 115.342 104.926C115.342 105.304 114.971 105.572 114.612 105.452L113.96 105.234C113.78 105.174 113.638 105.033 113.578 104.853ZM118.304 101.246H118.466C118.82 101.246 119.049 100.874 118.891 100.559C118.774 100.324 118.489 100.229 118.254 100.346L118.108 100.419C117.842 100.552 117.784 100.907 117.995 101.118C118.077 101.2 118.188 101.246 118.304 101.246ZM104.127 106.616C103.996 106.331 103.829 105.93 103.736 105.582C103.671 105.342 103.864 105.139 104.113 105.139C104.182 105.139 104.251 105.155 104.314 105.187L104.919 105.489C105.171 105.615 105.331 105.874 105.331 106.156V106.333C105.331 106.806 104.833 107.114 104.409 106.903C104.286 106.841 104.185 106.741 104.127 106.616ZM101.438 105.032C101.438 104.784 101.237 104.583 100.989 104.583C100.671 104.583 100.454 104.904 100.572 105.199C100.756 105.658 101.438 105.526 101.438 105.032ZM109.224 95.8968V95.6843C109.224 95.3772 109.473 95.1282 109.78 95.1282C110.088 95.1282 110.337 95.3772 110.337 95.6844V95.8968C110.337 96.1075 110.218 96.3001 110.029 96.3943C109.659 96.5792 109.224 96.3103 109.224 95.8968ZM107.844 92.629L108.017 92.6866C108.316 92.7863 108.406 93.166 108.183 93.389C108.136 93.4355 108.101 93.4925 108.08 93.555C107.938 93.9825 107.32 93.9474 107.231 93.5054L107.174 93.2205C107.096 92.8315 107.468 92.5036 107.844 92.629ZM123.128 89.0105V88.4544C123.128 88.1472 123.377 87.8982 123.684 87.8982C123.991 87.8982 124.24 88.1472 124.24 88.4544V89.0105C124.24 89.3177 123.991 89.5667 123.684 89.5667C123.377 89.5667 123.128 89.3177 123.128 89.0105ZM131.471 84.5613V87.8982C131.471 88.2054 131.72 88.4544 132.027 88.4544C132.334 88.4544 132.583 88.2054 132.583 87.8982V87.064C132.583 86.9104 132.458 86.7859 132.305 86.7859C132.151 86.7859 132.027 86.6614 132.027 86.5078V86.3926C132.027 86.2883 132.068 86.1883 132.142 86.1146L132.305 85.9517C132.483 85.7736 132.583 85.5321 132.583 85.2803V84.5613C132.583 84.2541 132.334 84.0051 132.027 84.0051C131.72 84.0051 131.471 84.2541 131.471 84.5613ZM130.8 94.8986L130.582 94.4627C130.448 94.1959 130.5 93.8737 130.711 93.6627L130.734 93.6406C130.849 93.5248 131.006 93.4598 131.17 93.4598C131.591 93.4598 131.889 93.8726 131.756 94.2724L131.565 94.8442C131.509 95.0138 131.35 95.1282 131.171 95.1282C131.014 95.1282 130.87 95.0393 130.8 94.8986ZM143.287 92.9724L143.902 93.2798C144.068 93.3625 144.262 93.2422 144.262 93.0573C144.262 92.9631 144.209 92.877 144.125 92.8349L143.51 92.5274C143.344 92.4447 143.15 92.565 143.15 92.7499C143.15 92.8441 143.203 92.9302 143.287 92.9724ZM145.374 103.749V101.524C145.374 101.37 145.499 101.246 145.652 101.246C145.806 101.246 145.931 101.37 145.931 101.524V103.749C145.931 103.902 145.806 104.027 145.652 104.027C145.499 104.027 145.374 103.902 145.374 103.749ZM145.176 126.311L144.92 127.081C144.858 127.268 144.906 127.473 145.045 127.612C145.372 127.939 145.931 127.707 145.931 127.245V126.433C145.931 126.331 145.89 126.232 145.817 126.16C145.614 125.956 145.267 126.038 145.176 126.311ZM144.277 129.325L144.131 129.398C143.896 129.515 143.611 129.42 143.494 129.185C143.336 128.869 143.565 128.498 143.918 128.498H144.081C144.197 128.498 144.308 128.544 144.39 128.625C144.601 128.836 144.543 129.191 144.277 129.325ZM145.374 131.757V132.605C145.374 133.147 145.705 133.635 146.208 133.837L147.447 134.332C147.847 134.492 148.303 134.319 148.496 133.933C148.629 133.667 148.61 133.35 148.445 133.103L148.012 132.455C147.744 132.053 147.35 131.752 146.892 131.599L146.004 131.303C145.955 131.287 145.904 131.278 145.853 131.278C145.589 131.278 145.374 131.493 145.374 131.757ZM150.868 130.722H149.999C149.595 130.722 149.268 130.395 149.268 129.991C149.268 129.515 149.715 129.166 150.176 129.281L151.019 129.492C151.297 129.561 151.492 129.811 151.492 130.098C151.492 130.443 151.212 130.722 150.868 130.722ZM150.867 126.967L150.56 127.582C150.477 127.747 150.597 127.941 150.782 127.941C150.876 127.941 150.963 127.888 151.005 127.804L151.312 127.189C151.395 127.024 151.275 126.829 151.09 126.829C150.995 126.829 150.909 126.882 150.867 126.967ZM112.219 124.262L112.273 124.316C112.661 124.704 113.322 124.548 113.495 124.027C113.6 123.711 113.481 123.364 113.204 123.179L113.141 123.137C112.656 122.814 112.005 123.162 112.005 123.746C112.005 123.939 112.082 124.125 112.219 124.262ZM109.492 163.76L109.716 164.88C109.758 165.093 109.848 165.294 109.978 165.468L111.3 167.23C111.394 167.355 111.541 167.429 111.698 167.429C111.886 167.429 112.058 167.322 112.143 167.154L112.292 166.855C112.458 166.522 112.434 166.125 112.227 165.815L111.655 164.957C111.518 164.752 111.409 164.529 111.331 164.295L111.018 163.355C110.939 163.118 110.754 162.933 110.517 162.854C109.941 162.662 109.372 163.164 109.492 163.76ZM108.112 165.482V163.814C108.112 163.66 108.236 163.535 108.39 163.535C108.544 163.535 108.668 163.66 108.668 163.814V165.482C108.668 165.636 108.544 165.76 108.39 165.76C108.236 165.76 108.112 165.636 108.112 165.482ZM106.146 166.833L106.29 167.122C106.384 167.31 106.576 167.429 106.786 167.429C107.165 167.429 107.432 167.058 107.312 166.699L107.21 166.392C107.099 166.058 106.718 165.901 106.404 166.058C106.119 166.201 106.003 166.548 106.146 166.833Z" fill="#202020"/>
<path d="M87.3297 136.513C87.3867 136.284 87.2898 136.046 87.0936 135.915L86.667 135.63C86.4692 135.499 86.2042 135.64 86.2042 135.878V137.733C86.2042 137.937 86.37 138.103 86.5744 138.103C86.7271 138.103 86.8646 138.009 86.917 137.866C87.078 137.425 87.2151 136.973 87.3297 136.513Z" fill="#D64517"/>
<path fill-rule="evenodd" clip-rule="evenodd" d="M32.0395 0.882419C24.8095 0.140877 9.01465 1.77227 3.67554 14.2302C2.19261 17.6904 1.24742 21.6597 0.687424 25.7592C0.647156 26.0539 0.877238 26.3152 1.17476 26.3152C1.44743 26.3152 1.66847 26.5363 1.66847 26.8089V28.5398C1.66847 28.847 1.41947 29.096 1.11231 29.096C0.805156 29.096 0.556156 28.847 0.556156 28.5398V26.8772C0.556156 26.874 0.553553 26.8714 0.550342 26.8714C0.547397 26.8714 0.544917 26.8736 0.544568 26.8765C0.380273 28.2539 0.257486 29.642 0.170509 31.0266C0.154588 31.2801 0.460062 31.4167 0.639633 31.2372C0.814064 31.0627 1.11231 31.1863 1.11231 31.4329V33.0055C1.11231 33.3036 0.870636 33.5453 0.572512 33.5453C0.281343 33.5453 0.0424704 33.7763 0.0345282 34.0673C-0.0584233 37.4738 0.0435712 40.7948 0.253266 43.8137C0.35401 45.264 0.787925 46.6691 1.48411 47.9454L2.98896 50.7043C3.21729 51.1229 3.33694 51.5921 3.33694 52.069V53.2437C3.33694 53.7688 3.67298 54.2351 4.17117 54.4011C4.66937 54.5672 5.00541 55.0334 5.00541 55.5586V55.6602C5.00541 56.0815 4.76737 56.4667 4.39054 56.6551C4.07739 56.8117 3.7088 56.8117 3.39565 56.6551C3.01882 56.4667 2.78078 56.0815 2.78078 55.6602V53.385C2.78078 53.1512 2.66393 52.9328 2.46939 52.8031C1.96286 52.4654 1.30034 52.8909 1.40912 53.4898C1.42306 53.5666 1.437 53.6424 1.45092 53.7173C1.94708 58.6788 3.0574 65.9103 4.91514 74.1539C4.92714 74.2072 5.00541 74.1993 5.00541 74.1447V72.8313C5.00541 72.6352 5.16439 72.4762 5.36051 72.4762C5.48524 72.4762 5.60083 72.5416 5.66501 72.6486L6.96564 74.8163C7.12102 75.0753 7.08021 75.4068 6.86665 75.6204C6.74322 75.7438 6.57581 75.8131 6.40125 75.8131H6.33317C5.80321 75.8131 5.41093 76.3045 5.53412 76.82C9.33411 92.7187 15.8336 111.73 25.9218 125.461C26.0949 125.697 26.3933 125.804 26.6768 125.733L27.3064 125.575C27.9279 125.42 28.364 124.862 28.364 124.221V124.036C28.364 123.784 28.464 123.543 28.6421 123.365C28.8201 123.186 28.9201 122.945 28.9201 122.693V122.143C28.9201 122.033 28.9526 121.925 29.0135 121.834L29.322 121.371C29.5349 121.052 30.0324 121.203 30.0324 121.586C30.0324 121.801 30.2061 121.974 30.4202 121.974H30.7313C31.2083 121.974 31.5451 122.441 31.3943 122.894L31.255 123.312C31.1836 123.526 31.0427 123.711 30.8546 123.836L30.2193 124.26C29.8658 124.495 29.8658 125.015 30.2193 125.25L30.3872 125.362C30.711 125.578 31.1448 125.346 31.1448 124.957C31.1448 124.828 31.1961 124.704 31.2875 124.612L32.8132 123.086C33.0903 122.809 33.552 123.095 33.4281 123.466C33.3911 123.577 33.3039 123.663 33.1948 123.705C32.6308 123.922 31.8558 124.354 32.2571 124.755C33.0245 125.522 34.1899 124.65 34.593 123.643L35.0379 122.53C35.594 121.047 36.8176 118.303 37.2625 119.193C37.6421 119.953 37.7626 120.194 37.8009 120.447C37.8186 120.565 37.8186 120.685 37.8186 120.862C37.8186 121.03 37.8696 121.301 37.9253 121.596C38.0534 122.275 38.2064 123.086 37.8186 123.086C37.5849 123.086 37.2385 123.394 36.9086 123.766L36.9056 123.769C36.3555 124.39 35.5647 125.282 36.1502 125.867C36.5379 126.255 37.1961 126.102 37.7475 125.974C37.987 125.918 38.2064 125.867 38.3748 125.867C38.4737 125.867 38.5561 125.831 38.6244 125.77L38.6419 125.754C39.0107 125.424 39.4626 125.021 39.9016 125.24C39.9948 125.287 40.0975 125.311 40.2016 125.311H40.2557C40.7527 125.311 41.1556 125.714 41.1556 126.211V126.398C41.1556 126.761 40.974 127.101 40.6716 127.302L40.0733 127.701C39.6911 127.956 39.2419 128.092 38.7825 128.092H38.2794C37.9844 128.092 37.7014 128.209 37.4928 128.418L37.0996 128.811C36.8824 129.028 36.5303 129.028 36.3131 128.811C36.2088 128.707 36.0673 128.648 35.9198 128.648H35.0379C34.8654 128.648 34.6873 128.704 34.5231 128.783C34.128 128.973 33.661 129.072 33.2688 128.876C32.982 128.732 32.6444 128.732 32.3576 128.876L31.8393 129.135C31.7472 129.181 31.6519 129.221 31.5541 129.253L30.1543 129.72C30.0742 129.746 30.0014 129.791 29.9416 129.851C29.7439 130.049 29.7328 130.37 29.9112 130.586C44.0088 147.605 55.0862 149.376 63.7405 149.376C63.8488 149.376 63.9583 149.376 64.0688 149.377L64.3152 149.377C65.6653 149.381 67.1714 149.385 68.8411 149.211C69.0838 149.185 69.185 148.891 69.0124 148.719C68.9802 148.686 68.9559 148.647 68.9415 148.604L68.5055 147.296C68.4404 147.101 68.4072 146.896 68.4072 146.691V145.889C68.4072 145.275 67.9092 144.777 67.2949 144.777C66.6806 144.777 66.1826 144.279 66.1826 143.664V143.108C66.1826 142.767 65.9647 142.84 65.7795 142.976C65.6711 143.056 65.5889 143.164 65.5143 143.276L64.7824 144.374C64.6291 144.604 64.3287 144.684 64.0816 144.56L63.9436 144.491C63.6771 144.358 63.6194 144.003 63.8301 143.792C63.912 143.71 63.958 143.599 63.958 143.483V142.683C63.958 141.921 64.3886 141.224 65.0703 140.883C65.5659 140.636 65.6089 139.945 65.1479 139.637L64.686 139.33C64.5725 139.254 64.4454 139.201 64.3117 139.174L62.0902 138.73C61.8617 138.684 61.6608 138.55 61.5315 138.356L61.152 137.787C60.9251 137.446 61.1691 136.99 61.5783 136.99C61.6794 136.99 61.7783 136.96 61.8624 136.904L62.6441 136.383C63.0465 136.115 63.5928 136.26 63.8091 136.693C63.9044 136.883 64.0716 137.028 64.2739 137.096L64.8825 137.299C65.3654 137.459 65.8875 137.459 66.3704 137.299L67.0566 137.07C67.2113 137.018 67.3786 137.018 67.5333 137.07C68.1225 137.266 68.6831 136.706 68.4867 136.116L68.4263 135.935C68.4136 135.897 68.3982 135.86 68.3802 135.824L67.9934 135.05C67.5427 134.149 67.4293 133.116 67.6737 132.138L67.7322 131.904C67.8109 131.59 67.9431 131.291 68.1231 131.021L68.6771 130.19C68.8559 129.921 69.1571 129.76 69.4796 129.76C69.8449 129.76 70.1789 129.967 70.3423 130.294L70.5745 130.758C70.6127 130.834 70.6454 130.913 70.6724 130.994L71.0074 131.999C71.1262 132.356 71.3263 132.679 71.5918 132.945C72.0455 133.399 72.6608 133.653 73.3023 133.653H73.7384C74.1728 133.653 74.525 134.006 74.525 134.44C74.525 134.649 74.4404 134.847 74.3011 135.002C73.9579 135.385 73.6061 135.878 73.9688 135.878C74.6265 135.878 74.7072 136.611 74.7941 137.399C74.8709 138.097 74.9525 138.837 75.4433 139.15C75.5081 139.192 75.5731 139.215 75.6373 139.215C75.7266 139.215 75.8024 139.26 75.8666 139.336C76.5128 140.102 75.6926 141.217 74.8589 141.773L74.7856 141.822C74.6126 141.937 74.425 142.029 74.2278 142.095L73.6353 142.292C73.158 142.451 72.6318 142.327 72.276 141.971C71.9461 141.641 71.4672 141.509 71.0145 141.622L70.492 141.753C69.8863 141.904 69.4 142.354 69.2026 142.947L69.1813 143.011C69.0418 143.429 69.0742 143.886 69.2716 144.281L69.3651 144.468C69.4654 144.668 69.6279 144.831 69.8284 144.931C70.2894 145.161 70.5108 145.696 70.3478 146.185L70.1494 146.78C70.1054 146.912 69.9819 147.001 69.8428 147.001C69.6643 147.001 69.5195 147.146 69.5195 147.324V147.996C69.5195 148.597 70.0487 149.063 70.6404 148.957C72.3717 148.646 74.2595 148.107 76.3106 147.178C76.5464 147.071 76.6436 146.789 76.5278 146.558C76.3742 146.25 76.5976 145.889 76.9411 145.889H77.0259C77.193 145.889 77.3414 145.996 77.3942 146.154C77.4696 146.38 77.7286 146.486 77.9386 146.374C79.7895 145.383 81.7644 144.068 83.8677 142.32C84.2435 142.007 84.0031 141.44 83.5145 141.44H83.0935C82.946 141.44 82.8018 141.396 82.6791 141.314L81.6828 140.65C81.3804 140.448 81.1988 140.109 81.1988 139.746C81.1988 139.145 81.6854 138.659 82.2857 138.659H82.3111C82.6613 138.659 82.9909 138.494 83.201 138.214L84.3078 136.738C84.4558 136.541 84.5358 136.301 84.5358 136.054V135.16C84.5358 134.723 84.0764 134.439 83.686 134.634L83.5409 134.707C83.467 134.744 83.38 134.744 83.306 134.707L83.1 134.604C82.9035 134.506 82.8673 133.873 82.8673 133.653C82.8673 133.381 83.146 132.955 83.4471 132.58C83.7678 132.182 83.9796 131.697 83.9796 131.186C83.9796 130.978 83.9462 130.772 83.8806 130.576L83.5125 129.471C83.4534 129.294 83.3709 129.125 83.2673 128.97L83.0395 128.628C82.616 127.993 82.6998 127.147 83.2397 126.607C83.3614 126.485 83.4627 126.345 83.5397 126.191L83.9796 125.311C84.2532 124.764 84.9825 124.646 85.4151 125.078L85.4326 125.096C85.5725 125.235 85.6632 125.417 85.6912 125.613L86.1351 128.72C86.1811 129.043 86.2042 129.367 86.2042 129.693V132.192C86.2042 132.416 86.2929 132.63 86.4508 132.788L86.4986 132.835C86.9858 133.323 87.8012 133.016 87.7934 132.327C87.6633 120.834 90.9505 104.653 100.169 91.4707C100.194 91.4349 100.168 91.3855 100.124 91.3855C100.119 91.3855 100.114 91.3863 100.109 91.3878C100.104 91.3893 100.099 91.3916 100.095 91.3946L98.9394 92.1647C98.6211 92.3769 98.2281 92.4449 97.857 92.3522L97.0216 92.1433C96.6077 92.0398 96.3961 91.5797 96.5869 91.198C96.6998 90.9721 96.9308 90.8294 97.1834 90.8294H97.3274C97.6682 90.8294 97.9798 90.6368 98.1322 90.3319L98.194 90.2084C98.349 89.8984 98.638 89.677 98.9784 89.6114C99.9483 89.4244 101.316 89.1771 101.738 89.1617C101.758 89.1609 101.772 89.1794 101.767 89.1986C101.759 89.2305 101.801 89.2506 101.821 89.2246C102.921 87.8025 104.096 86.4228 105.349 85.0961C105.688 84.7367 105.686 84.1714 105.336 83.8218C104.933 83.419 105 82.7484 105.474 82.4324L105.894 82.1521C106.11 82.0078 106.365 81.9309 106.625 81.9309H107.281C108.135 81.9309 108.957 81.6134 109.609 81.062C115.378 76.1886 122.492 72.3681 131.182 70.3005C132.436 70.002 133.475 69.0538 133.732 67.7901C134.647 63.2861 135.182 56.2724 132.148 41.4818C131.48 38.2263 130.612 35.2965 129.586 32.6606C129.408 32.2026 128.82 32.0855 128.472 32.4329L127.811 33.0938C127.514 33.3907 127.291 33.7526 127.158 34.1509L126.884 34.9733C126.832 35.1272 126.722 35.2545 126.577 35.3271C126.17 35.5305 125.691 35.2346 125.691 34.7797V33.8461C125.691 33.3343 126.019 32.8799 126.504 32.7181L126.794 32.6216C127.159 32.4998 127.469 32.2515 127.667 31.9214L127.878 31.5697C128.338 30.8031 128.397 29.8557 128.001 29.0542C121.955 16.824 112.248 12.067 104.896 10.3371C97.3323 8.55736 89.8798 13.674 87.099 16.4548C84.1329 19.0502 78.423 27.4667 79.3128 40.3695C79.869 48.4338 80.4252 53.9953 80.8423 58.1665C81.2594 62.3377 81.5375 65.1185 81.5375 67.6212C81.5375 72.6266 80.4252 86.5305 75.4197 88.7551C71.4154 90.5348 67.8189 83.1936 66.5212 79.3005C65.5943 75.0366 63.7405 63.7281 63.7405 52.605C63.7405 41.4818 61.5158 30.5441 60.4035 26.4656C57.825 17.0109 45.8322 0.882419 32.0395 0.882419ZM18.0751 16.3044C17.9215 16.3044 17.797 16.1799 17.797 16.0263V14.3579C17.797 14.2043 17.9215 14.0798 18.0751 14.0798C18.2287 14.0798 18.3532 14.2043 18.3532 14.3579C18.3532 14.5114 18.4777 14.6359 18.6312 14.6359C18.7848 14.6359 18.9093 14.7604 18.9093 14.914V17.1386C18.9093 17.2922 18.7848 17.4167 18.6312 17.4167C18.4777 17.4167 18.3532 17.2922 18.3532 17.1386V16.5825C18.3532 16.4289 18.2287 16.3044 18.0751 16.3044ZM21.9682 14.6359C22.1218 14.6359 22.2463 14.5114 22.2463 14.3579C22.2463 14.2043 22.3708 14.0798 22.5243 14.0798C22.6779 14.0798 22.8024 14.2043 22.8024 14.3579V14.6359C22.8024 14.9431 22.5534 15.1921 22.2463 15.1921H21.9682C21.8146 15.1921 21.6901 15.0676 21.6901 14.914C21.6901 14.7604 21.8146 14.6359 21.9682 14.6359ZM48.9418 17.4167C48.6346 17.4167 48.3856 17.6657 48.3856 17.9729V18.5478C47.2759 16.9599 46.0917 15.6228 44.9074 14.6359C44.7607 14.5137 44.605 14.3821 44.4405 14.2431C42.5733 12.6653 39.5869 10.1417 36.0089 9.63053C33.5989 9.63053 29.2238 10.6316 31.0035 14.6359C31.9657 16.8009 34.1765 18.0295 36.6457 19.4017C39.8854 21.202 43.57 23.2496 45.4636 27.9837C48.1331 34.6576 50.6544 35.9553 51.5813 35.7699C52.6936 35.5845 54.5845 33.9902 53.2498 29.096C52.4648 26.2178 51.3105 23.4626 49.9607 21.0623C50.0197 20.974 50.0541 20.8678 50.0541 20.7537V19.9194C50.0541 19.7658 49.9296 19.6413 49.776 19.6413C49.6224 19.6413 49.4979 19.5168 49.4979 19.3633V17.9729C49.4979 17.6657 49.2489 17.4167 48.9418 17.4167ZM48.9418 19.3744V20.7537C48.9418 21.0608 49.1908 21.3098 49.4979 21.3098C49.6909 21.3098 49.8609 21.2115 49.9607 21.0623C49.6318 20.4775 49.2913 19.9137 48.9418 19.3744ZM48.7644 19.104C48.7332 19.0918 48.6992 19.0852 48.6637 19.0852C48.5101 19.0852 48.3856 18.9607 48.3856 18.8071V18.5478C48.5129 18.73 48.6392 18.9154 48.7644 19.104ZM48.7644 19.104C48.8238 19.1934 48.8829 19.2836 48.9418 19.3744V19.3633C48.9418 19.2452 48.8682 19.1443 48.7644 19.104ZM39.209 24.6468C39.0554 24.6468 38.9309 24.5223 38.9309 24.3687V23.6496C38.9309 23.4019 39.2305 23.2778 39.4057 23.453C39.4578 23.5051 39.4871 23.5759 39.4871 23.6496V24.3687C39.4871 24.5223 39.3626 24.6468 39.209 24.6468ZM36.1502 24.3687C36.1502 24.2151 36.2747 24.0906 36.4282 24.0906C36.5818 24.0906 36.7063 24.2151 36.7063 24.3687V26.0371C36.7063 26.1907 36.8308 26.3152 36.9844 26.3152C37.138 26.3152 37.2625 26.4397 37.2625 26.5933V27.1495C37.2625 27.303 37.387 27.4275 37.5406 27.4275C37.6941 27.4275 37.8186 27.552 37.8186 27.7056V28.5398C37.8186 28.847 37.5696 29.096 37.2625 29.096H36.9844C36.8308 29.096 36.7063 29.2205 36.7063 29.3741C36.7063 29.5277 36.5818 29.6522 36.4282 29.6522C36.2747 29.6522 36.1502 29.5277 36.1502 29.3741V28.8179C36.1502 28.6643 36.2747 28.5398 36.4282 28.5398C36.5818 28.5398 36.7063 28.4153 36.7063 28.2618V27.1495C36.7063 26.9959 36.5818 26.8714 36.4282 26.8714C36.2747 26.8714 36.1502 26.7469 36.1502 26.5933V24.3687ZM30.0324 29.6522C29.7253 29.6522 29.4763 29.4032 29.4763 29.096V28.2618C29.4763 28.1082 29.6008 27.9837 29.7544 27.9837C29.9079 27.9837 30.0324 28.1082 30.0324 28.2618C30.0324 28.4153 30.1569 28.5398 30.3105 28.5398C30.4641 28.5398 30.5886 28.6643 30.5886 28.8179C30.5886 28.9715 30.7131 29.096 30.8667 29.096C31.0203 29.096 31.1448 29.2205 31.1448 29.3741C31.1448 29.5277 31.2693 29.6522 31.4228 29.6522C31.5764 29.6522 31.7009 29.7767 31.7009 29.9302V31.0425C31.7009 31.1961 31.8254 31.3206 31.979 31.3206C32.1326 31.3206 32.2571 31.4451 32.2571 31.5987C32.2571 31.7523 32.1326 31.8768 31.979 31.8768H31.7009C31.3938 31.8768 31.1448 31.6278 31.1448 31.3206V30.4864C31.1448 30.3328 31.0203 30.2083 30.8667 30.2083C30.7131 30.2083 30.5886 30.0838 30.5886 29.9302C30.5886 29.7767 30.4641 29.6522 30.3105 29.6522H30.0324ZM34.2036 34.1014C34.05 34.1014 33.9255 34.2259 33.9255 34.3795C33.9255 34.5331 34.05 34.6576 34.2036 34.6576H35.3159C35.4695 34.6576 35.594 34.5331 35.594 34.3795C35.594 34.2259 35.4695 34.1014 35.3159 34.1014H34.2036ZM36.4917 33.9437C36.2713 33.6866 36.1502 33.3591 36.1502 33.0205V32.8262C36.1502 32.5744 36.2502 32.3329 36.4282 32.1549C36.6063 31.9768 36.8478 31.8768 37.0996 31.8768H37.4012C38.0033 31.8768 38.5591 32.1994 38.8578 32.7221L40.4257 35.4659C40.5395 35.6651 40.5994 35.8906 40.5994 36.12V36.6765C40.5994 37.0972 40.2583 37.4384 39.8375 37.4384C39.6151 37.4384 39.4038 37.3412 39.2591 37.1723L36.4917 33.9437ZM25.5689 35.5797C25.9096 35.6933 26.1394 36.0121 26.1394 36.3712V37.0451C26.1394 37.2623 25.9633 37.4384 25.7461 37.4384C25.6418 37.4384 25.5418 37.3969 25.468 37.3232L24.6517 36.5069C24.5359 36.3911 24.4709 36.234 24.4709 36.0703C24.4709 35.6489 24.8837 35.3513 25.2835 35.4846L25.5689 35.5797ZM22.5243 37.9945C22.6779 37.9945 22.8024 37.87 22.8024 37.7164C22.8024 37.5629 22.6779 37.4384 22.5243 37.4384H21.9682C21.8146 37.4384 21.6901 37.5629 21.6901 37.7164C21.6901 37.87 21.8146 37.9945 21.9682 37.9945H22.5243ZM20.0216 36.8822C20.3288 36.8822 20.5778 37.1312 20.5778 37.4384V38.5507C20.5778 38.8578 20.3288 39.1068 20.0216 39.1068C19.7145 39.1068 19.4655 38.8578 19.4655 38.5507V37.4384C19.4655 37.1312 19.7145 36.8822 20.0216 36.8822ZM18.0751 45.2245C17.9215 45.2245 17.797 45.1 17.797 44.9465V43.8342C17.797 43.6806 17.9215 43.5561 18.0751 43.5561C18.2287 43.5561 18.3532 43.6806 18.3532 43.8342V44.9465C18.3532 45.1 18.2287 45.2245 18.0751 45.2245ZM21.1339 46.6149C21.1339 46.4614 21.2584 46.3369 21.412 46.3369C21.5656 46.3369 21.6901 46.4614 21.6901 46.6149C21.6901 46.7685 21.5656 46.893 21.412 46.893C21.2584 46.893 21.1339 46.7685 21.1339 46.6149ZM26.1394 48.8396C26.1394 48.686 26.0149 48.5615 25.8613 48.5615C25.7077 48.5615 25.5832 48.686 25.5832 48.8396V49.9519C25.5832 50.1054 25.7077 50.2299 25.8613 50.2299C26.0149 50.2299 26.1394 50.1054 26.1394 49.9519V48.8396ZM20.1368 56.4629C20.0631 56.3891 20.0216 56.2891 20.0216 56.1848C20.0216 55.9676 20.1977 55.7915 20.4149 55.7915H20.8082C21.0168 55.7915 21.2168 55.8744 21.3643 56.0219L21.5749 56.2325C21.6487 56.3062 21.6901 56.4063 21.6901 56.5106C21.6901 56.7278 21.514 56.9038 21.2968 56.9038H20.9036C20.695 56.9038 20.4949 56.821 20.3474 56.6735L20.1368 56.4629ZM28.8049 57.019C28.8787 56.9453 28.9787 56.9038 29.083 56.9038C29.3002 56.9038 29.4763 57.0799 29.4763 57.2971V58.5723C29.4763 58.8795 29.2273 59.1285 28.9201 59.1285C28.613 59.1285 28.364 58.8795 28.364 58.5723V57.8532C28.364 57.6014 28.464 57.36 28.6421 57.1819L28.8049 57.019ZM24.4709 60.2408C24.4709 59.9336 24.7199 59.6846 25.027 59.6846H25.5021C25.8926 59.6846 26.2497 59.9053 26.4244 60.2546L26.558 60.5219C26.6484 60.7028 26.6955 60.9022 26.6955 61.1044C26.6955 61.5976 26.4168 62.0486 25.9756 62.2692L25.8906 62.3117C25.6885 62.4128 25.4655 62.4654 25.2395 62.4654H23.949C23.2751 62.4654 22.6878 62.924 22.5243 63.5777L22.3811 64.1505C22.3019 64.4676 22.017 64.69 21.6901 64.69C21.3632 64.69 21.0783 64.4676 20.9991 64.1505L20.7534 63.1677C20.6401 62.7145 20.6926 62.2357 20.9015 61.8179C21.0538 61.5133 21.283 61.2537 21.5664 61.0648L22.6949 60.3125C22.765 60.2657 22.8474 60.2408 22.9317 60.2408H23.0805C23.2341 60.2408 23.3586 60.3653 23.3586 60.5188C23.3586 60.6724 23.4831 60.7969 23.6366 60.7969H23.9147C24.2219 60.7969 24.4709 60.5479 24.4709 60.2408ZM15.5724 62.5806C15.5724 62.5068 15.5431 62.4361 15.4909 62.3839C15.3158 62.2088 15.0162 62.3328 15.0162 62.5806V62.9064C15.0162 62.9801 15.0455 63.0508 15.0977 63.103C15.2728 63.2782 15.5724 63.1541 15.5724 62.9064V62.5806ZM6.67388 63.9214C6.67388 63.7316 6.82777 63.5777 7.0176 63.5777C7.14779 63.5777 7.26681 63.6513 7.32504 63.7677L7.75452 64.6267C7.77535 64.6683 7.78619 64.7143 7.78619 64.7608C7.78619 64.9838 7.55153 65.1288 7.35208 65.0291L6.98131 64.8437C6.7929 64.7495 6.67388 64.5569 6.67388 64.3463V63.9214ZM6.67388 51.0642C6.67388 50.9106 6.54938 50.7861 6.3958 50.7861C6.24222 50.7861 6.11772 50.9106 6.11772 51.0642V52.1765C6.11772 52.3301 6.24222 52.4546 6.3958 52.4546C6.54938 52.4546 6.67388 52.3301 6.67388 52.1765V51.0642ZM5.28349 31.8768C5.12991 31.8768 5.00541 32.0013 5.00541 32.1549C5.00541 32.3084 5.12991 32.4329 5.28349 32.4329C5.43706 32.4329 5.56156 32.3084 5.56156 32.1549C5.56156 32.0013 5.43706 31.8768 5.28349 31.8768ZM3.33694 23.2564C3.33694 23.7171 2.96344 24.0906 2.5027 24.0906H1.94655C1.79297 24.0906 1.66847 23.9661 1.66847 23.8125C1.66847 23.6589 1.79297 23.5344 1.94655 23.5344C2.10013 23.5344 2.22463 23.4099 2.22463 23.2564V21.866C2.22463 21.5588 2.47363 21.3098 2.78078 21.3098C3.08794 21.3098 3.33694 21.5588 3.33694 21.866V23.2564ZM59.8319 30.2083C59.6729 30.2083 59.5607 30.3641 59.6109 30.5149C59.6945 30.7656 60.0649 30.7055 60.0649 30.4413C60.0649 30.3126 59.9606 30.2083 59.8319 30.2083ZM57.8403 41.9532C57.8403 41.6598 58.2358 41.5664 58.3671 41.8289C58.3864 41.8675 58.3964 41.9101 58.3964 41.9532V42.7218C58.3964 42.8754 58.2719 42.9999 58.1183 42.9999C57.9648 42.9999 57.8403 42.8754 57.8403 42.7218V41.9532ZM47.0833 43.9361C47.1997 43.7032 47.4378 43.5561 47.6982 43.5561H47.7392C48.0962 43.5561 48.3856 43.8455 48.3856 44.2025C48.3856 44.4807 48.2076 44.7277 47.9436 44.8157L47.168 45.0742C46.9462 45.1482 46.7171 44.9831 46.7171 44.7493C46.7171 44.6961 46.7295 44.6436 46.7533 44.5961L47.0833 43.9361ZM62.795 51.9491C62.5628 52.1813 62.1673 52.088 62.0635 51.7764L61.9901 51.5563C61.8638 51.1774 62.1458 50.7861 62.5452 50.7861H62.8457C63.2661 50.7861 63.0575 51.4483 62.8768 51.834C62.8567 51.877 62.8286 51.9155 62.795 51.9491ZM58.9526 53.1259C58.9526 52.8782 59.2521 52.7541 59.4273 52.9293C59.4794 52.9814 59.5087 53.0522 59.5087 53.1259V54.4011C59.5087 54.5547 59.3842 54.6792 59.2307 54.6792C59.0771 54.6792 58.9526 54.5547 58.9526 54.4011V53.1259ZM48.3856 58.2942C48.3856 58.1406 48.5101 58.0161 48.6637 58.0161C48.8173 58.0161 48.9418 58.1406 48.9418 58.2942V58.4571C48.9418 58.5309 48.9125 58.6016 48.8603 58.6537C48.6851 58.8289 48.3856 58.7049 48.3856 58.4571V58.2942ZM62.2895 57.8223C62.2895 57.6222 62.1273 57.46 61.9272 57.46C61.8061 57.46 61.693 57.5205 61.6258 57.6213L60.7644 58.9134C60.6709 59.0536 60.621 59.2184 60.621 59.387V59.9627C60.621 60.1163 60.7455 60.2408 60.8991 60.2408C61.0527 60.2408 61.1772 60.3653 61.1772 60.5188C61.1772 60.6724 61.0527 60.7969 60.8991 60.7969C60.7455 60.7969 60.621 60.9214 60.621 61.075V63.6999C60.621 64.1548 61.0998 64.4507 61.5066 64.2472C61.6518 64.1746 61.7622 64.0474 61.8135 63.8934L62.133 62.9351C62.2367 62.624 62.2895 62.2982 62.2895 61.9703V57.8223ZM59.5087 64.4119C59.5087 64.2584 59.6332 64.1339 59.7868 64.1339C59.9404 64.1339 60.0649 64.2584 60.0649 64.4119C60.0649 64.5655 59.9404 64.69 59.7868 64.69C59.6332 64.69 59.5087 64.5655 59.5087 64.4119ZM51.1664 65.0602C51.1664 64.6161 50.5904 64.4417 50.344 64.8112L50.1228 65.143C50.078 65.2103 50.0541 65.2893 50.0541 65.3701C50.0541 65.7349 50.4951 65.9175 50.753 65.6596L51.0349 65.3776C51.1191 65.2935 51.1664 65.1793 51.1664 65.0602ZM46.9773 67.7668C47.1494 67.5947 47.1761 67.325 47.0411 67.1226L46.0659 65.6597C45.6752 65.0737 44.7747 65.2297 44.6039 65.9129C44.5348 66.1893 44.6158 66.4818 44.8173 66.6833L45.4432 67.3092C45.5503 67.4162 45.6738 67.5053 45.8092 67.573L46.388 67.8624C46.5846 67.9607 46.8219 67.9221 46.9773 67.7668ZM39.7652 70.8077C39.9188 70.8077 40.0433 70.9322 40.0433 71.0858C40.0433 71.2394 39.9188 71.3639 39.7652 71.3639H39.6023C39.3545 71.3639 39.2305 71.0644 39.4057 70.8892C39.4578 70.837 39.5285 70.8077 39.6023 70.8077H39.7652ZM46.7171 75.0886C46.7171 75.3983 46.372 75.583 46.1143 75.4112C45.7951 75.1984 45.9457 74.7008 46.3294 74.7008C46.5435 74.7008 46.7171 74.8744 46.7171 75.0886ZM58.0732 74.1447C57.9341 74.1447 57.8106 74.2337 57.7666 74.3657L57.7372 74.4538C57.6244 74.7924 58.0449 75.0523 58.2973 74.7999C58.3608 74.7365 58.3964 74.6504 58.3964 74.5607V74.4679C58.3964 74.2894 58.2517 74.1447 58.0732 74.1447ZM60.3899 77.1566C60.7772 76.7693 61.4302 76.8752 61.6751 77.3651C61.7137 77.4423 61.7645 77.5127 61.8254 77.5737L62.1865 77.9347C62.62 78.3682 62.9466 78.8967 63.1405 79.4783L63.3853 80.2128C63.3963 80.2458 63.4096 80.278 63.4252 80.3092L63.6138 80.6864C63.772 81.0026 63.542 81.3747 63.1885 81.3747C62.9838 81.3747 62.802 81.2437 62.7373 81.0495L62.4925 80.3152C62.3625 79.9253 62.083 79.603 61.7154 79.4192L61.5384 79.3307C61.3009 79.2119 61.039 79.1501 60.7734 79.1501H60.2252C60.1226 79.1501 60.0241 79.1909 59.9515 79.2634C59.7481 79.4669 59.4017 79.3851 59.3107 79.1122L59.1467 78.62C59.0353 78.2859 59.1865 77.9208 59.5015 77.7633L59.9176 77.5553C60.0151 77.5065 60.1042 77.4423 60.1814 77.3651L60.3899 77.1566ZM58.1183 79.7062C57.9648 79.7062 57.8403 79.8307 57.8403 79.9843V81.0966C57.8403 81.2502 57.9648 81.3747 58.1183 81.3747C58.2719 81.3747 58.3964 81.2502 58.3964 81.0966V79.9843C58.3964 79.8307 58.2719 79.7062 58.1183 79.7062ZM56.1718 86.0543C56.1718 85.5588 56.7709 85.3107 57.1212 85.6611C57.2255 85.7654 57.2841 85.9068 57.2841 86.0543V86.5925C57.2841 87.006 56.849 87.2749 56.4792 87.09C56.2908 86.9958 56.1718 86.8032 56.1718 86.5925V86.0543ZM44.9353 86.9363C44.7319 86.9363 44.5996 87.1504 44.6905 87.3323L44.8443 87.6398C44.9448 87.8409 45.2129 87.8844 45.3719 87.7254C45.5005 87.5967 45.5005 87.3881 45.3719 87.2595L45.1288 87.0164C45.0775 86.9651 45.0079 86.9363 44.9353 86.9363ZM39.2542 82.2541C39.3933 82.3932 39.4278 82.6057 39.3398 82.7817L39.1639 83.1334C39.0352 83.3907 38.7224 83.495 38.465 83.3664C38.147 83.2074 38.0783 82.7836 38.3297 82.5321L38.6077 82.2541C38.7862 82.0756 39.0757 82.0756 39.2542 82.2541ZM43.9364 96.3909C43.6292 96.3909 43.3802 96.6399 43.3802 96.9471C43.3802 97.2542 43.6292 97.5033 43.9364 97.5033C44.2435 97.5033 44.4925 97.2542 44.4925 96.9471C44.4925 96.6399 44.2435 96.3909 43.9364 96.3909ZM40.4681 100.496C40.2335 100.379 40.1384 100.094 40.2557 99.8592L40.5044 99.3617C40.5626 99.2453 40.6817 99.1717 40.8119 99.1717C41.0017 99.1717 41.1556 99.3256 41.1556 99.5154V100.072C41.1556 100.425 40.784 100.654 40.4681 100.496ZM37.195 102.509C36.8821 102.509 36.4565 102.607 36.4607 102.92C36.4618 103.004 36.5266 103.065 36.7063 103.065H38.0967C38.2503 103.065 38.3748 102.94 38.3748 102.787C38.3748 102.633 38.2503 102.509 38.0967 102.509H37.195ZM40.5374 119.75C40.3551 119.75 40.2637 119.97 40.3927 120.099L41.3281 121.034C41.5572 121.263 41.614 121.613 41.4691 121.903L41.1939 122.454C41.1684 122.505 41.1465 122.557 41.1285 122.612C40.8682 123.392 41.4494 124.199 42.2724 124.199H42.3126C42.6401 124.199 42.965 124.074 43.1378 123.796C43.2689 123.585 43.3802 123.33 43.3802 123.086C43.3802 122.781 43.0308 122.109 42.6918 121.537C42.4231 121.085 42.0423 120.711 41.6042 120.419L40.651 119.784C40.6174 119.761 40.5779 119.75 40.5374 119.75ZM44.6905 119.589C44.5996 119.407 44.7319 119.193 44.9353 119.193C45.0079 119.193 45.0775 119.222 45.1288 119.274L45.9882 120.133C46.0988 120.244 46.161 120.394 46.161 120.55V121.237C46.161 121.509 45.8322 121.645 45.6399 121.453C45.6167 121.43 45.5973 121.403 45.5827 121.374L44.6905 119.589ZM48.3856 118.915C48.3856 118.762 48.2611 118.637 48.1075 118.637C47.9539 118.637 47.8294 118.762 47.8294 118.915V119.471C47.8294 119.625 47.9539 119.75 48.1075 119.75C48.2611 119.75 48.3856 119.625 48.3856 119.471V118.915ZM44.4418 129.255C44.2096 129.487 44.3029 129.883 44.6145 129.986L44.8346 130.06C45.2135 130.186 45.6048 129.904 45.6048 129.505V128.092C45.6048 127.785 45.8538 127.536 46.161 127.536C46.4681 127.536 46.7171 127.785 46.7171 128.092C46.7171 128.399 46.9661 128.648 47.2733 128.648C47.5805 128.648 47.8294 128.399 47.8294 128.092V127.814C47.8294 127.66 47.9539 127.536 48.1075 127.536C48.2611 127.536 48.3856 127.411 48.3856 127.258V126.566C48.3856 126.149 48.1185 125.778 47.7226 125.646L47.0238 125.413C46.8207 125.346 46.608 125.311 46.3939 125.311H46.329C45.8568 125.311 45.3952 125.451 45.0023 125.713L44.4203 126.101C44.118 126.302 43.9364 126.642 43.9364 127.005V127.667C43.9364 127.902 44.1266 128.092 44.3612 128.092C44.6771 128.092 44.8825 128.424 44.7412 128.707L44.5246 129.14C44.5033 129.183 44.4754 129.221 44.4418 129.255ZM48.6027 129.082C48.5029 128.883 48.648 128.648 48.871 128.648C48.9175 128.648 48.9634 128.659 49.0051 128.68L49.4841 128.919C49.8334 129.094 50.0541 129.451 50.0541 129.841V130.529C50.0541 130.719 49.9002 130.873 49.7104 130.873C49.5802 130.873 49.4611 130.799 49.4029 130.683L48.6027 129.082ZM49.0731 121.974C48.6934 121.974 48.3856 122.282 48.3856 122.662V122.682C48.3856 123.155 48.8485 123.488 49.2968 123.339C49.6965 123.206 49.8855 122.749 49.6971 122.372L49.6879 122.354C49.5715 122.121 49.3334 121.974 49.0731 121.974ZM51.245 120.856C51.2035 120.566 51.429 120.306 51.7225 120.306C52.0161 120.306 52.2416 120.566 52.2001 120.856C52.1212 121.408 51.3239 121.408 51.245 120.856ZM52.0006 118.637C51.847 118.637 51.7225 118.762 51.7225 118.915C51.7225 119.069 51.847 119.193 52.0006 119.193H52.5568C52.7104 119.193 52.8349 119.069 52.8349 118.915C52.8349 118.762 52.7104 118.637 52.5568 118.637H52.0006ZM53.391 119.509C53.391 119.307 53.4713 119.113 53.6142 118.97C53.8183 118.766 54.1201 118.695 54.3939 118.786L55.3186 119.094C55.5153 119.16 55.7214 119.193 55.9287 119.193H56.1628C56.5247 119.193 56.8717 119.337 57.1276 119.593L57.1455 119.611C57.2373 119.703 57.3433 119.779 57.4594 119.837C57.9971 120.106 58.2552 120.729 58.0651 121.299L57.9139 121.753C57.8651 121.9 57.8403 122.053 57.8403 122.207V123.345C57.8403 123.509 57.7069 123.643 57.5424 123.643C57.3942 123.643 57.2685 123.752 57.2476 123.898L56.7776 127.189C56.7454 127.414 56.6409 127.623 56.48 127.784C56.2826 127.981 56.015 128.092 55.736 128.092H54.847C54.621 128.092 54.3981 128.144 54.1959 128.246L54.1109 128.288C53.6697 128.509 53.391 128.96 53.391 129.453C53.391 129.655 53.4381 129.854 53.5285 130.035L53.9088 130.796C53.9344 130.847 53.9562 130.9 53.9743 130.954L54.2989 131.928C54.3995 132.23 54.1749 132.541 53.8569 132.541C53.5996 132.541 53.391 132.333 53.391 132.075V131.817C53.391 131.574 53.2699 131.348 53.0684 131.214L51.8806 130.422C51.7755 130.352 51.6775 130.271 51.5882 130.182C51.0042 129.598 50.8594 128.706 51.2287 127.967L51.3708 127.683C51.5991 127.226 51.9694 126.856 52.426 126.628L52.8349 126.423L54.0073 125.642C54.3372 125.422 54.6445 125.17 54.9248 124.89L55.4845 124.33C55.5714 124.243 55.6436 124.143 55.6986 124.033C55.9656 123.499 55.7764 122.849 55.2644 122.542L54.4461 122.051C53.7915 121.658 53.391 120.951 53.391 120.188V119.509ZM59.5087 113.632C58.976 113.632 58.6117 114.17 58.8095 114.665L58.8891 114.863C59.2563 115.782 60.621 115.519 60.621 114.53C60.621 114.034 60.219 113.632 59.7229 113.632H59.5087ZM62.9359 116.413C62.5789 116.413 62.2895 116.123 62.2895 115.766V115.443C62.2895 115.057 62.6024 114.744 62.9884 114.744C63.4654 114.744 63.8022 115.211 63.6514 115.664L63.5492 115.971C63.4612 116.235 63.2142 116.413 62.9359 116.413ZM61.1772 124.561C61.1772 124.682 61.1167 124.795 61.0159 124.862L59.8314 125.652C59.6298 125.787 59.5087 126.013 59.5087 126.255C59.5087 126.655 59.8331 126.98 60.2333 126.98H60.6885C61.0014 126.98 61.3015 126.855 61.5228 126.634L61.944 126.213C62.1652 125.992 62.2895 125.691 62.2895 125.379V124.755C62.2895 124.448 62.0405 124.199 61.7334 124.199H61.5395C61.3394 124.199 61.1772 124.361 61.1772 124.561ZM60.6206 135.341C60.5723 136.261 59.5385 134.243 59.4074 133.331C59.3423 132.878 59.2402 132.443 59.0856 132.167C59.0146 132.041 58.9526 131.903 58.9526 131.758C58.9526 131.351 59.3836 131.083 59.7656 131.223C60.0787 131.337 60.4001 131.429 60.621 131.429C61.1772 131.429 61.1772 133.097 61.1772 133.653C61.1772 133.932 61.0382 134.21 60.8991 134.488C60.7601 134.766 60.621 135.044 60.621 135.322L60.621 135.328L60.6206 135.341ZM57.9716 134.21C57.6557 134.21 57.4503 134.542 57.5915 134.824L57.7453 135.132C57.8035 135.248 57.9225 135.322 58.0527 135.322C58.2425 135.322 58.3964 135.168 58.3964 134.978V134.634C58.3964 134.4 58.2062 134.21 57.9716 134.21ZM52.439 141.76C52.3364 141.555 52.3195 141.317 52.3921 141.1C52.5955 140.489 53.3701 140.306 53.825 140.761L53.8458 140.782C53.9129 140.849 53.9905 140.905 54.0754 140.948L54.1785 140.999C54.7184 141.269 55.0595 141.821 55.0595 142.425V144.105C55.0595 144.179 55.0302 144.25 54.978 144.302C54.8029 144.477 54.5033 144.353 54.5033 144.105V143.866C54.5033 143.74 54.4403 143.622 54.3354 143.552L53.2391 142.821C52.9742 142.645 52.76 142.402 52.6176 142.117L52.439 141.76ZM64.5141 134.553C64.5141 134.363 64.668 134.21 64.8579 134.21C64.9881 134.21 65.1071 134.283 65.1653 134.4L65.319 134.707C65.4603 134.99 65.2549 135.322 64.939 135.322C64.7044 135.322 64.5141 135.132 64.5141 134.897V134.553ZM74.803 131.985C74.6495 131.985 74.525 132.109 74.525 132.263C74.525 132.417 74.6495 132.541 74.803 132.541H75.3592C75.5128 132.541 75.6373 132.417 75.6373 132.263C75.6373 132.109 75.5128 131.985 75.3592 131.985H74.803ZM77.8619 141.44V141.042C77.8619 140.228 78.1606 139.215 78.9742 139.215C79.4191 139.215 79.1596 139.957 78.9742 140.327L78.7797 140.716C78.5402 141.195 77.8619 141.975 77.8619 141.44ZM77.1584 127.274C77.2464 127.098 77.2119 126.886 77.0728 126.747C76.8943 126.568 76.6049 126.568 76.4264 126.747L76.1483 127.025C75.8969 127.276 75.9657 127.7 76.2837 127.859C76.541 127.988 76.8539 127.883 76.9825 127.626L77.1584 127.274ZM66.7388 120.438C66.7388 120.35 66.7247 120.263 66.697 120.18L66.6227 119.957C66.4414 119.413 66.9589 118.896 67.5029 119.077C67.7208 119.15 67.8888 119.325 67.9519 119.546L68.8476 122.681C68.9244 122.95 68.9634 123.228 68.9634 123.508C68.9634 124.306 68.6462 125.072 68.0817 125.637L67.5016 126.217C67.3642 126.354 67.2135 126.478 67.0517 126.586L66.2302 127.133C65.8569 127.382 65.3788 127.412 64.9774 127.211C64.6808 127.063 64.4552 126.803 64.3503 126.488L64.0728 125.656C64.0024 125.444 64.0574 125.212 64.2147 125.054C64.3935 124.876 64.6667 124.831 64.8929 124.944L65.0357 125.016C65.362 125.179 65.7587 125.047 65.9219 124.72C66.0708 124.422 65.9746 124.06 65.6975 123.875L64.85 123.31C64.6402 123.17 64.5141 122.935 64.5141 122.683V121.578C64.5141 121.314 64.8338 121.181 65.0208 121.368C65.0533 121.401 65.0931 121.426 65.1368 121.44L65.3217 121.502C66.0188 121.734 66.7388 121.215 66.7388 120.48V120.438ZM69.3306 117.892C69.1278 117.689 68.799 117.689 68.5962 117.892C68.4776 118.011 68.4236 118.179 68.4512 118.345L68.7836 120.339C68.899 121.032 69.2767 121.653 69.8383 122.074L70.6906 122.713C70.9954 122.942 71.4033 122.979 71.7442 122.808C72.085 122.638 72.3003 122.29 72.3003 121.908V121.531C72.3003 121.103 72.13 120.692 71.8269 120.388L69.3306 117.892ZM73.2002 123.086C73.0104 123.086 72.8565 122.933 72.8565 122.743C72.8565 122.613 72.93 122.494 73.0465 122.435L73.7788 122.069C73.9037 122.007 74.0415 121.974 74.1812 121.974H74.525C74.8321 121.974 75.0811 122.223 75.0811 122.53C75.0811 122.837 74.8321 123.086 74.525 123.086H73.2002ZM74.1812 120.862C74.3711 120.862 74.525 120.708 74.525 120.518V119.962C74.525 119.609 74.1534 119.379 73.8375 119.537C73.6029 119.654 73.5078 119.94 73.6251 120.174L73.8738 120.672C73.932 120.788 74.051 120.862 74.1812 120.862ZM76.2176 121.466C76.2015 121.434 76.189 121.4 76.1803 121.366L75.8931 120.217C75.7487 119.639 76.0733 119.048 76.6379 118.86L76.9327 118.762C77.1613 118.685 77.4134 118.745 77.5838 118.915C77.7542 119.086 77.8137 119.338 77.7375 119.566L77.1257 121.402C76.9869 121.818 76.4139 121.859 76.2176 121.466ZM80.6427 120.306C80.313 120.306 80.1665 119.491 80.1128 118.768C80.0846 118.389 79.7787 118.081 79.3991 118.081C79.1387 118.081 78.9007 118.228 78.7842 118.461L78.1693 119.691C77.9671 120.095 77.8619 120.541 77.8619 120.993V124.592C77.8619 124.682 77.9348 124.755 78.0248 124.755C78.1699 124.755 78.2605 124.56 78.2136 124.423C78.1374 124.199 78.1465 123.914 78.4181 123.643C78.6305 123.43 78.7618 123.218 78.8739 123.036C79.0554 122.743 79.1866 122.53 79.5304 122.53C79.8762 122.53 80.2445 123.202 80.4784 123.763C80.5856 124.02 80.8303 124.199 81.1086 124.199C81.4656 124.199 81.755 123.909 81.755 123.552V123.299C81.755 123.159 81.7225 123.021 81.66 122.896L81.4769 122.53C81.294 122.165 81.2099 121.76 81.1611 121.354C81.0993 120.84 80.9512 120.306 80.6427 120.306ZM82.0293 119.208C81.8885 119.771 81.2271 120.079 80.8491 119.639C80.7253 119.494 80.6427 119.342 80.6427 119.193C80.6427 118.579 81.1407 118.081 81.755 118.081C82.0375 118.081 82.2448 118.347 82.1763 118.621L82.0293 119.208ZM76.2565 117.482C76.3773 117.525 76.5132 117.525 76.7496 117.525C76.9378 117.525 77.1327 117.392 77.3089 117.211C77.7439 116.764 78.1944 116.302 78.7864 116.104L79.2072 115.964C79.417 115.894 79.6438 115.894 79.8536 115.964C80.5154 116.185 81.1988 115.692 81.1988 114.995V114.88C81.1988 114.79 81.1878 114.7 81.1659 114.612L80.9962 113.934C80.7649 113.008 79.5304 111.009 79.5304 111.963C79.5304 112.017 79.5195 112.077 79.4998 112.141C79.2179 113.058 77.9215 112.887 77.3893 112.089C77.3337 112.005 77.2718 111.926 77.1937 111.863C77.0014 111.708 76.7496 111.597 76.7496 111.963C76.7496 112.176 76.6684 112.307 76.5991 112.419C76.487 112.601 76.4059 112.732 76.7496 113.076L77.9395 114.266C78.2038 114.53 78.2038 114.958 77.9395 115.223C77.8881 115.274 77.8287 115.317 77.7637 115.349L76.946 115.758C76.8159 115.823 76.6971 115.909 76.5943 116.012L76.2102 116.396C75.8938 116.712 75.8346 117.333 76.2565 117.482ZM76.1934 107.053C76.1934 106.636 76.3592 106.236 76.6542 105.941L76.7496 105.846C77.1057 105.489 77.5887 105.289 78.0923 105.289H78.651C79.1761 105.289 79.6424 105.625 79.8084 106.124L79.9106 106.43C80.0157 106.745 80.3105 106.958 80.6427 106.958H80.8551C81.3521 106.958 81.755 107.361 81.755 107.858C81.755 107.997 81.7225 108.135 81.66 108.26L81.1212 109.338C80.8569 109.866 80.2142 110.081 79.6857 109.816C79.5828 109.765 79.4889 109.697 79.4076 109.616L78.8788 109.087C78.5838 108.792 78.1837 108.626 77.7665 108.626C76.8977 108.626 76.1934 107.922 76.1934 107.053ZM72.6298 114.631C72.303 114.467 71.9417 114.781 72.0573 115.127L72.2267 115.635C72.2707 115.767 72.3942 115.856 72.5333 115.856C72.7118 115.856 72.8565 115.712 72.8565 115.533V114.998C72.8565 114.842 72.7687 114.7 72.6298 114.631ZM69.8856 104.353C69.9991 104.58 69.9546 104.854 69.7751 105.034L69.2866 105.522C69.1081 105.701 68.8187 105.701 68.6402 105.522C68.5011 105.383 68.4666 105.171 68.5546 104.995L68.9266 104.251C68.951 104.202 68.9831 104.157 69.0216 104.119C69.2666 103.874 69.6795 103.941 69.8345 104.251L69.8856 104.353ZM75.6373 91.3246C75.6373 91.0511 75.4156 90.8294 75.1421 90.8294H75.0126C74.726 90.8294 74.4762 91.0244 74.4067 91.3025L74.0869 92.5816C74.0179 92.8576 74.1498 93.1445 74.4043 93.2717C74.7516 93.4454 75.1705 93.2528 75.2646 92.8761L75.6225 91.4447C75.6323 91.4054 75.6373 91.3651 75.6373 91.3246ZM75.8514 96.3491C75.7111 95.6476 75.7563 94.9217 75.9825 94.243L76.1774 93.6582C76.188 93.6264 76.1934 93.593 76.1934 93.5595C76.1934 93.3272 76.4378 93.1762 76.6455 93.28L76.7923 93.3534C77.0449 93.4797 77.0995 93.8164 76.8998 94.0161L76.4492 94.4667C76.2854 94.6305 76.1934 94.8526 76.1934 95.0841V96.1129C76.1934 96.5736 76.5669 96.9471 77.0277 96.9471C77.4884 96.9471 77.8619 97.3206 77.8619 97.7813V98.0594C77.8619 98.5349 77.332 98.8185 76.9364 98.5547L76.4962 98.2612C76.3023 98.132 76.1678 97.9311 76.1221 97.7026L75.8514 96.3491ZM80.2735 90.6423C80.1589 90.757 80.1189 90.9265 80.1702 91.0803L80.5625 92.2574C80.6138 92.4113 80.7242 92.5386 80.8694 92.6112L80.9169 92.635C81.302 92.8275 81.755 92.5475 81.755 92.117C81.755 92.0027 81.7211 91.8909 81.6577 91.7958L80.9322 90.7076C80.7824 90.4829 80.4645 90.4514 80.2735 90.6423ZM81.0378 97.3422C80.4847 96.7891 80.3989 95.9224 80.8328 95.2715L80.9039 95.1649C81.0937 94.8802 81.3827 94.6765 81.7146 94.5935C82.5826 94.3765 83.4235 95.033 83.4235 95.9277V96.5564C83.4235 97.1219 83.0616 97.6239 82.5252 97.8027C82.0532 97.96 81.5327 97.8372 81.1809 97.4853L81.0378 97.3422ZM85.0266 94.7225C84.7727 94.7225 84.5822 94.9548 84.632 95.2038L85.0643 97.3651C85.0823 97.4552 85.1266 97.5379 85.1916 97.6029C85.4162 97.8275 85.7948 97.766 85.9368 97.4819L85.988 97.3796C86.1115 97.1325 86.0295 96.8346 85.8136 96.6623C85.344 96.2875 84.9528 95.8348 85.6481 95.8348C86.5379 95.8348 86.7604 95.464 86.7604 95.2786C86.7604 94.7314 86.2243 94.345 85.7052 94.5181L85.1539 94.7018C85.1128 94.7155 85.0699 94.7225 85.0266 94.7225ZM81.9916 88.0595C81.9466 87.9711 81.9027 87.8821 81.8589 87.7931C81.7221 87.5156 81.5852 87.2378 81.4139 86.9808L80.9894 86.344C80.7633 86.0049 80.6427 85.6065 80.6427 85.199V85.0554C80.6427 84.8293 80.6953 84.6064 80.7964 84.4042L81.0088 83.9793C81.1253 83.7464 81.3633 83.5993 81.6237 83.5993C82.0034 83.5993 82.3111 83.9071 82.3111 84.2868V85.1724C82.3111 85.5896 82.4769 85.9897 82.7719 86.2847L82.8673 86.3801C83.2234 86.7362 83.4439 87.226 83.3197 87.714C83.2372 88.038 83.0965 88.3755 82.8673 88.6047C82.5553 88.9168 82.225 88.5176 81.9916 88.0595ZM80.489 81.6821C80.3041 82.0519 80.573 82.487 80.9864 82.487H81.1988C81.506 82.487 81.755 82.238 81.755 81.9309C81.755 81.6237 81.506 81.3747 81.1988 81.3747H80.9864C80.7757 81.3747 80.5832 81.4937 80.489 81.6821ZM85.6481 81.9309C85.1751 81.9309 85.0501 81.3809 84.9346 80.8729C84.9073 80.7525 84.8804 80.6345 84.8496 80.5266L84.0547 77.7444C84.0049 77.5701 83.9796 77.3896 83.9796 77.2083V75.6839C83.9796 75.4481 84.1707 75.257 84.4065 75.257C84.4908 75.257 84.5732 75.2819 84.6433 75.3287L85.56 75.9398C85.9625 76.2081 86.2042 76.6599 86.2042 77.1436V77.6545C86.2042 77.8894 86.0715 78.1041 85.8615 78.2092C85.4829 78.3985 85.401 78.903 85.7003 79.2023L85.9485 79.4505C86.1123 79.6143 86.206 79.8361 86.1966 80.0675C86.1651 80.8455 86.0287 81.9309 85.6481 81.9309ZM95.6589 81.3747C95.6589 81.1029 96.2125 80.8172 96.8123 80.5938C97.2254 80.44 97.579 80.8715 97.3818 81.2658C97.346 81.3374 97.3274 81.4164 97.3274 81.4965V82.4411C97.3274 82.4713 97.3344 82.5011 97.3479 82.5281L97.5373 82.907C97.6011 83.0344 97.4369 83.1527 97.3362 83.052C97.3323 83.0481 97.3282 83.0445 97.3239 83.0412L97.3173 83.0365C96.7579 82.6622 95.6589 81.817 95.6589 81.3747ZM89.1226 83.5993C88.7149 83.5993 88.3589 83.3221 88.2662 82.925C88.1636 82.4858 88.0524 81.9826 87.9745 81.5661C87.9232 81.292 88.2098 81.1556 88.407 81.3528C88.4215 81.3674 88.4375 81.3805 88.4547 81.3919L89.7747 82.2719C89.9763 82.4063 90.0973 82.6325 90.0973 82.8748C90.0973 83.2749 89.7729 83.5993 89.3728 83.5993H89.1226ZM92.4576 78.9195C92.0026 79.0711 91.4615 79.3381 91.5263 79.8133C91.5461 79.9587 91.6161 80.1126 91.7658 80.2624C92.1735 80.6701 92.9238 80.4863 93.3317 80.31C93.3955 80.2824 93.4343 80.2185 93.4343 80.149C93.4343 79.9856 93.6318 79.9038 93.7474 80.0193L94.2208 80.4928C94.4007 80.6727 94.6924 80.6727 94.8724 80.4928L94.9398 80.4253C95.0442 80.321 95.1027 80.1795 95.1027 80.032V79.8565C95.1027 79.4346 94.8328 79.0601 94.4326 78.9267L93.9619 78.7698C93.6194 78.6556 93.2491 78.6556 92.9067 78.7698L92.4576 78.9195ZM84.2577 73.5885C84.1041 73.5885 83.9796 73.464 83.9796 73.3104V73.0324C83.9796 72.7252 84.2286 72.4762 84.5358 72.4762H84.8139C84.9674 72.4762 85.0919 72.6007 85.0919 72.7543C85.0919 72.9079 84.9674 73.0324 84.8139 73.0324C84.6603 73.0324 84.5358 73.1569 84.5358 73.3104C84.5358 73.464 84.4113 73.5885 84.2577 73.5885ZM103.537 60.7969C102.944 60.7969 102.526 61.3772 102.714 61.9392L102.742 62.0234C102.834 62.3016 103.053 62.52 103.331 62.6127L104.237 62.9146C104.433 62.9802 104.65 62.929 104.796 62.7825C104.981 62.5981 105.009 62.3092 104.865 62.0923L104.259 61.1834C104.098 60.9419 103.827 60.7969 103.537 60.7969ZM95.1027 60.7969C94.9404 60.7969 94.319 60.6704 94.2677 60.5163L94.0926 59.9912C94.0424 59.8404 94.1546 59.6846 94.3136 59.6846H94.5828C95.3327 59.6846 95.8526 60.7969 95.1027 60.7969ZM88.985 60.7969C88.985 60.3215 88.4551 60.0379 88.0595 60.3016L87.9755 60.3576C87.6346 60.5849 87.5965 61.0722 87.7622 61.4469C87.8281 61.5962 87.8727 61.755 87.8727 61.9092L87.873 61.931L87.8737 61.9485C87.8743 61.9601 87.8752 61.9715 87.8763 61.9826C87.9278 62.4978 88.985 62.9832 88.985 62.4654V60.7969ZM86.4823 61.3531C86.3287 61.3531 86.2042 61.2286 86.2042 61.075V59.9627C86.2042 59.8091 86.3287 59.6846 86.4823 59.6846C86.6359 59.6846 86.7604 59.8091 86.7604 59.9627V61.075C86.7604 61.2286 86.6359 61.3531 86.4823 61.3531ZM83.4235 56.5601C83.4235 56.7499 83.5773 56.9038 83.7672 56.9038H84.2577C84.7184 56.9038 85.0919 56.5303 85.0919 56.0696V56.0039C85.0919 55.8642 85.1245 55.7265 85.1869 55.6015L85.5106 54.9542C85.601 54.7733 85.6481 54.5739 85.6481 54.3718C85.6481 53.8785 85.3694 53.4275 84.9282 53.2069L84.6687 53.0772C84.5813 53.0335 84.4849 53.0107 84.3872 53.0107H83.6043C83.3323 53.0107 83.1961 52.6819 83.3884 52.4896C83.4116 52.4664 83.4384 52.4471 83.4678 52.4324L84.2158 52.0584C84.4277 51.9524 84.5814 51.868 84.724 51.6788C85.0759 51.212 84.8232 50.4923 84.2413 50.5486C84.1701 50.5555 84.0992 50.5665 84.0299 50.5804C83.9808 50.5903 83.9296 50.5999 83.8775 50.6095C83.4914 50.6812 83.0503 50.7631 82.9097 51.1076C82.8831 51.1729 82.8673 51.2505 82.8673 51.3423C82.8673 51.3742 82.8635 51.4082 82.8563 51.444C82.7438 52.0016 82.1545 52.6993 81.6438 53.3039C81.0006 54.0654 80.4822 54.6792 81.1988 54.6792C81.5186 54.6792 81.8575 55.0622 82.0917 55.4154C82.248 55.6511 82.4479 55.8599 82.7009 55.9864L83.2335 56.2527C83.3499 56.3109 83.4235 56.4299 83.4235 56.5601ZM83.1747 28.6936C82.9863 28.5994 82.8673 28.4068 82.8673 28.1961V27.2151C82.8673 27.0253 83.0212 26.8714 83.211 26.8714C83.3412 26.8714 83.4602 26.9449 83.5185 27.0614L83.9163 27.857C83.9579 27.9403 83.9796 28.0322 83.9796 28.1253V28.1961C83.9796 28.6096 83.5445 28.8785 83.1747 28.6936ZM91.6809 20.7112C91.2533 20.4974 90.7637 20.859 90.8423 21.3306L91.1118 22.9471C91.1733 23.3161 91.4076 23.6334 91.7422 23.8007L91.8501 23.8546C92.5779 24.2186 93.4343 23.6893 93.4343 22.8756C93.4343 22.5852 93.3189 22.3068 93.1137 22.1015L91.8329 20.8208C91.7885 20.7763 91.7371 20.7393 91.6809 20.7112ZM96.5403 43.4096C95.9296 42.8768 96.7712 42.1895 96.7712 42.9999C96.7712 43.4444 96.6824 43.5336 96.5403 43.4096ZM92.322 48.5615V48.309C92.322 47.403 93.2833 47.1949 92.8781 48.0053C92.4332 48.8952 92.322 48.7469 92.322 48.5615ZM107.48 44.6684C106.944 44.6684 106.624 45.2657 106.921 45.7116L107.015 45.8517C107.2 46.1289 107.562 46.2251 107.86 46.0761C108.186 45.9129 108.318 45.5162 108.155 45.1899L108.08 45.0393C107.966 44.812 107.734 44.6684 107.48 44.6684ZM120.28 49.2678C120.019 49.0072 119.574 49.1918 119.574 49.5604C119.574 49.868 119.897 50.0681 120.172 49.9305C120.425 49.8042 120.48 49.4676 120.28 49.2678ZM126.248 49.8546C126.248 49.7388 126.201 49.6278 126.12 49.5459C125.909 49.3352 125.554 49.3929 125.42 49.6594L125.348 49.8051C125.23 50.0397 125.325 50.3251 125.56 50.4424C125.876 50.6003 126.248 50.3706 126.248 50.0175V49.8546ZM126.629 61.2079C126.206 61.3118 125.691 61.1648 125.691 60.7295C125.691 60.4596 125.91 60.2408 126.18 60.2408H126.248C126.555 60.2408 126.804 60.4898 126.804 60.7969V61.3531C126.804 61.2178 126.735 61.1819 126.629 61.2079ZM117.349 41.0876C117.349 41.2309 117.251 41.3558 117.112 41.3906L116.064 41.6527C115.695 41.745 115.387 41.3618 115.557 41.0215C115.633 40.8706 115.787 40.7753 115.956 40.7753H117.037C117.209 40.7753 117.349 40.9151 117.349 41.0876ZM111.231 33.2672C111.231 33.1136 111.107 32.9891 110.953 32.9891C110.8 32.9891 110.675 33.1136 110.675 33.2672V33.8233C110.675 33.9769 110.8 34.1014 110.953 34.1014C111.107 34.1014 111.231 33.9769 111.231 33.8233V33.2672ZM111.787 54.123C111.532 54.123 111.366 53.8541 111.48 53.6256C111.607 53.3723 111.968 53.3723 112.095 53.6256C112.209 53.8541 112.043 54.123 111.787 54.123ZM117.1 59.1872C116.974 58.9338 116.612 58.9338 116.485 59.1872C116.371 59.4157 116.537 59.6846 116.793 59.6846C117.048 59.6846 117.215 59.4157 117.1 59.1872ZM127.59 64.69C127.3 64.69 127.155 65.0409 127.36 65.2462C127.565 65.4514 127.916 65.3061 127.916 65.0158C127.916 64.8359 127.77 64.69 127.59 64.69ZM42.2679 130.086C42.2679 130.376 41.917 130.522 41.7117 130.316C41.5065 130.111 41.6519 129.76 41.9421 129.76C42.122 129.76 42.2679 129.906 42.2679 130.086ZM108.309 19.0852C107.382 18.8998 105.751 19.0852 106.641 21.3098C107.531 23.5344 114.798 31.1352 118.32 34.6576C119.247 35.3991 121.435 36.771 122.769 36.326C124.104 35.8811 124.197 33.1847 122.213 30.2083C120.73 27.9837 117.486 24.0906 114.983 22.4221C114.725 22.2501 114.44 22.0514 114.135 21.8384C112.468 20.6748 110.19 19.0852 108.309 19.0852Z" fill="#D64517"/>
</svg>
