<svg width="666" height="645" viewBox="0 0 666 645" fill="none" xmlns="http://www.w3.org/2000/svg">
<path fill-rule="evenodd" clip-rule="evenodd" d="M542.201 277.641C507.219 271.468 455.088 291.36 433.138 304.392C417.096 312.713 393.552 339.324 376.152 372.099C376.624 372.149 377.087 372.353 377.46 372.726L377.766 373.032C379.141 374.407 378.167 376.758 376.223 376.758C375.644 376.758 375.089 376.528 374.679 376.119L374.373 375.813C374.339 375.778 374.306 375.743 374.274 375.707C372.042 380.084 369.926 384.56 367.956 389.108C368.62 389.15 369.145 389.702 369.145 390.377V390.56C369.145 390.946 368.992 391.316 368.719 391.589L367.94 392.368C367.394 392.914 367.087 393.654 367.087 394.426V395.764C367.087 396.633 366.384 397.336 365.515 397.336C365.201 397.336 364.917 397.247 364.679 397.097C364.163 398.43 363.66 399.768 363.173 401.109C353.041 428.971 347.586 458.391 347.767 494.167C348.022 494.093 348.291 494.053 348.567 494.053C349.796 494.053 350.887 494.839 351.276 496.005L352.331 499.172C352.547 499.818 352.379 500.531 351.897 501.012C351.194 501.715 350.056 501.715 349.353 501.012L349.17 500.829C348.816 500.475 348.346 500.264 347.85 500.231C347.924 503.563 348.046 506.949 348.216 510.395C349.815 508.315 351.682 505.781 353.008 503.723C353.539 502.899 356.061 502.867 356.499 503.744C356.678 504.101 356.608 504.533 356.325 504.815L355.312 505.829C354.938 506.202 354.673 506.671 354.545 507.184L353.009 513.327C352.817 514.093 352.128 514.631 351.338 514.631C350.882 514.631 350.444 514.812 350.121 515.135L349.799 515.457C349.044 516.212 348.781 517.329 349.118 518.342L350.564 522.679C350.605 522.801 350.654 522.92 350.712 523.035L351.485 524.581C352.035 525.682 351.234 526.978 350.003 526.978C349.774 526.978 349.555 526.931 349.355 526.846C350.129 535.628 351.191 544.786 352.55 554.371L355.392 555.318C356.232 555.598 356.798 556.384 356.798 557.269C356.798 558.607 355.541 559.588 354.243 559.264L353.226 559.01C353.758 562.564 354.329 566.176 354.941 569.849C355.387 572.522 355.865 575.105 356.372 577.6C356.427 577.615 356.482 577.632 356.537 577.65L358.555 578.323C358.756 578.389 358.951 578.47 359.14 578.565L361.973 579.981C362.613 580.301 363.099 580.862 363.325 581.54C364.027 583.647 362.023 585.652 359.915 584.949L357.845 584.259C359.415 590.814 361.199 596.698 363.135 601.971C363.483 601.755 363.915 601.659 364.379 601.752L370.294 602.935C370.823 603.04 371.203 603.505 371.203 604.044C371.203 604.668 370.697 605.174 370.072 605.174H364.358C365.221 607.345 366.11 609.404 367.021 611.357C367.098 611.351 367.176 611.348 367.254 611.348H370.934C373.673 611.348 376.231 609.979 377.751 607.7L378.47 606.62C379.099 605.677 379.434 604.57 379.434 603.436C379.434 601.914 378.829 600.454 377.753 599.378L375.443 597.068C374.046 595.67 373.261 593.775 373.261 591.799C373.261 589.822 372.476 587.927 371.078 586.529L368.839 584.29C367.793 583.244 367.534 581.646 368.195 580.323C368.777 579.158 369.968 578.423 371.269 578.423H373.146C374.478 578.423 375.695 579.175 376.29 580.366L377.506 582.797C378.3 584.386 380.568 584.386 381.363 582.797C381.449 582.625 381.511 582.443 381.549 582.255L382.143 579.285C382.983 575.083 381.041 570.816 377.321 568.69L375.54 567.672C371.952 565.622 370.591 561.127 372.439 557.431L372.851 556.607C373.121 556.068 373.261 555.473 373.261 554.871V549.614C373.261 548.095 371.425 547.334 370.351 548.408L370.276 548.483C369.651 549.107 368.639 549.107 368.014 548.483C367.475 547.944 367.392 547.099 367.815 546.465L370.266 542.788C370.845 541.919 370.915 540.806 370.447 539.871L369.931 538.839C369.497 537.971 368.441 537.619 367.573 538.053C366.405 538.637 365.03 537.787 365.03 536.481V535.647C365.03 535.358 365.085 535.071 365.192 534.803L368.775 525.846C369.02 525.234 369.145 524.582 369.145 523.923V520.804C369.145 519.668 370.067 518.747 371.203 518.747H371.689C372.557 518.747 373.261 519.45 373.261 520.319C373.261 521.487 374.491 522.247 375.536 521.725L377.001 520.992C377.25 520.868 377.477 520.704 377.673 520.508L378.137 520.044C378.986 519.195 380.05 518.593 381.215 518.302L386.202 517.055C387.062 516.84 387.665 516.059 387.665 515.173C387.665 513.463 389.733 512.583 390.942 513.792C391.456 514.306 391.636 515.067 391.406 515.756L390.995 516.989C390.293 519.096 391.431 521.374 393.539 522.076L393.839 522.176C395.134 522.608 396.151 523.625 396.583 524.92L397.954 529.036L398.016 529.281C399.342 534.585 400.012 540.031 400.012 545.498V549.409C400.012 550.822 399.306 552.142 398.13 552.927C395.91 554.406 395.599 557.547 397.485 559.434L398.649 560.598C399.463 561.412 399.665 562.655 399.15 563.684C398.49 565.005 396.884 565.541 395.563 564.88L395.135 564.667C394.312 564.255 393.71 563.505 393.487 562.612L391.781 555.787L389.984 550.397C389.811 549.876 389.6 549.367 389.354 548.875L387.71 545.588C386.87 543.906 387.135 542.005 387.401 540.09C387.533 539.144 387.665 538.195 387.665 537.267C387.665 535.621 386.294 531.093 385.608 529.036L384.497 525.704C383.997 524.204 382.285 523.495 380.87 524.202C379.99 524.642 379.434 525.542 379.434 526.526V529.958C379.434 530.705 379.26 531.441 378.927 532.109L378.87 532.222C377.978 534.006 378.328 536.16 379.738 537.571C380.834 538.667 381.31 540.237 381.006 541.757L379.434 549.614L378.927 551.644C378.139 554.794 380.522 557.845 383.769 557.845C386.059 557.845 388.055 559.404 388.611 561.625L389.166 563.847C389.494 565.157 390.67 566.076 392.02 566.076C393.135 566.076 394.154 566.706 394.652 567.703L394.868 568.134C395.498 569.395 396.809 570.192 398.219 570.192C400.326 570.192 402.07 571.9 402.07 574.007V574.557C402.07 575.715 401.61 576.825 400.792 577.644L399.09 579.345C398.343 580.092 397.433 580.655 396.431 580.988L392.599 582.266C392.11 582.429 391.781 582.886 391.781 583.4C391.781 584.061 392.316 584.596 392.977 584.596H396.565C398.623 584.596 400.451 585.914 401.103 587.867L401.736 589.766C401.95 590.409 401.9 591.11 401.597 591.716L400.769 593.373C400.397 594.117 399.405 594.278 398.816 593.689C398.34 593.213 397.567 593.215 397.17 593.759C396.543 594.619 395.897 595.813 395.897 596.943C395.897 599.103 393.035 598.648 392.352 596.598L391.925 595.318C391.833 595.041 391.634 594.812 391.373 594.681C390.363 594.177 389.339 595.337 389.965 596.277L391.475 598.541C391.674 598.841 391.781 599.193 391.781 599.553V607.232C391.781 608.178 390.786 608.792 389.941 608.37L388.253 607.526C387.872 607.335 387.562 607.026 387.371 606.644L387.254 606.409C386.576 605.052 384.64 605.052 383.961 606.409C383.702 606.927 383.702 607.537 383.961 608.055L389.114 618.361C389.478 619.088 389.335 619.967 388.761 620.542C388.124 621.178 387.126 621.277 386.377 620.778L383.157 618.631C382.071 617.907 380.796 617.521 379.491 617.521H370.152C381.365 637.773 393.693 643.168 402.271 643.93C415.986 645.148 435.806 644.916 455.126 618.962C454.779 618.743 454.496 618.406 454.347 617.959C453.938 616.731 454.852 615.463 456.146 615.463C456.606 615.463 457.01 615.619 457.325 615.872C457.494 615.623 457.663 615.373 457.831 615.12C458.729 613.774 459.556 612.392 460.317 610.978C459.747 611.13 459.135 611.071 458.598 610.803L456.707 609.857C456.012 609.51 455.573 608.799 455.573 608.022C455.573 606.621 454.201 605.632 452.872 606.075L452.101 606.332C450.772 606.775 449.4 605.786 449.4 604.385C449.4 603.608 449.839 602.897 450.534 602.549L451.299 602.167C452.623 601.505 454.221 601.764 455.267 602.81L456.874 604.418C457.375 604.919 457.954 605.336 458.587 605.653L461.474 607.096C461.654 607.186 461.819 607.305 461.962 607.448C461.983 607.468 462.003 607.49 462.022 607.511C464.408 602.193 465.964 596.479 466.9 590.512C466.019 590.493 465.146 590.009 464.746 589.009C464.235 587.731 464.905 586.287 466.21 585.852C466.656 585.704 467.101 585.693 467.51 585.789C467.725 583.693 467.874 581.57 467.963 579.428C467.932 579.445 467.9 579.461 467.868 579.477L464.677 581.073C463.331 581.746 461.746 580.767 461.746 579.262C461.746 578.725 461.958 578.209 462.344 577.836C463.521 576.696 465.159 575.207 466.666 574.053C467.149 573.683 467.63 573.519 468.069 573.523C468.004 559.672 465.874 545.229 463.878 531.693C461.179 513.396 458.725 496.757 461.947 485.479C462.857 482.294 464.018 479.487 465.378 477.015C465.192 476.889 465.014 476.742 464.847 476.576C464.179 475.908 463.804 475.002 463.804 474.057V471.391C463.804 470.122 464.439 468.936 465.495 468.232C467.408 466.957 469.922 467.678 470.945 469.588C482.997 457.662 501.469 459.224 509.276 460.785C515.621 462.054 523.53 468.018 530.11 483.982C530.424 483.843 530.775 483.764 531.15 483.764H531.226C532.631 483.764 533.769 484.903 533.769 486.308C533.769 487.271 533.225 488.152 532.363 488.583L532.295 488.617C532.176 488.676 532.054 488.726 531.931 488.765C535.256 498.206 538.135 510.57 540.144 526.635C545.082 566.145 555.92 586.997 560.722 592.485L560.74 592.506C563.441 595.592 567.53 600.266 576.135 602.02C576.207 601.875 576.304 601.738 576.427 601.615L576.557 601.485C576.83 601.212 577.2 601.059 577.586 601.059C578.377 601.059 579.02 601.69 579.041 602.476C585.507 603.204 594.173 602.391 605.993 598.658C645.091 586.311 662.606 517.245 665.669 477.248C667.581 452.287 661.554 382.589 638.918 343.491C637.062 340.285 635.195 337.165 633.278 334.135L630.796 339.099C630.606 339.478 630.218 339.718 629.794 339.718C629.087 339.718 628.558 339.071 628.696 338.379L629.974 331.987C630.099 331.365 630.493 330.882 631 330.615C617.342 310.012 600.557 293.844 567.891 283.726C568.124 284.236 568.207 284.824 568.087 285.426L567.058 290.57C566.846 291.628 565.918 292.388 564.84 292.388C563.591 292.388 562.579 291.376 562.579 290.127V284.88C562.579 283.894 563.092 283.027 563.867 282.534C557.29 280.67 550.099 279.035 542.201 277.641ZM536.721 297.35C532.605 298.721 525.609 303.111 530.548 309.696C539.808 322.043 573.761 342.621 602.571 344.679C609.156 344.679 609.43 339.191 608.744 336.448C605.314 330.274 598.455 319.162 586.108 311.754C574.271 304.652 553.183 295.292 536.721 297.35ZM600.954 317.527L603.223 318.283C604.487 318.705 605.792 317.764 605.792 316.431C605.792 315.591 605.255 314.845 604.458 314.579L602.189 313.823C600.924 313.402 599.619 314.343 599.619 315.675C599.619 316.515 600.157 317.261 600.954 317.527ZM652.908 389.105H649.739C649.27 389.105 648.82 388.919 648.488 388.587L645.376 385.475C642.556 382.655 638.385 381.671 634.602 382.932C631.343 384.018 629.802 387.738 631.338 390.81L632.18 392.494C632.421 392.975 632.738 393.415 633.118 393.795L634.851 395.528C635.85 396.527 637.469 396.527 638.468 395.528L639.746 394.25C640.885 393.111 642.833 393.917 642.833 395.528C642.833 396.527 643.642 397.336 644.641 397.336H646.854C648.199 397.336 649.454 396.664 650.2 395.546L652.971 391.389C653.07 391.241 653.206 391.121 653.365 391.042C654.329 390.559 653.986 389.105 652.908 389.105ZM648.404 378.816C648.736 378.816 649.006 379.086 649.006 379.419C649.006 379.956 648.357 380.225 647.977 379.845C647.598 379.465 647.867 378.816 648.404 378.816ZM621.499 371.236C622.4 371.686 623.356 370.73 622.906 369.829C622.585 369.188 621.732 369.05 621.226 369.556C620.72 370.062 620.858 370.916 621.499 371.236ZM625.342 384.99C624.773 384.99 624.313 384.529 624.313 383.961V381.903C624.313 381.335 624.773 380.874 625.342 380.874C625.91 380.874 626.37 381.335 626.37 381.903V383.961C626.37 384.529 625.91 384.99 625.342 384.99ZM617.11 384.99H621.829C622.102 384.99 622.363 385.098 622.556 385.291C623.204 385.939 622.745 387.047 621.829 387.047H617.11C616.542 387.047 616.081 386.587 616.081 386.018C616.081 385.45 616.542 384.99 617.11 384.99ZM610.36 389.105H609.574C608.545 389.105 607.631 388.446 607.305 387.47C606.682 385.6 608.461 383.821 610.33 384.444L611.076 384.693C611.646 384.883 612.117 385.291 612.385 385.828C613.138 387.334 612.043 389.105 610.36 389.105ZM609.908 373.839V375.82C609.908 376.395 610.233 376.921 610.747 377.178C611.956 377.782 613.293 376.623 612.865 375.341L612.238 373.46C612.076 372.972 611.619 372.643 611.104 372.643C610.443 372.643 609.908 373.178 609.908 373.839ZM587.386 383.875L588.813 382.805C590.391 381.622 592.502 381.431 594.266 382.313C595.077 382.719 595.768 383.328 596.271 384.082L597.336 385.681C598.719 387.754 598.719 390.456 597.336 392.53C596.191 394.247 594.264 395.279 592.2 395.279H591.188C588.788 395.279 586.594 393.923 585.521 391.776C584.152 389.038 584.937 385.712 587.386 383.875ZM567.594 378.881C567.47 379.182 567.346 379.472 567.226 379.742C566.945 380.373 567.195 381.124 567.812 381.433L568.266 381.66C569.435 382.244 570.81 381.394 570.81 380.088V379.059C570.81 378.899 570.773 378.742 570.701 378.599C570.216 377.628 568.007 377.876 567.594 378.881ZM620.197 436.435C618.753 436.435 619.315 432.211 619.938 429.322C620.08 428.662 620.671 428.203 621.346 428.203C621.903 428.203 622.412 428.518 622.661 429.017L623.744 431.181C624.118 431.93 624.313 432.754 624.313 433.59V436.435C624.313 437.706 623.527 437.406 622.44 436.991C621.769 436.735 620.983 436.435 620.197 436.435ZM626.625 440.041L628.247 436.798C628.367 436.557 628.525 436.338 628.716 436.147L629.624 435.239C630.1 434.763 630.1 433.991 629.624 433.515C629.036 432.927 628.044 433.087 627.672 433.832L624.979 439.218C624.673 439.83 625.118 440.55 625.802 440.55C626.15 440.55 626.469 440.353 626.625 440.041ZM579.041 434.377V432.319C579.041 431.182 579.962 430.261 581.099 430.261C582.235 430.261 583.157 431.182 583.157 432.319V434.377C583.157 435.513 582.235 436.435 581.099 436.435C579.962 436.435 579.041 435.513 579.041 434.377ZM570.81 431.417V436.688C570.81 437.684 571.618 438.492 572.614 438.492C573.788 438.492 574.65 437.389 574.365 436.25L573.086 431.136C572.958 430.622 572.496 430.261 571.965 430.261C571.327 430.261 570.81 430.779 570.81 431.417ZM579.997 450.693L574.925 440.55L575.617 441.587C577.756 444.796 581.358 446.724 585.214 446.724C587.493 446.724 588.633 449.478 587.023 451.089L586.118 451.993C585.54 452.572 584.755 452.897 583.936 452.897H583.563C582.053 452.897 580.672 452.044 579.997 450.693ZM564.636 428.203H565.422C566.952 428.203 567.947 426.594 567.263 425.225C566.914 424.528 566.202 424.088 565.422 424.088H564.636C563.5 424.088 562.579 425.009 562.579 426.146C562.579 427.282 563.5 428.203 564.636 428.203ZM556.405 413.13V411.741C556.405 410.604 557.327 409.683 558.463 409.683H558.856C559.775 409.683 560.521 410.428 560.521 411.348C560.521 411.606 560.461 411.861 560.345 412.092L559.465 413.852C558.972 414.838 557.658 415.051 556.878 414.272C556.575 413.969 556.405 413.558 556.405 413.13ZM544.849 403.425C545.185 404.671 545.572 405.943 545.886 406.922C546.035 407.386 546.296 407.805 546.64 408.149C548.29 409.799 551.1 409.136 551.838 406.922L552.102 406.13C552.226 405.758 552.29 405.367 552.29 404.974V403.51C552.29 401.237 550.447 399.394 548.174 399.394C545.901 399.394 544.256 401.23 544.849 403.425ZM568.752 474.864V469.359C568.752 468.223 569.673 467.302 570.81 467.302H572.082C572.598 467.302 573.108 467.422 573.571 467.653L573.748 467.742C575.604 468.67 576.496 470.822 575.839 472.791L575.193 474.73C575.017 475.258 574.721 475.738 574.327 476.131L573.59 476.868C572.222 478.236 569.916 477.862 569.051 476.131C568.854 475.738 568.752 475.304 568.752 474.864ZM574.925 484.616V486.487C574.925 487.397 575.185 488.287 575.673 489.054L585.919 505.156C588.044 508.494 591.726 510.515 595.683 510.515H596.758C597.29 510.515 597.818 510.601 598.323 510.769L602.801 512.262C603.294 512.426 603.527 512.989 603.294 513.454C602.891 514.26 603.85 515.059 604.57 514.519L609.772 510.617C609.863 510.549 609.948 510.475 610.028 510.395L612.761 507.662C613.495 506.928 614.645 506.814 615.509 507.39C617.166 508.495 619.313 506.981 618.831 505.05L618.338 503.08C618.208 502.559 617.939 502.084 617.559 501.704L616.736 500.881C615.041 499.186 612.616 498.483 610.24 498.789C607.061 499.197 603.735 499.315 603.735 498.169C603.735 496.631 600.145 493.778 597.994 492.29C597.708 492.091 597.437 491.871 597.19 491.624L594.901 489.335C594.097 488.531 594.097 487.228 594.901 486.425C595.287 486.039 595.503 485.515 595.503 484.969V484.32C595.503 482.759 594.505 481.373 593.024 480.88L592.18 480.598C590.433 480.016 588.508 480.471 587.206 481.773L585.701 483.278C585.389 483.589 585.214 484.011 585.214 484.452C585.214 486.095 583.083 486.741 582.172 485.373L581.219 483.944C581.139 483.824 581.048 483.713 580.946 483.611L579.893 482.559C579.348 482.013 578.607 481.706 577.836 481.706C576.228 481.706 574.925 483.009 574.925 484.616ZM568.289 491.377L565.408 487.537C564.242 485.982 565.352 483.764 567.295 483.764C568.188 483.764 569.004 484.269 569.404 485.068L572.267 490.794C572.562 491.385 573.35 491.513 573.818 491.045C574.327 490.536 575.193 490.741 575.421 491.424L576.564 494.853C576.832 495.658 576.77 496.538 576.39 497.297L574.012 502.053C573.259 503.558 572.868 505.218 572.868 506.901V508.758C572.868 509.899 572.498 511.009 571.813 511.922L568.941 515.751C567.909 517.127 565.789 516.936 565.019 515.397C564.772 514.903 564.71 514.336 564.844 513.8L566.227 508.27C566.537 507.027 566.983 505.822 567.556 504.675L568.719 502.351C570.058 499.673 570.278 496.573 569.331 493.733L568.996 492.728C568.834 492.243 568.596 491.787 568.289 491.377ZM580.07 513.602L584.918 518.45C585.108 518.64 585.365 518.747 585.634 518.747C586.387 518.747 586.876 517.955 586.54 517.281L585.402 515.006C585.278 514.758 585.114 514.531 584.918 514.334L582.128 511.544C581.559 510.976 580.638 510.976 580.07 511.544C579.502 512.113 579.502 513.034 580.07 513.602ZM576.134 531.518L574.996 532.087C573.873 532.649 572.512 532.085 572.115 530.894C571.577 529.28 573.112 527.745 574.726 528.283L575.932 528.685C576.56 528.895 576.983 529.482 576.983 530.144C576.983 530.726 576.654 531.258 576.134 531.518ZM560.521 537.267V539.325C560.521 540.461 561.442 541.382 562.579 541.382C563.715 541.382 564.636 540.461 564.636 539.325V537.267C564.636 536.13 563.715 535.209 562.579 535.209C561.442 535.209 560.521 536.13 560.521 537.267ZM546.375 532.892L548.777 530.491C549.314 529.954 550.232 530.334 550.232 531.093V534.909C550.232 536.211 549.176 537.267 547.874 537.267C546.121 537.267 544.981 535.422 545.765 533.854L545.952 533.479C546.061 533.262 546.204 533.064 546.375 532.892ZM555.954 552.826L558.897 558.714C559.814 560.548 562.579 559.895 562.579 557.845V555.001C562.579 552.96 561.426 551.095 559.601 550.182L558.932 549.848C558.623 549.694 558.284 549.614 557.939 549.614C556.289 549.614 555.216 551.35 555.954 552.826ZM553.382 568.744L550.881 564.992C550.503 564.426 550.578 563.672 551.059 563.191C551.696 562.555 552.756 562.659 553.255 563.409L555.756 567.161C556.134 567.727 556.059 568.48 555.578 568.961C554.941 569.598 553.881 569.493 553.382 568.744ZM585.82 556.513L586.255 556.296C586.878 555.984 587.272 555.347 587.272 554.65C587.272 553.281 585.832 552.391 584.609 553.003L584.174 553.221C583.55 553.532 583.157 554.17 583.157 554.867C583.157 556.235 584.597 557.125 585.82 556.513ZM627.326 541.236L626.223 539.029C625.345 537.274 626.621 535.209 628.584 535.209C629.72 535.209 630.728 535.936 631.088 537.014L631.868 539.355C632.256 540.518 631.729 541.79 630.632 542.338C629.415 542.947 627.935 542.453 627.326 541.236ZM636.057 553.127L637.771 554.841C638.336 555.406 639.199 555.546 639.914 555.189L642.622 553.835C642.759 553.766 642.87 553.655 642.938 553.518L643.671 552.053C643.896 551.604 643.317 551.187 642.962 551.542C642.879 551.625 642.767 551.671 642.65 551.671H636.659C635.9 551.671 635.52 552.59 636.057 553.127ZM629.444 560.945L631.431 558.957C632.096 558.293 633.111 558.128 633.951 558.548L634.057 558.601C635.337 559.241 635.614 560.948 634.602 561.96L631.163 565.399C630.715 565.848 630.342 566.365 630.058 566.932L628.803 569.441C628.573 569.901 628.104 570.192 627.589 570.192H626.964C625.985 570.192 625.495 569.009 626.187 568.317C626.308 568.197 626.399 568.05 626.452 567.888L627.974 563.323C628.273 562.427 628.776 561.613 629.444 560.945ZM607.85 568.134C606.714 568.134 605.792 569.055 605.792 570.192C605.792 572.169 608.31 573.008 609.496 571.426C610.514 570.07 609.546 568.134 607.85 568.134ZM570.81 574.793V573.521C570.81 572.819 571.379 572.25 572.082 572.25C572.563 572.25 573.004 572.522 573.219 572.953L573.788 574.09C574.31 575.135 573.55 576.365 572.382 576.365C571.514 576.365 570.81 575.661 570.81 574.793ZM518.939 434.803L516.102 437.64C515.556 438.186 515.249 438.926 515.249 439.698C515.249 441.305 516.552 442.608 518.159 442.608H518.336C520.041 442.608 521.423 441.226 521.423 439.521V435.832C521.423 435.028 520.771 434.377 519.967 434.377C519.582 434.377 519.211 434.53 518.939 434.803ZM527.043 406.673L528.951 402.858C529.382 401.996 530.262 401.452 531.226 401.452C532.631 401.452 533.769 402.591 533.769 403.996V406.354C533.769 407.056 534.339 407.625 535.041 407.625C535.523 407.625 535.963 407.898 536.179 408.328L536.965 409.9C537.544 411.059 537.544 412.423 536.965 413.581L536.76 413.992C536.163 415.186 535.11 416.096 533.844 416.518C531.446 417.317 528.814 416.236 527.684 413.975L527.043 412.693C526.096 410.798 526.096 408.568 527.043 406.673ZM485.302 384.844L487.24 387.428C488.054 388.513 489.216 389.285 490.532 389.614L496.729 391.163L507.018 395.279L509.024 396.282C510.317 396.928 511.134 398.249 511.134 399.694V401.452C511.134 402.588 510.212 403.51 509.076 403.51C507.939 403.51 507.018 404.431 507.018 405.568V406.42C507.018 407.192 507.325 407.932 507.87 408.478L509.076 409.683C510.393 411.001 511.134 412.788 511.134 414.651V416.852C511.134 417.532 510.863 418.185 510.383 418.665C509.602 419.446 509.409 420.638 509.902 421.625L510.431 422.682C510.861 423.543 511.742 424.088 512.706 424.088C514.11 424.088 515.249 422.949 515.249 421.544V419.672C515.249 418.595 515.858 417.61 516.821 417.128L517.793 416.643C518.661 416.208 519.013 415.153 518.579 414.285C517.994 413.116 518.844 411.741 520.151 411.741H520.208C520.942 411.741 521.601 411.295 521.873 410.614L524.461 404.146C524.977 402.856 524.026 401.452 522.637 401.452C521.893 401.452 521.212 401.872 520.88 402.538L520.788 402.72C520.088 404.121 518.221 404.424 517.114 403.317L515.842 402.045C515.463 401.665 515.249 401.15 515.249 400.613V400.52C515.249 399.057 516.788 398.106 518.096 398.76L518.398 398.911C518.975 399.199 519.673 399.086 520.129 398.63C520.798 397.961 520.688 396.847 519.9 396.322L515.249 393.221L489.858 379.549C488.99 379.081 487.967 378.993 487.032 379.305C484.716 380.077 483.837 382.891 485.302 384.844ZM492.128 407.625H488.984C487.579 407.625 486.44 406.487 486.44 405.082C486.44 404.118 486.984 403.238 487.846 402.807L488.715 402.372C489.874 401.793 491.237 401.793 492.396 402.372L493.265 402.807C494.127 403.238 494.671 404.118 494.671 405.082C494.671 406.487 493.532 407.625 492.128 407.625ZM485.517 431.607L486.143 433.487C486.333 434.057 486.742 434.528 487.279 434.796C488.784 435.549 490.556 434.454 490.556 432.771V430.789C490.556 429.361 489.398 428.203 487.97 428.203C486.205 428.203 484.959 429.932 485.517 431.607ZM468.093 408.825L471.556 408.133C472.869 407.87 474.093 408.874 474.093 410.212C474.093 411.125 473.509 411.936 472.643 412.224L469.292 413.341C468.451 413.622 467.524 413.403 466.897 412.776C465.575 411.454 466.26 409.192 468.093 408.825ZM461.746 416.283V419.038C461.746 420.954 459.689 423.946 459.689 422.03V416.283C459.689 415.366 460.797 414.907 461.445 415.555C461.638 415.748 461.746 416.01 461.746 416.283ZM468.596 452.927L468.704 452.601C469.289 450.846 471.517 450.321 472.825 451.629C473.582 452.386 473.77 453.543 473.291 454.501L473.137 454.809C472.529 456.026 471.049 456.519 469.831 455.911C468.734 455.362 468.208 454.091 468.596 452.927ZM433.237 475.533H431.232C429.689 475.533 428.208 474.92 427.117 473.828L425.984 472.696C425.166 471.877 424.706 470.767 424.706 469.609V468.573C424.706 466.735 426.197 465.244 428.035 465.244C428.552 465.244 429.062 465.364 429.525 465.595L434.944 468.305C436.236 468.951 437.053 470.272 437.053 471.717C437.053 473.825 435.344 475.533 433.237 475.533ZM414.417 483.278V475.533C414.417 474.396 415.338 473.475 416.475 473.475C417.611 473.475 418.532 474.396 418.532 475.533V478.586C418.532 479.266 418.803 479.919 419.283 480.399C420.064 481.18 420.257 482.372 419.764 483.359L419.236 484.416C418.805 485.277 417.924 485.822 416.96 485.822C415.556 485.822 414.417 484.683 414.417 483.278ZM421.997 487.774L421.824 488.293C421.159 490.29 422.334 492.431 424.376 492.942L427.487 493.719C428.348 493.935 429.258 493.835 430.052 493.438C431.707 492.61 432.502 490.691 431.917 488.935L431.813 488.624C431.255 486.95 429.69 485.822 427.926 485.822H424.706C423.477 485.822 422.386 486.608 421.997 487.774ZM428.171 498.819L428.256 498.734C429.546 497.444 431.722 497.797 432.538 499.429C432.797 499.947 433.217 500.366 433.734 500.625L436.35 501.933C436.781 502.148 437.053 502.589 437.053 503.07C437.053 503.773 436.483 504.342 435.781 504.342H430.946C429.644 504.342 428.454 503.607 427.872 502.442L427.654 502.006C427.122 500.943 427.33 499.66 428.171 498.819ZM446.556 506.4H447.827C448.696 506.4 449.4 505.696 449.4 504.828C449.4 503.659 448.17 502.899 447.124 503.422L445.987 503.991C445.556 504.206 445.284 504.646 445.284 505.128C445.284 505.83 445.853 506.4 446.556 506.4ZM424.706 501.198V498.169C424.706 497.032 423.785 496.111 422.648 496.111C421.512 496.111 420.59 497.032 420.59 498.169V499.775C420.59 500.075 420.554 500.373 420.481 500.664L419.031 506.465C418.722 507.701 419.084 509.009 419.985 509.91C420.383 510.308 420.868 510.608 421.403 510.786L424.662 511.873C425.917 512.291 426.764 513.466 426.764 514.789C426.764 515.953 427.422 517.018 428.463 517.539L429.228 517.921C430.285 518.45 431.509 518.537 432.631 518.163L436.163 516.985C436.733 516.796 437.204 516.387 437.472 515.85C438.225 514.345 437.13 512.573 435.447 512.573H435.295C433.993 512.573 432.937 511.518 432.937 510.215V510.03C432.937 509.066 432.393 508.185 431.531 507.755L427.518 505.748C425.795 504.886 424.706 503.125 424.706 501.198ZM445.284 518.747C445.284 517.61 444.363 516.689 443.226 516.689C442.09 516.689 441.168 517.61 441.168 518.747C441.168 519.883 442.09 520.804 443.226 520.804C444.363 520.804 445.284 519.883 445.284 518.747ZM437.053 538.472V536.967C437.053 535.889 437.661 534.905 438.625 534.423C440.029 533.721 440.599 532.012 439.897 530.608L439.713 530.241C439.327 529.469 439.264 528.576 439.537 527.757L440.188 525.803C440.773 524.047 442.417 522.862 444.268 522.862C444.936 522.862 445.595 523.018 446.192 523.316L447.064 523.752C448.559 524.5 449.697 525.811 450.225 527.397L450.355 527.787C451.031 529.814 450.503 532.047 448.993 533.558L448.797 533.754C447.865 534.686 447.342 535.949 447.342 537.267V538.656C447.342 539.084 447.172 539.495 446.869 539.798L446.617 540.05C445.961 540.705 444.856 540.526 444.441 539.697C443.94 538.696 442.512 538.696 442.011 539.697L441.25 541.219C441.196 541.326 441.168 541.445 441.168 541.566C441.168 542.257 440.332 542.604 439.843 542.115L437.655 539.927C437.269 539.541 437.053 539.018 437.053 538.472ZM456.399 536.862L456.928 537.919C457.359 538.78 458.239 539.325 459.203 539.325C460.608 539.325 461.746 538.186 461.746 536.781V536.061C461.746 534.454 460.443 533.151 458.836 533.151H458.693C458.013 533.151 457.361 533.421 456.88 533.902C456.099 534.683 455.906 535.875 456.399 536.862ZM451.457 550.4V547.556C451.457 546.419 452.379 545.498 453.515 545.498C454.652 545.498 455.573 546.419 455.573 547.556V550.4C455.573 551.179 455.133 551.892 454.435 552.24C453.067 552.924 451.457 551.929 451.457 550.4ZM447.342 550.476C447.342 550 446.956 549.614 446.48 549.614C445.891 549.614 445.476 550.19 445.662 550.748C445.971 551.676 447.342 551.453 447.342 550.476ZM439.713 555.184C439.38 555.517 439.38 556.057 439.713 556.39C440.25 556.927 441.168 556.546 441.168 555.787C441.168 555.028 440.25 554.647 439.713 555.184ZM412.581 598.052L413.69 603.596C414.112 605.71 415.969 607.232 418.125 607.232H419.967C421.448 607.232 422.648 606.032 422.648 604.551C422.648 603.655 422.2 602.818 421.454 602.321L418.612 600.426C417.506 599.689 417.351 598.124 418.291 597.185C418.451 597.025 418.584 596.84 418.685 596.638L419.135 595.738C420.067 593.874 420.22 591.717 419.561 589.741L419.459 589.435C418.866 587.654 419.004 585.711 419.843 584.033C420.335 583.05 420.59 581.967 420.59 580.868V577.82C420.59 576.889 420.22 575.995 419.561 575.336C418.903 574.677 418.532 573.784 418.532 572.852V570.677C418.532 569.119 419.413 567.694 420.808 566.996C421.966 566.417 423.33 566.417 424.489 566.996C425.883 567.694 426.764 569.119 426.764 570.677V574.307C426.764 574.993 427.175 576.777 428.821 578.423C430.32 579.922 430.796 582.671 430.869 584.187C430.882 584.456 430.942 584.722 431.063 584.963C431.754 586.346 433.773 586.203 434.263 584.735L434.773 583.203C434.918 582.769 434.936 582.303 434.825 581.859L433.503 576.57C433.133 575.089 432.367 573.737 431.288 572.658L430.277 571.647C429.345 570.715 428.821 569.451 428.821 568.134V566.928C428.821 566.383 429.038 565.859 429.424 565.473C430.228 564.67 431.531 564.67 432.334 565.473C432.72 565.859 433.244 566.076 433.789 566.076H436.2C437.808 566.076 439.11 564.773 439.11 563.166C439.11 562.394 438.804 561.654 438.258 561.108L436.489 559.339C435.506 558.356 434.766 557.159 434.327 555.84L432.937 551.671L431.271 545.008C431.015 543.982 430.484 543.045 429.737 542.298L428.83 541.391C427.596 540.157 425.711 539.851 424.15 540.631C423.188 541.112 422.457 541.956 422.117 542.976L420.59 547.556L418.806 554.693C418.624 555.42 418.532 556.166 418.532 556.915V564.018C418.532 565.155 417.611 566.076 416.475 566.076C415.338 566.076 414.417 566.997 414.417 568.134V585.199C414.417 586.131 414.047 587.024 413.388 587.683C412.729 588.342 412.359 589.235 412.359 590.167V595.812C412.359 596.564 412.433 597.315 412.581 598.052ZM416.475 535.209V531.093C416.475 529.957 417.396 529.036 418.532 529.036C419.669 529.036 420.59 529.957 420.59 531.093V535.209C420.59 536.346 419.669 537.267 418.532 537.267C417.396 537.267 416.475 536.346 416.475 535.209ZM409.731 519.538L408.63 525.045C408.53 525.547 408.242 526.029 407.958 526.505C407.528 527.224 407.108 527.928 407.361 528.659C407.439 528.885 407.699 529.036 408.243 529.036C410.637 529.036 412.697 527.347 413.166 525L414.084 520.409C414.281 519.428 413.796 518.436 412.901 517.988C411.591 517.334 410.018 518.103 409.731 519.538ZM408.243 503.313V502.031C408.243 501.034 409.051 500.226 410.048 500.226C411.222 500.226 412.083 501.33 411.799 502.469L411.142 505.094C410.715 506.803 412.007 508.458 413.768 508.458H415.02C415.823 508.458 416.475 509.109 416.475 509.913C416.475 510.299 416.321 510.669 416.048 510.942L415.164 511.826C414.673 512.317 414.074 512.688 413.415 512.907L410.772 513.788C409.18 514.319 407.931 515.568 407.401 517.16L406.886 518.702C406.468 519.958 405.293 520.804 403.97 520.804C402.806 520.804 401.741 520.147 401.22 519.105L401.009 518.682C400.393 517.449 400.49 515.986 401.208 514.809C402.564 512.585 404.128 509.7 404.128 508.458C404.128 507.779 404.594 507.31 405.238 506.994C406.768 506.242 408.243 505.018 408.243 503.313ZM382.173 498.184L382.603 496.895C383.103 495.395 384.815 494.686 386.229 495.393C387.109 495.833 387.665 496.732 387.665 497.717V499.075C387.665 501.327 385.156 502.669 383.283 501.421C382.226 500.716 381.771 499.39 382.173 498.184ZM400.485 465.717C400.203 465.434 400.133 465.003 400.311 464.645C400.75 463.769 402.07 464.081 402.07 465.061C402.07 465.888 401.07 466.302 400.485 465.717ZM387.665 474.402V466.312C387.665 464.876 386.154 463.942 384.87 464.584C384.09 464.974 383.668 465.836 383.839 466.691L385.426 474.624C385.532 475.152 385.996 475.533 386.535 475.533C387.159 475.533 387.665 475.027 387.665 474.402ZM379.434 476.805V478.862C379.434 480.169 380.809 481.019 381.978 480.434C382.846 480 383.198 478.945 382.764 478.076L381.844 476.236C381.628 475.805 381.188 475.533 380.706 475.533C380.004 475.533 379.434 476.102 379.434 476.805ZM375.319 474.504V472.446C375.319 471.878 375.779 471.417 376.348 471.417C376.916 471.417 377.376 471.878 377.376 472.446V474.504C377.376 475.072 376.916 475.533 376.348 475.533C375.779 475.533 375.319 475.072 375.319 474.504ZM374.716 465.847C375.049 465.514 375.049 464.974 374.716 464.641C374.179 464.104 373.261 464.484 373.261 465.244C373.261 466.003 374.179 466.383 374.716 465.847ZM360.062 454.955H357.885C355.958 454.955 354.196 456.043 353.335 457.767L353.252 457.933C352.878 458.681 352.683 459.506 352.683 460.342V468.019C352.683 468.759 353.283 469.359 354.023 469.359C354.471 469.359 354.89 469.135 355.139 468.763L358.233 464.12C358.648 463.499 359.122 462.92 359.65 462.392L362.119 459.923C362.665 459.377 362.972 458.637 362.972 457.865C362.972 456.258 361.669 454.955 360.062 454.955ZM360.16 490.691L360.709 490.142C360.845 490.007 360.958 489.85 361.044 489.678C361.755 488.255 360.391 486.682 358.882 487.185L358.145 487.431C357.341 487.699 356.798 488.451 356.798 489.299C356.798 491.053 358.92 491.932 360.16 490.691ZM410.047 555.405L406.584 550.211C406.335 549.838 405.916 549.614 405.468 549.614C404.728 549.614 404.128 550.214 404.128 550.954V552.524C404.128 553.296 404.434 554.036 404.98 554.582L407.715 557.317C408.67 558.271 410.301 557.595 410.301 556.246C410.301 555.947 410.213 555.654 410.047 555.405ZM445.284 565.205V566.928C445.284 567.7 444.977 568.441 444.432 568.986L443.895 569.523C443.467 569.951 442.886 570.192 442.28 570.192C440.721 570.192 439.62 568.664 440.113 567.185L441.004 564.51C441.112 564.187 441.294 563.893 441.535 563.652C442.918 562.268 445.284 563.248 445.284 565.205ZM445.418 584.195L446.441 581.124C446.884 579.795 445.895 578.423 444.494 578.423C443.717 578.423 443.007 578.862 442.659 579.557L441.713 581.448C441.37 582.135 441.37 582.942 441.713 583.629L442.114 584.43C442.661 585.524 444.12 585.761 444.985 584.896C445.181 584.699 445.33 584.459 445.418 584.195ZM457.631 571.219V577.395C457.631 577.963 458.091 578.423 458.66 578.423C459.228 578.423 459.689 577.962 459.689 577.394V571.221C459.689 570.652 459.228 570.192 458.66 570.192C458.091 570.192 457.631 570.651 457.631 571.219ZM455.573 587.683V588.286C455.573 588.559 455.465 588.82 455.272 589.013C454.623 589.661 453.515 589.202 453.515 588.286V587.683C453.515 587.115 453.976 586.654 454.544 586.654C455.112 586.654 455.573 587.115 455.573 587.683ZM443.226 604.145C443.226 603.577 443.687 603.117 444.255 603.117C444.823 603.117 445.284 603.577 445.284 604.145C445.284 604.714 444.823 605.174 444.255 605.174C443.687 605.174 443.226 604.714 443.226 604.145ZM432.464 607.871L432.205 607.093C431.716 605.626 433.245 604.299 434.628 604.991C434.869 605.112 435.135 605.174 435.405 605.174H437.44C438.539 605.174 439.622 605.43 440.605 605.921L441.888 606.563C442.745 606.991 443.396 607.743 443.699 608.651L444.783 611.902C445.029 612.642 444.479 613.406 443.699 613.406C443.396 613.406 443.106 613.285 442.892 613.071L440.704 610.883C439.684 609.863 438.3 609.29 436.857 609.29H434.433C433.54 609.29 432.747 608.718 432.464 607.871ZM427.626 594.885C428.214 594.885 428.629 594.309 428.443 593.751C428.134 592.823 426.764 593.046 426.764 594.023C426.764 594.499 427.15 594.885 427.626 594.885ZM447.342 614.677C447.342 615.111 447.694 615.463 448.128 615.463C448.712 615.463 449.092 614.848 448.831 614.326C448.46 613.584 447.342 613.848 447.342 614.677ZM442.658 390.506C444.201 390.892 445.284 392.279 445.284 393.87C445.284 395.784 443.732 397.336 441.817 397.336C440.226 397.336 438.84 396.254 438.454 394.71C437.819 392.172 440.119 389.872 442.658 390.506ZM432.234 393.572C432.665 393.357 432.937 392.916 432.937 392.435C432.937 391.732 432.368 391.163 431.665 391.163H430.394C429.525 391.163 428.821 391.867 428.821 392.735C428.821 393.904 430.051 394.664 431.097 394.141L432.234 393.572ZM420.237 385.988L419.988 385.239C419.451 383.628 421.129 382.172 422.648 382.932L425.629 384.422C426.325 384.77 426.764 385.481 426.764 386.258C426.764 387.659 425.391 388.648 424.063 388.205L421.649 387.4C420.983 387.178 420.459 386.655 420.237 385.988ZM437.722 372.643H438.324C439.631 372.643 440.481 371.268 439.897 370.099C439.462 369.231 438.407 368.879 437.538 369.313L436.999 369.583C436.013 370.076 435.8 371.39 436.58 372.17C436.883 372.473 437.293 372.643 437.722 372.643ZM385.268 392.513C384.781 391.459 384.167 389.972 383.82 388.685C383.581 387.798 384.295 387.047 385.215 387.047C385.473 387.047 385.728 387.108 385.959 387.223L388.197 388.342C389.132 388.81 389.723 389.766 389.723 390.811V391.463C389.723 393.216 387.879 394.356 386.311 393.572C385.854 393.344 385.482 392.976 385.268 392.513ZM375.319 386.651C375.319 385.733 374.575 384.99 373.657 384.99C372.482 384.99 371.678 386.177 372.114 387.268C372.794 388.967 375.319 388.48 375.319 386.651ZM404.128 352.851V352.065C404.128 350.928 405.049 350.007 406.186 350.007C407.322 350.007 408.243 350.928 408.243 352.065V352.851C408.243 353.63 407.803 354.343 407.106 354.691C405.738 355.375 404.128 354.38 404.128 352.851ZM399.022 340.76L399.661 340.973C400.768 341.342 401.099 342.746 400.274 343.571C400.102 343.744 399.972 343.955 399.895 344.186C399.368 345.768 397.081 345.638 396.754 344.002L396.543 342.948C396.255 341.509 397.629 340.295 399.022 340.76ZM455.573 327.371V325.313C455.573 324.177 456.494 323.255 457.631 323.255C458.767 323.255 459.689 324.177 459.689 325.313V327.371C459.689 328.508 458.767 329.429 457.631 329.429C456.494 329.429 455.573 328.508 455.573 327.371ZM486.44 310.909V323.255C486.44 324.392 487.361 325.313 488.498 325.313C489.634 325.313 490.556 324.392 490.556 323.255V320.169C490.556 319.601 490.095 319.14 489.527 319.14C488.958 319.14 488.498 318.679 488.498 318.111V317.685C488.498 317.299 488.651 316.929 488.924 316.656L489.527 316.053C490.185 315.394 490.556 314.501 490.556 313.569V310.909C490.556 309.772 489.634 308.851 488.498 308.851C487.361 308.851 486.44 309.772 486.44 310.909ZM483.957 349.157L483.151 347.544C482.657 346.557 482.851 345.365 483.631 344.584L483.713 344.503C484.141 344.074 484.723 343.833 485.328 343.833C486.888 343.833 487.989 345.361 487.495 346.84L486.79 348.956C486.581 349.584 485.994 350.007 485.332 350.007C484.75 350.007 484.218 349.678 483.957 349.157ZM530.162 342.03L532.438 343.168C533.049 343.474 533.769 343.029 533.769 342.344C533.769 341.996 533.572 341.677 533.261 341.521L530.986 340.384C530.374 340.078 529.654 340.523 529.654 341.207C529.654 341.555 529.851 341.874 530.162 342.03ZM537.885 381.903V373.672C537.885 373.103 538.346 372.643 538.914 372.643C539.482 372.643 539.943 373.103 539.943 373.672V381.903C539.943 382.471 539.482 382.932 538.914 382.932C538.346 382.932 537.885 382.471 537.885 381.903ZM537.152 465.384L536.202 468.234C535.972 468.924 536.152 469.684 536.666 470.198C537.875 471.407 539.943 470.551 539.943 468.841V465.837C539.943 465.457 539.792 465.093 539.523 464.824C538.771 464.072 537.489 464.374 537.152 465.384ZM533.823 476.535L533.284 476.805C532.415 477.239 531.36 476.887 530.926 476.019C530.341 474.85 531.191 473.475 532.498 473.475H533.1C533.529 473.475 533.94 473.645 534.242 473.948C535.022 474.728 534.809 476.042 533.823 476.535ZM537.885 485.535V488.672C537.885 490.679 539.107 492.484 540.97 493.229L545.554 495.063C547.035 495.655 548.723 495.014 549.436 493.587C549.928 492.603 549.855 491.43 549.245 490.514L547.645 488.116C546.654 486.629 545.196 485.515 543.501 484.95L540.215 483.855C540.035 483.795 539.846 483.764 539.655 483.764C538.678 483.764 537.885 484.557 537.885 485.535ZM558.21 481.706H554.996C553.501 481.706 552.29 480.494 552.29 479C552.29 477.239 553.944 475.947 555.653 476.374L558.77 477.153C559.799 477.41 560.521 478.335 560.521 479.395C560.521 480.671 559.486 481.706 558.21 481.706ZM558.209 467.81L557.071 470.085C556.765 470.697 557.21 471.417 557.894 471.417C558.243 471.417 558.561 471.22 558.717 470.908L559.855 468.633C560.161 468.022 559.716 467.302 559.032 467.302C558.683 467.302 558.365 467.499 558.209 467.81ZM415.209 457.805L415.407 458.002C416.843 459.438 419.288 458.861 419.93 456.934C420.32 455.766 419.879 454.481 418.854 453.797L418.621 453.642C416.824 452.444 414.417 453.732 414.417 455.892C414.417 456.61 414.702 457.298 415.209 457.805ZM405.117 603.947L405.946 608.093C406.104 608.881 406.436 609.624 406.918 610.266L411.807 616.785C412.155 617.248 412.7 617.521 413.279 617.521C413.977 617.521 414.614 617.127 414.926 616.504L415.478 615.399C416.094 614.166 416.003 612.698 415.239 611.551L413.122 608.376C412.616 607.617 412.213 606.794 411.924 605.928L410.764 602.447C410.473 601.573 409.787 600.887 408.913 600.596C406.781 599.885 404.676 601.743 405.117 603.947ZM400.012 610.319V604.145C400.012 603.577 400.473 603.117 401.041 603.117C401.609 603.117 402.07 603.577 402.07 604.145V610.319C402.07 610.887 401.609 611.348 401.041 611.348C400.473 611.348 400.012 610.887 400.012 610.319ZM392.737 615.317L393.272 616.387C393.619 617.082 394.33 617.521 395.107 617.521C396.508 617.521 397.497 616.149 397.054 614.82L396.676 613.685C396.265 612.452 394.856 611.868 393.693 612.45C392.637 612.978 392.209 614.261 392.737 615.317Z" fill="#EFDC8E"/>
<path d="M323.124 503.131C323.335 502.284 322.976 501.403 322.25 500.918L320.671 499.866C319.94 499.378 318.959 499.903 318.959 500.783V507.644C318.959 508.401 319.572 509.014 320.329 509.014C320.894 509.014 321.403 508.667 321.596 508.137C322.192 506.505 322.699 504.833 323.124 503.131Z" fill="#BB280A"/>
<path fill-rule="evenodd" clip-rule="evenodd" d="M118.548 1.29328C91.7961 -1.45046 33.3546 4.58576 13.5997 50.6805C8.11275 63.4833 4.61549 78.1699 2.5435 93.3382C2.3945 94.4289 3.24582 95.3957 4.34666 95.3957C5.35554 95.3957 6.17341 96.2135 6.17341 97.2224V103.627C6.17341 104.763 5.2521 105.685 4.1156 105.685C2.97911 105.685 2.0578 104.763 2.0578 103.627V97.475C2.0578 97.4631 2.04817 97.4535 2.03629 97.4535C2.02539 97.4535 2.01621 97.4616 2.01492 97.4724C1.40703 102.569 0.95271 107.705 0.63089 112.828C0.571982 113.766 1.70225 114.271 2.36667 113.607C3.01207 112.962 4.1156 113.419 4.1156 114.331V120.15C4.1156 121.253 3.22139 122.147 2.11832 122.147C1.04098 122.147 0.157142 123.002 0.127756 124.079C-0.216168 136.683 0.161215 148.971 0.937096 160.141C1.30985 165.507 2.91535 170.706 5.49126 175.428L11.0593 185.636C11.9041 187.185 12.3468 188.921 12.3468 190.686V195.032C12.3468 196.975 13.5902 198.7 15.4335 199.315C17.2769 199.929 18.5202 201.654 18.5202 203.597V203.973C18.5202 205.532 17.6395 206.957 16.2452 207.654C15.0865 208.234 13.7227 208.234 12.5641 207.654C11.1698 206.957 10.289 205.532 10.289 203.973V195.555C10.289 194.69 9.85665 193.882 9.13683 193.402C7.26266 192.153 4.8113 193.727 5.21379 195.943C5.26538 196.227 5.31695 196.507 5.36846 196.784C7.20428 215.142 11.3125 241.899 18.1862 272.401C18.2306 272.598 18.5202 272.569 18.5202 272.367V267.507C18.5202 266.781 19.1085 266.193 19.8341 266.193C20.2956 266.193 20.7233 266.435 20.9608 266.831L25.7731 274.852C26.3481 275.81 26.1971 277.037 25.4069 277.827C24.9502 278.283 24.3308 278.54 23.6849 278.54H23.433C21.4721 278.54 20.0206 280.358 20.4765 282.265C34.5366 341.091 58.5849 411.435 95.9118 462.241C96.552 463.112 97.6562 463.507 98.7052 463.245L101.035 462.663C103.335 462.088 104.948 460.021 104.948 457.651V456.966C104.948 456.034 105.318 455.141 105.977 454.482C106.636 453.823 107.006 452.93 107.006 451.998V449.961C107.006 449.554 107.126 449.157 107.351 448.819L108.493 447.107C109.28 445.926 111.121 446.483 111.121 447.903C111.121 448.695 111.764 449.338 112.556 449.338H113.707C115.472 449.338 116.718 451.067 116.16 452.741L115.645 454.287C115.38 455.08 114.859 455.763 114.163 456.227L111.813 457.794C110.505 458.666 110.505 460.587 111.813 461.459L112.434 461.873C113.632 462.672 115.237 461.813 115.237 460.373C115.237 459.895 115.427 459.437 115.765 459.098L121.41 453.453C122.436 452.428 124.144 453.484 123.685 454.859C123.549 455.269 123.226 455.588 122.822 455.743C120.735 456.545 117.868 458.142 119.352 459.627C122.192 462.466 126.504 459.239 127.995 455.511L129.642 451.395C131.699 445.908 136.226 435.756 137.873 439.049C139.277 441.858 139.723 442.75 139.865 443.687C139.931 444.123 139.931 444.569 139.931 445.222C139.931 445.845 140.119 446.845 140.325 447.937C140.799 450.452 141.365 453.453 139.931 453.453C139.066 453.453 137.784 454.589 136.563 455.966L136.552 455.979C134.517 458.275 131.591 461.576 133.757 463.742C135.192 465.177 137.627 464.611 139.667 464.137C140.554 463.931 141.365 463.742 141.988 463.742C142.354 463.742 142.659 463.607 142.912 463.381L142.977 463.323C144.341 462.104 146.013 460.61 147.638 461.422C147.982 461.595 148.362 461.684 148.748 461.684H148.948C150.787 461.684 152.277 463.175 152.277 465.014V465.706C152.277 467.05 151.605 468.306 150.487 469.052L148.273 470.527C146.859 471.47 145.197 471.973 143.497 471.973H141.635C140.544 471.973 139.497 472.407 138.725 473.179L137.27 474.634C136.466 475.437 135.163 475.437 134.36 474.634C133.974 474.248 133.451 474.031 132.905 474.031H129.642C129.003 474.031 128.344 474.237 127.737 474.53C126.275 475.234 124.547 475.6 123.096 474.874C122.035 474.343 120.786 474.343 119.725 474.874L117.807 475.833C117.466 476.003 117.113 476.149 116.751 476.27L111.572 477.996C111.276 478.095 111.006 478.262 110.785 478.483C110.053 479.215 110.013 480.403 110.673 481.2C162.835 544.174 203.821 550.726 235.842 550.726C236.243 550.726 236.648 550.727 237.057 550.728L237.969 550.73C242.964 550.745 248.537 550.761 254.715 550.114C255.613 550.021 255.987 548.932 255.349 548.293C255.23 548.174 255.14 548.029 255.086 547.869L253.473 543.029C253.232 542.307 253.11 541.551 253.11 540.789V537.823C253.11 535.55 251.267 533.707 248.994 533.707C246.721 533.707 244.878 531.865 244.878 529.592V527.534C244.878 526.272 244.072 526.542 243.387 527.046C242.986 527.34 242.682 527.743 242.406 528.157L239.698 532.219C239.131 533.069 238.019 533.364 237.105 532.907L236.594 532.652C235.608 532.159 235.394 530.845 236.174 530.065C236.477 529.762 236.647 529.351 236.647 528.923V525.962C236.647 523.142 238.24 520.564 240.763 519.303C242.597 518.386 242.756 515.83 241.05 514.693L239.341 513.553C238.921 513.273 238.45 513.078 237.956 512.98L229.736 511.336C228.891 511.167 228.147 510.669 227.669 509.951L226.265 507.845C225.425 506.585 226.328 504.898 227.842 504.898C228.216 504.898 228.582 504.787 228.894 504.58L231.786 502.652C233.275 501.659 235.296 502.196 236.096 503.796C236.449 504.502 237.068 505.038 237.816 505.288L240.068 506.038C241.855 506.634 243.787 506.634 245.573 506.038L248.112 505.192C248.685 505.001 249.303 505.001 249.876 505.192C252.056 505.919 254.13 503.845 253.404 501.664L253.18 500.994C253.133 500.853 253.076 500.716 253.01 500.583L251.578 497.72C249.911 494.385 249.491 490.563 250.396 486.945L250.612 486.08C250.903 484.916 251.392 483.81 252.058 482.811L254.108 479.736C254.77 478.743 255.884 478.147 257.077 478.147C258.429 478.147 259.665 478.91 260.269 480.12L261.129 481.838C261.27 482.121 261.391 482.413 261.491 482.713L262.73 486.431C263.17 487.749 263.91 488.947 264.893 489.93C266.571 491.608 268.848 492.551 271.222 492.551H272.835C274.442 492.551 275.745 493.854 275.745 495.462C275.745 496.233 275.432 496.968 274.917 497.543C273.647 498.96 272.346 500.783 273.688 500.783C276.121 500.783 276.42 503.495 276.741 506.41C277.025 508.992 277.327 511.732 279.143 512.891C279.383 513.044 279.623 513.129 279.861 513.129C280.191 513.129 280.472 513.295 280.71 513.577C283.1 516.41 280.066 520.538 276.981 522.595L276.71 522.776C276.07 523.202 275.376 523.542 274.646 523.785L272.454 524.516C270.688 525.104 268.741 524.645 267.424 523.328C266.203 522.108 264.432 521.617 262.757 522.035L260.823 522.519C258.582 523.079 256.783 524.745 256.052 526.937L255.974 527.173C255.457 528.722 255.578 530.412 256.308 531.872L256.654 532.565C257.025 533.306 257.626 533.908 258.368 534.279C260.074 535.132 260.893 537.109 260.29 538.919L259.556 541.121C259.393 541.609 258.936 541.939 258.421 541.939C257.761 541.939 257.225 542.474 257.225 543.134V545.62C257.225 547.844 259.183 549.567 261.372 549.174C267.778 548.023 274.763 546.031 282.352 542.593C283.225 542.198 283.584 541.154 283.156 540.297C282.588 539.161 283.414 537.823 284.685 537.823H284.999C285.617 537.823 286.166 538.219 286.362 538.805C286.641 539.641 287.599 540.033 288.376 539.617C295.225 535.953 302.532 531.084 310.314 524.617C311.704 523.461 310.815 521.361 309.007 521.361H307.449C306.904 521.361 306.37 521.199 305.916 520.896L302.23 518.439C301.111 517.693 300.439 516.437 300.439 515.093C300.439 512.872 302.239 511.072 304.46 511.072H304.555C305.85 511.072 307.07 510.462 307.847 509.425L311.942 503.965C312.49 503.235 312.786 502.347 312.786 501.434V498.124C312.786 496.509 311.086 495.459 309.642 496.181L309.105 496.45C308.831 496.586 308.509 496.586 308.236 496.45L307.474 496.069C306.746 495.705 306.612 493.364 306.612 492.551C306.612 491.542 307.644 489.966 308.758 488.581C309.944 487.106 310.728 485.314 310.728 483.421C310.728 482.654 310.604 481.891 310.362 481.163L309 477.077C308.781 476.421 308.476 475.797 308.092 475.222L307.25 473.958C305.683 471.608 305.993 468.478 307.99 466.48C308.441 466.03 308.815 465.509 309.1 464.94L310.728 461.684C311.74 459.66 314.439 459.222 316.04 460.822L316.104 460.887C316.622 461.405 316.957 462.076 317.061 462.8L318.704 474.299C318.874 475.491 318.959 476.693 318.959 477.897V487.146C318.959 487.972 319.287 488.764 319.871 489.348L320.048 489.525C321.851 491.327 324.868 490.193 324.839 487.644C324.358 445.121 336.521 385.248 370.628 336.474C370.721 336.341 370.627 336.158 370.465 336.158C370.445 336.158 370.426 336.161 370.408 336.167C370.389 336.172 370.371 336.181 370.354 336.192L366.08 339.041C364.902 339.826 363.448 340.078 362.075 339.735L358.984 338.962C357.453 338.579 356.669 336.877 357.375 335.465C357.793 334.629 358.648 334.101 359.583 334.101H360.115C361.376 334.101 362.529 333.388 363.093 332.26L363.322 331.803C363.895 330.656 364.965 329.837 366.224 329.594C369.813 328.902 374.874 327.987 376.436 327.93C376.509 327.927 376.561 327.996 376.543 328.067C376.513 328.185 376.667 328.259 376.741 328.163C380.811 322.901 385.158 317.796 389.795 312.887C391.051 311.557 391.041 309.466 389.748 308.172C388.257 306.682 388.503 304.201 390.257 303.031L391.813 301.994C392.613 301.461 393.553 301.176 394.516 301.176H396.944C400.105 301.176 403.144 300.001 405.559 297.961C426.902 279.929 453.226 265.793 485.378 258.143C490.02 257.038 493.863 253.53 494.813 248.854C498.201 232.19 500.178 206.238 488.952 151.513C486.481 139.467 483.268 128.627 479.474 118.874C478.815 117.179 476.638 116.746 475.352 118.031L472.907 120.477C471.808 121.575 470.981 122.914 470.49 124.388L469.475 127.431C469.285 128 468.877 128.471 468.34 128.74C466.834 129.493 465.063 128.398 465.063 126.715V123.26C465.063 121.367 466.275 119.685 468.071 119.087L469.143 118.729C470.494 118.279 471.639 117.36 472.372 116.139L473.153 114.838C474.855 112.001 475.074 108.496 473.608 105.53C451.239 60.2777 415.324 42.6768 388.12 36.2758C360.134 29.6909 332.559 48.6227 322.27 58.9117C311.295 68.5147 290.168 99.6561 293.461 147.397C295.519 177.235 297.576 197.813 299.12 213.247C300.663 228.68 301.692 238.969 301.692 248.229C301.692 266.75 297.576 318.195 279.056 326.426C264.24 333.011 250.933 305.848 246.131 291.443C242.702 275.667 235.842 233.825 235.842 192.669C235.842 151.513 227.611 111.043 223.496 95.9521C213.955 60.9695 169.581 1.29328 118.548 1.29328ZM66.8786 58.3553C66.3103 58.3553 65.8497 57.8946 65.8497 57.3264V51.153C65.8497 50.5847 66.3103 50.1241 66.8786 50.1241C67.4468 50.1241 67.9075 50.5847 67.9075 51.153C67.9075 51.7212 68.3681 52.1819 68.9364 52.1819C69.5046 52.1819 69.9653 52.6425 69.9653 53.2108V61.442C69.9653 62.0102 69.5046 62.4709 68.9364 62.4709C68.3681 62.4709 67.9075 62.0102 67.9075 61.442V59.3842C67.9075 58.8159 67.4468 58.3553 66.8786 58.3553ZM81.2832 52.1819C81.8514 52.1819 82.3121 51.7212 82.3121 51.153C82.3121 50.5847 82.7727 50.1241 83.341 50.1241C83.9092 50.1241 84.3699 50.5847 84.3699 51.153V52.1819C84.3699 53.3183 83.4486 54.2397 82.3121 54.2397H81.2832C80.7149 54.2397 80.2543 53.779 80.2543 53.2108C80.2543 52.6425 80.7149 52.1819 81.2832 52.1819ZM181.087 62.4709C179.95 62.4709 179.029 63.3922 179.029 64.5287V66.6561C174.923 60.7807 170.541 55.8333 166.159 52.1819C165.616 51.7295 165.04 51.2425 164.432 50.7284C157.523 44.8904 146.473 35.5529 133.234 33.6616C124.317 33.6616 108.129 37.3657 114.714 52.1819C118.274 60.1923 126.454 64.7381 135.591 69.8153C147.578 76.4766 161.211 84.0529 168.217 101.569C178.095 126.263 187.423 131.064 190.853 130.378C194.969 129.692 201.965 123.793 197.026 105.685C194.122 95.0351 189.851 84.841 184.857 75.9595C185.075 75.6328 185.202 75.2401 185.202 74.8177V71.731C185.202 71.1627 184.742 70.7021 184.173 70.7021C183.605 70.7021 183.144 70.2414 183.144 69.6732V64.5287C183.144 63.3922 182.223 62.4709 181.087 62.4709ZM181.087 69.7143V74.8177C181.087 75.9542 182.008 76.8755 183.144 76.8755C183.858 76.8755 184.488 76.5118 184.857 75.9595C183.64 73.7958 182.38 71.7099 181.087 69.7143ZM180.43 68.7138C180.315 68.6689 180.189 68.6443 180.058 68.6443C179.489 68.6443 179.029 68.1836 179.029 67.6154V66.6561C179.5 67.33 179.967 68.016 180.43 68.7138ZM180.43 68.7138C180.65 69.0447 180.869 69.3782 181.087 69.7143V69.6732C181.087 69.2363 180.814 68.8631 180.43 68.7138ZM145.075 89.2223C144.507 89.2223 144.046 88.7616 144.046 88.1934V85.5329C144.046 84.6162 145.154 84.1571 145.803 84.8053C145.996 84.9983 146.104 85.26 146.104 85.5329V88.1934C146.104 88.7616 145.643 89.2223 145.075 89.2223ZM133.757 88.1934C133.757 87.6251 134.218 87.1645 134.786 87.1645C135.354 87.1645 135.815 87.6251 135.815 88.1934V94.3668C135.815 94.935 136.276 95.3957 136.844 95.3957C137.412 95.3957 137.873 95.8563 137.873 96.4246V98.4824C137.873 99.0506 138.333 99.5113 138.902 99.5113C139.47 99.5113 139.931 99.9719 139.931 100.54V103.627C139.931 104.763 139.009 105.685 137.873 105.685H136.844C136.276 105.685 135.815 106.145 135.815 106.714C135.815 107.282 135.354 107.742 134.786 107.742C134.218 107.742 133.757 107.282 133.757 106.714V104.656C133.757 104.088 134.218 103.627 134.786 103.627C135.354 103.627 135.815 103.166 135.815 102.598V98.4824C135.815 97.9141 135.354 97.4535 134.786 97.4535C134.218 97.4535 133.757 96.9928 133.757 96.4246V88.1934ZM111.121 107.742C109.985 107.742 109.063 106.821 109.063 105.685V102.598C109.063 102.03 109.524 101.569 110.092 101.569C110.661 101.569 111.121 102.03 111.121 102.598C111.121 103.166 111.582 103.627 112.15 103.627C112.718 103.627 113.179 104.088 113.179 104.656C113.179 105.224 113.64 105.685 114.208 105.685C114.776 105.685 115.237 106.145 115.237 106.714C115.237 107.282 115.698 107.742 116.266 107.742C116.834 107.742 117.295 108.203 117.295 108.771V112.887C117.295 113.455 117.755 113.916 118.324 113.916C118.892 113.916 119.352 114.377 119.352 114.945C119.352 115.513 118.892 115.974 118.324 115.974H117.295C116.158 115.974 115.237 115.052 115.237 113.916V110.829C115.237 110.261 114.776 109.8 114.208 109.8C113.64 109.8 113.179 109.34 113.179 108.771C113.179 108.203 112.718 107.742 112.15 107.742H111.121ZM126.555 124.205C125.987 124.205 125.526 124.666 125.526 125.234C125.526 125.802 125.987 126.263 126.555 126.263H130.67C131.239 126.263 131.699 125.802 131.699 125.234C131.699 124.666 131.239 124.205 130.67 124.205H126.555ZM135.021 123.621C134.205 122.67 133.757 121.458 133.757 120.206V119.487C133.757 118.555 134.127 117.661 134.786 117.003C135.445 116.344 136.338 115.974 137.27 115.974H138.386C140.614 115.974 142.67 117.167 143.776 119.101L149.577 129.254C149.998 129.991 150.22 130.825 150.22 131.674V133.733C150.22 135.29 148.957 136.552 147.401 136.552C146.578 136.552 145.796 136.192 145.26 135.567L135.021 123.621ZM94.6061 129.675C95.8665 130.095 96.7167 131.274 96.7167 132.603V135.097C96.7167 135.9 96.0652 136.552 95.2616 136.552C94.8757 136.552 94.5056 136.398 94.2327 136.126L91.2124 133.105C90.784 132.677 90.5433 132.096 90.5433 131.49C90.5433 129.931 92.0708 128.83 93.55 129.323L94.6061 129.675ZM83.341 138.61C83.9092 138.61 84.3699 138.149 84.3699 137.581C84.3699 137.012 83.9092 136.552 83.341 136.552H81.2832C80.7149 136.552 80.2543 137.012 80.2543 137.581C80.2543 138.149 80.7149 138.61 81.2832 138.61H83.341ZM74.0809 134.494C75.2174 134.494 76.1387 135.415 76.1387 136.552V140.667C76.1387 141.804 75.2174 142.725 74.0809 142.725C72.9444 142.725 72.0231 141.804 72.0231 140.667V136.552C72.0231 135.415 72.9444 134.494 74.0809 134.494ZM66.8786 165.361C66.3103 165.361 65.8497 164.9 65.8497 164.332V160.216C65.8497 159.648 66.3103 159.188 66.8786 159.188C67.4468 159.188 67.9075 159.648 67.9075 160.216V164.332C67.9075 164.9 67.4468 165.361 66.8786 165.361ZM78.1965 170.505C78.1965 169.937 78.6571 169.477 79.2254 169.477C79.7936 169.477 80.2543 169.937 80.2543 170.505C80.2543 171.074 79.7936 171.534 79.2254 171.534C78.6571 171.534 78.1965 171.074 78.1965 170.505ZM96.7167 178.737C96.7167 178.168 96.256 177.708 95.6878 177.708C95.1195 177.708 94.6589 178.168 94.6589 178.737V182.852C94.6589 183.42 95.1195 183.881 95.6878 183.881C96.256 183.881 96.7167 183.42 96.7167 182.852V178.737ZM74.507 206.943C74.2342 206.67 74.0809 206.3 74.0809 205.914C74.0809 205.111 74.7323 204.459 75.5359 204.459H76.991C77.7629 204.459 78.5031 204.766 79.0488 205.312L79.8281 206.091C80.101 206.364 80.2543 206.734 80.2543 207.12C80.2543 207.923 79.6028 208.575 78.7992 208.575H77.3441C76.5723 208.575 75.8321 208.268 75.2863 207.722L74.507 206.943ZM106.58 209.001C106.852 208.728 107.222 208.575 107.608 208.575C108.412 208.575 109.063 209.226 109.063 210.03V214.748C109.063 215.885 108.142 216.806 107.006 216.806C105.869 216.806 104.948 215.885 104.948 214.748V212.088C104.948 211.156 105.318 210.262 105.977 209.604L106.58 209.001ZM90.5433 220.922C90.5433 219.785 91.4646 218.864 92.6011 218.864H94.3587C95.8038 218.864 97.1249 219.68 97.7712 220.973L98.2658 221.962C98.6003 222.631 98.7745 223.369 98.7745 224.117C98.7745 225.942 97.7433 227.611 96.1108 228.427L95.7964 228.584C95.0483 228.958 94.2235 229.153 93.3871 229.153H88.6121C86.1189 229.153 83.9457 230.85 83.341 233.268L82.8112 235.388C82.5178 236.561 81.4637 237.384 80.2543 237.384C79.0449 237.384 77.9907 236.561 77.6974 235.388L76.7883 231.751C76.3691 230.074 76.5636 228.303 77.3365 226.757C77.9001 225.63 78.7479 224.67 79.7964 223.971L83.9719 221.187C84.2314 221.014 84.5363 220.922 84.8481 220.922H85.3988C85.967 220.922 86.4277 221.382 86.4277 221.95C86.4277 222.519 86.8883 222.979 87.4566 222.979H88.4855C89.622 222.979 90.5433 222.058 90.5433 220.922ZM57.6184 229.579C57.6184 229.306 57.51 229.044 57.3171 228.851C56.6689 228.203 55.5606 228.662 55.5606 229.579V230.784C55.5606 231.057 55.669 231.319 55.862 231.512C56.5102 232.16 57.6184 231.701 57.6184 230.784V229.579ZM24.6936 234.54C24.6936 233.838 25.263 233.268 25.9654 233.268C26.4471 233.268 26.8875 233.541 27.1029 233.971L28.6921 237.15C28.7691 237.304 28.8092 237.474 28.8092 237.646C28.8092 238.471 27.941 239.008 27.203 238.639L25.8311 237.953C25.134 237.604 24.6936 236.892 24.6936 236.112V234.54ZM24.6936 186.968C24.6936 186.4 24.233 185.939 23.6647 185.939C23.0965 185.939 22.6358 186.4 22.6358 186.968V191.083C22.6358 191.652 23.0965 192.112 23.6647 192.112C24.233 192.112 24.6936 191.652 24.6936 191.083V186.968ZM19.5491 115.974C18.9809 115.974 18.5202 116.434 18.5202 117.003C18.5202 117.571 18.9809 118.031 19.5491 118.031C20.1174 118.031 20.578 117.571 20.578 117.003C20.578 116.434 20.1174 115.974 19.5491 115.974ZM12.3468 84.0778C12.3468 85.7825 10.9648 87.1645 9.26011 87.1645H7.20231C6.63406 87.1645 6.17341 86.7038 6.17341 86.1356C6.17341 85.5673 6.63406 85.1067 7.20231 85.1067C7.77055 85.1067 8.23121 84.646 8.23121 84.0778V78.9333C8.23121 77.7968 9.15252 76.8755 10.289 76.8755C11.4255 76.8755 12.3468 77.7968 12.3468 78.9333V84.0778ZM221.381 109.8C220.792 109.8 220.377 110.377 220.563 110.935C220.872 111.862 222.243 111.64 222.243 110.662C222.243 110.186 221.857 109.8 221.381 109.8ZM214.011 153.257C214.011 152.171 215.475 151.826 215.961 152.797C216.032 152.94 216.069 153.097 216.069 153.257V156.101C216.069 156.669 215.609 157.13 215.04 157.13C214.472 157.13 214.011 156.669 214.011 156.101V153.257ZM174.21 160.594C174.641 159.732 175.522 159.188 176.485 159.188H176.637C177.958 159.188 179.029 160.258 179.029 161.579C179.029 162.609 178.37 163.523 177.393 163.848L174.524 164.805C173.703 165.078 172.855 164.468 172.855 163.602C172.855 163.406 172.901 163.212 172.989 163.035L174.21 160.594ZM232.344 190.242C231.485 191.101 230.022 190.756 229.637 189.603L229.366 188.789C228.899 187.387 229.942 185.939 231.42 185.939H232.532C234.087 185.939 233.315 188.389 232.647 189.816C232.572 189.975 232.468 190.118 232.344 190.242ZM218.127 194.596C218.127 193.68 219.235 193.221 219.883 193.869C220.076 194.062 220.185 194.323 220.185 194.596V199.315C220.185 199.883 219.724 200.344 219.156 200.344C218.588 200.344 218.127 199.883 218.127 199.315V194.596ZM179.029 213.719C179.029 213.151 179.489 212.69 180.058 212.69C180.626 212.69 181.087 213.151 181.087 213.719V214.322C181.087 214.595 180.978 214.857 180.785 215.05C180.137 215.698 179.029 215.239 179.029 214.322V213.719ZM230.474 211.973C230.474 211.233 229.874 210.633 229.133 210.633C228.685 210.633 228.267 210.857 228.018 211.229L224.831 216.01C224.485 216.529 224.3 217.139 224.3 217.762V219.893C224.3 220.461 224.761 220.922 225.329 220.922C225.898 220.922 226.358 221.382 226.358 221.95C226.358 222.519 225.898 222.979 225.329 222.979C224.761 222.979 224.3 223.44 224.3 224.008V233.72C224.3 235.404 226.072 236.498 227.577 235.746C228.114 235.477 228.523 235.006 228.713 234.436L229.895 230.891C230.278 229.74 230.474 228.534 230.474 227.321V211.973ZM220.185 236.355C220.185 235.787 220.645 235.326 221.214 235.326C221.782 235.326 222.243 235.787 222.243 236.355C222.243 236.923 221.782 237.384 221.214 237.384C220.645 237.384 220.185 236.923 220.185 236.355ZM189.318 238.754C189.318 237.111 187.187 236.465 186.275 237.833L185.457 239.06C185.291 239.309 185.202 239.601 185.202 239.9C185.202 241.25 186.834 241.926 187.788 240.972L188.831 239.928C189.143 239.617 189.318 239.194 189.318 238.754ZM173.818 248.768C174.455 248.131 174.554 247.134 174.054 246.384L170.446 240.972C169 238.804 165.668 239.381 165.036 241.909C164.781 242.932 165.08 244.014 165.826 244.759L168.142 247.075C168.538 247.471 168.995 247.801 169.496 248.051L171.638 249.122C172.365 249.486 173.243 249.343 173.818 248.768ZM147.133 260.02C147.701 260.02 148.162 260.48 148.162 261.049C148.162 261.617 147.701 262.078 147.133 262.078H146.53C145.613 262.078 145.154 260.969 145.803 260.321C145.996 260.128 146.257 260.02 146.53 260.02H147.133ZM172.855 275.859C172.855 277.005 171.578 277.689 170.625 277.053C169.444 276.266 170.001 274.424 171.421 274.424C172.213 274.424 172.855 275.067 172.855 275.859ZM214.873 272.367C214.359 272.367 213.902 272.696 213.739 273.184L213.63 273.51C213.213 274.763 214.769 275.725 215.703 274.791C215.937 274.556 216.069 274.238 216.069 273.906V273.562C216.069 272.902 215.534 272.367 214.873 272.367ZM223.445 283.511C224.878 282.078 227.294 282.47 228.201 284.282C228.343 284.568 228.531 284.828 228.757 285.054L230.093 286.39C231.697 287.994 232.905 289.949 233.622 292.101L234.528 294.819C234.569 294.941 234.618 295.06 234.676 295.176L235.374 296.571C235.959 297.741 235.108 299.118 233.8 299.118C233.042 299.118 232.37 298.633 232.131 297.915L231.225 295.198C230.744 293.755 229.71 292.563 228.35 291.883L227.695 291.555C226.816 291.116 225.847 290.887 224.864 290.887H222.836C222.456 290.887 222.092 291.038 221.823 291.306C221.07 292.059 219.789 291.756 219.452 290.747L218.845 288.926C218.433 287.689 218.993 286.338 220.158 285.756L221.697 284.986C222.059 284.805 222.388 284.568 222.674 284.282L223.445 283.511ZM215.04 292.945C214.472 292.945 214.011 293.405 214.011 293.974V298.089C214.011 298.657 214.472 299.118 215.04 299.118C215.609 299.118 216.069 298.657 216.069 298.089V293.974C216.069 293.405 215.609 292.945 215.04 292.945ZM207.838 316.433C207.838 314.6 210.055 313.681 211.351 314.978C211.737 315.364 211.954 315.887 211.954 316.433V318.424C211.954 319.954 210.344 320.949 208.976 320.265C208.278 319.916 207.838 319.204 207.838 318.424V316.433ZM166.263 319.696C165.51 319.696 165.02 320.488 165.357 321.161L165.926 322.299C166.298 323.043 167.29 323.204 167.878 322.616C168.354 322.14 168.354 321.368 167.878 320.892L166.979 319.993C166.789 319.803 166.531 319.696 166.263 319.696ZM145.242 302.372C145.757 302.886 145.884 303.673 145.559 304.324L144.908 305.625C144.432 306.577 143.274 306.963 142.322 306.487C141.146 305.899 140.891 304.331 141.821 303.401L142.85 302.372C143.511 301.711 144.582 301.711 145.242 302.372ZM162.566 354.679C161.43 354.679 160.509 355.6 160.509 356.736C160.509 357.873 161.43 358.794 162.566 358.794C163.703 358.794 164.624 357.873 164.624 356.736C164.624 355.6 163.703 354.679 162.566 354.679ZM149.734 369.869C148.866 369.435 148.514 368.379 148.948 367.511L149.868 365.671C150.083 365.24 150.524 364.968 151.006 364.968C151.708 364.968 152.277 365.537 152.277 366.239V368.297C152.277 369.604 150.902 370.454 149.734 369.869ZM137.623 377.314C136.465 377.314 134.891 377.679 134.906 378.836C134.91 379.148 135.15 379.372 135.815 379.372H140.959C141.528 379.372 141.988 378.912 141.988 378.343C141.988 377.775 141.528 377.314 140.959 377.314H137.623ZM149.99 441.106C149.315 441.106 148.978 441.922 149.455 442.399L152.916 445.86C153.763 446.708 153.974 448.003 153.437 449.075L152.419 451.112C152.325 451.301 152.244 451.496 152.177 451.696C151.214 454.585 153.364 457.569 156.41 457.569H156.558C157.77 457.569 158.972 457.109 159.612 456.079C160.097 455.298 160.509 454.355 160.509 453.453C160.509 452.323 159.216 449.836 157.961 447.722C156.967 446.046 155.558 444.666 153.937 443.585L150.41 441.234C150.286 441.151 150.14 441.106 149.99 441.106ZM165.357 440.514C165.02 439.841 165.51 439.049 166.263 439.049C166.531 439.049 166.789 439.155 166.979 439.345L170.158 442.525C170.568 442.934 170.798 443.489 170.798 444.068V446.611C170.798 447.617 169.581 448.121 168.869 447.409C168.784 447.324 168.712 447.224 168.658 447.116L165.357 440.514ZM179.029 438.02C179.029 437.451 178.568 436.991 178 436.991C177.432 436.991 176.971 437.451 176.971 438.02V440.077C176.971 440.646 177.432 441.106 178 441.106C178.568 441.106 179.029 440.646 179.029 440.077V438.02ZM164.437 476.277C163.577 477.136 163.923 478.599 165.076 478.983L165.89 479.255C167.292 479.722 168.74 478.678 168.74 477.201V471.973C168.74 470.837 169.661 469.916 170.798 469.916C171.934 469.916 172.855 470.837 172.855 471.973C172.855 473.11 173.777 474.031 174.913 474.031C176.05 474.031 176.971 473.11 176.971 471.973V470.944C176.971 470.376 177.432 469.916 178 469.916C178.568 469.916 179.029 469.455 179.029 468.887V466.328C179.029 464.784 178.041 463.413 176.576 462.924L173.99 462.063C173.238 461.812 172.452 461.684 171.659 461.684H171.419C169.672 461.684 167.964 462.201 166.51 463.171L164.357 464.606C163.238 465.352 162.566 466.608 162.566 467.952V470.401C162.566 471.27 163.27 471.973 164.138 471.973C165.307 471.973 166.067 473.203 165.544 474.248L164.743 475.852C164.664 476.009 164.561 476.152 164.437 476.277ZM179.832 475.637C179.463 474.899 180 474.031 180.825 474.031C180.997 474.031 181.167 474.071 181.321 474.148L183.093 475.034C184.386 475.681 185.202 477.002 185.202 478.447V480.991C185.202 481.693 184.633 482.262 183.93 482.262C183.449 482.262 183.008 481.99 182.793 481.559L179.832 475.637ZM181.572 449.338C180.168 449.338 179.029 450.476 179.029 451.881V451.957C179.029 453.705 180.742 454.94 182.4 454.387C183.879 453.894 184.578 452.206 183.881 450.811L183.847 450.744C183.417 449.882 182.536 449.338 181.572 449.338ZM189.609 445.201C189.455 444.126 190.289 443.164 191.376 443.164C192.462 443.164 193.296 444.126 193.142 445.201C192.85 447.244 189.901 447.244 189.609 445.201ZM192.404 436.991C191.836 436.991 191.376 437.451 191.376 438.02C191.376 438.588 191.836 439.049 192.404 439.049H194.462C195.031 439.049 195.491 438.588 195.491 438.02C195.491 437.451 195.031 436.991 194.462 436.991H192.404ZM197.549 440.216C197.549 439.469 197.846 438.752 198.375 438.223C199.13 437.468 200.247 437.204 201.26 437.542L204.681 438.682C205.409 438.925 206.171 439.049 206.939 439.049H207.805C209.144 439.049 210.428 439.58 211.374 440.527L211.441 440.593C211.78 440.933 212.173 441.216 212.602 441.431C214.592 442.425 215.547 444.731 214.843 446.841L214.284 448.52C214.103 449.061 214.011 449.629 214.011 450.199V454.409C214.011 455.018 213.518 455.511 212.909 455.511C212.361 455.511 211.896 455.914 211.818 456.457L210.079 468.631C209.96 469.465 209.574 470.238 208.978 470.833C208.248 471.563 207.258 471.973 206.225 471.973H202.936C202.1 471.973 201.275 472.168 200.527 472.542L200.213 472.699C198.58 473.516 197.549 475.184 197.549 477.009C197.549 477.757 197.723 478.495 198.058 479.164L199.465 481.979C199.559 482.168 199.64 482.363 199.707 482.563L200.908 486.167C201.28 487.283 200.449 488.436 199.273 488.436C198.321 488.436 197.549 487.664 197.549 486.712V485.755C197.549 484.859 197.101 484.022 196.355 483.524L191.961 480.595C191.571 480.335 191.209 480.038 190.878 479.707C188.718 477.547 188.182 474.245 189.548 471.512L190.074 470.461C190.919 468.771 192.289 467.401 193.979 466.556L195.491 465.8L199.829 462.908C201.05 462.094 202.187 461.162 203.224 460.125L205.295 458.054C205.616 457.733 205.884 457.362 206.087 456.955C207.075 454.979 206.375 452.575 204.481 451.439L201.453 449.622C199.031 448.169 197.549 445.551 197.549 442.727V440.216ZM220.185 418.471C218.214 418.471 216.866 420.461 217.598 422.292L217.892 423.028C219.251 426.425 224.3 425.452 224.3 421.794C224.3 419.958 222.813 418.471 220.977 418.471H220.185ZM232.866 428.76C231.545 428.76 230.474 427.689 230.474 426.368V425.172C230.474 423.744 231.631 422.586 233.06 422.586C234.825 422.586 236.071 424.315 235.513 425.99L235.135 427.124C234.809 428.101 233.895 428.76 232.866 428.76ZM226.358 458.909C226.358 459.357 226.134 459.776 225.761 460.024L221.379 462.946C220.633 463.444 220.185 464.281 220.185 465.177C220.185 466.657 221.385 467.858 222.866 467.858H224.55C225.708 467.858 226.818 467.398 227.637 466.579L229.195 465.021C230.014 464.202 230.474 463.092 230.474 461.934V459.627C230.474 458.49 229.552 457.569 228.416 457.569H227.699C226.958 457.569 226.358 458.169 226.358 458.909ZM224.299 498.795C224.12 502.201 220.295 494.733 219.81 491.358C219.569 489.682 219.191 488.074 218.619 487.052C218.357 486.584 218.127 486.076 218.127 485.539C218.127 484.034 219.722 483.039 221.135 483.557C222.294 483.982 223.483 484.32 224.3 484.32C226.358 484.32 226.358 490.494 226.358 492.551C226.358 493.58 225.844 494.609 225.329 495.638C224.815 496.667 224.3 497.696 224.3 498.725L224.3 498.747L224.299 498.795ZM214.497 494.609C213.329 494.609 212.568 495.839 213.091 496.884L213.66 498.022C213.875 498.453 214.316 498.725 214.797 498.725C215.5 498.725 216.069 498.155 216.069 497.453V496.181C216.069 495.313 215.365 494.609 214.497 494.609ZM194.027 522.547C193.647 521.787 193.584 520.908 193.853 520.102C194.606 517.844 197.472 517.168 199.155 518.851L199.232 518.928C199.48 519.176 199.767 519.383 200.081 519.54L200.463 519.731C202.46 520.73 203.722 522.771 203.722 525.005V531.223C203.722 531.496 203.614 531.758 203.421 531.951C202.773 532.599 201.665 532.14 201.665 531.223V530.339C201.665 529.872 201.431 529.436 201.043 529.178L196.987 526.473C196.007 525.82 195.214 524.922 194.687 523.868L194.027 522.547ZM238.705 495.881C238.705 495.179 239.274 494.609 239.977 494.609C240.459 494.609 240.899 494.881 241.114 495.312L241.683 496.45C242.206 497.495 241.446 498.725 240.277 498.725C239.409 498.725 238.705 498.021 238.705 497.153V495.881ZM276.774 486.378C276.206 486.378 275.745 486.839 275.745 487.407C275.745 487.975 276.206 488.436 276.774 488.436H278.832C279.4 488.436 279.861 487.975 279.861 487.407C279.861 486.839 279.4 486.378 278.832 486.378H276.774ZM288.092 521.361V519.889C288.092 516.878 289.197 513.129 292.208 513.129C293.854 513.129 292.894 515.873 292.208 517.245L291.488 518.684C290.602 520.457 288.092 523.342 288.092 521.361ZM285.489 468.948C285.815 468.297 285.687 467.511 285.172 466.996C284.512 466.335 283.441 466.335 282.781 466.996L281.752 468.025C280.822 468.955 281.076 470.523 282.253 471.111C283.205 471.587 284.363 471.202 284.839 470.249L285.489 468.948ZM246.936 443.652C246.936 443.329 246.884 443.008 246.782 442.701L246.507 441.876C245.836 439.863 247.751 437.948 249.763 438.619C250.57 438.888 251.191 439.537 251.425 440.354L254.739 451.953C255.023 452.948 255.167 453.978 255.167 455.013C255.167 457.967 253.994 460.8 251.905 462.889L249.759 465.035C249.25 465.544 248.693 466.001 248.094 466.4L245.055 468.426C243.673 469.347 241.904 469.457 240.419 468.715C239.322 468.166 238.487 467.204 238.099 466.04L237.072 462.959C236.812 462.178 237.015 461.317 237.597 460.734C238.259 460.073 239.269 459.909 240.106 460.327L240.635 460.591C241.842 461.195 243.31 460.706 243.914 459.498C244.465 458.396 244.109 457.056 243.083 456.372L239.948 454.282C239.171 453.764 238.705 452.893 238.705 451.96V447.873C238.705 446.895 239.888 446.405 240.58 447.096C240.7 447.217 240.847 447.308 241.009 447.362L241.693 447.59C244.272 448.45 246.936 446.53 246.936 443.811V443.652ZM256.526 434.234C255.776 433.483 254.559 433.483 253.809 434.234C253.37 434.673 253.17 435.296 253.272 435.908L254.502 443.288C254.929 445.85 256.327 448.149 258.405 449.708L261.558 452.073C262.686 452.919 264.195 453.055 265.456 452.424C266.718 451.794 267.514 450.505 267.514 449.095V447.699C267.514 446.113 266.884 444.592 265.763 443.47L256.526 434.234ZM270.844 453.453C270.141 453.453 269.572 452.884 269.572 452.181C269.572 451.7 269.844 451.259 270.275 451.044L272.985 449.689C273.447 449.458 273.957 449.338 274.474 449.338H275.745C276.882 449.338 277.803 450.259 277.803 451.395C277.803 452.532 276.882 453.453 275.745 453.453H270.844ZM274.474 445.222C275.176 445.222 275.745 444.653 275.745 443.95V441.892C275.745 440.586 274.37 439.736 273.202 440.32C272.334 440.754 271.982 441.81 272.416 442.678L273.336 444.519C273.552 444.95 273.992 445.222 274.474 445.222ZM282.008 447.459C281.949 447.34 281.903 447.215 281.87 447.086L280.808 442.835C280.273 440.698 281.474 438.511 283.563 437.814L284.654 437.451C285.5 437.169 286.433 437.389 287.063 438.02C287.694 438.65 287.914 439.583 287.632 440.429L285.368 447.22C284.855 448.761 282.735 448.911 282.008 447.459ZM298.381 443.164C297.161 443.164 296.619 440.151 296.421 437.474C296.316 436.073 295.185 434.933 293.78 434.933C292.816 434.933 291.936 435.477 291.505 436.339L289.23 440.889C288.482 442.385 288.092 444.035 288.092 445.708V459.024C288.092 459.357 288.362 459.627 288.695 459.627C289.232 459.627 289.567 458.906 289.394 458.398C289.111 457.571 289.145 456.516 290.15 455.511C290.936 454.725 291.422 453.939 291.837 453.268C292.508 452.181 292.994 451.395 294.266 451.395C295.545 451.395 296.908 453.882 297.773 455.956C298.17 456.906 299.076 457.569 300.105 457.569C301.426 457.569 302.497 456.498 302.497 455.177V454.239C302.497 453.722 302.377 453.212 302.145 452.75L301.468 451.395C300.791 450.042 300.48 448.545 300.299 447.043C300.071 445.143 299.523 443.164 298.381 443.164ZM303.512 439.104C302.991 441.188 300.544 442.327 299.145 440.697C298.687 440.163 298.381 439.598 298.381 439.049C298.381 436.776 300.224 434.933 302.497 434.933C303.542 434.933 304.309 435.915 304.056 436.929L303.512 439.104ZM282.152 432.717C282.599 432.875 283.102 432.875 283.977 432.875C284.673 432.875 285.394 432.384 286.046 431.714C287.656 430.059 289.323 428.349 291.513 427.619L293.07 427.1C293.846 426.842 294.685 426.842 295.461 427.1C297.91 427.917 300.439 426.094 300.439 423.513V423.089C300.439 422.755 300.398 422.422 300.317 422.098L299.689 419.588C298.833 416.164 294.266 408.768 294.266 412.297C294.266 412.496 294.226 412.717 294.153 412.955C293.11 416.348 288.313 415.715 286.343 412.761C286.138 412.452 285.909 412.157 285.62 411.925C284.908 411.354 283.977 410.94 283.977 412.297C283.977 413.083 283.676 413.569 283.42 413.984C283.005 414.655 282.705 415.141 283.977 416.413L288.38 420.816C289.357 421.793 289.357 423.379 288.38 424.357C288.189 424.547 287.97 424.705 287.729 424.826L284.703 426.338C284.222 426.579 283.783 426.896 283.402 427.276L281.981 428.698C280.81 429.868 280.591 432.166 282.152 432.717ZM281.919 394.13C281.919 392.586 282.532 391.106 283.624 390.014L283.977 389.661C285.294 388.344 287.081 387.603 288.945 387.603H291.012C292.955 387.603 294.68 388.847 295.295 390.69L295.673 391.825C296.061 392.991 297.152 393.777 298.381 393.777H299.167C301.006 393.777 302.497 395.268 302.497 397.106C302.497 397.623 302.377 398.133 302.145 398.596L300.152 402.583C299.174 404.538 296.796 405.331 294.84 404.353C294.46 404.163 294.112 403.913 293.811 403.612L291.855 401.655C290.763 400.564 289.283 399.95 287.739 399.95C284.525 399.95 281.919 397.344 281.919 394.13ZM268.733 422.167C267.524 421.562 266.187 422.721 266.615 424.004L267.242 425.884C267.404 426.372 267.861 426.702 268.376 426.702C269.037 426.702 269.572 426.166 269.572 425.506V423.524C269.572 422.949 269.247 422.424 268.733 422.167ZM258.579 384.139C259 384.979 258.835 385.994 258.171 386.658L256.363 388.465C255.703 389.126 254.632 389.126 253.972 388.465C253.457 387.951 253.329 387.164 253.655 386.513L255.031 383.76C255.121 383.58 255.24 383.415 255.383 383.272C256.289 382.366 257.817 382.614 258.39 383.76L258.579 384.139ZM279.861 335.933C279.861 334.921 279.041 334.101 278.029 334.101H277.55C276.489 334.101 275.565 334.822 275.308 335.851L274.125 340.584C273.869 341.605 274.358 342.667 275.299 343.138C276.584 343.78 278.134 343.067 278.482 341.673L279.806 336.377C279.843 336.232 279.861 336.083 279.861 335.933ZM280.653 354.524C280.134 351.928 280.301 349.242 281.138 346.731L281.86 344.568C281.899 344.45 281.919 344.326 281.919 344.202C281.919 343.343 282.823 342.784 283.592 343.168L284.135 343.44C285.069 343.907 285.271 345.153 284.532 345.892L282.865 347.559C282.259 348.165 281.919 348.987 281.919 349.843V353.65C281.919 355.355 283.301 356.736 285.006 356.736C286.71 356.736 288.092 358.118 288.092 359.823V360.852C288.092 362.611 286.132 363.661 284.668 362.685L283.039 361.599C282.322 361.121 281.824 360.377 281.655 359.532L280.653 354.524ZM297.015 333.409C296.591 333.833 296.443 334.46 296.633 335.029L298.085 339.384C298.275 339.954 298.683 340.425 299.22 340.693L299.396 340.781C300.821 341.494 302.497 340.458 302.497 338.865C302.497 338.442 302.372 338.028 302.137 337.676L299.453 333.65C298.898 332.819 297.722 332.702 297.015 333.409ZM299.843 358.199C297.797 356.152 297.479 352.945 299.085 350.537L299.348 350.142C300.05 349.089 301.12 348.335 302.348 348.028C305.559 347.225 308.67 349.654 308.67 352.965V355.291C308.67 357.383 307.331 359.241 305.347 359.902C303.6 360.484 301.674 360.03 300.373 358.728L299.843 358.199ZM314.602 348.505C313.662 348.505 312.958 349.365 313.142 350.286L314.741 358.283C314.808 358.616 314.972 358.923 315.212 359.163C316.043 359.994 317.444 359.767 317.97 358.715L318.159 358.337C318.616 357.423 318.313 356.32 317.514 355.683C315.776 354.296 314.329 352.621 316.901 352.621C320.194 352.621 321.017 351.249 321.017 350.563C321.017 348.538 319.033 347.109 317.113 347.749L315.073 348.429C314.921 348.479 314.762 348.505 314.602 348.505ZM303.372 323.852C303.206 323.525 303.043 323.196 302.881 322.866C302.375 321.84 301.869 320.812 301.235 319.861L299.664 317.505C298.828 316.25 298.381 314.776 298.381 313.268V312.737C298.381 311.9 298.576 311.075 298.95 310.327L299.736 308.755C300.167 307.894 301.048 307.349 302.011 307.349C303.416 307.349 304.555 308.488 304.555 309.893V313.17C304.555 314.713 305.168 316.194 306.259 317.285L306.612 317.638C307.93 318.956 308.746 320.768 308.286 322.574C307.981 323.773 307.461 325.021 306.612 325.869C305.458 327.024 304.236 325.547 303.372 323.852ZM297.812 300.256C297.128 301.624 298.123 303.234 299.653 303.234H300.439C301.576 303.234 302.497 302.312 302.497 301.176C302.497 300.039 301.576 299.118 300.439 299.118H299.653C298.874 299.118 298.161 299.558 297.812 300.256ZM316.901 301.176C315.151 301.176 314.689 299.141 314.262 297.261C314.16 296.816 314.061 296.379 313.947 295.98L311.006 285.686C310.822 285.041 310.728 284.373 310.728 283.702V278.062C310.728 277.189 311.435 276.482 312.308 276.482C312.619 276.482 312.924 276.575 313.184 276.748L316.575 279.009C318.065 280.001 318.959 281.673 318.959 283.463V285.353C318.959 286.222 318.468 287.017 317.691 287.405C316.29 288.106 315.987 289.973 317.095 291.08L318.013 291.998C318.619 292.604 318.966 293.425 318.931 294.281C318.815 297.16 318.31 301.176 316.901 301.176ZM353.942 299.118C353.942 298.112 355.99 297.055 358.21 296.229C359.738 295.659 361.046 297.256 360.317 298.715C360.184 298.98 360.115 299.272 360.115 299.569V303.064C360.115 303.176 360.141 303.286 360.191 303.385L360.892 304.787C361.128 305.259 360.521 305.697 360.148 305.324C360.133 305.31 360.118 305.296 360.103 305.284L360.078 305.267C358.008 303.882 353.942 300.754 353.942 299.118ZM329.757 307.349C328.249 307.349 326.932 306.323 326.589 304.854C326.209 303.229 325.798 301.367 325.509 299.826C325.32 298.812 326.38 298.307 327.109 299.037C327.163 299.091 327.222 299.139 327.286 299.182L332.17 302.438C332.916 302.935 333.364 303.772 333.364 304.668C333.364 306.149 332.164 307.349 330.683 307.349H329.757ZM342.097 290.034C340.414 290.595 338.411 291.583 338.651 293.341C338.724 293.879 338.983 294.448 339.537 295.002C341.046 296.511 343.822 295.831 345.331 295.179C345.567 295.077 345.711 294.84 345.711 294.583C345.711 293.978 346.442 293.676 346.869 294.103L348.621 295.855C349.287 296.521 350.366 296.521 351.032 295.855L351.281 295.605C351.667 295.219 351.884 294.696 351.884 294.15V293.5C351.884 291.94 350.885 290.554 349.405 290.06L347.663 289.48C346.396 289.057 345.026 289.057 343.758 289.48L342.097 290.034ZM311.757 270.309C311.189 270.309 310.728 269.848 310.728 269.28V268.251C310.728 267.115 311.649 266.193 312.786 266.193H313.815C314.383 266.193 314.844 266.654 314.844 267.222C314.844 267.79 314.383 268.251 313.815 268.251C313.247 268.251 312.786 268.712 312.786 269.28C312.786 269.848 312.325 270.309 311.757 270.309ZM383.09 222.979C380.899 222.979 379.351 225.127 380.044 227.206L380.148 227.517C380.491 228.547 381.299 229.355 382.329 229.698L385.68 230.815C386.407 231.057 387.209 230.868 387.751 230.326C388.433 229.644 388.539 228.575 388.004 227.772L385.762 224.409C385.167 223.516 384.164 222.979 383.09 222.979ZM351.884 222.979C351.283 222.979 348.984 222.511 348.794 221.941L348.147 219.998C347.961 219.44 348.376 218.864 348.964 218.864H349.96C352.735 218.864 354.659 222.979 351.884 222.979ZM329.248 222.979C329.248 221.22 327.288 220.171 325.824 221.147L325.513 221.354C324.252 222.195 324.111 223.998 324.724 225.384C324.968 225.937 325.133 226.524 325.133 227.095L325.134 227.175L325.136 227.24C325.139 227.283 325.142 227.325 325.146 227.366C325.336 229.273 329.248 231.069 329.248 229.153V222.979ZM319.988 225.037C319.42 225.037 318.959 224.577 318.959 224.008V219.893C318.959 219.324 319.42 218.864 319.988 218.864C320.556 218.864 321.017 219.324 321.017 219.893V224.008C321.017 224.577 320.556 225.037 319.988 225.037ZM308.67 207.303C308.67 208.005 309.24 208.575 309.942 208.575H311.757C313.462 208.575 314.844 207.193 314.844 205.488V205.245C314.844 204.728 314.964 204.218 315.195 203.756L316.393 201.361C316.727 200.692 316.901 199.954 316.901 199.206C316.901 197.381 315.87 195.712 314.238 194.896L313.278 194.416C312.954 194.254 312.598 194.17 312.236 194.17H309.339C308.333 194.17 307.829 192.954 308.541 192.242C308.626 192.156 308.726 192.085 308.834 192.03L311.602 190.646C312.386 190.254 312.955 189.942 313.482 189.242C314.784 187.515 313.849 184.852 311.696 185.06C311.433 185.086 311.17 185.126 310.914 185.178C310.732 185.215 310.543 185.25 310.35 185.286C308.922 185.551 307.29 185.854 306.769 187.129C306.671 187.37 306.612 187.657 306.612 187.997C306.612 188.115 306.598 188.241 306.572 188.373C306.155 190.436 303.975 193.018 302.086 195.255C299.706 198.073 297.787 200.344 300.439 200.344C301.622 200.344 302.876 201.761 303.743 203.067C304.321 203.94 305.061 204.712 305.997 205.18L307.967 206.165C308.398 206.381 308.67 206.821 308.67 207.303ZM307.75 104.196C307.053 103.847 306.612 103.135 306.612 102.355V98.7253C306.612 98.0229 307.182 97.4535 307.884 97.4535C308.366 97.4535 308.806 97.7256 309.022 98.1565L310.494 101.1C310.648 101.409 310.728 101.748 310.728 102.093V102.355C310.728 103.885 309.118 104.88 307.75 104.196ZM339.223 74.6606C337.641 73.8695 335.83 75.2074 336.12 76.9522L337.117 82.9337C337.345 84.2989 338.212 85.4729 339.45 86.0919L339.849 86.2915C342.542 87.638 345.711 85.6797 345.711 82.6688C345.711 81.5946 345.284 80.5643 344.524 79.8048L339.786 75.066C339.621 74.9015 339.431 74.7646 339.223 74.6606ZM357.203 158.646C354.944 156.674 358.057 154.131 358.057 157.13C358.057 158.774 357.729 159.105 357.203 158.646ZM341.595 177.708V176.774C341.595 173.421 345.152 172.651 343.653 175.65C342.007 178.942 341.595 178.394 341.595 177.708ZM397.679 163.303C395.696 163.303 394.513 165.513 395.613 167.163L395.959 167.681C396.643 168.707 397.983 169.063 399.085 168.512C400.293 167.908 400.782 166.44 400.178 165.233L399.9 164.676C399.479 163.834 398.62 163.303 397.679 163.303ZM445.041 180.321C444.076 179.357 442.427 180.04 442.427 181.404C442.427 182.542 443.625 183.282 444.643 182.773C445.578 182.306 445.78 181.06 445.041 180.321ZM467.121 182.492C467.121 182.064 466.951 181.653 466.648 181.35C465.868 180.571 464.554 180.784 464.061 181.77L463.791 182.309C463.357 183.177 463.709 184.233 464.577 184.667C465.746 185.251 467.121 184.402 467.121 183.095V182.492ZM468.534 224.5C466.969 224.884 465.063 224.341 465.063 222.73C465.063 221.731 465.873 220.922 466.871 220.922H467.121C468.257 220.922 469.179 221.843 469.179 222.979V225.037C469.179 224.537 468.925 224.404 468.534 224.5ZM434.196 150.054C434.196 150.584 433.835 151.047 433.321 151.175L429.441 152.145C428.075 152.487 426.938 151.069 427.567 149.809C427.846 149.251 428.417 148.899 429.041 148.899H433.041C433.679 148.899 434.196 149.416 434.196 150.054ZM411.56 121.118C411.56 120.55 411.1 120.089 410.531 120.089C409.963 120.089 409.503 120.55 409.503 121.118V123.176C409.503 123.744 409.963 124.205 410.531 124.205C411.1 124.205 411.56 123.744 411.56 123.176V121.118ZM413.618 198.286C412.673 198.286 412.058 197.291 412.481 196.445C412.949 195.508 414.287 195.508 414.756 196.445C415.178 197.291 414.564 198.286 413.618 198.286ZM433.276 217.023C432.807 216.086 431.47 216.086 431.001 217.023C430.578 217.869 431.193 218.864 432.138 218.864C433.084 218.864 433.699 217.869 433.276 217.023ZM472.089 237.384C471.015 237.384 470.477 238.682 471.237 239.442C471.996 240.201 473.294 239.663 473.294 238.589C473.294 237.924 472.755 237.384 472.089 237.384ZM156.393 479.352C156.393 480.426 155.095 480.964 154.335 480.205C153.576 479.445 154.114 478.147 155.188 478.147C155.853 478.147 156.393 478.686 156.393 479.352ZM400.749 68.6443C397.319 67.9583 391.283 68.6443 394.575 76.8755C397.868 85.1067 424.756 113.23 437.789 126.263C441.219 129.006 449.313 134.082 454.252 132.436C459.19 130.79 459.536 120.813 452.194 109.8C446.706 101.569 434.702 87.1645 425.442 80.9911C424.487 80.3544 423.434 79.6192 422.305 78.8312C416.135 74.5257 407.707 68.6443 400.749 68.6443Z" fill="#BB280A"/>
</svg>
