<svg width="60" height="41" viewBox="0 0 60 41" fill="none" xmlns="http://www.w3.org/2000/svg">
<path d="M39.7862 10.5392C36.6989 10.5392 34.7271 11.1583 33.4247 11.9894C33.3773 12.0201 33.3439 12.0619 33.3216 12.1121L24.2856 32.1167H23.6469L9.5073 0.797607H0L18.5349 40.5057H29.0797L42.9014 11.1471C42.9795 10.9798 42.8763 10.7818 42.695 10.7539C42.6197 10.7428 42.5444 10.7288 42.4663 10.7177C41.6603 10.6005 40.7595 10.5392 39.7862 10.5392Z" fill="#FEF7ED"/>
<path d="M54.2605 3.32992C52.8688 2.2311 51.2234 1.36655 49.3214 0.79762C47.6062 0.278888 45.6791 0 43.5428 0C33.4749 0 28.2012 6.39212 27.0047 13.1022H28.7617C30.039 10.6981 32.1084 9.09175 35.0367 8.31087C36.4228 7.93716 38.0041 7.7503 39.7862 7.7503C40.9045 7.7503 41.9308 7.82002 42.8707 7.95947C43.3615 8.03198 43.8328 8.12122 44.2763 8.23278C47.0066 8.9049 48.8723 10.2826 50.0074 12.3603C50.9389 14.0755 51.3712 16.2675 51.3712 18.9337V40.5057H60V16.6162C60 11.1806 58.098 6.35865 54.2605 3.32992Z" fill="#FEF7ED"/>
</svg>
