<?xml version="1.0" encoding="UTF-8"?><svg id="Layer_2" xmlns="http://www.w3.org/2000/svg" viewBox="0 0 434.99 293.66"><defs><style>.cls-1{fill:#f99fdc;}.cls-2{fill:#fef7ed;}</style></defs><g id="Layer_1-2"><g><path class="cls-2" d="m288.45,76.41c-22.38,0-36.67,4.49-46.12,10.51-.34.21-.59.52-.76.88l-65.5,145.04h-4.63L68.93,5.78H0l134.38,287.88h76.45l100.21-212.84c.57-1.22-.17-2.64-1.5-2.86-.54-.09-1.09-.18-1.66-.26-5.84-.85-12.37-1.29-19.43-1.29Z"/><path class="cls-1" d="m393.38,24.14c-10.09-7.97-22.02-14.23-35.81-18.36-12.43-3.76-26.41-5.78-41.89-5.78-72.99,0-111.23,46.34-119.9,94.99h12.74c9.26-17.43,24.26-29.08,45.49-34.74,10.05-2.71,21.51-4.06,34.43-4.06,8.11,0,15.55.51,22.36,1.52,3.56.53,6.98,1.17,10.19,1.98,19.79,4.87,33.32,14.86,41.55,29.92,6.75,12.43,9.89,28.33,9.89,47.66v156.39h62.56V120.47c0-39.41-13.79-74.37-41.61-96.32Z"/></g></g></svg>