<svg width="468" height="451" viewBox="0 0 468 451" fill="none" xmlns="http://www.w3.org/2000/svg">
<path fill-rule="evenodd" clip-rule="evenodd" d="M380.606 194.049C356.091 189.722 319.559 203.662 304.177 212.795C292.935 218.626 276.435 237.275 264.242 260.243C264.573 260.278 264.897 260.421 265.159 260.682L265.373 260.897C266.337 261.86 265.654 263.508 264.292 263.508C263.886 263.508 263.497 263.347 263.21 263.06L262.996 262.845C262.971 262.821 262.948 262.797 262.926 262.771C261.362 265.838 259.879 268.975 258.498 272.162C258.964 272.192 259.332 272.579 259.332 273.052V273.18C259.332 273.451 259.224 273.71 259.033 273.901L258.487 274.447C258.105 274.83 257.89 275.348 257.89 275.889V276.827C257.89 277.435 257.397 277.929 256.788 277.929C256.568 277.929 256.369 277.866 256.202 277.761C255.84 278.695 255.488 279.632 255.146 280.572C248.046 300.097 244.224 320.715 244.35 345.786C244.529 345.734 244.718 345.706 244.911 345.706C245.772 345.706 246.537 346.257 246.809 347.074L247.549 349.293C247.7 349.746 247.582 350.245 247.245 350.583C246.752 351.075 245.954 351.075 245.462 350.583L245.334 350.454C245.086 350.206 244.757 350.058 244.409 350.035C244.461 352.37 244.546 354.743 244.665 357.158C245.786 355.7 247.094 353.924 248.024 352.482C248.395 351.905 250.163 351.883 250.47 352.497C250.595 352.747 250.546 353.05 250.348 353.248L249.638 353.958C249.376 354.22 249.19 354.548 249.1 354.907L248.024 359.212C247.89 359.749 247.407 360.126 246.853 360.126C246.533 360.126 246.226 360.254 246 360.48L245.775 360.705C245.245 361.234 245.061 362.017 245.297 362.727L246.31 365.766C246.339 365.852 246.374 365.935 246.414 366.016L246.956 367.099C247.341 367.871 246.78 368.779 245.918 368.779C245.757 368.779 245.603 368.746 245.463 368.686C246.006 374.84 246.75 381.258 247.702 387.975L249.694 388.639C250.283 388.835 250.679 389.386 250.679 390.006C250.679 390.944 249.799 391.632 248.889 391.404L248.176 391.226C248.548 393.716 248.949 396.248 249.378 398.822C249.69 400.695 250.025 402.505 250.381 404.254C250.419 404.264 250.458 404.276 250.496 404.289L251.911 404.76C252.051 404.807 252.188 404.864 252.32 404.93L254.306 405.923C254.754 406.147 255.095 406.539 255.253 407.015C255.745 408.491 254.34 409.896 252.864 409.404L251.413 408.92C252.513 413.514 253.763 417.637 255.12 421.333C255.364 421.181 255.667 421.114 255.992 421.179L260.137 422.008C260.507 422.082 260.774 422.407 260.774 422.785C260.774 423.222 260.419 423.577 259.982 423.577H255.977C256.582 425.099 257.205 426.542 257.843 427.91C257.897 427.906 257.952 427.903 258.007 427.903H260.586C262.505 427.903 264.298 426.944 265.362 425.347L265.867 424.591C266.307 423.93 266.542 423.153 266.542 422.359C266.542 421.292 266.118 420.269 265.364 419.515L263.746 417.896C262.766 416.917 262.216 415.589 262.216 414.204C262.216 412.819 261.666 411.491 260.686 410.511L259.117 408.942C258.384 408.209 258.203 407.089 258.666 406.162C259.074 405.346 259.908 404.83 260.82 404.83H262.136C263.069 404.83 263.922 405.358 264.339 406.192L265.191 407.896C265.748 409.009 267.337 409.009 267.894 407.896C267.954 407.775 267.998 407.648 268.024 407.516L268.44 405.434C269.029 402.49 267.668 399.499 265.061 398.01L263.813 397.297C261.299 395.86 260.345 392.71 261.64 390.12L261.929 389.542C262.118 389.164 262.216 388.748 262.216 388.325V384.641C262.216 383.577 260.929 383.044 260.177 383.797L260.124 383.849C259.687 384.287 258.977 384.287 258.539 383.849C258.162 383.471 258.103 382.879 258.399 382.435L260.117 379.858C260.523 379.249 260.572 378.469 260.244 377.814L259.883 377.091C259.578 376.482 258.839 376.236 258.23 376.54C257.411 376.949 256.448 376.354 256.448 375.438V374.854C256.448 374.651 256.486 374.45 256.562 374.262L259.072 367.985C259.244 367.557 259.332 367.1 259.332 366.638V364.453C259.332 363.656 259.978 363.01 260.774 363.01H261.114C261.723 363.01 262.216 363.504 262.216 364.112C262.216 364.931 263.078 365.464 263.81 365.097L264.837 364.584C265.011 364.497 265.17 364.382 265.308 364.245L265.633 363.92C266.228 363.325 266.973 362.903 267.79 362.699L271.285 361.825C271.888 361.674 272.31 361.127 272.31 360.506C272.31 359.308 273.759 358.691 274.607 359.539C274.967 359.899 275.093 360.432 274.932 360.915L274.644 361.779C274.152 363.255 274.95 364.852 276.426 365.344L276.637 365.414C277.544 365.717 278.257 366.429 278.559 367.337L279.521 370.221L279.564 370.393C280.493 374.11 280.963 377.926 280.963 381.757V384.498C280.963 385.489 280.468 386.414 279.644 386.963C278.088 388 277.87 390.201 279.192 391.523L280.008 392.339C280.578 392.909 280.72 393.78 280.359 394.502C279.896 395.428 278.77 395.803 277.845 395.34L277.545 395.19C276.969 394.902 276.547 394.376 276.39 393.75L275.195 388.968L273.936 385.191C273.814 384.825 273.666 384.468 273.494 384.124L272.342 381.82C271.753 380.642 271.938 379.31 272.125 377.967C272.218 377.305 272.31 376.639 272.31 375.989C272.31 374.835 271.349 371.663 270.868 370.221L270.09 367.886C269.74 366.835 268.54 366.338 267.549 366.833C266.932 367.142 266.542 367.772 266.542 368.462V370.867C266.542 371.391 266.42 371.907 266.186 372.374L266.147 372.453C265.522 373.704 265.767 375.214 266.755 376.202C267.523 376.97 267.856 378.071 267.643 379.135L266.542 384.641L266.187 386.064C265.635 388.271 267.304 390.41 269.58 390.41C271.185 390.41 272.584 391.502 272.973 393.059L273.362 394.616C273.592 395.534 274.416 396.178 275.362 396.178C276.143 396.178 276.857 396.619 277.207 397.318L277.358 397.62C277.8 398.504 278.718 399.062 279.706 399.062C281.183 399.062 282.405 400.259 282.405 401.736V402.121C282.405 402.933 282.083 403.711 281.509 404.284L280.316 405.477C279.793 406 279.155 406.394 278.453 406.628L275.768 407.523C275.425 407.638 275.195 407.958 275.195 408.319C275.195 408.781 275.57 409.157 276.033 409.157H278.547C279.99 409.157 281.271 410.08 281.727 411.449L282.17 412.779C282.321 413.23 282.286 413.721 282.073 414.146L281.493 415.307C281.232 415.828 280.537 415.941 280.125 415.529C279.791 415.195 279.249 415.196 278.971 415.578C278.532 416.18 278.079 417.017 278.079 417.809C278.079 419.323 276.073 419.003 275.595 417.567L275.296 416.67C275.231 416.476 275.092 416.316 274.909 416.224C274.201 415.87 273.483 416.684 273.922 417.342L274.98 418.929C275.12 419.139 275.195 419.386 275.195 419.638V425.019C275.195 425.682 274.497 426.113 273.905 425.816L272.722 425.225C272.455 425.092 272.238 424.875 272.104 424.607L272.022 424.442C271.547 423.492 270.19 423.492 269.715 424.442C269.533 424.806 269.533 425.233 269.715 425.596L273.326 432.818C273.581 433.328 273.481 433.943 273.078 434.346C272.632 434.793 271.933 434.862 271.407 434.512L269.151 433.008C268.39 432.5 267.496 432.23 266.582 432.23H260.038C267.895 446.422 276.534 450.202 282.546 450.736C292.157 451.59 306.047 451.428 319.585 433.239C319.342 433.086 319.144 432.85 319.04 432.536C318.753 431.676 319.393 430.788 320.3 430.788C320.623 430.788 320.906 430.897 321.127 431.074C321.245 430.9 321.363 430.724 321.481 430.547C322.11 429.604 322.69 428.635 323.223 427.644C322.824 427.751 322.395 427.71 322.019 427.521L320.694 426.859C320.206 426.615 319.899 426.117 319.899 425.573C319.899 424.591 318.937 423.898 318.006 424.208L317.465 424.388C316.534 424.699 315.572 424.006 315.572 423.024C315.572 422.479 315.88 421.981 316.367 421.738L316.904 421.469C317.831 421.006 318.951 421.188 319.684 421.921L320.811 423.047C321.162 423.398 321.567 423.69 322.011 423.912L324.034 424.924C324.16 424.987 324.276 425.07 324.376 425.17C324.39 425.185 324.405 425.2 324.418 425.215C326.09 421.488 327.181 417.484 327.837 413.302C327.219 413.289 326.607 412.95 326.327 412.249C325.969 411.354 326.438 410.342 327.353 410.037C327.665 409.933 327.977 409.925 328.264 409.992C328.415 408.523 328.519 407.036 328.582 405.535C328.56 405.547 328.537 405.558 328.515 405.569L326.279 406.688C325.335 407.159 324.225 406.473 324.225 405.418C324.225 405.042 324.373 404.681 324.643 404.419C325.469 403.62 326.617 402.577 327.672 401.768C328.011 401.509 328.348 401.394 328.656 401.397C328.61 391.69 327.117 381.569 325.718 372.083C323.827 359.261 322.107 347.601 324.365 339.697C325.003 337.465 325.817 335.498 326.77 333.766C326.639 333.677 326.515 333.575 326.398 333.458C325.93 332.99 325.667 332.355 325.667 331.693V329.825C325.667 328.935 326.111 328.105 326.852 327.611C328.192 326.717 329.954 327.223 330.671 328.561C339.117 320.204 352.062 321.298 357.533 322.392C361.979 323.282 367.522 327.461 372.132 338.648C372.353 338.55 372.599 338.495 372.861 338.495H372.915C373.899 338.495 374.697 339.293 374.697 340.278C374.697 340.953 374.316 341.57 373.712 341.872L373.664 341.896C373.58 341.938 373.495 341.973 373.409 342C375.739 348.616 377.757 357.28 379.164 368.538C382.625 396.226 390.22 410.839 393.585 414.685L393.598 414.699C395.49 416.862 398.356 420.138 404.386 421.367C404.437 421.265 404.505 421.169 404.591 421.083L404.682 420.992C404.873 420.801 405.132 420.693 405.403 420.693C405.957 420.693 406.408 421.135 406.422 421.686C410.954 422.197 417.027 421.626 425.31 419.011C452.709 410.358 464.983 361.958 467.13 333.929C468.47 316.437 464.246 267.594 448.383 240.195C447.083 237.949 445.774 235.762 444.43 233.638L442.691 237.117C442.558 237.383 442.286 237.551 441.989 237.551C441.494 237.551 441.123 237.098 441.22 236.612L442.116 232.133C442.203 231.697 442.479 231.358 442.834 231.172C433.263 216.734 421.5 205.403 398.609 198.313C398.772 198.67 398.83 199.082 398.746 199.504L398.025 203.109C397.877 203.85 397.226 204.383 396.471 204.383C395.596 204.383 394.886 203.674 394.886 202.798V199.122C394.886 198.431 395.246 197.823 395.789 197.477C391.18 196.171 386.141 195.025 380.606 194.049ZM376.766 207.86C373.881 208.821 368.978 211.898 372.439 216.512C378.929 225.165 402.723 239.585 422.912 241.027C427.526 241.027 427.718 237.182 427.238 235.259C424.834 230.933 420.027 223.146 411.375 217.954C403.08 212.977 388.302 206.418 376.766 207.86ZM421.779 222L423.369 222.53C424.255 222.825 425.169 222.166 425.169 221.232C425.169 220.643 424.793 220.12 424.234 219.934L422.644 219.404C421.758 219.109 420.843 219.768 420.843 220.702C420.843 221.291 421.22 221.814 421.779 222ZM458.187 272.16H455.967C455.638 272.16 455.322 272.03 455.089 271.797L452.909 269.617C450.933 267.64 448.01 266.95 445.358 267.834C443.075 268.595 441.995 271.202 443.071 273.355L443.662 274.535C443.83 274.873 444.052 275.18 444.319 275.447L445.533 276.662C446.233 277.361 447.368 277.361 448.067 276.662L448.963 275.766C449.762 274.967 451.127 275.533 451.127 276.662C451.127 277.361 451.694 277.929 452.394 277.929H453.945C454.887 277.929 455.767 277.458 456.289 276.674L458.231 273.761C458.3 273.657 458.396 273.573 458.507 273.517C459.183 273.179 458.943 272.16 458.187 272.16ZM455.03 264.95C455.264 264.95 455.453 265.139 455.453 265.372C455.453 265.749 454.998 265.937 454.732 265.671C454.466 265.405 454.654 264.95 455.03 264.95ZM436.176 259.638C436.808 259.954 437.478 259.284 437.162 258.652C436.938 258.203 436.34 258.106 435.985 258.461C435.63 258.815 435.727 259.413 436.176 259.638ZM438.869 269.276C438.471 269.276 438.148 268.953 438.148 268.555V267.113C438.148 266.715 438.471 266.392 438.869 266.392C439.267 266.392 439.59 266.715 439.59 267.113V268.555C439.59 268.953 439.267 269.276 438.869 269.276ZM433.101 269.276H436.407C436.598 269.276 436.782 269.352 436.917 269.487C437.371 269.942 437.05 270.718 436.407 270.718H433.101C432.703 270.718 432.38 270.396 432.38 269.997C432.38 269.599 432.703 269.276 433.101 269.276ZM428.37 272.16H427.819C427.098 272.16 426.458 271.699 426.229 271.014C425.793 269.704 427.039 268.457 428.35 268.894L428.872 269.068C429.271 269.201 429.601 269.488 429.789 269.864C430.317 270.919 429.55 272.16 428.37 272.16ZM428.053 261.462V262.851C428.053 263.254 428.281 263.622 428.641 263.802C429.489 264.226 430.425 263.413 430.126 262.514L429.687 261.197C429.573 260.855 429.252 260.624 428.892 260.624C428.429 260.624 428.053 260.999 428.053 261.462ZM412.271 268.495L413.271 267.745C414.376 266.916 415.856 266.783 417.092 267.401C417.66 267.685 418.144 268.112 418.497 268.641L419.243 269.761C420.212 271.214 420.212 273.107 419.243 274.56C418.441 275.764 417.09 276.487 415.644 276.487H414.935C413.253 276.487 411.716 275.536 410.964 274.032C410.004 272.113 410.554 269.783 412.271 268.495ZM398.401 264.995C398.314 265.206 398.227 265.41 398.142 265.599C397.946 266.041 398.121 266.568 398.554 266.784L398.872 266.943C399.691 267.352 400.654 266.757 400.654 265.841V265.12C400.654 265.008 400.628 264.898 400.578 264.798C400.238 264.117 398.69 264.291 398.401 264.995ZM435.264 305.328C434.252 305.328 434.646 302.368 435.082 300.343C435.182 299.881 435.596 299.56 436.069 299.56C436.459 299.56 436.816 299.78 436.991 300.13L437.749 301.647C438.011 302.171 438.148 302.749 438.148 303.335V305.328C438.148 306.219 437.597 306.009 436.836 305.718C436.365 305.538 435.815 305.328 435.264 305.328ZM439.768 307.856L440.905 305.583C440.989 305.414 441.1 305.26 441.233 305.127L441.87 304.49C442.204 304.156 442.204 303.615 441.87 303.282C441.458 302.87 440.763 302.982 440.502 303.504L438.615 307.279C438.4 307.707 438.712 308.212 439.191 308.212C439.436 308.212 439.659 308.074 439.768 307.856ZM406.423 303.886V302.444C406.423 301.647 407.068 301.002 407.865 301.002C408.661 301.002 409.307 301.647 409.307 302.444V303.886C409.307 304.682 408.661 305.328 407.865 305.328C407.068 305.328 406.423 304.682 406.423 303.886ZM400.654 301.811V305.505C400.654 306.204 401.22 306.77 401.919 306.77C402.741 306.77 403.345 305.997 403.146 305.199L402.25 301.615C402.16 301.255 401.836 301.002 401.464 301.002C401.017 301.002 400.654 301.364 400.654 301.811ZM407.092 315.32L403.538 308.212L404.023 308.939C405.522 311.187 408.046 312.538 410.749 312.538C412.345 312.538 413.145 314.468 412.016 315.597L411.382 316.231C410.977 316.637 410.426 316.864 409.853 316.864H409.591C408.533 316.864 407.566 316.266 407.092 315.32ZM396.328 299.56H396.879C397.951 299.56 398.648 298.431 398.169 297.473C397.924 296.984 397.425 296.675 396.879 296.675H396.328C395.532 296.675 394.886 297.321 394.886 298.118C394.886 298.914 395.532 299.56 396.328 299.56ZM390.56 288.996V288.023C390.56 287.227 391.205 286.581 392.002 286.581H392.277C392.922 286.581 393.444 287.103 393.444 287.748C393.444 287.929 393.402 288.107 393.321 288.269L392.704 289.503C392.359 290.194 391.438 290.343 390.891 289.797C390.679 289.584 390.56 289.297 390.56 288.996ZM382.461 282.195C382.697 283.069 382.968 283.96 383.188 284.646C383.293 284.971 383.475 285.265 383.717 285.506C384.873 286.663 386.842 286.198 387.359 284.646L387.544 284.091C387.631 283.83 387.676 283.557 387.676 283.281V282.255C387.676 280.662 386.384 279.371 384.792 279.371C383.199 279.371 382.046 280.657 382.461 282.195ZM399.212 332.258V328.401C399.212 327.605 399.858 326.959 400.654 326.959H401.546C401.908 326.959 402.265 327.043 402.589 327.205L402.713 327.267C404.014 327.918 404.639 329.426 404.179 330.806L403.726 332.164C403.603 332.534 403.395 332.871 403.119 333.146L402.603 333.663C401.644 334.621 400.028 334.359 399.422 333.146C399.284 332.871 399.212 332.567 399.212 332.258ZM403.538 339.093V340.404C403.538 341.041 403.72 341.665 404.062 342.203L411.243 353.486C412.731 355.826 415.312 357.242 418.085 357.242H418.838C419.211 357.242 419.581 357.302 419.935 357.42L423.073 358.466C423.418 358.581 423.582 358.976 423.419 359.301C423.136 359.866 423.808 360.426 424.313 360.048L427.958 357.314C428.022 357.266 428.082 357.214 428.138 357.158L430.053 355.243C430.567 354.728 431.373 354.649 431.979 355.052C433.14 355.826 434.645 354.765 434.306 353.412L433.961 352.032C433.87 351.667 433.681 351.333 433.415 351.067L432.838 350.49C431.651 349.303 429.951 348.81 428.286 349.024C426.059 349.311 423.727 349.393 423.727 348.59C423.727 347.512 421.212 345.513 419.705 344.47C419.504 344.331 419.314 344.177 419.141 344.004L417.537 342.399C416.974 341.836 416.974 340.923 417.537 340.36C417.807 340.089 417.959 339.723 417.959 339.34V338.885C417.959 337.791 417.259 336.82 416.221 336.474L415.63 336.277C414.406 335.869 413.057 336.188 412.144 337.1L411.09 338.154C410.871 338.373 410.749 338.669 410.749 338.977C410.749 340.129 409.255 340.581 408.616 339.623L407.949 338.621C407.893 338.538 407.829 338.46 407.758 338.388L407.02 337.651C406.637 337.268 406.119 337.053 405.578 337.053C404.451 337.053 403.538 337.966 403.538 339.093ZM398.888 343.831L396.869 341.139C396.052 340.05 396.829 338.495 398.191 338.495C398.817 338.495 399.389 338.849 399.669 339.409L401.675 343.422C401.882 343.836 402.435 343.925 402.762 343.598C403.119 343.241 403.726 343.385 403.886 343.863L404.687 346.266C404.875 346.831 404.831 347.447 404.565 347.979L402.898 351.312C402.371 352.367 402.096 353.53 402.096 354.71V356.011C402.096 356.81 401.837 357.588 401.357 358.228L399.345 360.911C398.621 361.876 397.136 361.742 396.596 360.663C396.423 360.317 396.38 359.92 396.474 359.544L397.442 355.669C397.66 354.798 397.973 353.953 398.374 353.15L399.189 351.52C400.127 349.644 400.282 347.472 399.618 345.481L399.383 344.777C399.27 344.437 399.103 344.117 398.888 343.831ZM407.144 359.405L410.541 362.803C410.674 362.936 410.854 363.01 411.043 363.01C411.57 363.01 411.913 362.455 411.677 361.984L410.88 360.389C410.793 360.215 410.679 360.056 410.541 359.919L408.586 357.963C408.187 357.565 407.542 357.565 407.144 357.963C406.745 358.361 406.745 359.007 407.144 359.405ZM404.385 371.961L403.588 372.359C402.801 372.753 401.847 372.358 401.569 371.523C401.192 370.392 402.268 369.317 403.398 369.693L404.244 369.975C404.684 370.122 404.98 370.534 404.98 370.997C404.98 371.405 404.75 371.778 404.385 371.961ZM393.444 375.989V377.431C393.444 378.228 394.09 378.873 394.886 378.873C395.682 378.873 396.328 378.228 396.328 377.431V375.989C396.328 375.193 395.682 374.547 394.886 374.547C394.09 374.547 393.444 375.193 393.444 375.989ZM383.531 372.923L385.214 371.241C385.59 370.864 386.234 371.131 386.234 371.663V374.337C386.234 375.249 385.494 375.989 384.581 375.989C383.353 375.989 382.554 374.696 383.103 373.598L383.235 373.335C383.311 373.183 383.411 373.044 383.531 372.923ZM390.243 386.893L392.306 391.019C392.949 392.304 394.886 391.847 394.886 390.41V388.417C394.886 386.987 394.078 385.68 392.799 385.04L392.33 384.806C392.114 384.698 391.876 384.641 391.635 384.641C390.478 384.641 389.726 385.858 390.243 386.893ZM388.441 398.047L386.688 395.418C386.424 395.021 386.476 394.493 386.813 394.156C387.259 393.71 388.002 393.784 388.352 394.309L390.105 396.938C390.369 397.335 390.317 397.863 389.98 398.2C389.534 398.646 388.791 398.572 388.441 398.047ZM411.173 389.476L411.478 389.324C411.915 389.106 412.191 388.659 412.191 388.171C412.191 387.212 411.182 386.588 410.324 387.017L410.02 387.169C409.583 387.388 409.307 387.834 409.307 388.323C409.307 389.282 410.316 389.905 411.173 389.476ZM440.26 378.771L439.486 377.224C438.871 375.994 439.766 374.547 441.141 374.547C441.937 374.547 442.644 375.056 442.896 375.812L443.443 377.452C443.714 378.268 443.345 379.159 442.577 379.543C441.724 379.97 440.686 379.624 440.26 378.771ZM446.378 387.103L447.579 388.305C447.975 388.701 448.58 388.799 449.081 388.548L450.979 387.6C451.075 387.552 451.153 387.474 451.201 387.378L451.714 386.351C451.871 386.036 451.466 385.744 451.217 385.993C451.159 386.051 451.08 386.084 450.998 386.084H446.8C446.268 386.084 446.002 386.727 446.378 387.103ZM441.744 392.582L443.137 391.189C443.602 390.724 444.313 390.608 444.902 390.903L444.976 390.94C445.874 391.388 446.068 392.584 445.358 393.294L442.948 395.704C442.634 396.018 442.373 396.381 442.174 396.778L441.295 398.536C441.134 398.859 440.805 399.062 440.444 399.062H440.006C439.32 399.062 438.977 398.233 439.462 397.748C439.546 397.664 439.61 397.561 439.647 397.448L440.714 394.249C440.923 393.621 441.276 393.05 441.744 392.582ZM426.611 397.62C425.815 397.62 425.169 398.266 425.169 399.062C425.169 400.448 426.934 401.036 427.765 399.927C428.478 398.977 427.8 397.62 426.611 397.62ZM400.654 402.287V401.395C400.654 400.903 401.053 400.504 401.546 400.504C401.883 400.504 402.192 400.695 402.343 400.997L402.741 401.794C403.107 402.526 402.575 403.388 401.756 403.388C401.147 403.388 400.654 402.895 400.654 402.287ZM364.304 304.184L362.316 306.173C361.933 306.555 361.719 307.074 361.719 307.615C361.719 308.741 362.632 309.654 363.758 309.654H363.882C365.076 309.654 366.045 308.686 366.045 307.491V304.906C366.045 304.342 365.588 303.886 365.025 303.886C364.755 303.886 364.495 303.993 364.304 304.184ZM369.984 284.472L371.32 281.798C371.622 281.194 372.239 280.813 372.915 280.813C373.899 280.813 374.697 281.611 374.697 282.595V284.248C374.697 284.74 375.096 285.139 375.588 285.139C375.926 285.139 376.235 285.33 376.385 285.632L376.936 286.733C377.342 287.545 377.342 288.501 376.936 289.313L376.793 289.6C376.374 290.437 375.637 291.075 374.749 291.371C373.069 291.931 371.225 291.173 370.433 289.589L369.984 288.69C369.32 287.363 369.32 285.8 369.984 284.472ZM340.732 269.174L342.09 270.985C342.66 271.745 343.475 272.286 344.397 272.517L348.74 273.602L355.95 276.487L357.356 277.19C358.262 277.643 358.834 278.568 358.834 279.581V280.813C358.834 281.609 358.189 282.255 357.392 282.255C356.596 282.255 355.95 282.9 355.95 283.697V284.294C355.95 284.835 356.165 285.354 356.548 285.736L357.392 286.581C358.316 287.504 358.834 288.757 358.834 290.062V291.605C358.834 292.082 358.645 292.539 358.308 292.876C357.761 293.422 357.626 294.258 357.971 294.95L358.342 295.69C358.644 296.294 359.261 296.675 359.936 296.675C360.92 296.675 361.719 295.877 361.719 294.893V293.581C361.719 292.826 362.145 292.136 362.82 291.798L363.501 291.458C364.109 291.154 364.356 290.414 364.052 289.806C363.642 288.987 364.238 288.023 365.153 288.023H365.194C365.708 288.023 366.17 287.71 366.361 287.233L368.174 282.701C368.535 281.796 367.869 280.813 366.896 280.813C366.374 280.813 365.897 281.107 365.664 281.574L365.6 281.702C365.109 282.683 363.801 282.896 363.025 282.119L362.134 281.228C361.868 280.962 361.719 280.601 361.719 280.225V280.159C361.719 279.135 362.797 278.468 363.714 278.926L363.925 279.032C364.33 279.234 364.818 279.155 365.138 278.835C365.607 278.366 365.53 277.585 364.978 277.218L361.719 275.045L343.925 265.463C343.317 265.136 342.6 265.074 341.944 265.293C340.321 265.833 339.705 267.805 340.732 269.174ZM345.515 285.139H343.312C342.328 285.139 341.53 284.341 341.53 283.356C341.53 282.681 341.911 282.064 342.515 281.762L343.124 281.458C343.936 281.052 344.892 281.052 345.704 281.458L346.313 281.762C346.916 282.064 347.298 282.681 347.298 283.356C347.298 284.341 346.5 285.139 345.515 285.139ZM340.883 301.945L341.322 303.262C341.455 303.662 341.741 303.992 342.117 304.18C343.172 304.707 344.414 303.94 344.414 302.761V301.372C344.414 300.371 343.602 299.56 342.602 299.56C341.365 299.56 340.491 300.771 340.883 301.945ZM328.672 285.98L331.099 285.495C332.019 285.311 332.877 286.014 332.877 286.952C332.877 287.592 332.468 288.16 331.861 288.362L329.513 289.145C328.923 289.341 328.273 289.188 327.834 288.748C326.908 287.822 327.388 286.237 328.672 285.98ZM324.225 291.206V293.137C324.225 294.479 322.783 296.576 322.783 295.233V291.206C322.783 290.563 323.559 290.242 324.014 290.696C324.149 290.831 324.225 291.015 324.225 291.206ZM329.025 316.886L329.101 316.657C329.511 315.427 331.072 315.059 331.988 315.976C332.519 316.506 332.651 317.317 332.315 317.989L332.207 318.204C331.781 319.057 330.744 319.403 329.891 318.976C329.122 318.592 328.753 317.701 329.025 316.886ZM304.246 332.727H302.841C301.759 332.727 300.722 332.297 299.957 331.532L299.164 330.739C298.59 330.165 298.268 329.387 298.268 328.576V327.85C298.268 326.561 299.312 325.517 300.601 325.517C300.963 325.517 301.32 325.601 301.644 325.763L305.442 327.662C306.348 328.115 306.92 329.041 306.92 330.053C306.92 331.53 305.723 332.727 304.246 332.727ZM291.057 338.155V332.727C291.057 331.931 291.703 331.285 292.499 331.285C293.296 331.285 293.941 331.931 293.941 332.727V334.867C293.941 335.344 294.131 335.801 294.468 336.138C295.015 336.684 295.15 337.52 294.804 338.212L294.434 338.952C294.132 339.556 293.515 339.937 292.84 339.937C291.855 339.937 291.057 339.139 291.057 338.155ZM296.37 341.306L296.248 341.669C295.782 343.069 296.606 344.569 298.037 344.927L300.216 345.472C300.82 345.623 301.458 345.553 302.014 345.275C303.174 344.694 303.731 343.35 303.321 342.119L303.248 341.901C302.857 340.728 301.76 339.937 300.524 339.937H298.268C297.406 339.937 296.642 340.489 296.37 341.306ZM300.696 349.046L300.755 348.986C301.66 348.082 303.185 348.329 303.757 349.473C303.938 349.836 304.232 350.13 304.595 350.311L306.427 351.228C306.729 351.379 306.92 351.687 306.92 352.025C306.92 352.517 306.521 352.916 306.029 352.916H302.64C301.728 352.916 300.894 352.401 300.486 351.585L300.333 351.279C299.961 350.534 300.107 349.635 300.696 349.046ZM313.58 354.358H314.471C315.079 354.358 315.572 353.865 315.572 353.256C315.572 352.438 314.711 351.905 313.978 352.271L313.181 352.67C312.879 352.821 312.688 353.129 312.688 353.467C312.688 353.959 313.087 354.358 313.58 354.358ZM298.268 350.713V348.59C298.268 347.793 297.622 347.148 296.826 347.148C296.029 347.148 295.384 347.793 295.384 348.59V349.716C295.384 349.926 295.358 350.135 295.307 350.339L294.291 354.404C294.074 355.27 294.328 356.187 294.959 356.818C295.238 357.097 295.578 357.307 295.953 357.432L298.237 358.193C299.116 358.487 299.71 359.31 299.71 360.237C299.71 361.053 300.171 361.799 300.901 362.164L301.437 362.432C302.178 362.802 303.035 362.863 303.821 362.601L306.297 361.776C306.696 361.643 307.026 361.357 307.214 360.981C307.741 359.926 306.974 358.684 305.795 358.684H305.688C304.776 358.684 304.036 357.944 304.036 357.032V356.902C304.036 356.227 303.654 355.609 303.051 355.307L300.238 353.901C299.031 353.297 298.268 352.063 298.268 350.713ZM312.688 363.01C312.688 362.214 312.043 361.568 311.246 361.568C310.45 361.568 309.804 362.214 309.804 363.01C309.804 363.807 310.45 364.453 311.246 364.453C312.043 364.453 312.688 363.807 312.688 363.01ZM306.92 376.834V375.779C306.92 375.024 307.347 374.334 308.022 373.996C309.006 373.504 309.405 372.307 308.913 371.322L308.784 371.066C308.514 370.525 308.47 369.899 308.661 369.325L309.117 367.956C309.527 366.725 310.679 365.895 311.977 365.895C312.445 365.895 312.906 366.004 313.325 366.213L313.936 366.518C314.984 367.042 315.781 367.961 316.151 369.073L316.242 369.346C316.716 370.766 316.346 372.331 315.288 373.39L315.15 373.527C314.497 374.18 314.13 375.066 314.13 375.989V376.962C314.13 377.262 314.011 377.55 313.799 377.763L313.622 377.939C313.163 378.399 312.388 378.273 312.098 377.692C311.747 376.99 310.746 376.99 310.395 377.692L309.862 378.758C309.824 378.834 309.804 378.917 309.804 379.002C309.804 379.486 309.218 379.729 308.875 379.386L307.342 377.854C307.072 377.583 306.92 377.216 306.92 376.834ZM320.478 375.705L320.848 376.446C321.15 377.05 321.767 377.431 322.442 377.431C323.427 377.431 324.225 376.633 324.225 375.649V375.144C324.225 374.018 323.312 373.105 322.185 373.105H322.085C321.608 373.105 321.151 373.294 320.814 373.631C320.268 374.178 320.132 375.014 320.478 375.705ZM317.014 385.192V383.199C317.014 382.403 317.66 381.757 318.457 381.757C319.253 381.757 319.899 382.403 319.899 383.199V385.192C319.899 385.739 319.59 386.238 319.101 386.482C318.143 386.962 317.014 386.264 317.014 385.192ZM314.13 385.245C314.13 384.912 313.86 384.641 313.526 384.641C313.114 384.641 312.823 385.045 312.953 385.437C313.17 386.087 314.13 385.931 314.13 385.245ZM308.784 388.545C308.551 388.779 308.551 389.157 308.784 389.39C309.161 389.766 309.804 389.5 309.804 388.968C309.804 388.436 309.161 388.169 308.784 388.545ZM289.771 418.586L290.548 422.471C290.844 423.953 292.145 425.019 293.656 425.019H294.947C295.984 425.019 296.826 424.178 296.826 423.141C296.826 422.512 296.512 421.926 295.989 421.577L293.997 420.249C293.222 419.733 293.114 418.637 293.772 417.978C293.884 417.866 293.978 417.737 294.049 417.595L294.364 416.964C295.017 415.658 295.124 414.147 294.662 412.762L294.591 412.547C294.175 411.3 294.272 409.938 294.86 408.762C295.204 408.073 295.384 407.314 295.384 406.544V404.408C295.384 403.755 295.124 403.129 294.662 402.667C294.201 402.206 293.941 401.579 293.941 400.927V399.403C293.941 398.31 294.559 397.311 295.536 396.823C296.348 396.417 297.303 396.417 298.115 396.823C299.092 397.311 299.71 398.31 299.71 399.403V401.946C299.71 402.427 299.998 403.677 301.152 404.83C302.202 405.881 302.535 407.808 302.586 408.87C302.596 409.059 302.638 409.245 302.722 409.413C303.207 410.383 304.622 410.282 304.965 409.254L305.323 408.18C305.424 407.876 305.437 407.549 305.359 407.238L304.432 403.532C304.173 402.494 303.636 401.547 302.88 400.79L302.171 400.082C301.519 399.429 301.152 398.543 301.152 397.62V396.775C301.152 396.393 301.304 396.026 301.574 395.756C302.137 395.192 303.05 395.192 303.614 395.756C303.884 396.026 304.251 396.178 304.633 396.178H306.323C307.449 396.178 308.362 395.265 308.362 394.139C308.362 393.598 308.147 393.079 307.765 392.697L306.525 391.457C305.836 390.768 305.318 389.929 305.01 389.005L304.036 386.084L302.868 381.414C302.689 380.695 302.317 380.039 301.793 379.515L301.158 378.879C300.293 378.014 298.972 377.8 297.878 378.347C297.204 378.684 296.692 379.275 296.453 379.99L295.384 383.199L294.133 388.201C294.006 388.71 293.941 389.233 293.941 389.758V394.736C293.941 395.532 293.296 396.178 292.499 396.178C291.703 396.178 291.057 396.824 291.057 397.62V409.579C291.057 410.232 290.798 410.858 290.336 411.32C289.875 411.781 289.615 412.408 289.615 413.06V417.017C289.615 417.544 289.667 418.069 289.771 418.586ZM292.499 374.547V371.663C292.499 370.866 293.145 370.221 293.941 370.221C294.738 370.221 295.384 370.866 295.384 371.663V374.547C295.384 375.343 294.738 375.989 293.941 375.989C293.145 375.989 292.499 375.343 292.499 374.547ZM287.774 363.565L287.002 367.424C286.932 367.776 286.73 368.114 286.531 368.447C286.23 368.951 285.935 369.445 286.113 369.957C286.168 370.115 286.349 370.221 286.731 370.221C288.408 370.221 289.852 369.037 290.181 367.393L290.824 364.175C290.962 363.488 290.622 362.793 289.995 362.479C289.077 362.021 287.975 362.56 287.774 363.565ZM286.731 352.195V351.296C286.731 350.598 287.297 350.032 287.996 350.032C288.818 350.032 289.422 350.805 289.222 351.603L288.762 353.443C288.463 354.64 289.369 355.8 290.603 355.8H291.48C292.043 355.8 292.499 356.257 292.499 356.82C292.499 357.09 292.392 357.35 292.201 357.541L291.581 358.161C291.237 358.505 290.817 358.764 290.355 358.918L288.503 359.536C287.388 359.908 286.512 360.783 286.14 361.898L285.78 362.98C285.487 363.859 284.664 364.453 283.736 364.453C282.92 364.453 282.174 363.992 281.809 363.262L281.661 362.965C281.229 362.101 281.298 361.076 281.801 360.251C282.751 358.692 283.847 356.671 283.847 355.8C283.847 355.325 284.174 354.996 284.625 354.774C285.697 354.247 286.731 353.39 286.731 352.195ZM268.461 348.601L268.762 347.697C269.113 346.646 270.313 346.149 271.304 346.645C271.921 346.953 272.31 347.583 272.31 348.273V349.225C272.31 350.803 270.552 351.744 269.24 350.869C268.498 350.375 268.18 349.446 268.461 348.601ZM281.294 325.848C281.096 325.65 281.047 325.348 281.173 325.097C281.48 324.483 282.405 324.702 282.405 325.388C282.405 325.968 281.704 326.258 281.294 325.848ZM272.31 331.935V326.265C272.31 325.259 271.251 324.604 270.351 325.054C269.805 325.327 269.509 325.932 269.629 326.531L270.741 332.09C270.815 332.461 271.14 332.727 271.518 332.727C271.956 332.727 272.31 332.372 272.31 331.935ZM266.542 333.618V335.06C266.542 335.976 267.506 336.572 268.325 336.162C268.933 335.858 269.18 335.118 268.876 334.51L268.231 333.22C268.08 332.918 267.771 332.727 267.433 332.727C266.941 332.727 266.542 333.126 266.542 333.618ZM263.658 332.006V330.564C263.658 330.166 263.981 329.843 264.379 329.843C264.777 329.843 265.1 330.166 265.1 330.564V332.006C265.1 332.404 264.777 332.727 264.379 332.727C263.981 332.727 263.658 332.404 263.658 332.006ZM263.236 325.939C263.469 325.706 263.469 325.328 263.236 325.094C262.859 324.718 262.216 324.985 262.216 325.517C262.216 326.049 262.859 326.315 263.236 325.939ZM252.966 318.306H251.441C250.09 318.306 248.856 319.069 248.252 320.277L248.194 320.393C247.932 320.918 247.795 321.496 247.795 322.082V327.462C247.795 327.98 248.216 328.401 248.735 328.401C249.049 328.401 249.342 328.244 249.516 327.983L251.685 324.73C251.975 324.294 252.308 323.888 252.678 323.518L254.408 321.788C254.791 321.405 255.006 320.887 255.006 320.346C255.006 319.22 254.093 318.306 252.966 318.306ZM253.035 343.35L253.42 342.965C253.515 342.87 253.594 342.76 253.654 342.64C254.153 341.643 253.197 340.54 252.139 340.893L251.623 341.065C251.06 341.253 250.679 341.78 250.679 342.374C250.679 343.604 252.166 344.219 253.035 343.35ZM287.995 388.7L285.568 385.06C285.394 384.798 285.1 384.641 284.786 384.641C284.268 384.641 283.847 385.062 283.847 385.581V386.681C283.847 387.222 284.062 387.74 284.444 388.123L286.361 390.04C287.03 390.708 288.173 390.235 288.173 389.289C288.173 389.079 288.111 388.875 287.995 388.7ZM312.688 395.567V396.775C312.688 397.316 312.473 397.835 312.091 398.217L311.715 398.593C311.415 398.893 311.008 399.062 310.583 399.062C309.49 399.062 308.719 397.992 309.064 396.955L309.689 395.081C309.765 394.854 309.892 394.648 310.061 394.479C311.031 393.51 312.688 394.196 312.688 395.567ZM312.782 408.875L313.499 406.723C313.81 405.792 313.117 404.83 312.135 404.83C311.59 404.83 311.092 405.138 310.849 405.625L310.186 406.95C309.946 407.431 309.946 407.998 310.186 408.479L310.467 409.04C310.85 409.807 311.872 409.973 312.479 409.366C312.617 409.228 312.72 409.06 312.782 408.875ZM321.341 399.782V404.11C321.341 404.508 321.663 404.83 322.062 404.83C322.46 404.83 322.783 404.508 322.783 404.109V399.783C322.783 399.385 322.46 399.062 322.062 399.062C321.663 399.062 321.341 399.384 321.341 399.782ZM319.899 411.32V411.742C319.899 411.933 319.823 412.117 319.687 412.252C319.233 412.706 318.457 412.384 318.457 411.742V411.32C318.457 410.921 318.779 410.599 319.178 410.599C319.576 410.599 319.899 410.921 319.899 411.32ZM311.246 422.856C311.246 422.458 311.569 422.135 311.967 422.135C312.365 422.135 312.688 422.458 312.688 422.856C312.688 423.254 312.365 423.577 311.967 423.577C311.569 423.577 311.246 423.254 311.246 422.856ZM303.704 425.467L303.523 424.922C303.18 423.893 304.252 422.964 305.221 423.449C305.39 423.533 305.576 423.577 305.765 423.577H307.192C307.961 423.577 308.721 423.756 309.409 424.101L310.308 424.55C310.909 424.851 311.365 425.377 311.578 426.014L312.337 428.292C312.51 428.81 312.124 429.345 311.578 429.345C311.365 429.345 311.162 429.261 311.012 429.111L309.479 427.578C308.764 426.863 307.794 426.461 306.783 426.461H305.084C304.458 426.461 303.902 426.061 303.704 425.467ZM300.314 416.367C300.726 416.367 301.017 415.963 300.887 415.572C300.67 414.922 299.71 415.078 299.71 415.763C299.71 416.096 299.98 416.367 300.314 416.367ZM314.13 430.237C314.13 430.541 314.377 430.788 314.681 430.788C315.091 430.788 315.357 430.357 315.174 429.99C314.914 429.471 314.13 429.656 314.13 430.237ZM310.848 273.142C311.93 273.413 312.688 274.384 312.688 275.499C312.688 276.841 311.601 277.929 310.259 277.929C309.144 277.929 308.172 277.17 307.902 276.088C307.457 274.309 309.069 272.698 310.848 273.142ZM303.543 275.291C303.845 275.14 304.036 274.831 304.036 274.494C304.036 274.001 303.637 273.602 303.145 273.602H302.253C301.645 273.602 301.152 274.096 301.152 274.704C301.152 275.523 302.014 276.056 302.746 275.689L303.543 275.291ZM295.136 269.976L294.961 269.451C294.585 268.322 295.761 267.302 296.826 267.834L298.915 268.879C299.402 269.122 299.71 269.62 299.71 270.165C299.71 271.147 298.748 271.84 297.817 271.529L296.126 270.966C295.659 270.81 295.292 270.443 295.136 269.976ZM307.389 260.624H307.811C308.727 260.624 309.322 259.66 308.913 258.841C308.609 258.233 307.869 257.986 307.26 258.291L306.883 258.479C306.192 258.825 306.042 259.746 306.588 260.292C306.801 260.505 307.089 260.624 307.389 260.624ZM270.631 274.548C270.289 273.81 269.859 272.768 269.616 271.866C269.448 271.244 269.949 270.718 270.593 270.718C270.774 270.718 270.953 270.76 271.115 270.841L272.683 271.626C273.338 271.953 273.753 272.623 273.753 273.356V273.813C273.753 275.041 272.46 275.84 271.361 275.291C271.041 275.131 270.781 274.873 270.631 274.548ZM263.658 270.441C263.658 269.798 263.137 269.276 262.494 269.276C261.67 269.276 261.107 270.108 261.413 270.873C261.889 272.063 263.658 271.723 263.658 270.441ZM283.847 246.754V246.203C283.847 245.407 284.493 244.761 285.289 244.761C286.085 244.761 286.731 245.407 286.731 246.203V246.754C286.731 247.3 286.423 247.8 285.934 248.044C284.975 248.523 283.847 247.826 283.847 246.754ZM280.269 238.281L280.717 238.43C281.492 238.689 281.725 239.673 281.146 240.251C281.026 240.372 280.935 240.52 280.881 240.682C280.511 241.79 278.908 241.699 278.679 240.553L278.531 239.814C278.33 238.806 279.293 237.956 280.269 238.281ZM319.899 228.898V227.456C319.899 226.66 320.544 226.014 321.341 226.014C322.137 226.014 322.783 226.66 322.783 227.456V228.898C322.783 229.695 322.137 230.341 321.341 230.341C320.544 230.341 319.899 229.695 319.899 228.898ZM341.53 217.362V226.014C341.53 226.811 342.175 227.456 342.972 227.456C343.768 227.456 344.414 226.811 344.414 226.014V223.851C344.414 223.453 344.091 223.13 343.693 223.13C343.294 223.13 342.972 222.807 342.972 222.409V222.11C342.972 221.84 343.079 221.581 343.27 221.389L343.693 220.967C344.154 220.505 344.414 219.879 344.414 219.226V217.362C344.414 216.565 343.768 215.92 342.972 215.92C342.175 215.92 341.53 216.565 341.53 217.362ZM339.79 244.166L339.225 243.035C338.879 242.344 339.014 241.508 339.561 240.961L339.619 240.904C339.919 240.604 340.326 240.435 340.751 240.435C341.843 240.435 342.615 241.505 342.269 242.542L341.775 244.025C341.628 244.464 341.217 244.761 340.753 244.761C340.345 244.761 339.972 244.531 339.79 244.166ZM372.169 239.171L373.764 239.968C374.193 240.183 374.697 239.871 374.697 239.391C374.697 239.147 374.559 238.924 374.341 238.815L372.746 238.017C372.317 237.803 371.813 238.115 371.813 238.594C371.813 238.839 371.951 239.062 372.169 239.171ZM377.581 267.113V261.345C377.581 260.947 377.904 260.624 378.302 260.624C378.7 260.624 379.023 260.947 379.023 261.345V267.113C379.023 267.511 378.7 267.834 378.302 267.834C377.904 267.834 377.581 267.511 377.581 267.113ZM377.068 325.615L376.402 327.612C376.241 328.096 376.367 328.629 376.727 328.989C377.574 329.836 379.023 329.236 379.023 328.038V325.932C379.023 325.666 378.918 325.411 378.729 325.223C378.202 324.695 377.304 324.907 377.068 325.615ZM374.734 333.429L374.357 333.618C373.748 333.923 373.008 333.676 372.704 333.068C372.295 332.249 372.89 331.285 373.806 331.285H374.228C374.528 331.285 374.816 331.404 375.029 331.617C375.575 332.163 375.426 333.084 374.734 333.429ZM377.581 339.736V341.935C377.581 343.341 378.438 344.606 379.743 345.128L382.956 346.413C383.993 346.828 385.176 346.379 385.676 345.379C386.021 344.689 385.97 343.868 385.542 343.226L384.421 341.545C383.727 340.503 382.705 339.722 381.517 339.327L379.214 338.559C379.088 338.517 378.955 338.495 378.822 338.495C378.137 338.495 377.581 339.051 377.581 339.736ZM391.824 337.053H389.572C388.525 337.053 387.676 336.204 387.676 335.157C387.676 333.923 388.835 333.017 390.033 333.316L392.217 333.863C392.938 334.043 393.444 334.691 393.444 335.434C393.444 336.328 392.719 337.053 391.824 337.053ZM391.824 327.315L391.026 328.91C390.812 329.338 391.124 329.843 391.603 329.843C391.848 329.843 392.071 329.705 392.18 329.486L392.977 327.892C393.192 327.463 392.88 326.959 392.4 326.959C392.156 326.959 391.933 327.097 391.824 327.315ZM291.612 320.304L291.751 320.442C292.757 321.449 294.471 321.044 294.921 319.694C295.194 318.875 294.885 317.974 294.167 317.495L294.004 317.387C292.744 316.547 291.057 317.45 291.057 318.964C291.057 319.466 291.257 319.948 291.612 320.304ZM284.54 422.717L285.121 425.623C285.232 426.175 285.464 426.695 285.802 427.146L289.228 431.714C289.472 432.038 289.854 432.23 290.26 432.23C290.749 432.23 291.195 431.954 291.414 431.517L291.801 430.742C292.233 429.878 292.169 428.85 291.633 428.046L290.15 425.821C289.795 425.289 289.513 424.712 289.311 424.105L288.498 421.666C288.293 421.054 287.813 420.573 287.2 420.369C285.706 419.871 284.231 421.173 284.54 422.717ZM280.963 427.182V422.856C280.963 422.458 281.286 422.135 281.684 422.135C282.082 422.135 282.405 422.458 282.405 422.856V427.182C282.405 427.581 282.082 427.903 281.684 427.903C281.286 427.903 280.963 427.581 280.963 427.182ZM275.864 430.685L276.239 431.435C276.483 431.922 276.981 432.23 277.525 432.23C278.507 432.23 279.2 431.268 278.89 430.337L278.625 429.542C278.337 428.677 277.349 428.268 276.534 428.676C275.794 429.046 275.494 429.945 275.864 430.685Z" fill="#202020"/>
<path d="M227.076 352.068C227.224 351.474 226.973 350.856 226.464 350.517L225.358 349.78C224.845 349.438 224.158 349.805 224.158 350.422V355.23C224.158 355.76 224.588 356.19 225.118 356.19C225.514 356.19 225.87 355.947 226.006 355.576C226.424 354.432 226.779 353.26 227.076 352.068Z" fill="#D64517"/>
<path fill-rule="evenodd" clip-rule="evenodd" d="M83.7136 0.389957C64.9668 -1.5328 24.0121 2.69726 10.1683 34.9995C6.32319 43.9715 3.87238 54.2635 2.42037 64.8932C2.31596 65.6575 2.91254 66.335 3.68399 66.335C4.39099 66.335 4.96413 66.9081 4.96413 67.6151V72.1032C4.96413 72.8997 4.3185 73.5453 3.52207 73.5453C2.72564 73.5453 2.08 72.8997 2.08 72.1032V67.7921C2.08 67.7838 2.07325 67.7771 2.06493 67.7771C2.05729 67.7771 2.05086 67.7828 2.04996 67.7903C1.62395 71.3618 1.30558 74.961 1.08005 78.5512C1.03877 79.2084 1.83084 79.5627 2.29645 79.0971C2.74874 78.6449 3.52207 78.9652 3.52207 79.6048V83.6822C3.52207 84.4552 2.89542 85.0818 2.12241 85.0818C1.36744 85.0818 0.748062 85.6808 0.727468 86.4355C0.486453 95.2681 0.750916 103.879 1.29464 111.707C1.55586 115.468 2.68096 119.111 4.4861 122.42L8.38804 129.574C8.98009 130.659 9.29033 131.876 9.29033 133.112V136.158C9.29033 137.52 10.1616 138.729 11.4534 139.159C12.7452 139.59 13.6165 140.799 13.6165 142.16V142.424C13.6165 143.516 12.9993 144.515 12.0222 145.004C11.2103 145.41 10.2545 145.41 9.44257 145.004C8.46548 144.515 7.84827 143.516 7.84827 142.424V136.525C7.84827 135.918 7.54528 135.352 7.04084 135.016C5.72746 134.14 4.0096 135.243 4.29166 136.796C4.32781 136.995 4.36395 137.192 4.40005 137.386C5.68655 150.251 8.5655 169.002 13.3825 190.376C13.4136 190.515 13.6165 190.494 13.6165 190.353V186.947C13.6165 186.439 14.0288 186.026 14.5373 186.026C14.8607 186.026 15.1604 186.196 15.3268 186.473L18.6992 192.094C19.1021 192.766 18.9963 193.625 18.4426 194.179C18.1225 194.499 17.6884 194.679 17.2358 194.679H17.0593C15.6852 194.679 14.668 195.953 14.9874 197.289C24.8405 238.514 41.693 287.809 67.851 323.413C68.2996 324.023 69.0734 324.3 69.8085 324.116L71.441 323.708C73.0527 323.305 74.1833 321.857 74.1833 320.196V319.716C74.1833 319.063 74.4426 318.437 74.9043 317.975C75.366 317.514 75.6253 316.888 75.6253 316.235V314.807C75.6253 314.522 75.7096 314.244 75.8675 314.007L76.6674 312.807C77.2192 311.979 78.5095 312.37 78.5095 313.365C78.5095 313.92 78.9596 314.37 79.5149 314.37H80.3215C81.5584 314.37 82.4317 315.582 82.0406 316.755L81.6795 317.839C81.4942 318.395 81.1289 318.873 80.6413 319.198L78.9938 320.296C78.0774 320.907 78.0774 322.254 78.9938 322.865L79.4293 323.155C80.2689 323.715 81.3936 323.113 81.3936 322.104C81.3936 321.769 81.5267 321.447 81.7636 321.21L85.7198 317.254C86.4382 316.536 87.6354 317.276 87.3141 318.24C87.2182 318.527 86.992 318.75 86.7091 318.859C85.2469 319.421 83.2372 320.54 84.2777 321.581C86.2677 323.57 89.2893 321.309 90.3344 318.696L91.488 315.812C92.9301 311.967 96.1026 304.853 97.2563 307.16C98.2407 309.129 98.5531 309.754 98.6523 310.411C98.6984 310.716 98.6984 311.028 98.6984 311.486C98.6984 311.923 98.8305 312.624 98.9749 313.389C99.3072 315.151 99.7038 317.254 98.6984 317.254C98.0922 317.254 97.1941 318.051 96.3387 319.016L96.331 319.024C94.9045 320.633 92.854 322.946 94.3722 324.465C95.3776 325.47 97.0841 325.074 98.514 324.741C99.135 324.597 99.7038 324.465 100.14 324.465C100.397 324.465 100.61 324.37 100.788 324.211L100.833 324.171C101.789 323.317 102.961 322.27 104.099 322.839C104.341 322.96 104.607 323.023 104.877 323.023H105.017C106.306 323.023 107.351 324.067 107.351 325.356V325.841C107.351 326.783 106.88 327.663 106.096 328.185L104.545 329.22C103.553 329.88 102.389 330.233 101.198 330.233H99.893C99.1281 330.233 98.3945 330.537 97.8536 331.078L96.8339 332.097C96.2708 332.661 95.3577 332.661 94.7946 332.097C94.5241 331.827 94.1573 331.675 93.7749 331.675H91.488C91.0408 331.675 90.5791 331.819 90.1533 332.024C89.1289 332.518 87.918 332.774 86.9011 332.266C86.1574 331.894 85.2821 331.894 84.5385 332.266L83.1946 332.938C82.9556 333.057 82.7084 333.159 82.455 333.244L78.8254 334.454C78.6176 334.523 78.4288 334.64 78.274 334.795C77.7612 335.307 77.7326 336.141 78.1952 336.699C114.749 380.83 143.472 385.421 165.911 385.421C166.192 385.421 166.476 385.422 166.763 385.422L167.402 385.424C170.902 385.434 174.808 385.445 179.137 384.993C179.766 384.927 180.029 384.164 179.581 383.716C179.498 383.633 179.435 383.531 179.397 383.419L178.267 380.027C178.098 379.521 178.012 378.991 178.012 378.458V376.379C178.012 374.786 176.721 373.495 175.128 373.495C173.535 373.495 172.244 372.204 172.244 370.611V369.169C172.244 368.284 171.679 368.473 171.198 368.826C170.917 369.033 170.704 369.315 170.511 369.605L168.613 372.452C168.216 373.048 167.437 373.254 166.796 372.934L166.438 372.755C165.747 372.41 165.598 371.489 166.144 370.942C166.356 370.73 166.475 370.442 166.475 370.142V368.067C166.475 366.091 167.592 364.284 169.36 363.4C170.645 362.758 170.756 360.967 169.561 360.17L168.363 359.371C168.069 359.175 167.739 359.039 167.392 358.969L161.632 357.817C161.04 357.699 160.519 357.35 160.184 356.847L159.2 355.371C158.611 354.488 159.244 353.306 160.305 353.306C160.567 353.306 160.824 353.228 161.042 353.083L163.069 351.732C164.112 351.036 165.529 351.412 166.089 352.534C166.337 353.028 166.77 353.404 167.295 353.579L168.873 354.105C170.125 354.522 171.479 354.522 172.731 354.105L174.51 353.512C174.911 353.378 175.345 353.378 175.746 353.512C177.274 354.021 178.727 352.568 178.218 351.04L178.061 350.57C178.028 350.471 177.989 350.375 177.942 350.282L176.939 348.276C175.77 345.938 175.476 343.26 176.11 340.725L176.262 340.119C176.466 339.302 176.808 338.527 177.275 337.827L178.712 335.673C179.175 334.977 179.956 334.559 180.792 334.559C181.74 334.559 182.606 335.094 183.029 335.942L183.632 337.146C183.731 337.344 183.815 337.549 183.885 337.759L184.754 340.365C185.062 341.288 185.581 342.128 186.269 342.816C187.446 343.993 189.041 344.654 190.704 344.654H191.835C192.962 344.654 193.875 345.567 193.875 346.693C193.875 347.234 193.655 347.748 193.294 348.151C192.404 349.144 191.492 350.422 192.433 350.422C194.138 350.422 194.347 352.323 194.572 354.366C194.772 356.174 194.983 358.095 196.256 358.907C196.424 359.014 196.592 359.074 196.759 359.074C196.99 359.074 197.187 359.19 197.353 359.388C199.029 361.374 196.902 364.266 194.741 365.707L194.55 365.834C194.102 366.133 193.616 366.371 193.104 366.541L191.568 367.053C190.33 367.466 188.966 367.144 188.043 366.221C187.188 365.366 185.946 365.022 184.772 365.315L183.418 365.654C181.847 366.047 180.586 367.215 180.074 368.75L180.019 368.916C179.657 370.001 179.741 371.186 180.253 372.209L180.496 372.694C180.756 373.214 181.177 373.635 181.697 373.895C182.892 374.493 183.466 375.879 183.044 377.147L182.529 378.69C182.415 379.032 182.095 379.263 181.734 379.263C181.271 379.263 180.896 379.638 180.896 380.101V381.843C180.896 383.402 182.268 384.609 183.802 384.333C188.291 383.527 193.186 382.131 198.505 379.722C199.116 379.445 199.368 378.713 199.068 378.113C198.669 377.316 199.249 376.379 200.139 376.379H200.359C200.793 376.379 201.177 376.656 201.314 377.067C201.51 377.653 202.181 377.927 202.726 377.636C207.525 375.068 212.646 371.656 218.099 367.124C219.074 366.314 218.451 364.842 217.184 364.842H216.092C215.71 364.842 215.336 364.729 215.018 364.517L212.434 362.795C211.65 362.272 211.179 361.392 211.179 360.45C211.179 358.894 212.441 357.632 213.997 357.632H214.064C214.971 357.632 215.826 357.205 216.371 356.478L219.241 352.652C219.624 352.14 219.832 351.518 219.832 350.879V348.559C219.832 347.427 218.641 346.691 217.629 347.197L217.252 347.385C217.061 347.481 216.835 347.481 216.643 347.385L216.109 347.118C215.6 346.864 215.506 345.223 215.506 344.654C215.506 343.946 216.228 342.842 217.009 341.871C217.841 340.837 218.39 339.582 218.39 338.255C218.39 337.717 218.303 337.183 218.133 336.673L217.179 333.81C217.025 333.35 216.812 332.913 216.543 332.51L215.952 331.624C214.854 329.977 215.071 327.783 216.471 326.383C216.787 326.068 217.049 325.703 217.249 325.304L218.39 323.023C219.099 321.604 220.99 321.297 222.112 322.419L222.157 322.464C222.52 322.827 222.755 323.297 222.828 323.805L223.979 331.863C224.098 332.698 224.158 333.54 224.158 334.384V340.865C224.158 341.444 224.388 341.999 224.797 342.409L224.921 342.533C226.184 343.796 228.299 343.001 228.279 341.215C227.941 311.415 236.465 269.457 260.367 235.278C260.432 235.185 260.365 235.057 260.252 235.057C260.238 235.057 260.225 235.059 260.212 235.062C260.199 235.066 260.186 235.072 260.174 235.08L257.179 237.077C256.354 237.627 255.335 237.804 254.373 237.563L252.207 237.022C251.133 236.753 250.585 235.56 251.079 234.57C251.372 233.985 251.971 233.615 252.626 233.615H252.999C253.883 233.615 254.691 233.115 255.086 232.325L255.246 232.005C255.648 231.201 256.398 230.627 257.28 230.456C259.795 229.972 263.342 229.33 264.437 229.29C264.488 229.288 264.524 229.336 264.511 229.386C264.491 229.469 264.598 229.521 264.65 229.453C267.503 225.766 270.549 222.189 273.798 218.749C274.679 217.817 274.672 216.351 273.765 215.445C272.721 214.4 272.893 212.661 274.122 211.842L275.212 211.115C275.773 210.741 276.432 210.542 277.106 210.542H278.808C281.023 210.542 283.153 209.718 284.845 208.289C299.802 195.652 318.25 185.746 340.781 180.385C344.034 179.611 346.727 177.152 347.393 173.876C349.767 162.197 351.152 144.011 343.285 105.661C341.554 97.2194 339.303 89.6228 336.644 82.7879C336.182 81.6004 334.656 81.2968 333.755 82.1977L332.041 83.9112C331.272 84.6811 330.692 85.6195 330.347 86.6524L329.637 88.7845C329.504 89.1838 329.217 89.5138 328.841 89.702C327.786 90.2295 326.545 89.4623 326.545 88.2828V85.8618C326.545 84.5348 327.394 83.3567 328.653 82.9371L329.404 82.6868C330.35 82.3712 331.153 81.7273 331.667 80.8714L332.214 79.9595C333.406 77.9716 333.56 75.5152 332.532 73.4369C316.857 41.7251 291.688 29.3907 272.624 24.905C253.012 20.2904 233.688 33.5574 226.478 40.7677C218.787 47.4974 203.982 69.3206 206.289 102.777C207.731 123.686 209.173 138.107 210.255 148.923C211.336 159.738 212.057 166.948 212.057 173.438C212.057 186.416 209.173 222.468 196.195 228.236C185.812 232.851 176.487 213.816 173.122 203.721C170.718 192.665 165.911 163.343 165.911 134.502C165.911 105.661 160.143 77.3 157.259 66.7249C150.573 42.2098 119.477 0.389957 83.7136 0.389957ZM47.5051 40.3778C47.1068 40.3778 46.784 40.055 46.784 39.6568V35.3306C46.784 34.9324 47.1068 34.6096 47.5051 34.6096C47.9033 34.6096 48.2261 34.9324 48.2261 35.3306C48.2261 35.7288 48.5489 36.0516 48.9471 36.0516C49.3453 36.0516 49.6682 36.3744 49.6682 36.7727V42.5409C49.6682 42.9391 49.3453 43.262 48.9471 43.262C48.5489 43.262 48.2261 42.9391 48.2261 42.5409V41.0989C48.2261 40.7006 47.9033 40.3778 47.5051 40.3778ZM57.5995 36.0516C57.9977 36.0516 58.3205 35.7288 58.3205 35.3306C58.3205 34.9324 58.6434 34.6096 59.0416 34.6096C59.4398 34.6096 59.7626 34.9324 59.7626 35.3306V36.0516C59.7626 36.8481 59.117 37.4937 58.3205 37.4937H57.5995C57.2013 37.4937 56.8785 37.1709 56.8785 36.7727C56.8785 36.3744 57.2013 36.0516 57.5995 36.0516ZM127.54 43.262C126.743 43.262 126.098 43.9076 126.098 44.704V46.1949C123.22 42.0775 120.15 38.6105 117.079 36.0516C116.699 35.7346 116.295 35.3934 115.868 35.0331C111.027 30.9419 103.283 24.3984 94.0059 23.073C87.757 23.073 76.4127 25.6688 81.0274 36.0516C83.5223 41.6652 89.2546 44.8508 95.6571 48.4088C104.057 53.0769 113.611 58.3862 118.521 70.6612C125.443 87.966 131.98 91.3308 134.384 90.8501C137.268 90.3694 142.171 86.2355 138.71 73.5453C136.675 66.0823 133.682 58.9385 130.182 52.7145C130.335 52.4856 130.424 52.2104 130.424 51.9143V49.7512C130.424 49.353 130.101 49.0302 129.703 49.0302C129.305 49.0302 128.982 48.7074 128.982 48.3092V44.704C128.982 43.9076 128.336 43.262 127.54 43.262ZM127.54 48.338V51.9143C127.54 52.7108 128.185 53.3564 128.982 53.3564C129.482 53.3564 129.923 53.1015 130.182 52.7145C129.329 51.1982 128.446 49.7365 127.54 48.338ZM127.08 47.6369C126.999 47.6054 126.911 47.5881 126.819 47.5881C126.42 47.5881 126.098 47.2653 126.098 46.8671V46.1949C126.428 46.6671 126.755 47.1479 127.08 47.6369ZM127.08 47.6369C127.234 47.8688 127.387 48.1025 127.54 48.338V48.3092C127.54 48.003 127.349 47.7415 127.08 47.6369ZM102.304 62.0088C101.905 62.0088 101.582 61.686 101.582 61.2878V59.4233C101.582 58.781 102.359 58.4593 102.813 58.9135C102.949 59.0487 103.025 59.2321 103.025 59.4233V61.2878C103.025 61.686 102.702 62.0088 102.304 62.0088ZM94.3722 61.2878C94.3722 60.8895 94.695 60.5667 95.0932 60.5667C95.4914 60.5667 95.8142 60.8895 95.8142 61.2878V65.614C95.8142 66.0122 96.1371 66.335 96.5353 66.335C96.9335 66.335 97.2563 66.6578 97.2563 67.056V68.4981C97.2563 68.8963 97.5791 69.2191 97.9773 69.2191C98.3755 69.2191 98.6984 69.5419 98.6984 69.9402V72.1032C98.6984 72.8997 98.0527 73.5453 97.2563 73.5453H96.5353C96.1371 73.5453 95.8142 73.8681 95.8142 74.2663C95.8142 74.6646 95.4914 74.9874 95.0932 74.9874C94.695 74.9874 94.3722 74.6646 94.3722 74.2663V72.8243C94.3722 72.4261 94.695 72.1032 95.0932 72.1032C95.4914 72.1032 95.8142 71.7804 95.8142 71.3822V68.4981C95.8142 68.0999 95.4914 67.7771 95.0932 67.7771C94.695 67.7771 94.3722 67.4542 94.3722 67.056V61.2878ZM78.5095 74.9874C77.713 74.9874 77.0674 74.3417 77.0674 73.5453V71.3822C77.0674 70.984 77.3902 70.6612 77.7884 70.6612C78.1866 70.6612 78.5095 70.984 78.5095 71.3822C78.5095 71.7804 78.8323 72.1032 79.2305 72.1032C79.6287 72.1032 79.9515 72.4261 79.9515 72.8243C79.9515 73.2225 80.2743 73.5453 80.6726 73.5453C81.0708 73.5453 81.3936 73.8681 81.3936 74.2663C81.3936 74.6646 81.7164 74.9874 82.1146 74.9874C82.5128 74.9874 82.8356 75.3102 82.8356 75.7084V78.5925C82.8356 78.9908 83.1585 79.3136 83.5567 79.3136C83.9549 79.3136 84.2777 79.6364 84.2777 80.0346C84.2777 80.4328 83.9549 80.7556 83.5567 80.7556H82.8356C82.0392 80.7556 81.3936 80.11 81.3936 79.3136V77.1505C81.3936 76.7523 81.0708 76.4294 80.6726 76.4294C80.2743 76.4294 79.9515 76.1066 79.9515 75.7084C79.9515 75.3102 79.6287 74.9874 79.2305 74.9874H78.5095ZM89.3249 86.5239C88.9267 86.5239 88.6039 86.8467 88.6039 87.2449C88.6039 87.6432 88.9267 87.966 89.3249 87.966H92.2091C92.6073 87.966 92.9301 87.6432 92.9301 87.2449C92.9301 86.8467 92.6073 86.5239 92.2091 86.5239H89.3249ZM95.2577 86.1149C94.6863 85.4483 94.3722 84.5992 94.3722 83.7212V83.2174C94.3722 82.5645 94.6315 81.9383 95.0932 81.4767C95.5549 81.015 96.181 80.7556 96.8339 80.7556H97.6161C99.1771 80.7556 100.618 81.5921 101.393 82.9474L105.458 90.0619C105.753 90.5784 105.909 91.163 105.909 91.7579V93.2008C105.909 94.2918 105.024 95.1763 103.933 95.1763C103.356 95.1763 102.809 94.9243 102.433 94.4864L95.2577 86.1149ZM66.9359 90.3571C67.8192 90.6515 68.415 91.4781 68.415 92.4092V94.1566C68.415 94.7198 67.9585 95.1763 67.3953 95.1763C67.1249 95.1763 66.8655 95.0689 66.6743 94.8776L64.5577 92.761C64.2575 92.4608 64.0888 92.0536 64.0888 91.6291C64.0888 90.5364 65.1593 89.7649 66.1959 90.1104L66.9359 90.3571ZM59.0416 96.6184C59.4398 96.6184 59.7626 96.2955 59.7626 95.8973C59.7626 95.4991 59.4398 95.1763 59.0416 95.1763H57.5995C57.2013 95.1763 56.8785 95.4991 56.8785 95.8973C56.8785 96.2955 57.2013 96.6184 57.5995 96.6184H59.0416ZM52.5523 93.7342C53.3487 93.7342 53.9944 94.3799 53.9944 95.1763V98.0604C53.9944 98.8569 53.3487 99.5025 52.5523 99.5025C51.7559 99.5025 51.1102 98.8569 51.1102 98.0604V95.1763C51.1102 94.3799 51.7559 93.7342 52.5523 93.7342ZM47.5051 115.365C47.1068 115.365 46.784 115.042 46.784 114.644V111.76C46.784 111.362 47.1068 111.039 47.5051 111.039C47.9033 111.039 48.2261 111.362 48.2261 111.76V114.644C48.2261 115.042 47.9033 115.365 47.5051 115.365ZM55.4364 118.97C55.4364 118.572 55.7592 118.249 56.1574 118.249C56.5557 118.249 56.8785 118.572 56.8785 118.97C56.8785 119.369 56.5557 119.691 56.1574 119.691C55.7592 119.691 55.4364 119.369 55.4364 118.97ZM68.415 124.739C68.415 124.34 68.0922 124.018 67.694 124.018C67.2958 124.018 66.9729 124.34 66.9729 124.739V127.623C66.9729 128.021 67.2958 128.344 67.694 128.344C68.0922 128.344 68.415 128.021 68.415 127.623V124.739ZM52.8509 144.505C52.6597 144.314 52.5523 144.055 52.5523 143.784C52.5523 143.221 53.0088 142.764 53.572 142.764H54.5917C55.1326 142.764 55.6513 142.979 56.0337 143.362L56.5798 143.908C56.771 144.099 56.8785 144.358 56.8785 144.629C56.8785 145.192 56.4219 145.649 55.8588 145.649H54.8391C54.2982 145.649 53.7795 145.434 53.397 145.051L52.8509 144.505ZM75.3267 145.947C75.5179 145.756 75.7773 145.649 76.0477 145.649C76.6109 145.649 77.0674 146.105 77.0674 146.668V149.975C77.0674 150.771 76.4218 151.417 75.6253 151.417C74.8289 151.417 74.1833 150.771 74.1833 149.975V148.11C74.1833 147.457 74.4426 146.831 74.9043 146.37L75.3267 145.947ZM64.0888 154.301C64.0888 153.505 64.7344 152.859 65.5309 152.859H66.7625C67.7753 152.859 68.7011 153.431 69.154 154.337L69.5006 155.03C69.735 155.499 69.8571 156.016 69.8571 156.54C69.8571 157.819 69.1344 158.988 67.9904 159.56L67.7701 159.671C67.2459 159.933 66.6678 160.069 66.0817 160.069H62.7355C60.9883 160.069 59.4653 161.258 59.0416 162.953L58.6703 164.438C58.4647 165.261 57.726 165.837 56.8785 165.837C56.031 165.837 55.2922 165.261 55.0867 164.438L54.4496 161.89C54.1558 160.715 54.2921 159.474 54.8338 158.39C55.2287 157.601 55.8229 156.927 56.5576 156.438L59.4837 154.487C59.6656 154.366 59.8792 154.301 60.0978 154.301H60.4836C60.8819 154.301 61.2047 154.624 61.2047 155.022C61.2047 155.42 61.5275 155.743 61.9257 155.743H62.6467C63.4432 155.743 64.0888 155.097 64.0888 154.301ZM41.0158 160.368C41.0158 160.177 40.9398 159.993 40.8046 159.858C40.3504 159.404 39.5737 159.726 39.5737 160.368V161.213C39.5737 161.404 39.6497 161.587 39.7849 161.722C40.2391 162.177 41.0158 161.855 41.0158 161.213V160.368ZM17.9427 163.845C17.9427 163.352 18.3417 162.953 18.834 162.953C19.1715 162.953 19.4802 163.144 19.6311 163.446L20.7447 165.673C20.7987 165.781 20.8269 165.9 20.8269 166.021C20.8269 166.599 20.2184 166.975 19.7013 166.717L18.7399 166.236C18.2513 165.992 17.9427 165.492 17.9427 164.946V163.845ZM17.9427 130.507C17.9427 130.109 17.6199 129.786 17.2217 129.786C16.8235 129.786 16.5007 130.109 16.5007 130.507V133.391C16.5007 133.789 16.8235 134.112 17.2217 134.112C17.6199 134.112 17.9427 133.789 17.9427 133.391V130.507ZM14.3376 80.7556C13.9393 80.7556 13.6165 81.0785 13.6165 81.4767C13.6165 81.8749 13.9393 82.1977 14.3376 82.1977C14.7358 82.1977 15.0586 81.8749 15.0586 81.4767C15.0586 81.0785 14.7358 80.7556 14.3376 80.7556ZM9.29033 58.4036C9.29033 59.5983 8.32188 60.5667 7.12723 60.5667H5.68517C5.28695 60.5667 4.96413 60.2439 4.96413 59.8457C4.96413 59.4475 5.28695 59.1247 5.68517 59.1247C6.08338 59.1247 6.4062 58.8018 6.4062 58.4036V54.7985C6.4062 54.002 7.05183 53.3564 7.84827 53.3564C8.6447 53.3564 9.29033 54.002 9.29033 54.7985V58.4036ZM155.777 76.4294C155.365 76.4294 155.074 76.8334 155.204 77.2245C155.421 77.8745 156.381 77.7187 156.381 77.0335C156.381 76.6999 156.111 76.4294 155.777 76.4294ZM150.613 106.883C150.613 106.122 151.638 105.88 151.979 106.561C152.029 106.661 152.055 106.771 152.055 106.883V108.876C152.055 109.274 151.732 109.597 151.334 109.597C150.936 109.597 150.613 109.274 150.613 108.876V106.883ZM122.721 112.024C123.023 111.42 123.64 111.039 124.315 111.039H124.422C125.347 111.039 126.098 111.789 126.098 112.715C126.098 113.437 125.636 114.077 124.952 114.305L122.941 114.975C122.365 115.167 121.771 114.739 121.771 114.133C121.771 113.995 121.804 113.859 121.865 113.736L122.721 112.024ZM163.46 132.801C162.858 133.404 161.832 133.162 161.563 132.354L161.373 131.783C161.045 130.8 161.777 129.786 162.812 129.786H163.591C164.681 129.786 164.141 131.503 163.672 132.503C163.62 132.615 163.547 132.714 163.46 132.801ZM153.497 135.853C153.497 135.21 154.273 134.889 154.728 135.343C154.863 135.478 154.939 135.662 154.939 135.853V139.159C154.939 139.557 154.616 139.88 154.218 139.88C153.82 139.88 153.497 139.557 153.497 139.159V135.853ZM126.098 149.254C126.098 148.856 126.42 148.533 126.819 148.533C127.217 148.533 127.54 148.856 127.54 149.254V149.676C127.54 149.867 127.464 150.051 127.328 150.186C126.874 150.64 126.098 150.318 126.098 149.676V149.254ZM162.149 148.03C162.149 147.511 161.729 147.091 161.21 147.091C160.896 147.091 160.603 147.248 160.428 147.509L158.195 150.859C157.952 151.223 157.823 151.65 157.823 152.087V153.58C157.823 153.978 158.146 154.301 158.544 154.301C158.942 154.301 159.265 154.624 159.265 155.022C159.265 155.42 158.942 155.743 158.544 155.743C158.146 155.743 157.823 156.066 157.823 156.464V163.27C157.823 164.45 159.064 165.217 160.119 164.689C160.496 164.501 160.782 164.171 160.915 163.772L161.743 161.287C162.012 160.48 162.149 159.636 162.149 158.786V148.03ZM154.939 165.116C154.939 164.718 155.262 164.395 155.66 164.395C156.058 164.395 156.381 164.718 156.381 165.116C156.381 165.515 156.058 165.837 155.66 165.837C155.262 165.837 154.939 165.515 154.939 165.116ZM133.308 166.797C133.308 165.646 131.814 165.194 131.176 166.152L130.602 167.012C130.486 167.186 130.424 167.391 130.424 167.601C130.424 168.547 131.567 169.02 132.236 168.352L132.967 167.62C133.185 167.402 133.308 167.106 133.308 166.797ZM122.446 173.815C122.892 173.369 122.962 172.67 122.611 172.145L120.083 168.352C119.07 166.832 116.735 167.237 116.292 169.008C116.113 169.725 116.323 170.483 116.845 171.006L118.468 172.629C118.746 172.906 119.066 173.137 119.417 173.313L120.918 174.063C121.428 174.318 122.043 174.218 122.446 173.815ZM103.746 181.7C104.144 181.7 104.467 182.023 104.467 182.421C104.467 182.819 104.144 183.142 103.746 183.142H103.323C102.681 183.142 102.359 182.366 102.813 181.911C102.949 181.776 103.132 181.7 103.323 181.7H103.746ZM121.771 192.8C121.771 193.603 120.876 194.082 120.208 193.637C119.381 193.085 119.771 191.795 120.766 191.795C121.321 191.795 121.771 192.245 121.771 192.8ZM151.217 190.353C150.856 190.353 150.536 190.583 150.422 190.926L150.346 191.154C150.053 192.032 151.143 192.706 151.798 192.052C151.962 191.887 152.055 191.664 152.055 191.431V191.191C152.055 190.728 151.68 190.353 151.217 190.353ZM157.224 198.162C158.228 197.158 159.921 197.433 160.556 198.703C160.656 198.903 160.788 199.086 160.946 199.244L161.882 200.18C163.006 201.304 163.853 202.674 164.356 204.182L164.99 206.087C165.019 206.172 165.054 206.256 165.094 206.337L165.583 207.315C165.993 208.135 165.397 209.099 164.48 209.099C163.949 209.099 163.478 208.76 163.31 208.256L162.676 206.352C162.339 205.341 161.614 204.506 160.661 204.029L160.202 203.799C159.586 203.491 158.907 203.331 158.218 203.331H156.797C156.53 203.331 156.275 203.437 156.087 203.625C155.56 204.153 154.661 203.941 154.425 203.233L154 201.957C153.711 201.09 154.103 200.144 154.92 199.735L155.999 199.196C156.252 199.069 156.483 198.903 156.683 198.703L157.224 198.162ZM151.334 204.773C150.936 204.773 150.613 205.096 150.613 205.494V208.378C150.613 208.777 150.936 209.099 151.334 209.099C151.732 209.099 152.055 208.777 152.055 208.378V205.494C152.055 205.096 151.732 204.773 151.334 204.773ZM146.287 221.233C146.287 219.949 147.84 219.305 148.748 220.214C149.019 220.484 149.171 220.851 149.171 221.233V222.629C149.171 223.701 148.043 224.398 147.084 223.919C146.595 223.674 146.287 223.175 146.287 222.629V221.233ZM117.151 223.52C116.624 223.52 116.281 224.075 116.517 224.547L116.915 225.344C117.176 225.866 117.871 225.978 118.283 225.566C118.617 225.233 118.617 224.692 118.283 224.358L117.653 223.728C117.52 223.595 117.339 223.52 117.151 223.52ZM102.421 211.38C102.781 211.74 102.871 212.291 102.643 212.748L102.187 213.66C101.853 214.327 101.042 214.597 100.374 214.264C99.5499 213.851 99.3716 212.752 100.023 212.101L100.744 211.38C101.207 210.917 101.958 210.917 102.421 211.38ZM114.561 248.035C113.765 248.035 113.119 248.681 113.119 249.477C113.119 250.274 113.765 250.919 114.561 250.919C115.358 250.919 116.003 250.274 116.003 249.477C116.003 248.681 115.358 248.035 114.561 248.035ZM105.568 258.68C104.96 258.376 104.713 257.636 105.017 257.028L105.662 255.738C105.813 255.436 106.122 255.246 106.46 255.246C106.952 255.246 107.351 255.645 107.351 256.137V257.579C107.351 258.494 106.387 259.09 105.568 258.68ZM97.0813 263.898C96.27 263.898 95.1665 264.153 95.1773 264.964C95.1802 265.183 95.3481 265.34 95.8142 265.34H99.4194C99.8176 265.34 100.14 265.017 100.14 264.619C100.14 264.221 99.8176 263.898 99.4194 263.898H97.0813ZM105.748 308.602C105.275 308.602 105.038 309.174 105.373 309.508L107.798 311.934C108.392 312.527 108.539 313.435 108.164 314.186L107.45 315.614C107.384 315.746 107.327 315.883 107.281 316.023C106.606 318.048 108.113 320.138 110.247 320.138H110.351C111.2 320.138 112.043 319.816 112.491 319.095C112.83 318.547 113.119 317.886 113.119 317.254C113.119 316.462 112.213 314.719 111.334 313.238C110.637 312.064 109.65 311.096 108.514 310.339L106.042 308.691C105.955 308.633 105.853 308.602 105.748 308.602ZM116.517 308.187C116.281 307.715 116.624 307.16 117.151 307.16C117.339 307.16 117.52 307.235 117.653 307.368L119.881 309.596C120.168 309.883 120.329 310.272 120.329 310.678V312.459C120.329 313.164 119.477 313.518 118.978 313.019C118.918 312.959 118.868 312.889 118.83 312.813L116.517 308.187ZM126.098 306.439C126.098 306.041 125.775 305.718 125.377 305.718C124.978 305.718 124.656 306.041 124.656 306.439V307.881C124.656 308.279 124.978 308.602 125.377 308.602C125.775 308.602 126.098 308.279 126.098 307.881V306.439ZM115.872 333.249C115.27 333.851 115.512 334.876 116.319 335.145L116.89 335.335C117.873 335.663 118.887 334.932 118.887 333.896V330.233C118.887 329.436 119.533 328.791 120.329 328.791C121.126 328.791 121.771 329.436 121.771 330.233C121.771 331.029 122.417 331.675 123.213 331.675C124.01 331.675 124.656 331.029 124.656 330.233V329.512C124.656 329.114 124.978 328.791 125.377 328.791C125.775 328.791 126.098 328.468 126.098 328.07V326.277C126.098 325.195 125.405 324.234 124.379 323.892L122.566 323.288C122.04 323.112 121.488 323.023 120.933 323.023H120.765C119.541 323.023 118.344 323.385 117.325 324.064L115.816 325.07C115.032 325.593 114.561 326.473 114.561 327.415V329.131C114.561 329.74 115.054 330.233 115.663 330.233C116.482 330.233 117.014 331.095 116.648 331.827L116.086 332.951C116.031 333.061 115.959 333.161 115.872 333.249ZM126.66 332.801C126.402 332.283 126.778 331.675 127.356 331.675C127.477 331.675 127.596 331.703 127.704 331.757L128.946 332.378C129.852 332.831 130.424 333.757 130.424 334.77V336.552C130.424 337.044 130.025 337.443 129.533 337.443C129.195 337.443 128.886 337.253 128.735 336.951L126.66 332.801ZM127.88 314.37C126.896 314.37 126.098 315.168 126.098 316.153V316.206C126.098 317.431 127.298 318.296 128.46 317.909C129.497 317.563 129.987 316.38 129.498 315.403L129.474 315.356C129.172 314.752 128.555 314.37 127.88 314.37ZM133.512 311.472C133.404 310.718 133.989 310.044 134.75 310.044C135.511 310.044 136.096 310.718 135.988 311.472C135.784 312.903 133.716 312.903 133.512 311.472ZM135.471 305.718C135.073 305.718 134.75 306.041 134.75 306.439C134.75 306.837 135.073 307.16 135.471 307.16H136.913C137.311 307.16 137.634 306.837 137.634 306.439C137.634 306.041 137.311 305.718 136.913 305.718H135.471ZM139.076 307.978C139.076 307.454 139.284 306.952 139.655 306.581C140.184 306.052 140.967 305.867 141.677 306.104L144.074 306.903C144.584 307.073 145.119 307.16 145.656 307.16H146.263C147.201 307.16 148.101 307.533 148.765 308.196L148.811 308.243C149.049 308.481 149.324 308.679 149.625 308.829C151.019 309.526 151.689 311.142 151.196 312.621L150.804 313.797C150.677 314.177 150.613 314.574 150.613 314.974V317.924C150.613 318.351 150.267 318.696 149.84 318.696C149.456 318.696 149.13 318.979 149.076 319.359L147.857 327.891C147.774 328.475 147.503 329.016 147.086 329.434C146.574 329.945 145.88 330.233 145.157 330.233H142.852C142.265 330.233 141.687 330.369 141.163 330.632L140.943 330.742C139.799 331.314 139.076 332.483 139.076 333.762C139.076 334.286 139.198 334.803 139.433 335.272L140.419 337.245C140.485 337.377 140.542 337.514 140.589 337.654L141.43 340.179C141.691 340.962 141.109 341.769 140.284 341.769C139.617 341.769 139.076 341.229 139.076 340.561V339.891C139.076 339.263 138.762 338.676 138.24 338.328L135.16 336.274C134.887 336.093 134.633 335.884 134.402 335.653C132.887 334.138 132.512 331.825 133.47 329.91L133.838 329.173C134.43 327.989 135.39 327.029 136.574 326.437L137.634 325.907L140.674 323.88C141.53 323.31 142.326 322.656 143.053 321.93L144.504 320.478C144.73 320.253 144.917 319.993 145.059 319.708C145.752 318.324 145.261 316.639 143.934 315.843L141.812 314.57C140.115 313.551 139.076 311.717 139.076 309.738V307.978ZM154.939 292.739C153.557 292.739 152.613 294.134 153.126 295.417L153.332 295.933C154.284 298.313 157.823 297.632 157.823 295.068C157.823 293.782 156.78 292.739 155.494 292.739H154.939ZM163.825 299.95C162.9 299.95 162.149 299.199 162.149 298.273V297.435C162.149 296.435 162.961 295.623 163.961 295.623C165.198 295.623 166.072 296.835 165.68 298.008L165.415 298.803C165.187 299.488 164.547 299.95 163.825 299.95ZM159.265 321.078C159.265 321.392 159.108 321.685 158.847 321.859L155.775 323.907C155.253 324.255 154.939 324.842 154.939 325.47C154.939 326.508 155.78 327.349 156.818 327.349H157.998C158.809 327.349 159.587 327.026 160.161 326.453L161.253 325.361C161.827 324.787 162.149 324.009 162.149 323.198V321.581C162.149 320.784 161.504 320.138 160.707 320.138H160.204C159.686 320.138 159.265 320.559 159.265 321.078ZM157.822 349.029C157.697 351.416 155.016 346.183 154.676 343.817C154.507 342.643 154.243 341.516 153.842 340.8C153.658 340.471 153.497 340.116 153.497 339.74C153.497 338.685 154.614 337.988 155.605 338.351C156.417 338.648 157.25 338.885 157.823 338.885C159.265 338.885 159.265 343.211 159.265 344.654C159.265 345.375 158.905 346.096 158.544 346.817C158.184 347.538 157.823 348.259 157.823 348.98L157.823 348.995L157.822 349.029ZM150.953 346.096C150.134 346.096 149.602 346.957 149.968 347.69L150.366 348.487C150.517 348.789 150.826 348.98 151.164 348.98C151.656 348.98 152.055 348.581 152.055 348.089V347.197C152.055 346.589 151.562 346.096 150.953 346.096ZM136.608 365.674C136.342 365.142 136.298 364.525 136.486 363.961C137.013 362.378 139.022 361.904 140.201 363.084L140.255 363.138C140.429 363.312 140.631 363.457 140.851 363.567L141.118 363.7C142.518 364.4 143.402 365.831 143.402 367.396V371.754C143.402 371.945 143.326 372.129 143.191 372.264C142.737 372.718 141.96 372.396 141.96 371.754V371.134C141.96 370.807 141.797 370.502 141.525 370.32L138.682 368.425C137.995 367.967 137.44 367.338 137.071 366.6L136.608 365.674ZM167.917 346.987C167.917 346.495 168.317 346.096 168.809 346.096C169.146 346.096 169.455 346.286 169.606 346.588L170.004 347.385C170.371 348.118 169.838 348.98 169.019 348.98C168.411 348.98 167.917 348.487 167.917 347.878V346.987ZM194.596 340.327C194.197 340.327 193.875 340.65 193.875 341.048C193.875 341.447 194.197 341.769 194.596 341.769H196.038C196.436 341.769 196.759 341.447 196.759 341.048C196.759 340.65 196.436 340.327 196.038 340.327H194.596ZM202.527 364.842V363.811C202.527 361.701 203.302 359.074 205.411 359.074C206.565 359.074 205.892 360.997 205.411 361.958L204.907 362.967C204.286 364.209 202.527 366.231 202.527 364.842ZM200.703 328.113C200.931 327.657 200.842 327.105 200.481 326.745C200.018 326.282 199.268 326.282 198.805 326.745L198.084 327.466C197.432 328.118 197.61 329.217 198.435 329.629C199.102 329.962 199.913 329.692 200.247 329.025L200.703 328.113ZM173.686 310.386C173.686 310.16 173.649 309.934 173.578 309.719L173.385 309.141C172.915 307.731 174.257 306.389 175.667 306.859C176.232 307.047 176.668 307.502 176.831 308.075L179.154 316.203C179.353 316.901 179.454 317.622 179.454 318.348C179.454 320.418 178.632 322.403 177.168 323.867L175.664 325.371C175.307 325.727 174.917 326.048 174.497 326.327L172.367 327.747C171.399 328.393 170.159 328.47 169.119 327.949C168.35 327.565 167.765 326.89 167.493 326.075L166.773 323.916C166.591 323.368 166.733 322.765 167.141 322.357C167.605 321.893 168.313 321.778 168.9 322.072L169.27 322.257C170.116 322.68 171.145 322.337 171.568 321.491C171.954 320.718 171.704 319.779 170.986 319.3L168.788 317.835C168.244 317.472 167.917 316.862 167.917 316.208V313.344C167.917 312.658 168.746 312.315 169.231 312.8C169.316 312.884 169.419 312.948 169.532 312.986L170.011 313.145C171.819 313.748 173.686 312.402 173.686 310.497V310.386ZM180.406 303.786C179.88 303.26 179.028 303.26 178.502 303.786C178.194 304.093 178.054 304.53 178.126 304.959L178.988 310.131C179.287 311.926 180.267 313.538 181.723 314.63L183.932 316.287C184.723 316.88 185.781 316.975 186.664 316.533C187.548 316.091 188.106 315.188 188.106 314.2V313.222C188.106 312.111 187.665 311.045 186.879 310.259L180.406 303.786ZM190.44 317.254C189.947 317.254 189.548 316.855 189.548 316.363C189.548 316.025 189.739 315.717 190.041 315.566L191.94 314.617C192.264 314.455 192.621 314.37 192.983 314.37H193.875C194.671 314.37 195.317 315.016 195.317 315.812C195.317 316.609 194.671 317.254 193.875 317.254H190.44ZM192.983 311.486C193.476 311.486 193.875 311.087 193.875 310.595V309.153C193.875 308.237 192.911 307.642 192.092 308.051C191.484 308.355 191.237 309.095 191.541 309.704L192.186 310.993C192.337 311.295 192.646 311.486 192.983 311.486ZM198.264 313.054C198.222 312.97 198.189 312.883 198.167 312.792L197.422 309.813C197.048 308.316 197.889 306.783 199.353 306.295L200.118 306.04C200.71 305.843 201.364 305.997 201.806 306.439C202.248 306.881 202.402 307.534 202.205 308.127L200.618 312.886C200.258 313.966 198.773 314.072 198.264 313.054ZM209.737 310.044C208.882 310.044 208.503 307.932 208.363 306.056C208.29 305.075 207.497 304.276 206.513 304.276C205.838 304.276 205.22 304.657 204.919 305.261L203.324 308.45C202.8 309.498 202.527 310.654 202.527 311.827V321.158C202.527 321.391 202.716 321.581 202.949 321.581C203.326 321.581 203.561 321.075 203.439 320.719C203.241 320.14 203.265 319.4 203.969 318.696C204.52 318.146 204.86 317.595 205.151 317.124C205.622 316.363 205.962 315.812 206.853 315.812C207.75 315.812 208.705 317.555 209.311 319.008C209.589 319.674 210.224 320.138 210.945 320.138C211.871 320.138 212.622 319.388 212.622 318.462V317.805C212.622 317.443 212.537 317.086 212.375 316.762L211.9 315.812C211.426 314.864 211.208 313.815 211.081 312.762C210.921 311.431 210.537 310.044 209.737 310.044ZM213.333 307.199C212.968 308.659 211.253 309.457 210.273 308.315C209.952 307.941 209.737 307.545 209.737 307.16C209.737 305.567 211.029 304.276 212.622 304.276C213.354 304.276 213.891 304.964 213.714 305.675L213.333 307.199ZM198.364 302.723C198.678 302.834 199.03 302.834 199.643 302.834C200.131 302.834 200.636 302.49 201.093 302.02C202.221 300.86 203.389 299.662 204.924 299.15L206.015 298.787C206.559 298.605 207.147 298.605 207.691 298.787C209.407 299.359 211.179 298.082 211.179 296.273V295.976C211.179 295.742 211.151 295.508 211.094 295.281L210.654 293.522C210.054 291.123 206.853 285.94 206.853 288.413C206.853 288.553 206.825 288.707 206.774 288.874C206.043 291.252 202.682 290.808 201.302 288.738C201.158 288.522 200.997 288.315 200.795 288.153C200.296 287.752 199.643 287.462 199.643 288.413C199.643 288.964 199.433 289.304 199.253 289.595C198.962 290.065 198.752 290.406 199.643 291.297L202.728 294.383C203.414 295.068 203.414 296.179 202.728 296.864C202.595 296.997 202.441 297.108 202.272 297.193L200.152 298.253C199.815 298.421 199.507 298.643 199.24 298.91L198.244 299.906C197.424 300.727 197.27 302.337 198.364 302.723ZM198.201 275.682C198.201 274.6 198.631 273.563 199.396 272.798L199.643 272.55C200.566 271.627 201.819 271.108 203.124 271.108H204.573C205.935 271.108 207.144 271.98 207.574 273.271L207.839 274.066C208.112 274.883 208.876 275.434 209.737 275.434H210.288C211.577 275.434 212.622 276.479 212.622 277.768C212.622 278.13 212.537 278.487 212.375 278.811L210.978 281.605C210.293 282.976 208.626 283.531 207.256 282.846C206.989 282.713 206.746 282.537 206.535 282.326L205.164 280.955C204.399 280.19 203.361 279.761 202.28 279.761C200.027 279.761 198.201 277.935 198.201 275.682ZM188.961 295.329C188.113 294.906 187.177 295.718 187.476 296.617L187.915 297.934C188.029 298.277 188.35 298.507 188.71 298.507C189.173 298.507 189.548 298.132 189.548 297.669V296.281C189.548 295.878 189.321 295.51 188.961 295.329ZM181.845 268.68C182.14 269.269 182.024 269.98 181.559 270.446L180.292 271.712C179.829 272.175 179.079 272.175 178.616 271.712C178.255 271.352 178.166 270.8 178.394 270.344L179.359 268.415C179.422 268.289 179.505 268.173 179.605 268.073C180.24 267.438 181.311 267.612 181.713 268.415L181.845 268.68ZM196.759 234.899C196.759 234.189 196.184 233.615 195.475 233.615H195.139C194.396 233.615 193.748 234.12 193.568 234.841L192.739 238.158C192.56 238.874 192.902 239.618 193.562 239.947C194.462 240.398 195.548 239.898 195.793 238.921L196.72 235.21C196.746 235.108 196.759 235.004 196.759 234.899ZM197.314 247.927C196.95 246.108 197.067 244.225 197.654 242.466L198.159 240.95C198.187 240.867 198.201 240.78 198.201 240.693C198.201 240.091 198.835 239.7 199.373 239.969L199.754 240.159C200.409 240.487 200.55 241.36 200.032 241.877L198.864 243.046C198.439 243.47 198.201 244.046 198.201 244.647V247.314C198.201 248.509 199.169 249.477 200.364 249.477C201.559 249.477 202.527 250.446 202.527 251.64V252.361C202.527 253.594 201.153 254.33 200.127 253.646L198.986 252.885C198.483 252.55 198.134 252.029 198.016 251.436L197.314 247.927ZM208.78 233.13C208.483 233.427 208.379 233.866 208.512 234.265L209.53 237.317C209.663 237.716 209.949 238.046 210.325 238.235L210.448 238.296C211.447 238.795 212.622 238.07 212.622 236.953C212.622 236.657 212.534 236.367 212.369 236.12L210.488 233.299C210.1 232.716 209.275 232.634 208.78 233.13ZM210.762 250.502C209.328 249.068 209.105 246.82 210.23 245.133L210.415 244.856C210.907 244.118 211.656 243.59 212.517 243.375C214.768 242.812 216.948 244.514 216.948 246.834V248.464C216.948 249.93 216.01 251.232 214.619 251.696C213.395 252.104 212.045 251.785 211.133 250.873L210.762 250.502ZM221.105 243.709C220.446 243.709 219.952 244.311 220.081 244.957L221.202 250.561C221.249 250.795 221.364 251.009 221.532 251.178C222.115 251.76 223.096 251.601 223.465 250.864L223.597 250.599C223.918 249.958 223.705 249.186 223.145 248.739C221.928 247.767 220.913 246.593 222.716 246.593C225.023 246.593 225.6 245.632 225.6 245.151C225.6 243.732 224.21 242.73 222.864 243.179L221.435 243.655C221.328 243.691 221.217 243.709 221.105 243.709ZM213.235 226.432C213.118 226.203 213.005 225.973 212.891 225.742C212.536 225.022 212.181 224.302 211.737 223.635L210.636 221.984C210.05 221.105 209.737 220.072 209.737 219.015V218.643C209.737 218.057 209.874 217.479 210.136 216.955L210.687 215.853C210.989 215.249 211.606 214.868 212.281 214.868C213.266 214.868 214.064 215.666 214.064 216.65V218.946C214.064 220.028 214.493 221.066 215.258 221.831L215.506 222.078C216.429 223.001 217.001 224.271 216.679 225.537C216.465 226.377 216.1 227.252 215.506 227.846C214.697 228.655 213.84 227.62 213.235 226.432ZM209.339 209.897C208.859 210.855 209.557 211.984 210.629 211.984H211.179C211.976 211.984 212.622 211.338 212.622 210.542C212.622 209.745 211.976 209.099 211.179 209.099H210.629C210.082 209.099 209.583 209.408 209.339 209.897ZM222.716 210.542C221.489 210.542 221.165 209.116 220.866 207.798C220.795 207.486 220.726 207.18 220.646 206.9L218.584 199.686C218.455 199.234 218.39 198.766 218.39 198.296V194.344C218.39 193.732 218.885 193.237 219.497 193.237C219.715 193.237 219.929 193.301 220.111 193.423L222.488 195.007C223.531 195.703 224.158 196.874 224.158 198.129V199.453C224.158 200.062 223.814 200.619 223.269 200.891C222.288 201.382 222.075 202.691 222.851 203.467L223.495 204.11C223.92 204.535 224.162 205.11 224.138 205.71C224.057 207.727 223.703 210.542 222.716 210.542ZM248.673 209.099C248.673 208.395 250.108 207.654 251.664 207.075C252.735 206.676 253.652 207.795 253.141 208.817C253.048 209.003 252.999 209.208 252.999 209.415V211.865C252.999 211.943 253.018 212.02 253.053 212.09L253.544 213.072C253.709 213.403 253.283 213.71 253.022 213.448C253.012 213.438 253.002 213.429 252.99 213.421L252.973 213.408C251.523 212.438 248.673 210.246 248.673 209.099ZM231.725 214.868C230.668 214.868 229.745 214.149 229.505 213.119C229.239 211.98 228.95 210.676 228.748 209.596C228.615 208.885 229.358 208.531 229.869 209.043C229.907 209.08 229.949 209.114 229.993 209.144L233.416 211.426C233.939 211.774 234.252 212.361 234.252 212.989C234.252 214.027 233.411 214.868 232.374 214.868H231.725ZM240.372 202.733C239.193 203.126 237.79 203.819 237.958 205.051C238.009 205.428 238.19 205.827 238.579 206.215C239.636 207.273 241.581 206.796 242.639 206.339C242.804 206.267 242.905 206.102 242.905 205.921C242.905 205.498 243.417 205.286 243.717 205.585L244.944 206.813C245.411 207.279 246.167 207.279 246.634 206.813L246.809 206.638C247.079 206.367 247.231 206 247.231 205.618V205.163C247.231 204.069 246.531 203.098 245.494 202.752L244.273 202.345C243.385 202.049 242.425 202.049 241.537 202.345L240.372 202.733ZM219.111 188.911C218.713 188.911 218.39 188.588 218.39 188.189V187.468C218.39 186.672 219.035 186.026 219.832 186.026H220.553C220.951 186.026 221.274 186.349 221.274 186.747C221.274 187.146 220.951 187.468 220.553 187.468C220.155 187.468 219.832 187.791 219.832 188.189C219.832 188.588 219.509 188.911 219.111 188.911ZM269.1 155.743C267.564 155.743 266.479 157.248 266.965 158.705L267.038 158.923C267.278 159.645 267.845 160.211 268.566 160.451L270.915 161.234C271.424 161.404 271.986 161.271 272.366 160.891C272.844 160.413 272.918 159.664 272.543 159.102L270.972 156.745C270.555 156.119 269.852 155.743 269.1 155.743ZM247.231 155.743C246.81 155.743 245.199 155.415 245.066 155.016L244.612 153.654C244.482 153.263 244.773 152.859 245.185 152.859H245.883C247.827 152.859 249.176 155.743 247.231 155.743ZM231.368 155.743C231.368 154.51 229.994 153.775 228.969 154.459L228.751 154.604C227.867 155.193 227.768 156.457 228.198 157.428C228.369 157.816 228.484 158.227 228.484 158.627L228.485 158.684L228.487 158.729C228.488 158.759 228.491 158.788 228.493 158.817C228.627 160.153 231.368 161.412 231.368 160.069V155.743ZM224.879 157.185C224.481 157.185 224.158 156.862 224.158 156.464V153.58C224.158 153.182 224.481 152.859 224.879 152.859C225.277 152.859 225.6 153.182 225.6 153.58V156.464C225.6 156.862 225.277 157.185 224.879 157.185ZM216.948 144.757C216.948 145.25 217.347 145.649 217.839 145.649H219.111C220.305 145.649 221.274 144.68 221.274 143.485V143.315C221.274 142.953 221.358 142.596 221.52 142.272L222.359 140.593C222.594 140.124 222.716 139.607 222.716 139.083C222.716 137.804 221.993 136.635 220.849 136.063L220.176 135.726C219.95 135.613 219.7 135.554 219.446 135.554H217.417C216.711 135.554 216.358 134.702 216.857 134.203C216.917 134.143 216.986 134.093 217.063 134.055L219.002 133.085C219.552 132.81 219.95 132.591 220.32 132.101C221.232 130.89 220.577 129.024 219.068 129.17C218.884 129.188 218.7 129.216 218.52 129.253C218.393 129.278 218.26 129.303 218.125 129.328C217.124 129.514 215.98 129.726 215.616 130.62C215.547 130.789 215.506 130.99 215.506 131.228C215.506 131.311 215.496 131.399 215.477 131.492C215.185 132.938 213.657 134.747 212.333 136.314C210.665 138.289 209.321 139.88 211.179 139.88C212.009 139.88 212.887 140.873 213.495 141.789C213.9 142.4 214.418 142.942 215.074 143.27L216.455 143.96C216.757 144.111 216.948 144.42 216.948 144.757ZM216.303 72.5018C215.814 72.2576 215.506 71.7582 215.506 71.212V68.6683C215.506 68.1761 215.905 67.7771 216.397 67.7771C216.734 67.7771 217.043 67.9678 217.194 68.2697L218.226 70.3327C218.334 70.5487 218.39 70.7869 218.39 71.0284V71.212C218.39 72.284 217.262 72.9812 216.303 72.5018ZM238.359 51.8043C237.25 51.2499 235.98 52.1875 236.184 53.4102L236.883 57.6019C237.042 58.5586 237.65 59.3813 238.517 59.8151L238.797 59.9549C240.684 60.8986 242.905 59.5262 242.905 57.4162C242.905 56.6634 242.606 55.9415 242.074 55.4092L238.753 52.0884C238.637 51.9731 238.504 51.8772 238.359 51.8043ZM250.958 110.659C249.375 109.278 251.557 107.496 251.557 109.597C251.557 110.749 251.327 110.981 250.958 110.659ZM240.021 124.018V123.363C240.021 121.014 242.514 120.474 241.463 122.576C240.309 124.883 240.021 124.498 240.021 124.018ZM279.323 113.923C277.934 113.923 277.105 115.472 277.876 116.628L278.118 116.991C278.597 117.71 279.536 117.959 280.309 117.573C281.155 117.15 281.498 116.121 281.075 115.275L280.879 114.885C280.585 114.295 279.982 113.923 279.323 113.923ZM312.513 125.849C311.838 125.173 310.682 125.652 310.682 126.608C310.682 127.405 311.521 127.924 312.235 127.567C312.89 127.24 313.031 126.367 312.513 125.849ZM327.987 127.371C327.987 127.07 327.867 126.782 327.655 126.57C327.109 126.024 326.188 126.173 325.842 126.864L325.653 127.242C325.349 127.851 325.596 128.59 326.204 128.895C327.023 129.304 327.987 128.709 327.987 127.793V127.371ZM328.977 156.809C327.88 157.078 326.545 156.697 326.545 155.568C326.545 154.868 327.112 154.301 327.812 154.301H327.987C328.783 154.301 329.429 154.947 329.429 155.743V157.185C329.429 156.834 329.251 156.741 328.977 156.809ZM304.914 104.638C304.914 105.01 304.661 105.334 304.3 105.424L301.581 106.104C300.624 106.343 299.827 105.35 300.268 104.467C300.464 104.076 300.864 103.829 301.301 103.829H304.104C304.551 103.829 304.914 104.191 304.914 104.638ZM289.051 84.3608C289.051 83.9626 288.728 83.6398 288.33 83.6398C287.932 83.6398 287.609 83.9626 287.609 84.3608V85.8029C287.609 86.2011 287.932 86.5239 288.33 86.5239C288.728 86.5239 289.051 86.2011 289.051 85.8029V84.3608ZM290.493 138.438C289.831 138.438 289.4 137.741 289.696 137.148C290.024 136.492 290.962 136.492 291.29 137.148C291.586 137.741 291.156 138.438 290.493 138.438ZM304.269 151.569C303.94 150.912 303.003 150.912 302.674 151.569C302.378 152.162 302.809 152.859 303.472 152.859C304.134 152.859 304.565 152.162 304.269 151.569ZM331.468 165.837C330.716 165.837 330.339 166.747 330.871 167.28C331.403 167.812 332.313 167.435 332.313 166.682C332.313 166.216 331.935 165.837 331.468 165.837ZM110.235 335.404C110.235 336.156 109.325 336.533 108.793 336.001C108.261 335.469 108.638 334.559 109.39 334.559C109.857 334.559 110.235 334.937 110.235 335.404ZM281.474 47.5882C279.071 47.1075 274.841 47.5882 277.148 53.3564C279.456 59.1247 298.298 78.8329 307.432 87.966C309.835 89.8887 315.507 93.4458 318.968 92.2922C322.429 91.1385 322.671 84.147 317.526 76.4295C313.681 70.6612 305.268 60.5667 298.779 56.2405C298.11 55.7944 297.372 55.2792 296.58 54.727C292.257 51.7098 286.35 47.5882 281.474 47.5882Z" fill="#D64517"/>
</svg>
