<?xml version="1.0" encoding="UTF-8"?><svg id="Layer_2" xmlns="http://www.w3.org/2000/svg" viewBox="0 0 215.14 145.24"><g id="Layer_1-2"><path d="m142.66,37.79c-11.07,0-18.14,2.22-22.81,5.2-.17.11-.29.26-.37.44l-32.4,71.73h-2.29L34.09,2.86H0l66.46,142.38h37.81l49.56-105.27c.28-.6-.09-1.31-.74-1.41-.27-.04-.54-.09-.82-.13-2.89-.42-6.12-.64-9.61-.64Z"/><path d="m194.56,11.94c-4.99-3.94-10.89-7.04-17.71-9.08-6.15-1.86-13.06-2.86-20.72-2.86-36.1,0-55.01,22.92-59.3,46.98h6.3c4.58-8.62,12-14.38,22.5-17.18,4.97-1.34,10.64-2.01,17.03-2.01,4.01,0,7.69.25,11.06.75,1.76.26,3.45.58,5.04.98,9.79,2.41,16.48,7.35,20.55,14.8,3.34,6.15,4.89,14.01,4.89,23.57v77.35h30.94V59.58c0-19.49-6.82-36.78-20.58-47.64Z"/></g></svg>