<svg xmlns="http://www.w3.org/2000/svg" viewBox="0 0 438.37 428.58"><defs><style>.cls-1{fill:#fceed4;}.cls-2,.cls-3{fill:none;stroke:#193f19;}.cls-2{stroke-linecap:round;stroke-linejoin:round;stroke-width:14px;}.cls-3{stroke-miterlimit:10;stroke-width:7px;}</style></defs><g id="Layer_2" data-name="Layer 2"><g id="Layer_2-2" data-name="Layer 2"><path class="cls-1" d="M203.37,42.21C264.53,21.57,335.49,46,379,93.66s61.65,114.77,59.14,179.27c-.92,23.62-4.51,47.5-14.49,68.92-15.12,32.43-44.3,57.11-77.3,70.94s-69.6,17.47-105.3,15.13c-55.49-3.64-112.17-23-149.56-64.14-38.39-42.26-51.8-102-51.95-159.13-.08-33.91,4.52-69.31,23.55-97.37C92.68,63.68,152.25,59.45,203.37,42.21Z"/><path class="cls-2" d="M132,147.84q1.49,36.15,6.12,72.07c1,7.89,2.19,15.93,5.75,23,.56,1.13,1.59,2.41,2.79,2.05.79-.24,1.2-1.09,1.52-1.85,12.48-29.88,23.83-63.71,30.88-95.31"/><path class="cls-2" d="M204.79,147.84q-5.81,52.33-6.9,105.07c4-24.23,9.11-48.35,17.15-71.56,4.09-11.82,9.48-24.07,19.89-31,3-2,7.23-3.4,10-1.12,2.61,2.14,2.35,6.15,1.82,9.48-2.09,13.26-4.58,26.72-2.78,40s8.77,26.73,20.9,32.49a30.43,30.43,0,0,0,25.7,0"/><path class="cls-3" d="M167.31,10.87C228.48-9.76,299.44,14.66,343,62.33S404.61,177.1,402.09,241.6c-.92,23.61-4.51,47.49-14.49,68.91-15.11,32.44-44.29,57.12-77.29,70.95s-69.6,17.47-105.3,15.12c-55.49-3.64-112.17-23-149.56-64.13-38.39-42.26-51.8-102-51.95-159.13C3.41,139.41,8,104,27.05,76,56.63,32.35,116.2,28.11,167.31,10.87Z"/></g></g></svg>