<?xml version="1.0" encoding="utf-8"?>
<!-- Generator: Adobe Illustrator 27.0.1, SVG Export Plug-In . SVG Version: 6.00 Build 0)  -->
<svg version="1.1" id="Layer_1" xmlns="http://www.w3.org/2000/svg" xmlns:xlink="http://www.w3.org/1999/xlink" x="0px" y="0px"
	 viewBox="0 0 438.4 428.6" style="enable-background:new 0 0 438.4 428.6;" xml:space="preserve">
<style type="text/css">
	.st0{fill:#FCEED4;}
	.st1{fill:none;stroke:#193F19;stroke-width:14;stroke-linecap:round;stroke-linejoin:round;}
	.st2{fill:none;stroke:#193F19;stroke-width:7;stroke-miterlimit:10;}
</style>
<g id="Layer_2_00000119083271415816564770000000816120734703550621_">
	<g id="Layer_2-2">
		<path class="st0" d="M203.4,42.2C264.5,21.6,335.5,46,379,93.7s61.6,114.8,59.1,179.3c-0.9,23.6-4.5,47.5-14.5,68.9
			c-15.1,32.4-44.3,57.1-77.3,70.9s-69.6,17.5-105.3,15.1c-55.5-3.6-112.2-23-149.6-64.1c-38.4-42.3-51.8-102-52-159.1
			c-0.1-33.9,4.5-69.3,23.5-97.4C92.7,63.7,152.2,59.5,203.4,42.2z"/>
		<path class="st1" d="M132,147.8c1,24.1,3,48.1,6.1,72.1c1,7.9,2.2,15.9,5.8,23c0.6,1.1,1.6,2.4,2.8,2.1c0.8-0.2,1.2-1.1,1.5-1.9
			c12.5-29.9,23.8-63.7,30.9-95.3"/>
		<path class="st1" d="M204.8,147.8c-3.9,34.9-6.2,69.9-6.9,105.1c4-24.2,9.1-48.4,17.1-71.6c4.1-11.8,9.5-24.1,19.9-31
			c3-2,7.2-3.4,10-1.1c2.6,2.1,2.4,6.1,1.8,9.5c-2.1,13.3-4.6,26.7-2.8,40s8.8,26.7,20.9,32.5c8.1,3.8,17.6,3.8,25.7,0"/>
		<path class="st2" d="M167.3,10.9C228.5-9.8,299.4,14.7,343,62.3s61.6,114.8,59.1,179.3c-0.9,23.6-4.5,47.5-14.5,68.9
			c-15.1,32.4-44.3,57.1-77.3,71s-69.6,17.5-105.3,15.1c-55.5-3.6-112.2-23-149.6-64.1c-38.4-42.3-51.8-102-52-159.1
			C3.4,139.4,8,104,27,76C56.6,32.3,116.2,28.1,167.3,10.9z"/>
	</g>
</g>
</svg>
