<svg width="34" height="18" viewBox="0 0 34 18" fill="none" xmlns="http://www.w3.org/2000/svg">
<path d="M31.64 0.403558L16.9985 14.7494L2.35696 0.403558C2.09536 0.146728 1.74419 0.00294433 1.37851 0.00294433C1.01284 0.00294433 0.661665 0.146728 0.400069 0.403558C0.273404 0.528302 0.172777 0.677194 0.10408 0.841518C0.0353842 1.00584 0 1.18229 0 1.36053C0 1.53878 0.0353842 1.71523 0.10408 1.87955C0.172777 2.04387 0.273404 2.19277 0.400069 2.31751L15.9761 17.582C16.2496 17.85 16.6165 18 16.9985 18C17.3805 18 17.7474 17.85 18.0209 17.582L33.5969 2.32046C33.7245 2.19562 33.8259 2.04636 33.8951 1.88149C33.9643 1.71662 34 1.53949 34 1.36053C34 1.18158 33.9643 1.00444 33.8951 0.839576C33.8259 0.674708 33.7245 0.52545 33.5969 0.400613C33.3353 0.143783 32.9842 0 32.6185 0C32.2528 0 31.9016 0.143783 31.64 0.400613V0.403558Z" fill="#193F19"/>
</svg>
