<svg width="35" height="25" viewBox="0 0 35 25" fill="none" xmlns="http://www.w3.org/2000/svg">
<path d="M32.5 0H2.5C1.83696 0 1.20107 0.263392 0.732233 0.732233C0.263392 1.20107 0 1.83696 0 2.5V22.5C0 23.163 0.263392 23.7989 0.732233 24.2678C1.20107 24.7366 1.83696 25 2.5 25H32.5C33.163 25 33.7989 24.7366 34.2678 24.2678C34.7366 23.7989 35 23.163 35 22.5V2.5C35 1.83696 34.7366 1.20107 34.2678 0.732233C33.7989 0.263392 33.163 0 32.5 0ZM29.75 2.5L17.5 10.975L5.25 2.5H29.75ZM2.5 22.5V3.6375L16.7875 13.525C16.9967 13.6702 17.2453 13.7479 17.5 13.7479C17.7547 13.7479 18.0033 13.6702 18.2125 13.525L32.5 3.6375V22.5H2.5Z" fill="white"/>
</svg>
