<svg width="42" height="31" viewBox="0 0 42 31" fill="none" xmlns="http://www.w3.org/2000/svg">
<path d="M39 0.220154H3C2.20435 0.220154 1.44129 0.536224 0.87868 1.09883C0.31607 1.66144 0 2.4245 0 3.22015V27.2202C0 28.0158 0.31607 28.7789 0.87868 29.3415C1.44129 29.9041 2.20435 30.2202 3 30.2202H39C39.7957 30.2202 40.5587 29.9041 41.1213 29.3415C41.6839 28.7789 42 28.0158 42 27.2202V3.22015C42 2.4245 41.6839 1.66144 41.1213 1.09883C40.5587 0.536224 39.7957 0.220154 39 0.220154ZM35.7 3.22015L21 13.3902L6.3 3.22015H35.7ZM3 27.2202V4.58515L20.145 16.4502C20.3961 16.6243 20.6944 16.7177 21 16.7177C21.3056 16.7177 21.6039 16.6243 21.855 16.4502L39 4.58515V27.2202H3Z" fill="#957D5F"/>
</svg>
