<svg width="31" height="22" viewBox="0 0 31 22" fill="none" xmlns="http://www.w3.org/2000/svg">
<path d="M28.7857 0H2.21429C1.62702 0 1.06381 0.231785 0.648549 0.644365C0.23329 1.05694 0 1.61652 0 2.2V19.8C0 20.3835 0.23329 20.9431 0.648549 21.3556C1.06381 21.7682 1.62702 22 2.21429 22H28.7857C29.373 22 29.9362 21.7682 30.3514 21.3556C30.7667 20.9431 31 20.3835 31 19.8V2.2C31 1.61652 30.7667 1.05694 30.3514 0.644365C29.9362 0.231785 29.373 0 28.7857 0ZM26.35 2.2L15.5 9.658L4.65 2.2H26.35ZM2.21429 19.8V3.201L14.8689 11.902C15.0543 12.0297 15.2744 12.0982 15.5 12.0982C15.7256 12.0982 15.9457 12.0297 16.1311 11.902L28.7857 3.201V19.8H2.21429Z" fill="#193F19"/>
</svg>
