<svg width="7" height="12" viewBox="0 0 7 12" fill="none" xmlns="http://www.w3.org/2000/svg">
<path d="M0.15582 0.141213C0.0559252 0.233533 0 0.357464 0 0.486516C0 0.615568 0.0559252 0.7395 0.15582 0.83182L5.7368 6L0.15582 11.1671C0.0559252 11.2595 0 11.3834 0 11.5125C0 11.6415 0.0559252 11.7654 0.15582 11.8578C0.204376 11.9028 0.26243 11.9386 0.326556 11.963C0.390682 11.9874 0.45958 12 0.529183 12C0.598787 12 0.667685 11.9874 0.731811 11.963C0.795937 11.9386 0.853991 11.9028 0.902547 11.8578L6.83742 6.36081C6.94166 6.26428 7 6.13481 7 6C7 5.8652 6.94166 5.73572 6.83742 5.63919L0.902547 0.142247C0.853991 0.0972295 0.795937 0.0614494 0.731811 0.0370182C0.667685 0.012587 0.598787 0 0.529183 0C0.45958 0 0.390682 0.012587 0.326556 0.0370182C0.26243 0.0614494 0.204376 0.0972295 0.15582 0.142247V0.141213Z" fill="#EDEDED"/>
</svg>
